<svg width="38" height="56" viewBox="0 0 38 56" fill="none" xmlns="http://www.w3.org/2000/svg">
<path d="M23.9827 6.15763H12.2643C13.5258 3.81823 15.6564 2.00087 17.5868 0.15604C17.7831 -0.0519941 18.1835 -0.0480689 18.3958 0.144265C20.3262 1.91059 22.7051 3.77505 23.9827 6.1537V6.15763Z" fill="url(#paint0_linear_14_1274)"/>
<path d="M33.9228 47.5289C33.8787 47.8272 33.7746 48.1099 33.6705 48.3885C25.2441 48.9145 13.4296 49.3502 3.36127 48.6162C3.24112 48.3336 3.14901 48.0549 3.12498 47.7448C3.09695 47.2659 3.15301 46.8459 3.33724 46.3985C3.69368 45.5271 4.49065 44.9265 5.19952 44.3456C6.21277 43.5174 7.44628 43.1053 8.55564 42.4341C9.93734 41.6098 10.4179 40.6128 9.92532 39.1369C9.80517 38.9289 9.63297 38.5638 9.98139 38.3911C11.5233 37.6414 12.5485 35.9497 13.2494 34.2736H23.5821C24.303 35.8947 25.3322 37.4962 26.8701 38.2027C27.2185 38.3676 27.0824 38.6149 26.9502 38.9485C26.4496 40.5539 27.1304 41.598 28.6643 42.3595C29.7296 42.8894 30.843 43.3133 31.7881 44.0473C32.5491 44.6361 33.4942 45.3112 33.7986 46.2729C33.9268 46.685 33.9909 47.1011 33.9228 47.525V47.5289Z" fill="url(#paint1_linear_14_1274)"/>
<path d="M22.3606 25.2026C22.0002 25.8816 21.852 26.6667 21.836 27.4831H14.7673C14.7272 26.6941 14.559 25.9484 14.1946 25.2968C11.6715 25.1201 9.88129 22.6316 10.3098 20.2176C10.7103 17.992 12.4204 16.7635 14.6071 16.6418C14.6792 15.9078 14.0264 15.4171 13.4817 14.9068C12.925 14.3809 12.4324 13.8157 12.092 13.1366C11.8557 12.6656 11.6635 12.1749 11.5233 11.6804H24.7075C24.5593 12.2377 24.343 12.7794 24.0387 13.2936C23.6542 13.9334 23.2096 14.4476 22.677 14.9736C22.1764 15.4524 21.6758 15.9117 21.7599 16.5672C24.0427 16.6457 25.8088 17.9489 26.1693 20.2726C26.5297 22.612 24.7876 24.9867 22.3686 25.2065L22.3606 25.2026Z" fill="url(#paint2_linear_14_1274)"/>
<path d="M36.9345 53.3657C36.2697 55.0928 33.3461 55.3244 31.7962 55.4892C27.3988 55.9681 9.74915 56.2114 5.27166 55.764C3.78984 55.6109 0.810183 55.4343 0.23748 53.6954C-0.179031 52.4276 -0.0909202 50.7241 1.0665 49.8252C1.77537 49.2717 2.66046 48.9695 3.54554 49.0637C3.48547 48.9146 3.42139 48.7654 3.36132 48.6162C13.4297 49.3502 25.2482 48.9146 33.6705 48.3886C33.6305 48.4985 33.5904 48.6045 33.5504 48.7144C36.0054 48.3101 37.8196 51.0616 36.9345 53.3618V53.3657Z" fill="#3F4C6B"/>
<path d="M23.5821 34.2776H13.2494C13.5297 33.5946 13.762 32.9077 13.9462 32.2914C14.3628 30.9176 14.8473 29.1238 14.7672 27.4831H21.8359C21.8079 29.1042 22.3205 30.8627 22.7691 32.1933C22.9893 32.8449 23.2537 33.5632 23.5821 34.2815V34.2776Z" fill="#3F4C6B"/>
<path d="M24.7035 11.6804H11.5193C11.1909 10.5264 11.1429 9.31347 11.4673 8.132C11.6595 7.42939 11.9278 6.77781 12.2602 6.16156H23.9786C24.3431 6.83669 24.6154 7.54715 24.7676 8.31255C24.9919 9.4273 24.9919 10.5852 24.6995 11.6804H24.7035Z" fill="#3F4C6B"/>
<defs>
<linearGradient id="paint0_linear_14_1274" x1="5.50799" y1="-1.73982" x2="26.3109" y2="9.03099" gradientUnits="userSpaceOnUse">
<stop stop-color="#83A4D4"/>
<stop offset="1" stop-color="#B6FBFF"/>
</linearGradient>
<linearGradient id="paint1_linear_14_1274" x1="8.17168" y1="40.5968" x2="33.7166" y2="49.3301" gradientUnits="userSpaceOnUse">
<stop stop-color="#83A4D4"/>
<stop offset="1" stop-color="#B6FBFF"/>
</linearGradient>
<linearGradient id="paint2_linear_14_1274" x1="11.9558" y1="-0.409169" x2="27.6505" y2="50.1013" gradientUnits="userSpaceOnUse">
<stop stop-color="#83A4D4"/>
<stop offset="1" stop-color="#B6FBFF"/>
</linearGradient>
</defs>
</svg>
