<svg width="38" height="58" viewBox="0 0 38 58" fill="none" xmlns="http://www.w3.org/2000/svg">
<path d="M35.6944 47.6241C35.56 47.71 35.4219 47.7884 35.28 47.8556C35.3509 47.9228 35.4181 47.9826 35.4853 48.0572C26.5575 48.6771 12.111 49.3081 1.43944 47.9452C0.177377 47.0939 -0.0989325 45.3053 0.0280208 43.9088C0.278194 41.2018 2.40279 39.458 4.84478 39.0286C3.35868 37.4044 1.94353 35.6531 1.24528 33.5659H35.5003C34.7087 35.5075 33.5064 37.1467 32.1659 38.715C34.6153 39.0883 36.7922 40.7798 37.1059 43.4906C37.2702 44.9207 37.02 46.769 35.6944 47.6278V47.6241Z" fill="url(#paint0_linear_14_1296)"/>
<path d="M36.4338 52.6537C35.3883 55.8537 32.4684 55.8724 29.6605 55.6931C28.9772 57.7094 8.45178 57.8775 7.7498 55.9396C5.04644 56.1748 1.7718 56.2681 0.912993 53.0458C0.390244 51.0967 0.815919 49.3492 1.9473 48.2216C1.80541 48.1543 1.67098 48.0871 1.53283 48.005C1.50295 47.9863 1.47308 47.9639 1.43948 47.9378C12.111 49.3007 26.5576 48.6696 35.4854 48.0498C36.572 49.1588 37.035 50.8017 36.4338 52.65V52.6537Z" fill="#3F4C6B"/>
<path d="M35.7132 32.9983C35.6459 33.1888 35.575 33.3792 35.4966 33.5622H1.24158C1.22291 33.5062 1.20051 33.4427 1.18184 33.3829C0.494798 31.1949 0.263301 28.5624 0.756179 26.2138H36.0119C36.4637 28.4542 36.4413 30.9223 35.7132 32.9983Z" fill="#3F4C6B"/>
<path d="M35.4667 24.2236C33.6557 19.0708 27.2409 15.1726 21.8304 14.9261C21.7931 14.0039 21.8192 13.0853 21.8005 12.163C23.3538 12.1444 24.9034 12.2228 26.453 12.1332C26.6733 12.1182 26.8525 12.051 27.0019 11.9502C27.0131 11.9465 27.0168 11.939 27.028 11.9353C27.043 11.9203 27.0691 11.9091 27.084 11.8942C27.2222 11.8009 27.3342 11.6739 27.4089 11.5133C27.4686 11.3864 27.506 11.2296 27.506 11.0615C27.5172 9.5269 27.5881 7.99599 27.5769 6.46135C27.5769 6.43521 27.5769 6.40908 27.5732 6.38294C27.5582 6.06556 27.4126 5.83405 27.2147 5.67349C27.0467 5.51293 26.8115 5.41212 26.5053 5.41212C25.0528 5.42705 23.5965 5.44199 22.1478 5.46439C22.1739 4.00443 22.2561 2.54074 22.2449 1.08077C22.2411 0.576692 21.9536 0.266771 21.5952 0.136084C21.584 0.13235 21.5802 0.124883 21.5765 0.124883C21.5728 0.124883 21.5653 0.124885 21.5653 0.121151C21.4421 0.0763439 21.3151 0.0427386 21.1695 0.0278029C20.4115 -0.0431416 19.6423 0.0427413 18.8769 0.0539431C18.5109 0.0651449 17.6447 0.0688742 17.2825 0.0726081C16.517 0.0726081 15.7478 0.00540028 14.9861 0.0987483C14.8517 0.113684 14.721 0.151025 14.6015 0.199566C14.5978 0.199566 14.5903 0.199564 14.5866 0.203298C14.5829 0.203298 14.5754 0.20703 14.5717 0.20703C14.2132 0.345185 13.9294 0.662571 13.9406 1.16665C13.9668 2.62661 14.0788 4.08284 14.1348 5.54654C12.6786 5.56521 11.2261 5.58388 9.76983 5.59881C9.46738 5.59881 9.23588 5.71083 9.07159 5.87513C8.92223 5.99834 8.81021 6.16263 8.7542 6.3792C8.73553 6.47255 8.72434 6.56963 8.72434 6.67045C8.75047 8.20509 8.85876 9.73227 8.89983 11.2669C8.90357 11.3528 8.91477 11.4349 8.93717 11.5096C8.99692 11.771 9.14627 11.9614 9.34043 12.0884C9.3591 12.1033 9.3815 12.1145 9.39644 12.1257C9.40764 12.1369 9.41511 12.1406 9.42258 12.1444C9.57194 12.2377 9.7549 12.3049 9.97147 12.3124C11.5248 12.3684 13.0744 12.2564 14.6277 12.2415C14.6277 13.16 14.6725 14.0823 14.6575 15.0008C9.09399 15.3556 3.25415 19.4405 1.23783 24.6045C1.0362 25.116 0.879373 25.6574 0.759888 26.2101H36.0156C35.8774 25.523 35.6907 24.8509 35.4704 24.2199L35.4667 24.2236Z" fill="url(#paint1_linear_14_1296)"/>
<defs>
<linearGradient id="paint0_linear_14_1296" x1="0.726265" y1="4.98646" x2="22.9132" y2="50.2341" gradientUnits="userSpaceOnUse">
<stop stop-color="#83A4D4"/>
<stop offset="1" stop-color="#B6FBFF"/>
</linearGradient>
<linearGradient id="paint1_linear_14_1296" x1="7.12622" y1="1.84996" x2="29.3132" y2="47.0976" gradientUnits="userSpaceOnUse">
<stop stop-color="#83A4D4"/>
<stop offset="1" stop-color="#B6FBFF"/>
</linearGradient>
</defs>
</svg>
