<svg width="82" height="126" viewBox="0 0 82 126" fill="none" xmlns="http://www.w3.org/2000/svg">
<path d="M78.4841 104.339C78.1907 104.526 77.8892 104.698 77.5795 104.844C77.7343 104.991 77.881 105.121 78.0277 105.284C58.5432 106.637 27.0142 108.014 3.72398 105.04C0.969577 103.182 0.366542 99.2784 0.643613 96.2306C1.1896 90.3225 5.82645 86.5169 11.156 85.5798C7.91263 82.0349 4.82412 78.2129 3.30024 73.6576H78.0603C76.3327 77.8951 73.7087 81.4726 70.7831 84.8952C76.129 85.7101 80.8799 89.4017 81.5644 95.3179C81.923 98.4391 81.377 102.473 78.4841 104.347V104.339Z" fill="url(#paint0_linear_14_990)"/>
<path d="M80.0976 115.316C77.8158 122.3 71.4432 122.34 65.3151 121.949C63.8238 126.35 19.028 126.717 17.496 122.487C11.596 123.001 4.44925 123.204 2.57495 116.172C1.43407 111.918 2.36309 108.104 4.83228 105.643C4.52261 105.496 4.22923 105.35 3.92771 105.17C3.86252 105.13 3.79732 105.081 3.72398 105.024C27.0142 107.998 58.5432 106.621 78.0277 105.268C80.3991 107.688 81.4096 111.274 80.0976 115.308V115.316Z" fill="#3F4C6B"/>
<path d="M78.5248 72.4189C78.3781 72.8345 78.2233 73.2501 78.0522 73.6494H3.29207C3.25132 73.5271 3.20243 73.3886 3.16168 73.2582C1.66224 68.4828 1.15701 62.7377 2.23269 57.6119H79.1767C80.1628 62.5014 80.1139 67.8879 78.5248 72.4189Z" fill="#3F4C6B"/>
<path d="M77.9869 53.2685C74.0346 42.0227 60.0344 33.515 48.2264 32.9771C48.1449 30.9643 48.2019 28.9596 48.1611 26.9468C51.5512 26.906 54.9331 27.0772 58.315 26.8816C58.7958 26.849 59.1869 26.7023 59.5129 26.4823C59.5373 26.4741 59.5455 26.4578 59.5699 26.4497C59.6025 26.4171 59.6596 26.3927 59.6922 26.3601C59.9937 26.1563 60.2382 25.8793 60.4011 25.5288C60.5315 25.2518 60.613 24.9095 60.613 24.5428C60.6375 21.1935 60.7923 17.8524 60.7678 14.5031C60.7678 14.446 60.7679 14.389 60.7597 14.332C60.7271 13.6393 60.4093 13.134 59.9774 12.7836C59.6107 12.4332 59.0973 12.2132 58.429 12.2132C55.259 12.2458 52.0809 12.2784 48.919 12.3273C48.9761 9.14095 49.1553 5.9465 49.1309 2.7602C49.1227 1.66006 48.4953 0.983676 47.713 0.698457C47.6885 0.690307 47.6804 0.67401 47.6722 0.67401C47.6641 0.67401 47.6477 0.674015 47.6477 0.665866C47.3788 0.568076 47.1018 0.494734 46.7839 0.462137C45.1297 0.307304 43.451 0.49474 41.7804 0.519187C40.9818 0.543635 39.0912 0.551774 38.3007 0.559923C36.6302 0.559923 34.9514 0.413245 33.289 0.616973C32.9956 0.649569 32.7104 0.731064 32.4496 0.837003C32.4415 0.837003 32.4252 0.836998 32.4171 0.845147C32.4089 0.845147 32.3926 0.853292 32.3845 0.853292C31.6021 1.15481 30.9828 1.84749 31.0072 2.94762C31.0643 6.13393 31.3088 9.31209 31.431 12.5065C28.2528 12.5473 25.0828 12.588 21.9047 12.6206C21.2446 12.6206 20.7393 12.8651 20.3808 13.2237C20.0548 13.4926 19.8103 13.8511 19.6881 14.3238C19.6474 14.5275 19.6229 14.7394 19.6229 14.9594C19.68 18.3087 19.9163 21.6417 20.0059 24.991C20.0141 25.1784 20.0385 25.3577 20.0874 25.5207C20.2178 26.0911 20.5438 26.5067 20.9675 26.7838C21.0083 26.8164 21.0572 26.8408 21.0897 26.8653C21.1142 26.8897 21.1305 26.8979 21.1468 26.906C21.4728 27.1098 21.8721 27.2565 22.3447 27.2728C25.7348 27.395 29.1166 27.1505 32.5067 27.1179C32.5067 29.1226 32.6045 31.1354 32.5719 33.1401C20.4297 33.9143 7.68446 42.8294 3.28393 54.0997C2.84388 55.2161 2.50162 56.3977 2.24084 57.6038H79.1849C78.8834 56.1044 78.4759 54.6375 77.9951 53.2603L77.9869 53.2685Z" fill="url(#paint1_linear_14_990)"/>
<defs>
<linearGradient id="paint0_linear_14_990" x1="13.8717" y1="87.8879" x2="78.573" y2="113.735" gradientUnits="userSpaceOnUse">
<stop stop-color="#83A4D4"/>
<stop offset="1" stop-color="#B6FBFF"/>
</linearGradient>
<linearGradient id="paint1_linear_14_990" x1="14.8523" y1="24.9538" x2="82.7733" y2="39.8781" gradientUnits="userSpaceOnUse">
<stop stop-color="#83A4D4"/>
<stop offset="1" stop-color="#B6FBFF"/>
</linearGradient>
</defs>
</svg>
