<svg width="43" height="57" viewBox="0 0 43 57" fill="none" xmlns="http://www.w3.org/2000/svg">
<path d="M41.4711 54.7018C39.6285 55.8372 36.9028 55.8143 34.8232 55.9136C31.2985 56.0819 13.9274 56.2615 10.3989 56.1851C8.28872 56.143 5.77328 56.1468 3.83509 55.1835C2.82586 54.6789 2.73793 53.5358 2.96348 52.4998C3.27313 51.0816 4.36647 49.2925 6.15939 49.6862C6.44993 49.7474 6.67547 49.6862 6.83221 49.2925C6.8475 49.2351 6.86279 49.1778 6.87808 49.1243C17.3871 49.9844 30.1478 49.3804 38.237 48.8146C38.2676 49.2542 38.5849 49.3192 38.9404 49.3192C41.1768 49.2925 41.5858 50.5961 42.0942 51.8385C42.4918 52.8057 42.3924 54.1284 41.4635 54.698L41.4711 54.7018Z" fill="#3F4C6B"/>
<path d="M27.3954 10.372H4.61121C6.36972 8.09354 8.58697 6.08272 11.1598 5.0582C11.5229 4.93586 11.5573 4.58416 11.5229 4.40831L10.2155 0.0961287C13.2012 -0.679911 15.4872 3.44113 17.6127 5.32962C17.8192 5.52458 18.0485 5.494 18.1479 5.46724C20.3308 4.9588 22.3684 6.19358 24.0428 7.4666C25.2126 8.35732 26.3097 9.36273 27.3993 10.3681L27.3954 10.372Z" fill="url(#paint0_linear_14_1260)"/>
<path d="M33.9554 24.7803C33.9554 24.7803 33.9248 24.7956 33.9095 24.8071C31.3367 26.3515 28.9054 22.5669 27.2348 21.1639C27.0207 20.9995 26.8525 20.9919 26.6996 21.0263C24.7882 21.4888 22.59 22.0087 20.6557 21.4047C20.3498 21.3053 20.0364 21.5309 19.9676 21.9399C19.8873 23.2206 20.3804 24.398 20.9347 25.5258C21.5961 26.902 22.3377 28.282 23.1405 29.5742C23.6757 30.4343 24.2797 31.1951 24.9449 31.8985H1.71341C1.62549 31.6997 1.54521 31.5009 1.46493 31.2983C0.41364 28.5688 0.0734086 25.3232 0.0045972 22.4216C-0.0374542 20.751 0.21103 19.2028 0.66595 17.7233C0.887675 17.0161 1.1591 16.3165 1.46493 15.6246H33.1984C33.5081 15.8922 33.8178 16.1598 34.1274 16.4235C34.1733 16.4618 34.2153 16.4962 34.265 16.5344C34.6894 16.8823 35.0487 17.2837 35.3316 17.7271C36.834 20.0209 36.4135 23.2818 33.9554 24.7841V24.7803Z" fill="url(#paint1_linear_14_1260)"/>
<path d="M38.2446 48.6005C38.2408 48.6808 38.2331 48.7534 38.2446 48.8146C30.1555 49.3804 17.3948 49.9844 6.88573 49.1242C7.09216 48.3367 6.84368 48.3329 6.70605 47.4231C6.49962 46.0889 6.28172 44.7662 5.97589 43.455C5.53626 41.5168 5.10046 39.5327 4.41999 37.6442C4.36265 37.4798 4.29765 37.3116 4.23267 37.1511H31.4246C35.3775 40.1061 38.8333 43.1147 38.2446 48.6005Z" fill="url(#paint2_linear_14_1260)"/>
<path d="M31.4246 37.1472H4.23264C3.51394 35.3505 2.47413 33.6837 1.71338 31.8985H24.9449C26.2982 33.332 27.8808 34.5095 29.4979 35.7137C30.144 36.1954 30.79 36.6694 31.4246 37.1472Z" fill="#3F4C6B"/>
<path d="M33.1985 15.6246H1.46497C1.78609 14.9097 2.14926 14.2063 2.54683 13.4991C2.7418 13.1588 2.94059 12.8148 3.15467 12.4745C3.5943 11.7597 4.0798 11.0563 4.60735 10.3758H27.3916C27.8733 10.8154 28.3511 11.2665 28.8366 11.7023C29.1195 11.9585 29.4024 12.2184 29.6815 12.4745C30.8436 13.5335 32.0058 14.5962 33.1947 15.6246H33.1985Z" fill="#3F4C6B"/>
<defs>
<linearGradient id="paint0_linear_14_1260" x1="3.74342" y1="2.81036" x2="32.736" y2="18.3541" gradientUnits="userSpaceOnUse">
<stop stop-color="#83A4D4"/>
<stop offset="1" stop-color="#B6FBFF"/>
</linearGradient>
<linearGradient id="paint1_linear_14_1260" x1="7.49357" y1="-0.297622" x2="28.2173" y2="46.7273" gradientUnits="userSpaceOnUse">
<stop stop-color="#83A4D4"/>
<stop offset="1" stop-color="#B6FBFF"/>
</linearGradient>
<linearGradient id="paint2_linear_14_1260" x1="2.58501" y1="1.86228" x2="23.3087" y2="48.8872" gradientUnits="userSpaceOnUse">
<stop stop-color="#83A4D4"/>
<stop offset="1" stop-color="#B6FBFF"/>
</linearGradient>
</defs>
</svg>
