<svg width="35" height="47" viewBox="0 0 35 47" fill="none" xmlns="http://www.w3.org/2000/svg">
<path d="M4.35992 45.9698C8.65419 46.461 25.7682 46.2254 30.0592 45.6811C31.3402 45.5185 33.7229 45.253 34.1942 43.7397C34.828 41.6955 33.4242 39.3359 31.3169 39.5616C31.3368 39.4886 31.3634 39.4189 31.3899 39.3459C24.776 39.7541 12.7958 40.305 2.89641 39.7209C2.91964 39.7806 2.94287 39.8437 2.96279 39.9034C2.28247 39.8669 1.58225 40.076 1.04795 40.5041C-0.057143 41.3835 -0.16002 42.7408 0.155247 44.0318C0.540205 45.6147 3.10217 45.8205 4.36323 45.9665L4.35992 45.9698Z" fill="#3F4C6B"/>
<path d="M25.8213 5.76165H7.79797C9.13205 2.15101 12.6564 0.04702 16.6885 0.000559552C20.8036 -0.0392637 24.5138 2.04814 25.818 5.76165H25.8213Z" fill="url(#paint0_linear_14_1315)"/>
<path d="M7.37648 10.7761C7.34993 10.6267 7.3267 10.4741 7.30347 10.3214H26.2593C26.2427 10.4774 26.2195 10.6267 26.1896 10.7761C25.7018 13.5438 24.0525 15.963 21.1885 16.9321C20.8832 18.6312 20.923 20.7053 21.4075 22.6235H12.5104C12.9252 20.7219 12.9119 18.6942 12.5734 17.0283C9.65967 16.1124 7.87758 13.6135 7.37316 10.7761H7.37648Z" fill="url(#paint1_linear_14_1315)"/>
<path d="M32.3689 36.7043C32.3059 37.6667 31.6952 38.4665 31.3899 39.3525C24.776 39.7574 12.7991 40.3083 2.89974 39.7276C2.54797 38.7486 1.80128 37.8758 1.82119 36.7873C1.84774 35.493 2.56788 34.3946 3.58005 33.6246C4.50926 32.9145 5.60772 32.5461 6.6033 31.9421C7.80795 31.2087 8.2626 30.2065 8.28583 28.8127C8.28251 28.5936 8.30906 28.3978 8.56459 28.2784C9.1719 28.0062 9.70951 27.6312 10.1741 27.1832H24.0027C24.4341 27.5516 24.922 27.8569 25.4662 28.0892C25.7251 28.1987 25.7384 28.3613 25.7549 28.6135C25.8147 30.0804 26.3623 31.1257 27.693 31.8027C28.6952 32.3171 29.7904 32.6954 30.6831 33.4023C31.7118 34.2187 32.4685 35.347 32.3789 36.701L32.3689 36.7043Z" fill="url(#paint2_linear_14_1315)"/>
<path d="M23.9961 27.1832H10.1675C11.3721 26.0316 12.1221 24.3856 12.5104 22.6268H21.4076C21.8556 24.4188 22.6919 26.0781 23.9961 27.1832Z" fill="#3F4C6B"/>
<path d="M26.2561 10.3214H7.30354C7.19071 9.43203 7.19403 8.51278 7.33009 7.60016C7.37655 7.28158 7.4396 6.96963 7.51593 6.67427C7.59226 6.35901 7.6885 6.05369 7.79801 5.76166H25.818C25.9275 6.05369 26.0138 6.35901 26.0868 6.67427C26.1399 6.90658 26.1864 7.1422 26.2229 7.38445C26.3689 8.37008 26.3822 9.36234 26.2561 10.3181V10.3214Z" fill="#3F4C6B"/>
<defs>
<linearGradient id="paint0_linear_14_1315" x1="3.91521" y1="-2.87003" x2="27.5237" y2="10.8789" gradientUnits="userSpaceOnUse">
<stop stop-color="#83A4D4"/>
<stop offset="1" stop-color="#B6FBFF"/>
</linearGradient>
<linearGradient id="paint1_linear_14_1315" x1="11.7471" y1="-2.64105" x2="27.8323" y2="39.9134" gradientUnits="userSpaceOnUse">
<stop stop-color="#83A4D4"/>
<stop offset="1" stop-color="#B6FBFF"/>
</linearGradient>
<linearGradient id="paint2_linear_14_1315" x1="3.45063" y1="0.495013" x2="19.5359" y2="43.0495" gradientUnits="userSpaceOnUse">
<stop stop-color="#83A4D4"/>
<stop offset="1" stop-color="#B6FBFF"/>
</linearGradient>
</defs>
</svg>
