<svg width="44" height="58" viewBox="0 0 44 58" fill="none" xmlns="http://www.w3.org/2000/svg">
<path d="M41.5217 46.7135C41.3821 46.8038 41.2384 46.8695 41.0989 46.9433C41.2508 47.0829 41.3903 47.2307 41.5217 47.3866C32.4057 48.0967 15.0562 49.0777 2.20515 47.5836C2.27082 47.5098 2.33649 47.4359 2.40217 47.3702C2.25441 47.3045 2.11485 47.2389 1.97941 47.1568C0.321211 46.1307 -0.0563997 43.8691 0.111883 42.096C0.456656 38.402 3.61708 36.161 7.01556 35.9763C6.95399 35.3113 6.83907 34.6177 6.6831 33.9076H36.4445C36.3377 34.5069 36.2639 35.0856 36.2228 35.6438C39.6295 35.7546 42.8392 37.9259 43.262 41.6117C43.4713 43.3807 43.1429 45.6545 41.5135 46.7135H41.5217Z" fill="url(#paint0_linear_14_1288)"/>
<path d="M42.4534 52.8003C41.1729 56.716 37.6225 56.7693 34.183 56.56C34.0024 57.1018 9.77383 57.4999 9.53988 56.835C6.22348 57.1182 2.23396 57.1962 1.18732 53.26C0.588071 51.0149 1.01083 48.9832 2.20933 47.5836C15.0604 49.0776 32.4099 48.0966 41.5258 47.3866C42.6874 48.7451 43.1512 50.666 42.4575 52.7962L42.4534 52.8003Z" fill="#3F4C6B"/>
<path d="M39.297 26.6263C37.8522 28.736 36.8836 31.4285 36.4485 33.9035H6.68716C6.14126 31.3792 5.03717 28.6662 3.46106 26.6263H39.2929H39.297Z" fill="#3F4C6B"/>
<path d="M42.4903 23.5233C42.4164 23.589 42.3385 23.6465 42.2482 23.6998C41.1153 24.377 40.1221 25.4073 39.293 26.6304H3.46112C2.66486 25.6002 1.74957 24.7423 0.72756 24.1595C0.637262 24.1144 0.559279 24.0569 0.485399 23.9953C-0.0153433 23.6136 -0.0933306 23.0267 0.0913696 22.53C0.214503 22.0662 0.563378 21.6845 1.1339 21.5983C1.18315 21.5942 1.24062 21.586 1.29808 21.5819C1.31039 21.5819 1.3186 21.5819 1.33091 21.5778C3.79358 20.9416 5.70626 21.1509 7.73796 20.9416H35.4471C35.4471 20.9416 35.4512 20.9703 35.4512 20.9827C37.4911 21.1468 39.5392 21.1509 41.5832 21.1304C41.5997 21.1304 41.612 21.1345 41.6243 21.1345C41.6735 21.1345 41.731 21.1386 41.7885 21.1468C42.359 21.2125 42.712 21.5901 42.8474 22.0498C43.0444 22.5465 42.9787 23.1334 42.4862 23.5274L42.4903 23.5233Z" fill="url(#paint1_linear_14_1288)"/>
<path d="M29.2002 4.0313H13.4843C14.7854 1.16229 18.0443 0.0335707 21.2252 0.000735076C24.4719 -0.0321005 28.0468 1.03095 29.2002 4.0313Z" fill="#3F4C6B"/>
<path d="M35.4512 20.9416H7.74207C8.329 16.5047 10.8204 13.3607 14.9741 12.1868C14.3502 11.4275 13.829 10.5738 13.4678 9.66672C13.32 9.30142 13.1969 8.92381 13.1066 8.53799H29.4135C29.3356 8.91971 29.2165 9.29732 29.0811 9.66672C28.7609 10.5163 28.3095 11.3126 27.7471 12.0391C31.9173 13.1145 34.7575 16.5376 35.4512 20.9416Z" fill="#3F4C6B"/>
<path d="M29.4136 8.53798H13.1066C12.8522 7.48313 12.8193 6.37493 13.0738 5.25031C13.1764 4.81114 13.3118 4.4048 13.4842 4.02719H29.2002C29.3233 4.35555 29.4259 4.69621 29.4875 5.06972C29.7009 6.27643 29.6681 7.44209 29.4136 8.53798Z" fill="url(#paint2_linear_14_1288)"/>
<defs>
<linearGradient id="paint0_linear_14_1288" x1="0.292479" y1="8.8787" x2="27.5706" y2="51.881" gradientUnits="userSpaceOnUse">
<stop stop-color="#83A4D4"/>
<stop offset="1" stop-color="#B6FBFF"/>
</linearGradient>
<linearGradient id="paint1_linear_14_1288" x1="9.12937" y1="3.27609" x2="36.4034" y2="46.2743" gradientUnits="userSpaceOnUse">
<stop stop-color="#83A4D4"/>
<stop offset="1" stop-color="#B6FBFF"/>
</linearGradient>
<linearGradient id="paint2_linear_14_1288" x1="7.11824" y1="-1.73545" x2="29.5819" y2="11.0992" gradientUnits="userSpaceOnUse">
<stop stop-color="#83A4D4"/>
<stop offset="1" stop-color="#B6FBFF"/>
</linearGradient>
</defs>
</svg>
