<svg width="90" height="79" viewBox="0 0 90 79" fill="none" xmlns="http://www.w3.org/2000/svg">
<path d="M4.83105 63.8098H18.0487V65.0181H7.94063V70.0837H16.8716V71.292H7.94063V77.4379H18.048V78.6463H4.83105V63.8105V63.8098Z" fill="#F2F2F2"/>
<path d="M18.8469 68.2603H21.6415L24.4572 75.2119L27.2308 68.0487H28.8491L31.7489 75.4242L34.754 68.261H36.3933L32.0435 78.8576H30.4253L27.5254 71.6944L24.7939 78.8576H23.2598L18.8469 68.261V68.2603Z" fill="#F2F2F2"/>
<path d="M38.8934 78.0305C38.1646 77.4793 37.8005 76.6884 37.8005 75.6569C37.8005 74.6254 38.2382 73.7566 39.1137 73.1772C39.9891 72.5978 41.2531 72.3084 42.9065 72.3084H45.7642V71.5875C45.7642 70.7682 45.5327 70.1428 45.0705 69.712C44.6082 69.2811 43.9425 69.0653 43.0741 69.0653C42.2057 69.0653 41.5646 69.274 41.0672 69.6907C40.5699 70.1074 40.2648 70.7116 40.1532 71.5026H38.0937C38.2481 70.3869 38.7728 69.5316 39.6699 68.938C40.5664 68.3444 41.7785 68.048 43.3056 68.048C44.9723 68.048 46.251 68.3734 47.1405 69.0229C48.03 69.673 48.4747 70.6055 48.4747 71.8202V75.2112C48.4747 76.4549 48.5799 77.5989 48.7896 78.6446H46.2468C46.1065 78.1076 46.0083 77.5918 45.9529 77.0973C45.5468 77.705 45.0144 78.15 44.3557 78.4323C43.697 78.7146 42.9689 78.8561 42.1699 78.8561C40.713 78.8561 39.6201 78.5809 38.892 78.0298L38.8934 78.0305ZM44.9561 77.0874C45.4956 76.5575 45.7649 75.8691 45.7649 75.0209V73.3463H43.6634C42.6266 73.3463 41.8424 73.5408 41.3099 73.9292C40.7775 74.3183 40.5117 74.8864 40.5117 75.6357C40.5117 76.3849 40.7039 76.9282 41.0897 77.3103C41.4748 77.6916 42.0388 77.8826 42.7816 77.8826C43.6921 77.8826 44.4167 77.6173 44.9568 77.0881L44.9561 77.0874Z" fill="#F2F2F2"/>
<path d="M51.5435 68.2602H54.2539V70.019C54.5759 69.412 55.0767 68.9309 55.7564 68.5779C56.4355 68.2248 57.2028 68.048 58.0572 68.048C59.43 68.048 60.5088 68.401 61.2931 69.1078C62.0773 69.8145 62.4701 70.7894 62.4701 72.0325V78.6446H59.7597V71.8202C59.7597 70.9302 59.5492 70.2489 59.1291 69.7749C58.7089 69.3016 58.0993 69.0646 57.3011 69.0646C56.3625 69.0646 55.6197 69.3971 55.0739 70.0607C54.5275 70.7251 54.2546 71.6221 54.2546 72.752V78.6439H51.5442V68.2588L51.5435 68.2602Z" fill="#F2F2F2"/>
<path d="M64.9604 78.4861C64.7008 78.2392 64.5718 77.9244 64.5718 77.5431C64.5718 77.1617 64.7008 76.8476 64.9604 76.6C65.2192 76.3531 65.5524 76.2293 65.9586 76.2293C66.3647 76.2293 66.6762 76.3531 66.9357 76.6C67.1945 76.8476 67.3243 77.1617 67.3243 77.5431C67.3243 77.9244 67.1981 78.2392 66.9462 78.4861C66.6944 78.733 66.3647 78.8569 65.9586 78.8569C65.5524 78.8569 65.2192 78.733 64.9604 78.4861Z" fill="#F2F2F2"/>
<path d="M80.4572 66.4321H74.3215V63.8088H89.6821V66.4321H83.5465V78.6446H80.4572V66.4321Z" fill="#F2F2F2"/>
<path d="M35.3313 29.811L46.6922 28.6818L49.0365 17.4131L50.1553 28.8722L61.3282 31.2358L49.9673 32.365L47.623 43.6337L46.5042 32.1747L35.3313 29.811Z" fill="#F2F2F2"/>
<path d="M71.5449 21.7394C71.8101 21.6325 73.3561 21.9601 73.3947 22.1801C73.4985 22.7716 73.5827 23.3786 73.5673 23.9764C73.5434 24.8714 73.7104 25.7126 74.1958 26.4441C74.4518 26.8297 74.8593 27.1289 75.2416 27.4063C75.3826 27.5081 75.7467 27.523 75.8337 27.4232C75.9655 27.2711 76.0238 26.9627 75.9705 26.7589C75.8849 26.4299 75.6836 26.1321 75.5587 25.876C75.4037 25.859 75.3609 25.8498 75.3188 25.8505C75.0501 25.8569 74.7815 25.8654 74.5128 25.8732C74.7043 25.697 74.8678 25.4388 75.0929 25.3616C75.5285 25.2124 75.4668 24.9442 75.3763 24.6308C75.2108 24.0578 74.7261 24.2431 74.3845 24.287C74.1782 24.3132 73.993 24.6138 73.8549 24.2375C73.8408 24.2 74.127 24.0259 74.2898 23.9516C74.5788 23.8201 74.8804 23.7168 75.2886 23.5583C75.2269 23.1946 75.1526 22.7581 75.0705 22.2763C75.5741 22.062 76.1613 21.8129 76.7877 21.5462C76.2517 21.3347 75.7888 21.172 75.3455 20.9661C75.1806 20.8897 75.0628 20.7121 74.9232 20.5805C75.1315 20.5416 75.3497 20.4426 75.5461 20.4758C75.9108 20.5381 76.2693 20.7829 76.6179 20.7588C77.0914 20.7263 77.6449 20.6336 78.004 20.3562C79.6966 19.0502 80.6983 17.2589 81.2798 15.22C81.4818 14.5104 81.9581 14.0993 82.5895 13.8333C82.9528 13.6805 83.3302 13.5489 83.7132 13.4605C85.5293 13.0402 87.3496 12.6377 89.1685 12.2316C89.3179 12.1983 89.4841 12.1446 89.6216 12.1806C89.7605 12.2174 89.8734 12.3547 89.9976 12.4481C89.8889 12.5365 89.7914 12.6773 89.6693 12.7056C88.023 13.0855 86.3731 13.4491 84.7247 13.8177C84.3606 13.8991 83.998 13.9861 83.6339 14.0661C82.5221 14.3101 81.754 14.891 81.6221 16.1156C81.606 16.267 81.5562 16.422 81.4889 16.5585C80.2957 18.9809 78.7111 21.0517 76.3044 22.3747C75.7923 22.6563 75.5797 23.2258 75.8428 24.12C76.0687 24.8869 75.9606 25.7175 76.4482 26.4582C76.6404 26.7504 76.4608 27.4848 76.2048 27.8357C75.868 28.2984 75.2592 28.147 74.8194 27.8548C73.5511 27.0136 73.1057 25.7345 73.051 24.2714C73.0341 23.825 73.0201 23.3779 72.8981 22.9484C72.6511 23.7295 72.2422 24.5014 72.198 25.2937C72.1447 26.2538 72.3558 27.2393 72.5368 28.1972C72.6575 28.8368 72.9731 29.5584 72.3397 29.9716C71.6312 30.4343 70.9115 30.8736 70.2213 31.371C69.8418 31.644 69.4665 31.366 69.214 31.0116C68.1674 29.5435 66.9588 28.1725 66.5568 26.3252C66.5169 26.1406 66.2398 25.9043 66.0455 25.8753C65.3125 25.7656 64.8172 25.4126 64.6348 24.6825C64.4602 23.9807 64.8123 23.472 65.3314 23.0843C66.2012 22.4341 66.5618 21.5618 66.5639 20.4701C65.9403 20.2232 65.3384 20.0662 64.6839 20.4213C64.3809 20.5862 64.0232 20.6711 63.6795 20.734C61.9567 21.0482 60.4338 21.7684 59.0631 22.872C58.3287 23.4635 57.4421 23.8038 56.4923 23.7507C56.1261 23.7302 55.6246 23.5151 55.4646 23.2286C55.3314 22.9909 55.4969 22.4136 55.7242 22.173C56.2783 21.5858 56.9496 21.1118 57.5655 20.5826C57.966 20.2388 58.4374 19.9388 58.7285 19.5151C59.6411 18.1871 60.9732 17.5992 62.4266 17.1422C63.3042 16.8663 64.1585 16.5033 65.0024 16.1319C66.1044 15.6466 67.0752 14.9575 67.809 13.9854C68.8689 12.5811 70.3209 11.6833 71.7154 10.673C73.4333 9.42926 75.3588 8.45648 76.7954 6.81371C77.2128 6.33617 77.8805 6.0836 78.427 5.71712C78.9545 5.36339 79.5633 5.07827 79.9793 4.61912C81.2419 3.22468 82.7704 2.30496 84.4897 1.60102C85.4339 1.21474 86.2756 0.577302 87.1749 0.0735776C87.3152 -0.00495235 87.5137 0.0219318 87.6856 0C87.6238 0.164135 87.6105 0.412459 87.4941 0.47967C86.3752 1.12772 85.2711 1.81539 84.0997 2.35165C82.8202 2.93745 81.6986 3.68808 80.6892 4.67784C80.041 5.31386 79.2288 5.7808 78.4789 6.30858C78.1022 6.57388 77.6322 6.73731 77.3236 7.06204C75.309 9.18164 72.7213 10.5103 70.4177 12.2287C69.7197 12.7494 69.0484 13.3494 68.5048 14.0264C67.5571 15.2079 66.4537 16.1354 65.0704 16.7375C64.9252 16.8005 64.8362 17.0049 64.7323 17.1514C64.6384 17.2844 64.5591 17.428 64.4735 17.5667C64.3241 17.462 64.174 17.3572 63.9811 17.2214C63.1849 17.4818 62.292 17.6806 61.4867 18.0668C60.7936 18.3994 60.1721 18.9095 59.5724 19.4061C58.8155 20.0329 58.1169 20.7298 57.3859 21.3892C56.9945 21.7422 56.5687 22.0584 56.2005 22.4334C56.0707 22.565 55.9893 22.8409 56.0321 23.0142C56.0602 23.1267 56.3737 23.2654 56.5231 23.2314C57.1145 23.097 57.696 22.9131 58.2684 22.7107C58.375 22.6732 58.4416 22.4751 58.4949 22.3386C58.5665 22.1547 58.6079 21.9594 58.6626 21.7684C58.8331 21.8759 59.0042 21.9834 59.1782 22.0931C59.6573 21.7705 60.1932 21.4882 60.619 21.0878C60.8189 20.8996 60.8112 20.4836 60.889 20.1681C60.9346 19.9841 60.9627 19.7966 60.9985 19.6106C61.1423 19.7747 61.3239 19.919 61.4186 20.1079C61.5014 20.2721 61.486 20.4857 61.5204 20.722C62.5108 20.4588 63.462 20.2112 64.4097 19.9516C64.6671 19.8808 64.9302 19.7917 64.8165 19.4082C64.8102 19.3884 65.088 19.2823 65.2339 19.2165C65.4598 19.7924 66.0167 19.7315 66.4636 19.815C66.9265 19.9013 67.1917 20.0803 67.1306 20.6994C68.2453 19.6353 69.3241 18.7015 69.5353 17.1584C69.5563 17.0049 69.5563 16.8358 69.6243 16.705C69.7036 16.5528 69.8474 16.434 69.9631 16.301C70.0284 16.4602 70.1659 16.6285 70.1483 16.7778C70.008 17.9728 69.5998 19.0474 68.73 19.9197C68.4697 20.1801 68.2951 20.5275 68.0159 20.9272C67.2583 21.0849 67.0886 21.9452 66.5947 22.5169C66.8262 22.7256 67.0352 22.8586 67.1643 23.0482C67.2625 23.1925 67.2597 23.4076 67.3018 23.5908C67.1334 23.5434 66.9448 23.53 66.8031 23.4394C66.641 23.3368 66.5218 23.1663 66.3226 22.9626C65.9992 23.2336 65.5832 23.4557 65.3707 23.8038C65.2114 24.0648 65.2549 24.5049 65.3412 24.8296C65.3644 24.9174 65.9339 24.986 66.1444 24.8671C66.5863 24.6181 66.956 24.2389 67.4484 23.8377C67.87 24.4964 67.1089 24.7447 67.0465 25.3185C67.703 24.8777 68.422 24.5056 68.9993 23.9764C69.6264 23.4026 70.2241 22.744 70.6548 22.0146C71.5758 20.4567 72.9423 19.4825 74.4855 18.6767C75.6092 18.0895 76.7161 17.469 77.83 16.8634C77.7781 16.816 77.7255 16.7686 77.6736 16.7205C77.6378 16.5267 77.6021 16.3328 77.5663 16.139C77.7536 16.1701 77.9409 16.2012 78.2902 16.26C78.5841 15.6727 78.9657 14.9808 79.2828 14.2599C79.7093 13.2878 80.2185 12.395 81.1879 11.8828C81.3359 11.8043 81.5555 11.8637 81.7421 11.8594C81.6544 12.0144 81.6053 12.2323 81.4727 12.3129C80.5896 12.8513 80.128 13.7109 79.7724 14.62C78.9138 16.8146 77.2534 18.1107 75.1841 19.0297C74.287 19.428 73.4298 19.9473 72.6238 20.5126C72.1952 20.8126 71.9146 21.3276 71.5681 21.745C68.9544 24.3365 69.5331 27.0752 71.2847 29.9893C71.5618 29.7791 71.9953 29.6228 72.0774 29.3561C72.3278 28.5396 71.9034 27.9722 71.0027 27.639C71.3513 27.465 71.5484 27.3673 71.7161 27.2832C71.9497 25.6623 71.8851 25.5725 70.3279 25.1544C70.2192 25.1253 70.1441 24.9662 70.0536 24.8678C70.1659 24.7822 70.2851 24.6153 70.3882 24.6252C70.8351 24.6676 71.277 24.7617 71.7561 24.8431C72.118 23.7677 72.7199 22.6987 71.5421 21.7358L71.5449 21.7394ZM67.0058 25.8236C67.393 27.2209 67.8489 28.5227 68.8815 29.5379C69.1123 29.7643 69.2196 30.1187 69.4518 30.343C69.6545 30.539 69.9519 30.6338 70.208 30.7731C70.3265 30.471 70.6162 30.1017 70.5306 29.8789C70.2991 29.2698 69.9239 28.7123 69.5689 28.1583C69.4967 28.0458 69.2582 28.0472 69.1032 27.9807C68.9488 27.9149 68.8022 27.8315 68.6521 27.755C68.7938 27.6447 68.925 27.5159 69.0807 27.4317C69.1824 27.3765 69.3185 27.3857 69.5381 27.3504C69.3999 26.4589 69.2666 25.5994 69.1368 24.7624C68.4403 25.1091 67.7381 25.4593 67.0065 25.8236H67.0058Z" fill="#F2F2F2"/>
<path d="M14.5862 43.0061C14.1239 42.5696 13.6617 42.1663 13.2471 41.7178C13.1349 41.5968 13.1692 41.3379 13.1363 41.1426C13.3102 41.2218 13.527 41.2593 13.6511 41.3874C14.9776 42.7528 16.6043 43.4999 18.4541 43.7935C18.6785 43.8289 18.9142 43.7935 19.1562 43.6782C19.004 43.6174 18.8307 43.5841 18.7066 43.4872C18.5936 43.3988 18.5333 43.2417 18.4505 43.1143C18.6 43.0705 18.7781 42.9502 18.8953 42.9948C20.0429 43.4285 21.2241 43.3075 22.411 43.3032C23.3026 43.3004 24.1948 43.49 25.0857 43.6011C25.4357 43.645 25.792 43.7582 25.9351 43.253C25.959 43.1695 26.1701 43.1405 26.295 43.0861C26.3462 43.2955 26.3974 43.5049 26.4556 43.744C27.2476 43.848 28.076 43.9357 28.8967 44.0709C29.4488 44.1621 29.9847 44.3503 30.5367 44.4423C31.2768 44.5654 31.4704 44.3284 31.288 43.5961C30.985 42.3786 29.5238 41.2671 28.0374 41.3605C25.9737 41.49 24.2601 40.7323 22.66 39.5607C22.4861 39.4333 22.385 39.2041 22.2504 39.0223C22.4187 38.9876 22.6004 38.9806 22.7505 38.9084C22.8712 38.8504 22.9385 38.6848 23.0578 38.6176C23.2121 38.5299 23.3945 38.4931 23.5649 38.4337C23.5467 38.6014 23.5432 38.7719 23.5067 38.9353C23.4765 39.069 23.4064 39.1942 23.3545 39.323C23.4036 39.3569 23.4534 39.3909 23.5025 39.4249C23.7831 39.0747 24.0749 38.7322 24.3421 38.3714C24.6431 37.9639 24.8977 37.5189 25.2218 37.1326C25.3522 36.977 25.6167 36.936 25.8194 36.8426C25.7984 37.0633 25.778 37.2833 25.7521 37.5592C26.6598 37.8168 27.5043 37.4736 28.3229 36.9466C28.5474 36.8022 28.8167 36.7096 29.0777 36.6466C29.8647 36.457 30.6567 36.2858 31.4507 36.1273C31.5903 36.099 31.7678 36.1273 31.8955 36.1924C32.9799 36.7463 34.1268 37.0364 35.3642 37.1093C36.0846 38.1479 37.4574 38.8235 38.2514 38.242C38.2023 37.966 38.1567 37.7099 38.0929 37.3491C37.8747 37.2303 37.5492 37.0534 37.1684 36.8454C37.195 37.0661 37.2153 37.2359 37.2406 37.4425C36.678 37.4651 36.5181 37.1949 36.5202 36.7188C36.5209 36.5023 36.4893 36.1655 36.3547 36.0863C34.6564 35.0845 33.0031 33.9709 30.9148 33.949C28.6814 33.9256 26.4479 33.8124 24.2152 33.8202C23.4877 33.8231 22.7617 34.0827 22.035 34.2242C20.8804 34.4485 19.7307 34.706 18.5691 34.8899C16.2101 35.2628 13.8342 35.5408 11.4857 35.9695C10.3304 36.1804 9.2628 36.7428 8.57327 37.7687C7.04548 40.0418 5.2315 42.0171 3.03102 43.6563C2.1577 44.3064 1.46465 45.1993 0.669195 45.9605C0.488919 46.1324 0.225169 46.2152 0 46.339C0.0799666 46.1027 0.0918915 45.795 0.250422 45.6415C1.40503 44.5272 2.51825 43.3514 3.78228 42.3764C5.16907 41.306 6.34192 40.0439 7.25171 38.595C8.65954 36.353 10.7127 35.354 13.1784 34.9812C14.61 34.7647 16.0466 34.5022 17.4881 34.452C18.9339 34.4011 20.2203 33.9426 21.3792 33.1877C22.801 32.2609 24.2243 32.0459 25.7415 32.7675C27.1816 33.4523 28.6638 33.5889 30.2239 33.3887C31.5889 33.2139 32.8326 33.6179 34.1016 34.169C35.7661 34.892 37.0877 36.0877 38.5734 37.0534C39.2608 37.5005 39.1766 38.3573 38.4499 38.7754C37.7134 39.1992 36.6493 38.9947 35.8145 38.3445C35.3537 37.9858 34.8206 37.7213 34.2594 37.5515C35.1713 38.7315 36.0874 39.9081 36.9923 41.0938C37.2055 41.3732 37.4139 41.6669 37.5647 41.9824C37.8474 42.5753 37.6215 42.9821 36.974 43.0669C36.6731 43.1066 36.3631 43.0769 36.14 43.2353C35.7479 43.4447 35.3698 43.7893 34.9609 43.8317C34.3281 43.8975 33.788 43.4929 33.5586 42.9127C33.257 42.1501 32.9007 41.5282 32.0316 41.3626C31.9144 41.34 31.7832 41.2381 31.7145 41.1355C31.1428 40.2816 30.2295 40.1337 29.1997 40.0446C29.6129 40.5526 29.9686 41.1278 30.454 41.5515C31.067 42.0864 31.6324 42.6234 31.8337 43.4363C32.1122 44.5569 31.5658 45.1526 30.4413 44.9835C30.3333 44.9672 30.226 44.9495 30.0808 44.9262C29.9714 45.2828 29.8724 45.6351 29.7553 45.9818C29.5105 46.7055 28.8939 46.8527 28.4281 46.2336C28.1202 45.824 27.9932 45.2799 27.7512 44.8137C27.6678 44.6517 27.491 44.4359 27.3444 44.426C25.2709 44.2796 23.2373 43.6124 21.128 43.9279C20.9562 43.9534 20.7556 43.8905 20.6075 43.957C18.7936 44.772 17.129 44.2399 15.4932 43.4072C15.3957 43.3577 15.2947 43.316 15.2217 43.2827C14.6304 43.7723 13.9759 44.1749 13.5102 44.7366C12.9883 45.367 12.5351 46.0999 12.2321 46.8604C11.5692 48.5216 11.0684 50.2486 10.402 51.9083C10.12 52.6115 9.60161 53.2228 9.15899 53.8531C9.08042 53.9649 8.84613 53.9656 8.68339 54.0173C8.69883 53.8602 8.65604 53.6529 8.73881 53.5525C10.2336 51.7427 10.8481 49.5368 11.4787 47.3458C11.908 45.8551 12.5344 44.5293 13.9226 43.7008C14.1078 43.5905 14.2572 43.4164 14.4122 43.2601C14.4866 43.1851 14.5343 43.0839 14.5862 43.0061ZM28.6491 37.2883C29.4509 38.1118 30.3123 38.0757 31.1814 38.0615C31.3476 38.0587 31.6373 38.2016 31.6647 38.324C31.866 39.2225 32.7393 40.0885 33.6758 40.2908C33.7985 40.317 33.936 40.4875 33.9844 40.6212C34.3927 41.7489 35.5571 42.547 36.6359 42.5073C36.4809 42.2809 36.288 42.0001 36.0958 41.7192C36.3077 41.7114 36.5202 41.7043 36.7559 41.6959C36.5216 41.4171 36.2866 41.1377 36.1042 40.9198C35.8475 41.0252 35.6532 41.1051 35.4589 41.1851C35.4778 40.9643 35.4954 40.7436 35.515 40.5236C35.5276 40.3828 35.6048 40.2038 35.5459 40.1069C34.775 38.832 33.8287 37.7396 32.4728 37.047C31.1737 36.3834 30.0212 37.1539 28.6477 37.2897L28.6491 37.2883ZM24.065 39.6654C24.0896 39.6972 24.1134 39.7291 24.138 39.7609C24.2986 39.7008 24.4635 39.6491 24.6199 39.5784C25.1874 39.3223 25.9534 39.4638 26.2887 38.7294C26.3055 38.6919 26.5405 38.6905 26.57 38.7379C26.6275 38.8292 26.652 38.9827 26.617 39.0839C26.4023 39.6965 26.9979 40.7676 27.6081 40.8066C28.0992 40.8377 28.593 40.8264 29.1366 40.8342C28.4808 40.075 28.4597 38.8058 27.1746 38.67C27.0855 38.6608 27.0189 38.5157 26.9249 38.4662C26.7264 38.3629 26.5216 38.266 26.3097 38.1931C25.4406 37.8918 24.8815 38.2363 24.5224 39.0499C24.4221 39.2777 24.2201 39.4609 24.0643 39.664L24.065 39.6654ZM31.5518 39.7142C31.5553 40.4125 31.9747 40.757 32.4644 40.953C33.1869 41.2424 33.6751 41.6796 33.9164 42.4472C34.0672 42.9269 34.4256 43.2813 34.984 43.2827C35.1138 43.2827 35.2435 43.178 35.3733 43.1214C35.3144 42.9955 35.2863 42.8342 35.1916 42.75C34.2103 41.8798 33.2142 41.0273 32.2329 40.1571C31.9874 39.9392 31.7145 39.7107 31.5714 39.4263C31.2677 38.8249 30.743 38.711 30.1706 38.59C29.6873 38.4882 29.1079 38.4195 28.7761 38.1111C28.2451 37.618 27.8642 37.7149 27.3409 38.1337C27.8908 38.3849 28.4632 38.5313 28.8911 38.8652C29.6739 39.4772 30.5038 39.8154 31.5525 39.7135L31.5518 39.7142ZM25.3985 33.2401C24.2551 32.7215 23.0009 32.6373 21.974 33.5011C23.0627 33.4184 24.3 33.3236 25.3985 33.2401ZM28.2338 44.5236C28.52 45.1073 28.7473 45.5721 29.0167 46.1218C29.2257 45.5707 29.3751 45.1759 29.5379 44.7479C29.1008 44.6729 28.7242 44.6085 28.2345 44.5244L28.2338 44.5236ZM26.4128 40.7924C26.0322 40.0614 25.4729 39.8633 24.7349 40.1981C25.3417 40.4132 25.8776 40.6028 26.4128 40.7924Z" fill="#F2F2F2"/>
</svg>
