<svg width="37" height="57" viewBox="0 0 37 57" fill="none" xmlns="http://www.w3.org/2000/svg">
<path d="M23.5214 6.16442H12.0237C13.2615 3.82243 15.352 2.00308 17.246 0.156212C17.4385 -0.0520515 17.8315 -0.0481219 18.0397 0.144424C19.9338 1.9127 22.2679 3.77921 23.5214 6.16049V6.16442Z" fill="url(#paint0_linear_14_1435)"/>
<path d="M33.2745 47.5813C33.2312 47.88 33.1291 48.1629 33.0269 48.4419C24.7592 48.9684 13.1672 49.4046 3.28845 48.6698C3.17057 48.3869 3.08019 48.1079 3.05662 47.7974C3.02911 47.318 3.08412 46.8976 3.26488 46.4496C3.6146 45.5773 4.39657 44.9761 5.09209 44.3945C6.08626 43.5654 7.29654 43.1528 8.38502 42.4808C9.74069 41.6556 10.2122 40.6575 9.7289 39.1801C9.61101 38.9718 9.44205 38.6063 9.78392 38.4334C11.2968 37.6829 12.3027 35.9893 12.9904 34.3114H23.1285C23.8358 35.9343 24.8457 37.5375 26.3546 38.2448C26.6965 38.4099 26.5629 38.6574 26.4332 38.9914C25.942 40.5986 26.61 41.6438 28.115 42.4062C29.1603 42.9367 30.2527 43.361 31.18 44.0959C31.9266 44.6853 32.854 45.3612 33.1526 46.3239C33.2784 46.7365 33.3413 47.153 33.2745 47.5774V47.5813Z" fill="url(#paint1_linear_14_1435)"/>
<path d="M21.93 25.2304C21.5763 25.9102 21.4309 26.6961 21.4152 27.5134H14.4796C14.4403 26.7236 14.2753 25.977 13.9177 25.3247C11.4421 25.1478 9.68565 22.6565 10.1061 20.2399C10.4991 18.0119 12.1769 16.7819 14.3225 16.6601C14.3932 15.9253 13.7527 15.4341 13.2183 14.9233C12.6721 14.3967 12.1887 13.8309 11.8547 13.1511C11.6229 12.6795 11.4343 12.1884 11.2967 11.6932H24.2327C24.0873 12.2512 23.8751 12.7935 23.5764 13.3083C23.1992 13.9488 22.763 14.4635 22.2404 14.9901C21.7492 15.4695 21.258 15.9292 21.3405 16.5855C23.5804 16.6641 25.3133 17.9686 25.6669 20.2949C26.0206 22.6369 24.3112 25.0142 21.9378 25.2343L21.93 25.2304Z" fill="url(#paint2_linear_14_1435)"/>
<path d="M36.2294 53.4245C35.5771 55.1535 32.7086 55.3853 31.1879 55.5504C26.8733 56.0298 9.55599 56.2734 5.16281 55.8254C3.70889 55.6722 0.785345 55.4953 0.223426 53.7546C-0.185242 52.4853 -0.0987899 50.7799 1.03684 49.8801C1.73236 49.326 2.60078 49.0235 3.4692 49.1178C3.41025 48.9684 3.34739 48.8191 3.28844 48.6698C13.1672 49.4046 24.7632 48.9684 33.0269 48.4419C32.9876 48.5519 32.9483 48.658 32.909 48.768C35.3178 48.3633 37.0978 51.1179 36.2294 53.4206V53.4245Z" fill="#1C1C1C"/>
<path d="M23.1285 34.3153H12.9904C13.2654 33.6316 13.4933 32.9439 13.6741 32.327C14.0828 30.9517 14.5582 29.1559 14.4796 27.5134H21.4152C21.3877 29.1362 21.8907 30.8967 22.3308 32.2288C22.5469 32.8811 22.8062 33.6002 23.1285 34.3193V34.3153Z" fill="#1C1C1C"/>
<path d="M24.2287 11.6932H11.2928C10.9706 10.5379 10.9234 9.32372 11.2417 8.14094C11.4303 7.43756 11.6936 6.78527 12.0197 6.16833H23.5174C23.875 6.84421 24.1422 7.55545 24.2916 8.3217C24.5116 9.43768 24.5116 10.5969 24.2248 11.6932H24.2287Z" fill="#1C1C1C"/>
<defs>
<linearGradient id="paint0_linear_14_1435" x1="13.0353" y1="-1.33984" x2="19.4004" y2="7.1061" gradientUnits="userSpaceOnUse">
<stop stop-color="#780206"/>
<stop offset="1" stop-color="#FF6B6B"/>
</linearGradient>
<linearGradient id="paint1_linear_14_1435" x1="5.71161" y1="31.1059" x2="20.4855" y2="52.6648" gradientUnits="userSpaceOnUse">
<stop stop-color="#780206"/>
<stop offset="1" stop-color="#FF6B6B"/>
</linearGradient>
<linearGradient id="paint2_linear_14_1435" x1="11.4225" y1="8.25471" x2="27.425" y2="19.5306" gradientUnits="userSpaceOnUse">
<stop stop-color="#780206"/>
<stop offset="1" stop-color="#FF6B6B"/>
</linearGradient>
</defs>
</svg>
