<svg width="40" height="57" viewBox="0 0 40 57" fill="none" xmlns="http://www.w3.org/2000/svg">
<path d="M39.2697 53.4794C38.575 55.2456 35.955 55.5093 34.3478 55.706C29.4804 56.2878 10.0774 56.5472 5.19742 56.0325C3.71164 55.8776 0.80288 55.6851 0.229498 53.9189C-0.18903 52.6256 -0.101139 50.872 1.04981 49.9554C1.74457 49.403 2.60255 49.0849 3.47308 49.1519C3.4689 49.1435 3.46471 49.1268 3.45634 49.1142C14.5222 50.2903 28.8861 49.5746 37.3529 48.9594C38.9684 49.5955 39.9854 51.6421 39.2697 53.4753V53.4794Z" fill="#1C1C1C"/>
<path d="M5.72473 15.7534H32.8913C32.8327 16.4858 32.7741 17.214 32.6779 17.9339C32.6486 18.1808 32.3765 18.3189 32.1589 18.3399C30.6857 18.4696 29.2125 18.478 27.7351 18.4947C27.032 19.2816 26.8645 20.7004 26.672 21.6965C26.5716 22.228 26.4962 22.7386 26.4753 23.2869C26.4502 23.9439 26.4335 24.5968 26.4293 25.2539H12.4254C12.4044 24.601 12.3751 23.9523 12.3249 23.2994C12.2831 22.726 12.1784 22.1819 12.0445 21.6086C11.831 20.6794 11.6511 19.4029 10.9689 18.6747C9.49148 18.6956 8.02245 18.7165 6.54504 18.6161C6.32323 18.6077 6.05118 18.4696 6.0177 18.2227C5.88796 17.4024 5.80844 16.5737 5.72892 15.745L5.72473 15.7534Z" fill="url(#paint0_linear_14_1364)"/>
<path d="M37.3529 48.9635C28.8903 49.5787 14.5222 50.2944 3.45638 49.1184C3.3099 48.7501 3.15505 48.3943 3.08808 48.0009C3.00856 47.5196 3.08808 47.0467 3.24712 46.5905C3.56939 45.6823 4.40226 45.0419 5.11375 44.4476C6.10985 43.6189 7.29847 43.1878 8.39919 42.5349C9.74266 41.7272 10.27 40.7729 9.818 39.3248C9.6464 38.9775 9.55433 38.5254 10.0063 38.3622C10.6551 38.1278 11.5549 37.0355 11.7683 36.3826C11.9776 35.7213 12.078 35.0266 12.1576 34.336C12.2287 33.6663 12.2831 33.0009 12.325 32.3312H26.7014C26.76 33.0302 26.8395 33.7207 26.9441 34.4071C27.0446 35.0391 27.1367 35.7129 27.3836 36.3072C27.6389 36.9099 28.522 37.9353 29.1456 38.1446C29.6018 38.2953 29.5181 38.5757 29.359 39.0988C28.907 40.6934 29.6436 41.6895 31.1462 42.4345C32.1883 42.9535 33.2597 43.3929 34.1763 44.117C34.9422 44.728 35.9383 45.4521 36.1852 46.4733C36.3987 47.3689 36.1015 48.026 35.8839 48.7794C36.407 48.7082 36.9051 48.7752 37.3571 48.9593L37.3529 48.9635Z" fill="url(#paint1_linear_14_1364)"/>
<path d="M12.4464 28.552C12.4547 27.4554 12.4631 26.3505 12.4254 25.254H26.4335C26.4335 26.3003 26.4545 27.3508 26.4921 28.3929C26.534 29.7029 26.58 31.0213 26.6972 32.3313H12.3208C12.4003 31.0715 12.4296 29.8117 12.4464 28.5561V28.552Z" fill="#1C1C1C"/>
<path d="M33.4355 5.39062C33.3685 5.87193 33.3099 6.34905 33.2597 6.81362H33.2513C33.2262 7.06892 33.1927 7.32004 33.1676 7.5586C33.0546 8.55888 32.9918 14.7447 32.9249 15.7492H5.6871C5.59921 14.7656 5.51132 8.60073 5.36902 7.62138C5.33135 7.36189 5.2895 7.08985 5.25602 6.81362H5.23928C5.17231 6.34905 5.10116 5.87193 5.01746 5.39062H33.4355Z" fill="#1C1C1C"/>
<path d="M6.33158 0H31.8031C32.6067 0 33.2596 0.652902 33.2596 1.45647V5.56223H5.09692V1.23884C5.09692 0.556641 5.64938 0.00418537 6.33158 0.00418537V0Z" fill="url(#paint2_linear_14_1364)"/>
<defs>
<linearGradient id="paint0_linear_14_1364" x1="8.11498" y1="13.6782" x2="16.2069" y2="30.1248" gradientUnits="userSpaceOnUse">
<stop stop-color="#780206"/>
<stop offset="1" stop-color="#FF6B6B"/>
</linearGradient>
<linearGradient id="paint1_linear_14_1364" x1="6.07478" y1="28.5454" x2="23.7691" y2="53.334" gradientUnits="userSpaceOnUse">
<stop stop-color="#780206"/>
<stop offset="1" stop-color="#FF6B6B"/>
</linearGradient>
<linearGradient id="paint2_linear_14_1364" x1="7.57481" y1="-1.20895" x2="10.6548" y2="9.88521" gradientUnits="userSpaceOnUse">
<stop stop-color="#780206"/>
<stop offset="1" stop-color="#FF6B6B"/>
</linearGradient>
</defs>
</svg>
