<svg width="87" height="120" viewBox="0 0 87 120" fill="none" xmlns="http://www.w3.org/2000/svg">
<path d="M78.8728 104.126C78.7361 104.126 78.5811 104.135 78.4443 104.153C78.8546 102.858 79.2375 101.609 78.8455 100.017C78.3075 97.832 76.1376 96.2674 74.46 94.9546C72.4724 93.399 70.1292 92.4459 67.859 91.3399C64.5949 89.7303 62.9903 87.5992 63.9658 84.1733C64.3123 83.0493 64.5038 82.4468 63.5008 82.1231C62.1515 81.6646 60.2186 79.4525 59.6715 78.1757C59.1336 76.8898 58.9239 75.4422 58.7051 74.0844C58.4771 72.6007 58.3039 71.117 58.1763 69.6244C57.9119 66.8099 57.8116 63.9775 57.7295 61.163C57.6383 58.924 57.6019 56.667 57.6019 54.4191C57.611 52.9983 57.6383 51.6046 57.7022 50.1839C57.7477 49.0149 57.9119 47.9089 58.1307 46.7669C58.4407 45.2383 58.7051 43.2331 59.4071 41.5966C59.6806 40.9582 60.018 40.3737 60.4465 39.8881C63.665 39.8612 66.8834 39.8432 70.0836 39.5554C70.5577 39.5195 71.1321 39.2227 71.2142 38.6922C71.3145 37.8739 71.4057 37.0647 71.4786 36.2374C71.5515 35.5001 71.6153 34.7537 71.6792 34.0164H71.743C71.8889 31.8584 72.0348 29.6913 72.2809 27.5422L72.4815 14.8097C72.5818 13.9285 72.6912 13.0473 72.8097 12.1301H72.8371V4.29814C72.8371 1.92427 70.886 0 68.479 0H14.832C12.7897 0 11.1394 1.62754 11.1394 3.64173V12.1211L11.4494 14.8007L11.7229 27.6681C12.0329 29.7632 12.2244 31.8763 12.4159 34.0074H12.5162C12.5891 34.7448 12.6529 35.4911 12.7441 36.2284C12.8535 37.2625 12.972 38.3055 13.1453 39.3126C13.2182 39.8522 13.8108 40.1399 14.2941 40.1669C17.5125 40.3737 20.7219 40.3377 23.9312 40.2928C24.2777 40.6794 24.5785 41.12 24.8338 41.5876C25.6088 43.1342 25.9188 45.0675 26.2744 46.5871C26.5661 47.81 26.8032 48.979 26.8852 50.2198C26.9855 51.6136 27.0493 53.0073 27.0949 54.4191C27.1679 56.7749 27.1588 59.1488 27.1314 61.5047C27.1041 64.2113 27.0311 66.9178 26.867 69.6154C26.7758 71.0451 26.6664 72.4838 26.5023 73.9225C26.3291 75.3882 26.1011 76.8898 25.6544 78.3196C25.1894 79.7133 23.2383 82.0602 21.8251 82.5637C20.8495 82.9234 21.0501 83.8856 21.4239 84.6229C22.3995 87.7431 21.2507 89.7932 18.3331 91.5287C15.9261 92.9404 13.3367 93.8666 11.1668 95.638C9.62594 96.9058 7.81157 98.2906 7.10953 100.242C6.76306 101.213 6.58071 102.229 6.76306 103.263C6.836 103.731 6.991 104.18 7.15511 104.621C5.41368 104.612 3.70872 105.259 2.32287 106.365C-0.184419 108.326 -0.385003 112.093 0.535857 114.872C1.78495 118.666 8.12156 119.08 11.3674 119.413C21.9983 120.51 64.2576 119.952 74.8612 118.711C78.3531 118.289 84.0606 117.722 85.5833 113.937C87.1515 109.989 84.5348 104.108 78.8819 104.108L78.8728 104.126ZM13.6376 3.64173C13.6376 2.99431 14.1755 2.47278 14.8229 2.47278H68.479C69.5001 2.47278 70.3298 3.29104 70.3298 4.29814V9.65732H13.6376V3.64173ZM62.6985 31.7684H58.6139V13.9734H62.6985V31.7774V31.7684ZM70.2204 14.5759C70.1839 14.8816 70.1748 15.9876 70.1201 21.131C70.0836 23.6757 70.0563 26.8229 70.0289 27.3264C69.8557 28.8101 69.7372 30.3027 69.6369 31.7594H66.0811V13.9734H70.2751L70.2113 14.5939L70.2204 14.5759ZM55.2222 13.9554V31.7594H51.1376V13.9734H55.2222V13.9554ZM47.7459 13.9554V31.7594H43.6613V13.9734H47.7459V13.9554ZM40.2696 13.9554V31.7594H36.1759V13.9734H40.2696V13.9554ZM32.7933 13.9554V31.7594H28.6996V13.9734H32.7933V13.9554ZM17.8407 31.7594H14.4764C14.3396 30.3117 14.1755 28.8551 13.9658 27.3984C13.9385 26.8588 13.8929 23.7207 13.8655 21.1849C13.7926 15.9157 13.7653 14.8456 13.7197 14.495L13.6467 13.9554H17.8499V31.7594H17.8407ZM25.317 31.7594H21.2233V13.9734H25.317V31.7774V31.7594ZM76.2652 103.56C74.615 103.722 70.8221 104.054 65.297 104.351C59.7627 104.639 52.4961 104.891 43.8892 104.891C32.3922 104.891 20.7218 104.45 9.15183 103.569C9.07889 103.344 9.02419 103.128 8.98771 102.912C8.88742 102.346 8.9786 101.717 9.23389 100.988C9.67152 99.7653 10.9844 98.6952 12.2518 97.6432L12.6165 97.3465C13.82 96.3573 15.2605 95.638 16.774 94.8737C17.6675 94.4331 18.561 93.9745 19.491 93.444C23.375 91.124 24.7609 87.9949 23.6212 84.1463C25.4538 82.9954 27.2499 80.6754 27.8061 78.976C28.344 77.3125 28.5811 75.604 28.7452 74.1563C28.8911 72.8345 29.0187 71.3868 29.119 69.7503C29.2649 67.3764 29.3469 64.8317 29.3925 61.5137C29.4016 59.2387 29.429 56.7929 29.3469 54.3381C29.3014 52.8095 29.2193 51.4158 29.1372 50.049C29.0369 48.8351 28.8364 47.6122 28.4717 46.0836C28.4078 45.8138 28.344 45.5171 28.2802 45.2203C28.1799 44.7797 28.0796 44.3032 27.952 43.8086H56.3984C56.2707 44.3661 56.1704 44.9236 56.0884 45.4182C56.0245 45.7419 55.979 46.0386 55.9151 46.3533C55.7054 47.4773 55.5049 48.7002 55.4501 50.085C55.3863 51.5416 55.359 52.9534 55.3499 54.4101C55.3499 56.5681 55.3863 58.8701 55.4775 61.2169C55.5687 64.1303 55.6781 66.9808 55.9243 69.7862C56.0519 71.2969 56.2251 72.7985 56.4713 74.4171L56.5078 74.6778C56.7175 76.0356 56.9728 77.5642 57.5836 79.0209C58.1854 80.4327 59.9086 82.6177 61.7412 83.7237C60.6106 87.869 62.3429 91.1061 66.8469 93.3181C67.321 93.5429 67.7952 93.7767 68.2784 94.0015C70.0198 94.8287 71.6701 95.611 73.0468 96.681L73.4115 96.9688C74.7791 98.0298 76.3199 99.2437 76.6391 100.53C76.8761 101.519 76.6664 102.247 76.247 103.569L76.2652 103.56Z" fill="black"/>
</svg>
