<svg width="24" height="24" viewBox="0 0 24 24" fill="none" xmlns="http://www.w3.org/2000/svg">
<path d="M5.37214 23.6245H0.396429V7.85162H5.37214V23.6245ZM2.88161 5.70006C1.29054 5.70006 0 4.40279 0 2.83658C1.13882e-08 2.08427 0.303597 1.36278 0.844003 0.830816C1.38441 0.298853 2.11736 0 2.88161 0C3.64586 0 4.3788 0.298853 4.91921 0.830816C5.45962 1.36278 5.76321 2.08427 5.76321 2.83658C5.76321 4.40279 4.47214 5.70006 2.88161 5.70006ZM23.9946 23.6245H19.0296V15.9463C19.0296 14.1165 18.9921 11.7698 16.4427 11.7698C13.8557 11.7698 13.4593 13.7579 13.4593 15.8145V23.6245H8.48893V7.85162H13.2611V10.0032H13.3307C13.995 8.76393 15.6177 7.45611 18.0386 7.45611C23.0743 7.45611 24 10.7204 24 14.9602V23.6245H23.9946Z" fill="white"/>
</svg>
