<svg width="183" height="148" viewBox="0 0 183 148" fill="none" xmlns="http://www.w3.org/2000/svg">
<path d="M176.949 145.714C176.25 145.714 175.687 146.03 175.687 146.425C175.687 146.82 176.254 147.136 176.949 147.136C177.643 147.136 178.211 146.82 178.211 146.425C178.211 146.03 177.643 145.714 176.949 145.714Z" fill="url(#paint0_linear_45_1849)"/>
<path d="M178.211 145.973H175.683V146.425H178.211V145.973Z" fill="url(#paint1_linear_45_1849)"/>
<path d="M176.949 145.262C176.25 145.262 175.687 145.578 175.687 145.973C175.687 146.368 176.254 146.684 176.949 146.684C177.643 146.684 178.211 146.368 178.211 145.973C178.211 145.578 177.643 145.262 176.949 145.262Z" fill="#969696"/>
<path d="M176.949 145.434C176.55 145.434 176.226 145.615 176.226 145.841C176.226 146.067 176.55 146.248 176.949 146.248C177.348 146.248 177.672 146.067 177.672 145.841C177.672 145.615 177.348 145.434 176.949 145.434Z" fill="url(#paint2_linear_45_1849)"/>
<path d="M177.376 122.949H176.517C176.517 122.949 176.226 140.918 176.226 145.874H177.676C177.676 140.922 177.376 122.949 177.376 122.949Z" fill="url(#paint3_linear_45_1849)"/>
<path d="M176.945 122.707C176.706 122.707 176.517 122.814 176.517 122.949C176.517 123.085 176.711 123.192 176.945 123.192C177.179 123.192 177.372 123.085 177.372 122.949C177.372 122.814 177.179 122.707 176.945 122.707Z" fill="#E2C8BA"/>
<path d="M177.627 122.131V121.868C177.627 121.161 177.195 121.256 176.665 121.564L175.062 122.489V123.611L177.627 122.131V122.131Z" fill="url(#paint4_linear_45_1849)"/>
<path d="M175.067 122.489L176.065 123.085L178.412 121.951L177.467 121.387L175.067 122.489Z" fill="url(#paint5_linear_45_1849)"/>
<path d="M178.63 122.727V122.464C178.63 121.757 178.198 121.852 177.668 122.16L176.065 123.085V124.207L178.63 122.727V122.727Z" fill="#969696"/>
<path d="M176.065 123.085L175.067 122.489V123.611L176.065 124.207V123.085Z" fill="url(#paint6_linear_45_1849)"/>
<path d="M175.704 110.64L175.445 110.784L175.432 111.047C175.268 111.425 175.091 112.136 175.091 113.451C175.091 115.046 175.346 122.797 175.346 122.797L175.79 123.348L176.049 123.204C176.049 123.204 176.316 115.748 176.316 114.154C176.316 111.704 175.704 110.644 175.704 110.644V110.64Z" fill="#969696"/>
<path d="M175.445 110.784C175.445 110.784 174.832 111.145 174.832 113.595C174.832 115.19 175.087 122.941 175.087 122.941L175.445 123.146L175.79 123.344C175.79 123.344 176.057 115.888 176.057 114.294C176.057 111.844 175.445 110.784 175.445 110.784V110.784Z" fill="url(#paint7_linear_45_1849)"/>
<path d="M170.069 124.515C171.224 124.059 175.087 122.937 175.087 122.937L175.704 123.196L175.416 123.886C175.416 123.886 171.52 125.781 170.365 126.237C169.21 126.693 168.528 126.085 168.528 126.085C168.528 126.085 168.91 124.967 170.069 124.511V124.515Z" fill="url(#paint8_linear_45_1849)"/>
<path d="M181.433 130.503C180.475 129.032 176.053 122.97 176.053 122.97L175.798 123.109L175.851 123.372L175.658 123.751C175.658 123.751 179.682 130.589 180.644 132.061C181.112 132.78 181.531 133.088 181.836 133.22L182.094 133.434L182.349 133.294C182.349 133.294 182.39 131.974 181.433 130.499V130.503Z" fill="#969696"/>
<path d="M181.178 130.643C180.221 129.172 175.798 123.109 175.798 123.109L175.601 123.5L175.404 123.89C175.404 123.89 179.427 130.729 180.389 132.201C181.347 133.672 182.095 133.434 182.095 133.434C182.095 133.434 182.136 132.114 181.178 130.639V130.643Z" fill="url(#paint9_linear_45_1849)"/>
<path d="M175.309 123.323C175.309 123.451 175.387 123.599 175.482 123.652C175.576 123.705 175.654 123.652 175.654 123.52C175.654 123.389 175.576 123.245 175.482 123.192C175.387 123.138 175.309 123.192 175.309 123.323Z" fill="white"/>
<path d="M165.03 137.494C164.331 137.494 163.768 137.811 163.768 138.205C163.768 138.6 164.336 138.916 165.03 138.916C165.725 138.916 166.292 138.6 166.292 138.205C166.292 137.811 165.725 137.494 165.03 137.494Z" fill="url(#paint10_linear_45_1849)"/>
<path d="M166.292 137.753H163.764V138.205H166.292V137.753Z" fill="url(#paint11_linear_45_1849)"/>
<path d="M165.03 137.042C164.331 137.042 163.768 137.358 163.768 137.753C163.768 138.148 164.336 138.464 165.03 138.464C165.725 138.464 166.292 138.148 166.292 137.753C166.292 137.358 165.725 137.042 165.03 137.042Z" fill="#969696"/>
<path d="M165.03 137.215C164.632 137.215 164.307 137.395 164.307 137.621C164.307 137.848 164.632 138.028 165.03 138.028C165.429 138.028 165.754 137.848 165.754 137.621C165.754 137.395 165.429 137.215 165.03 137.215Z" fill="url(#paint12_linear_45_1849)"/>
<path d="M165.458 114.729H164.599C164.599 114.729 164.307 132.698 164.307 137.655H165.758C165.758 132.702 165.458 114.729 165.458 114.729Z" fill="url(#paint13_linear_45_1849)"/>
<path d="M165.026 114.487C164.788 114.487 164.599 114.594 164.599 114.729C164.599 114.865 164.792 114.972 165.026 114.972C165.261 114.972 165.454 114.865 165.454 114.729C165.454 114.594 165.261 114.487 165.026 114.487Z" fill="#E2C8BA"/>
<path d="M165.708 113.911V113.648C165.708 112.941 165.277 113.036 164.747 113.344L163.144 114.269V115.391L165.708 113.911V113.911Z" fill="url(#paint14_linear_45_1849)"/>
<path d="M163.148 114.269L164.147 114.865L166.493 113.731L165.548 113.167L163.148 114.269Z" fill="url(#paint15_linear_45_1849)"/>
<path d="M166.711 114.507V114.244C166.711 113.537 166.28 113.632 165.749 113.94L164.147 114.865V115.987L166.711 114.507V114.507Z" fill="#969696"/>
<path d="M164.147 114.865L163.148 114.269V115.391L164.147 115.987V114.865Z" fill="url(#paint16_linear_45_1849)"/>
<path d="M163.785 102.42L163.526 102.564L163.514 102.827C163.349 103.205 163.173 103.916 163.173 105.231C163.173 106.826 163.427 114.577 163.427 114.577L163.871 115.128L164.13 114.984C164.13 114.984 164.397 107.529 164.397 105.934C164.397 103.485 163.785 102.424 163.785 102.424V102.42Z" fill="#969696"/>
<path d="M163.526 102.564C163.526 102.564 162.914 102.926 162.914 105.375C162.914 106.97 163.169 114.721 163.169 114.721L163.526 114.927L163.871 115.124C163.871 115.124 164.138 107.668 164.138 106.074C164.138 103.624 163.526 102.564 163.526 102.564V102.564Z" fill="url(#paint17_linear_45_1849)"/>
<path d="M158.15 116.295C159.305 115.839 163.169 114.717 163.169 114.717L163.785 114.976L163.497 115.666C163.497 115.666 159.601 117.561 158.446 118.017C157.291 118.473 156.609 117.865 156.609 117.865C156.609 117.865 156.991 116.747 158.15 116.291V116.295Z" fill="url(#paint18_linear_45_1849)"/>
<path d="M169.514 122.283C168.557 120.812 164.134 114.75 164.134 114.75L163.88 114.889L163.933 115.152L163.74 115.531C163.74 115.531 167.763 122.369 168.725 123.841C169.194 124.56 169.613 124.868 169.917 125L170.176 125.214L170.431 125.074C170.431 125.074 170.472 123.755 169.514 122.279V122.283Z" fill="#969696"/>
<path d="M169.259 122.423C168.302 120.952 163.88 114.89 163.88 114.89L163.682 115.28L163.485 115.67C163.485 115.67 167.509 122.509 168.47 123.981C169.428 125.452 170.176 125.214 170.176 125.214C170.176 125.214 170.217 123.894 169.259 122.419V122.423Z" fill="url(#paint19_linear_45_1849)"/>
<path d="M163.39 115.103C163.39 115.231 163.468 115.379 163.563 115.432C163.658 115.485 163.736 115.432 163.736 115.3C163.736 115.169 163.658 115.025 163.563 114.972C163.468 114.918 163.39 114.972 163.39 115.103Z" fill="white"/>
<path d="M172.017 121.054C171.318 121.054 170.755 121.371 170.755 121.765C170.755 122.16 171.322 122.476 172.017 122.476C172.712 122.476 173.279 122.16 173.279 121.765C173.279 121.371 172.712 121.054 172.017 121.054Z" fill="url(#paint20_linear_45_1849)"/>
<path d="M173.279 121.313H170.751V121.765H173.279V121.313Z" fill="url(#paint21_linear_45_1849)"/>
<path d="M172.017 120.602C171.318 120.602 170.755 120.919 170.755 121.313C170.755 121.708 171.322 122.024 172.017 122.024C172.712 122.024 173.279 121.708 173.279 121.313C173.279 120.919 172.712 120.602 172.017 120.602Z" fill="#969696"/>
<path d="M172.017 120.775C171.618 120.775 171.294 120.956 171.294 121.182C171.294 121.408 171.618 121.589 172.017 121.589C172.416 121.589 172.74 121.408 172.74 121.182C172.74 120.956 172.416 120.775 172.017 120.775Z" fill="url(#paint22_linear_45_1849)"/>
<path d="M172.444 98.2894H171.586C171.586 98.2894 171.294 116.258 171.294 121.215H172.745C172.745 116.262 172.444 98.2894 172.444 98.2894Z" fill="url(#paint23_linear_45_1849)"/>
<path d="M172.013 98.047C171.775 98.047 171.585 98.1539 171.585 98.2895C171.585 98.4251 171.779 98.532 172.013 98.532C172.247 98.532 172.44 98.4251 172.44 98.2895C172.44 98.1539 172.247 98.047 172.013 98.047Z" fill="#E2C8BA"/>
<path d="M172.695 97.4716V97.2085C172.695 96.5016 172.264 96.5961 171.734 96.9044L170.131 97.8291V98.9511L172.695 97.4716V97.4716Z" fill="url(#paint24_linear_45_1849)"/>
<path d="M170.135 97.8291L171.133 98.4251L173.48 97.2907L172.535 96.7277L170.135 97.8291Z" fill="url(#paint25_linear_45_1849)"/>
<path d="M173.698 98.0675V97.8045C173.698 97.0976 173.266 97.1921 172.736 97.5003L171.133 98.4251V99.5471L173.698 98.0675V98.0675Z" fill="#969696"/>
<path d="M171.133 98.4252L170.135 97.8292V98.9512L171.133 99.5472V98.4252Z" fill="url(#paint26_linear_45_1849)"/>
<path d="M170.772 85.9802L170.513 86.1241L170.501 86.3871C170.336 86.7652 170.159 87.4762 170.159 88.7914C170.159 90.3861 170.414 98.1374 170.414 98.1374L170.858 98.6881L171.117 98.5443C171.117 98.5443 171.384 91.0889 171.384 89.4942C171.384 87.0447 170.772 85.9843 170.772 85.9843V85.9802Z" fill="#969696"/>
<path d="M170.513 86.1241C170.513 86.1241 169.901 86.4858 169.901 88.9353C169.901 90.53 170.155 98.2813 170.155 98.2813L170.513 98.4868L170.858 98.6841C170.858 98.6841 171.125 91.2287 171.125 89.634C171.125 87.1845 170.513 86.1241 170.513 86.1241V86.1241Z" fill="url(#paint27_linear_45_1849)"/>
<path d="M165.137 99.8553C166.292 99.3991 170.155 98.2771 170.155 98.2771L170.772 98.536L170.484 99.2265C170.484 99.2265 166.588 101.121 165.433 101.577C164.278 102.034 163.596 101.425 163.596 101.425C163.596 101.425 163.978 100.307 165.137 99.8512V99.8553Z" fill="url(#paint28_linear_45_1849)"/>
<path d="M176.501 105.844C175.544 104.372 171.121 98.3101 171.121 98.3101L170.867 98.4498L170.92 98.7128L170.727 99.0909C170.727 99.0909 174.75 105.93 175.712 107.401C176.181 108.12 176.6 108.429 176.904 108.56L177.163 108.774L177.418 108.634C177.418 108.634 177.459 107.315 176.501 105.839V105.844Z" fill="#969696"/>
<path d="M176.246 105.983C175.289 104.512 170.866 98.4497 170.866 98.4497L170.669 98.8401L170.472 99.2306C170.472 99.2306 174.495 106.07 175.457 107.541C176.415 109.012 177.163 108.774 177.163 108.774C177.163 108.774 177.204 107.455 176.246 105.979V105.983Z" fill="url(#paint29_linear_45_1849)"/>
<path d="M170.377 98.6635C170.377 98.7909 170.455 98.9389 170.55 98.9923C170.644 99.0457 170.723 98.9923 170.723 98.8608C170.723 98.7293 170.644 98.5854 170.55 98.532C170.455 98.4786 170.377 98.532 170.377 98.6635Z" fill="white"/>
<path d="M159.276 103.793C158.578 103.793 158.015 104.109 158.015 104.504C158.015 104.898 158.582 105.215 159.276 105.215C159.971 105.215 160.538 104.898 160.538 104.504C160.538 104.109 159.971 103.793 159.276 103.793Z" fill="url(#paint30_linear_45_1849)"/>
<path d="M160.538 104.052H158.01V104.504H160.538V104.052Z" fill="url(#paint31_linear_45_1849)"/>
<path d="M159.276 103.341C158.578 103.341 158.015 103.657 158.015 104.052C158.015 104.446 158.582 104.763 159.276 104.763C159.971 104.763 160.538 104.446 160.538 104.052C160.538 103.657 159.971 103.341 159.276 103.341Z" fill="#969696"/>
<path d="M159.276 103.513C158.878 103.513 158.553 103.694 158.553 103.92C158.553 104.146 158.878 104.327 159.276 104.327C159.675 104.327 160 104.146 160 103.92C160 103.694 159.675 103.513 159.276 103.513Z" fill="url(#paint32_linear_45_1849)"/>
<path d="M159.704 81.0277H158.845C158.845 81.0277 158.553 98.9963 158.553 103.953H160.004C160.004 99.0004 159.704 81.0277 159.704 81.0277Z" fill="url(#paint33_linear_45_1849)"/>
<path d="M159.272 80.7853C159.034 80.7853 158.845 80.8921 158.845 81.0278C158.845 81.1634 159.038 81.2702 159.272 81.2702C159.507 81.2702 159.7 81.1634 159.7 81.0278C159.7 80.8921 159.507 80.7853 159.272 80.7853Z" fill="#E2C8BA"/>
<path d="M159.954 80.2098V79.9468C159.954 79.2399 159.523 79.3344 158.993 79.6427L157.39 80.5674V81.6894L159.954 80.2098V80.2098Z" fill="url(#paint34_linear_45_1849)"/>
<path d="M157.394 80.5675L158.393 81.1635L160.739 80.0291L159.794 79.4661L157.394 80.5675Z" fill="url(#paint35_linear_45_1849)"/>
<path d="M160.957 80.8058V80.5428C160.957 79.8358 160.526 79.9304 159.996 80.2386L158.393 81.1634V82.2854L160.957 80.8058V80.8058Z" fill="#969696"/>
<path d="M158.393 81.1634L157.394 80.5675V81.6895L158.393 82.2855V81.1634Z" fill="url(#paint36_linear_45_1849)"/>
<path d="M158.031 68.7185L157.772 68.8623L157.76 69.1254C157.595 69.5035 157.419 70.2145 157.419 71.5297C157.419 73.1244 157.674 80.8757 157.674 80.8757L158.117 81.4264L158.376 81.2826C158.376 81.2826 158.643 73.8272 158.643 72.2325C158.643 69.783 158.031 68.7226 158.031 68.7226V68.7185Z" fill="#969696"/>
<path d="M157.772 68.8624C157.772 68.8624 157.16 69.2241 157.16 71.6736C157.16 73.2683 157.415 81.0196 157.415 81.0196L157.772 81.2251L158.117 81.4224C158.117 81.4224 158.385 73.967 158.385 72.3723C158.385 69.9228 157.772 68.8624 157.772 68.8624V68.8624Z" fill="url(#paint37_linear_45_1849)"/>
<path d="M152.396 82.5937C153.551 82.1375 157.415 81.0155 157.415 81.0155L158.031 81.2744L157.743 81.9649C157.743 81.9649 153.847 83.8596 152.692 84.3158C151.537 84.772 150.855 84.1637 150.855 84.1637C150.855 84.1637 151.237 83.0458 152.396 82.5896V82.5937Z" fill="url(#paint38_linear_45_1849)"/>
<path d="M163.76 88.5817C162.803 87.1104 158.381 81.0482 158.381 81.0482L158.126 81.188L158.179 81.451L157.986 81.8291C157.986 81.8291 162.01 88.668 162.971 90.1394C163.44 90.8586 163.859 91.1669 164.163 91.2984L164.422 91.5121L164.677 91.3724C164.677 91.3724 164.718 90.0531 163.76 88.5776V88.5817Z" fill="#969696"/>
<path d="M163.506 88.7215C162.548 87.2501 158.126 81.188 158.126 81.188L157.928 81.5784L157.731 81.9689C157.731 81.9689 161.755 88.8078 162.716 90.2792C163.674 91.7505 164.422 91.5121 164.422 91.5121C164.422 91.5121 164.463 90.1929 163.506 88.7174V88.7215Z" fill="url(#paint39_linear_45_1849)"/>
<path d="M157.636 81.4018C157.636 81.5292 157.715 81.6772 157.809 81.7306C157.904 81.784 157.982 81.7306 157.982 81.5991C157.982 81.4675 157.904 81.3237 157.809 81.2703C157.715 81.2168 157.636 81.2703 157.636 81.4018Z" fill="white"/>
<path d="M147.357 95.5729C146.659 95.5729 146.096 95.8893 146.096 96.2839C146.096 96.6784 146.663 96.9949 147.357 96.9949C148.052 96.9949 148.619 96.6784 148.619 96.2839C148.619 95.8893 148.052 95.5729 147.357 95.5729Z" fill="url(#paint40_linear_45_1849)"/>
<path d="M148.619 95.8318H146.092V96.2839H148.619V95.8318Z" fill="url(#paint41_linear_45_1849)"/>
<path d="M147.357 95.1206C146.659 95.1206 146.096 95.4371 146.096 95.8316C146.096 96.2262 146.663 96.5426 147.357 96.5426C148.052 96.5426 148.619 96.2262 148.619 95.8316C148.619 95.4371 148.052 95.1206 147.357 95.1206Z" fill="#969696"/>
<path d="M147.357 95.2933C146.959 95.2933 146.634 95.4742 146.634 95.7002C146.634 95.9263 146.959 96.1071 147.357 96.1071C147.756 96.1071 148.081 95.9263 148.081 95.7002C148.081 95.4742 147.756 95.2933 147.357 95.2933Z" fill="url(#paint42_linear_45_1849)"/>
<path d="M147.785 72.808H146.926C146.926 72.808 146.634 90.7766 146.634 95.7332H148.085C148.085 90.7807 147.785 72.808 147.785 72.808Z" fill="url(#paint43_linear_45_1849)"/>
<path d="M147.353 72.5654C147.115 72.5654 146.926 72.6723 146.926 72.8079C146.926 72.9435 147.119 73.0504 147.353 73.0504C147.588 73.0504 147.781 72.9435 147.781 72.8079C147.781 72.6723 147.588 72.5654 147.353 72.5654Z" fill="#E2C8BA"/>
<path d="M148.036 71.99V71.727C148.036 71.02 147.604 71.1146 147.074 71.4228L145.471 72.3476V73.4696L148.036 71.99V71.99Z" fill="url(#paint44_linear_45_1849)"/>
<path d="M145.475 72.3477L146.474 72.9436L148.821 71.8093L147.875 71.2462L145.475 72.3477Z" fill="url(#paint45_linear_45_1849)"/>
<path d="M149.038 72.5859V72.3229C149.038 71.616 148.607 71.7105 148.077 72.0188L146.474 72.9435V74.0655L149.038 72.5859V72.5859Z" fill="#969696"/>
<path d="M146.474 72.9436L145.475 72.3477V73.4697L146.474 74.0656V72.9436Z" fill="url(#paint46_linear_45_1849)"/>
<path d="M146.112 60.4987L145.853 60.6425L145.841 60.9055C145.676 61.2837 145.5 61.9947 145.5 63.3098C145.5 64.9045 145.754 72.6558 145.754 72.6558L146.198 73.2066L146.457 73.0627C146.457 73.0627 146.724 65.6073 146.724 64.0127C146.724 61.5631 146.112 60.5028 146.112 60.5028V60.4987Z" fill="#969696"/>
<path d="M145.853 60.6426C145.853 60.6426 145.241 61.0043 145.241 63.4538C145.241 65.0484 145.496 72.7998 145.496 72.7998L145.853 73.0053L146.198 73.2025C146.198 73.2025 146.466 65.7471 146.466 64.1525C146.466 61.7029 145.853 60.6426 145.853 60.6426V60.6426Z" fill="url(#paint47_linear_45_1849)"/>
<path d="M140.478 74.3739C141.632 73.9177 145.496 72.7957 145.496 72.7957L146.112 73.0546L145.825 73.745C145.825 73.745 141.928 75.6397 140.773 76.0959C139.619 76.5521 138.936 75.9439 138.936 75.9439C138.936 75.9439 139.319 74.826 140.478 74.3698V74.3739Z" fill="url(#paint48_linear_45_1849)"/>
<path d="M151.841 80.3619C150.884 78.8905 146.462 72.8284 146.462 72.8284L146.207 72.9681L146.26 73.2311L146.067 73.6093C146.067 73.6093 150.091 80.4482 151.052 81.9195C151.521 82.6388 151.94 82.947 152.244 83.0785L152.503 83.2923L152.758 83.1525C152.758 83.1525 152.799 81.8332 151.841 80.3578V80.3619Z" fill="#969696"/>
<path d="M151.587 80.5018C150.629 79.0304 146.207 72.9683 146.207 72.9683L146.009 73.3587L145.812 73.7492C145.812 73.7492 149.836 80.5881 150.797 82.0594C151.755 83.5308 152.503 83.2924 152.503 83.2924C152.503 83.2924 152.544 81.9731 151.587 80.4977V80.5018Z" fill="url(#paint49_linear_45_1849)"/>
<path d="M145.718 73.1819C145.718 73.3093 145.796 73.4573 145.89 73.5107C145.985 73.5642 146.063 73.5107 146.063 73.3792C146.063 73.2477 145.985 73.1038 145.89 73.0504C145.796 72.997 145.718 73.0504 145.718 73.1819Z" fill="white"/>
<path d="M154.344 79.1332C153.646 79.1332 153.083 79.4496 153.083 79.8442C153.083 80.2387 153.65 80.5552 154.344 80.5552C155.039 80.5552 155.606 80.2387 155.606 79.8442C155.606 79.4496 155.039 79.1332 154.344 79.1332Z" fill="url(#paint50_linear_45_1849)"/>
<path d="M155.606 79.392H153.078V79.8441H155.606V79.392Z" fill="url(#paint51_linear_45_1849)"/>
<path d="M154.344 78.681C153.646 78.681 153.083 78.9975 153.083 79.392C153.083 79.7866 153.65 80.1031 154.344 80.1031C155.039 80.1031 155.606 79.7866 155.606 79.392C155.606 78.9975 155.039 78.681 154.344 78.681Z" fill="#969696"/>
<path d="M154.344 78.8536C153.946 78.8536 153.621 79.0345 153.621 79.2605C153.621 79.4866 153.946 79.6674 154.344 79.6674C154.743 79.6674 155.068 79.4866 155.068 79.2605C155.068 79.0345 154.743 78.8536 154.344 78.8536Z" fill="url(#paint52_linear_45_1849)"/>
<path d="M154.772 56.3682H153.913C153.913 56.3682 153.621 74.3368 153.621 79.2934H155.072C155.072 74.3409 154.772 56.3682 154.772 56.3682Z" fill="url(#paint53_linear_45_1849)"/>
<path d="M154.34 56.1256C154.102 56.1256 153.913 56.2325 153.913 56.3681C153.913 56.5037 154.106 56.6106 154.34 56.6106C154.575 56.6106 154.768 56.5037 154.768 56.3681C154.768 56.2325 154.575 56.1256 154.34 56.1256Z" fill="#E2C8BA"/>
<path d="M155.023 55.5503V55.2873C155.023 54.5803 154.591 54.6749 154.061 54.9831L152.458 55.9079V57.0299L155.023 55.5503V55.5503Z" fill="url(#paint54_linear_45_1849)"/>
<path d="M152.462 55.9079L153.461 56.5038L155.808 55.3695L154.862 54.8064L152.462 55.9079Z" fill="url(#paint55_linear_45_1849)"/>
<path d="M156.025 56.1461V55.8831C156.025 55.1762 155.594 55.2707 155.064 55.5789L153.461 56.5037V57.6257L156.025 56.1461V56.1461Z" fill="#969696"/>
<path d="M153.461 56.5038L152.462 55.9078V57.0298L153.461 57.6258V56.5038Z" fill="url(#paint56_linear_45_1849)"/>
<path d="M153.099 44.059L152.84 44.2028L152.828 44.4658C152.663 44.844 152.487 45.555 152.487 46.8702C152.487 48.4648 152.742 56.2161 152.742 56.2161L153.185 56.7669L153.444 56.623C153.444 56.623 153.711 49.1676 153.711 47.573C153.711 45.1234 153.099 44.0631 153.099 44.0631V44.059Z" fill="#969696"/>
<path d="M152.84 44.2028C152.84 44.2028 152.228 44.5644 152.228 47.014C152.228 48.6086 152.483 56.3599 152.483 56.3599L152.84 56.5654L153.185 56.7627C153.185 56.7627 153.453 49.3073 153.453 47.7126C153.453 45.2631 152.84 44.2028 152.84 44.2028V44.2028Z" fill="url(#paint57_linear_45_1849)"/>
<path d="M147.464 57.934C148.619 57.4778 152.483 56.3558 152.483 56.3558L153.099 56.6148L152.811 57.3052C152.811 57.3052 148.915 59.1999 147.76 59.6561C146.605 60.1123 145.923 59.504 145.923 59.504C145.923 59.504 146.305 58.3861 147.464 57.9299V57.934Z" fill="url(#paint58_linear_45_1849)"/>
<path d="M158.828 63.9223C157.871 62.4509 153.448 56.3888 153.448 56.3888L153.194 56.5285L153.247 56.7916L153.054 57.1697C153.054 57.1697 157.077 64.0086 158.039 65.48C158.508 66.1992 158.927 66.5075 159.231 66.639L159.49 66.8527L159.745 66.7129C159.745 66.7129 159.786 65.3937 158.828 63.9182V63.9223Z" fill="#969696"/>
<path d="M158.574 64.062C157.616 62.5906 153.194 56.5284 153.194 56.5284L152.996 56.9189L152.799 57.3093C152.799 57.3093 156.823 64.1483 157.785 65.6196C158.742 67.091 159.49 66.8526 159.49 66.8526C159.49 66.8526 159.531 65.5333 158.574 64.0578V64.062Z" fill="url(#paint59_linear_45_1849)"/>
<path d="M152.705 56.7421C152.705 56.8695 152.783 57.0175 152.877 57.0709C152.972 57.1243 153.05 57.0709 153.05 56.9394C153.05 56.8079 152.972 56.664 152.877 56.6106C152.783 56.5572 152.705 56.6106 152.705 56.7421Z" fill="white"/>
<path d="M10.2849 136.431L7.32715 138.138L7.49771 138.434L10.4555 136.726L10.2849 136.431Z" fill="#2D2D2D"/>
<path d="M14.4347 138.928L11.4769 140.635L11.6475 140.931L14.6053 139.223L14.4347 138.928Z" fill="#2D2D2D"/>
<path d="M11.7751 136.175V142.069C11.7751 142.159 11.6436 142.233 11.4833 142.233C11.323 142.233 11.1915 142.159 11.1915 142.069V136.175H11.7751Z" fill="#2D2D2D"/>
<path d="M7.50475 131.798V139.672C7.50475 139.763 7.37323 139.837 7.21295 139.837C7.05266 139.837 6.92114 139.763 6.92114 139.672V131.798H7.50475V131.798Z" fill="#2D2D2D"/>
<path d="M32.115 130.339C32.115 130.429 31.9835 130.503 31.8232 130.503C31.6629 130.503 31.5314 130.429 31.5314 130.339V124.445H32.115V130.339V130.339Z" fill="#2D2D2D"/>
<path d="M27.8447 120.064V127.939C27.8447 128.029 27.7132 128.103 27.5529 128.103C27.3926 128.103 27.2611 128.029 27.2611 127.939V120.064H27.8447V120.064Z" fill="#2D2D2D"/>
<path d="M7.29945 138.36L7.12878 138.656L11.3955 141.121L11.5662 140.826L7.29945 138.36Z" fill="#2D2D2D"/>
<path d="M13.5297 139.861L36.2248 126.78L27.4131 118.075L4.71802 131.157L13.5297 139.861Z" fill="url(#paint60_linear_45_1849)"/>
<path d="M27.4132 118.556L31.6875 122.76L25.2678 119.793L27.4132 118.556Z" fill="#FFFFF8"/>
<path d="M16.3041 124.971L28.6421 130.672L26.2871 132.032L13.9491 126.332L16.3041 124.971Z" fill="#FFFFF8"/>
<path d="M23.9567 120.553L34.3014 125.337L35.6248 126.64L32.5012 128.444L20.1632 122.74L23.9567 120.553Z" fill="#FFFFF8"/>
<path d="M5.40027 131.268L13.9489 126.332L26.2869 132.032L13.6119 139.348L5.40027 131.268Z" fill="#FFFFF8"/>
<path opacity="0.5" d="M13.949 126.332L26.287 132.032L24.9718 132.792L12.6338 127.088L13.949 126.332Z" fill="#E5E5E5"/>
<path opacity="0.5" d="M20.907 135.135L13.6119 139.348L5.40027 131.268L8.56903 129.435L20.907 135.135Z" fill="#E5E5E5"/>
<path d="M25.2679 119.793L31.6876 122.76L34.3015 125.337L23.9568 120.553L25.2679 119.793Z" fill="#FFFFF8"/>
<path opacity="0.5" d="M25.2679 119.793L31.6876 122.76L34.3015 125.337L23.9568 120.553L25.2679 119.793Z" fill="#E5E5E5"/>
<path d="M20.1633 122.74L32.5013 128.444L28.6421 130.672L16.3041 124.971L20.1633 122.74Z" fill="#FFFFF8"/>
<path opacity="0.5" d="M20.1633 122.74L32.5013 128.444L28.6421 130.672L16.3041 124.971L20.1633 122.74Z" fill="#E5E5E5"/>
<path d="M33.7753 127.877L34.1123 127.696L29.9449 123.603L31.7532 122.559L31.4902 122.255L29.6489 123.315L25.6007 119.337L25.2636 119.517L29.3243 123.504L27.5734 124.515L23.5251 120.537L23.184 120.713L27.2446 124.704L25.6335 125.633L21.5811 121.65L21.2441 121.831L25.3089 125.822L23.558 126.833L19.5015 122.851L19.1645 123.027L23.2292 127.022L21.6551 127.935L17.7342 124.084L17.3972 124.264L21.3263 128.124L19.5755 129.135L15.6587 125.284L15.3176 125.46L19.2508 129.324L17.6068 130.269L13.5914 126.328L13.2544 126.504L17.278 130.458L15.5272 131.469L11.5159 127.528L11.1748 127.704L15.2025 131.658L13.6243 132.571L9.74453 128.761L9.40752 128.937L13.2996 132.76L11.5488 133.771L7.4553 129.747L7.11829 129.924L11.2241 133.956L9.06639 135.205L9.34587 135.497L11.5159 134.247L15.6258 138.283L15.967 138.107L11.8447 134.058L13.5914 133.047L17.9192 137.297L18.2562 137.12L13.9202 132.858L15.4943 131.95L19.6865 136.064L20.0235 135.887L15.8231 131.761L17.574 130.75L21.7661 134.864L22.1031 134.687L17.8986 130.561L19.5426 129.611L23.8293 133.82L24.1663 133.643L19.8714 129.422L21.6222 128.411L25.9089 132.624L26.2459 132.443L21.9469 128.222L23.5251 127.31L27.6762 131.387L28.0132 131.21L23.8498 127.125L25.6007 126.114L29.7517 130.191L30.0928 130.01L25.9295 125.925L27.5405 124.992L31.6957 129.073L32.0327 128.896L27.8693 124.803L29.6161 123.792L33.7753 127.877Z" fill="url(#paint61_linear_45_1849)"/>
<path d="M4.71803 131.157L4.52075 131.584L13.3283 140.289L13.5297 139.861L4.71803 131.157Z" fill="#969696"/>
<path d="M36.2248 126.78L36.0234 127.207L13.3284 140.289L13.5298 139.861L36.2248 126.78Z" fill="#969696"/>
<path d="M5.76149 119.581L2.80371 121.289L2.97427 121.584L5.93205 119.876L5.76149 119.581Z" fill="#2D2D2D"/>
<path d="M9.9153 122.078L6.95752 123.786L7.12809 124.081L10.0859 122.373L9.9153 122.078Z" fill="#2D2D2D"/>
<path d="M7.25402 119.324V125.218C7.25402 125.308 7.1225 125.382 6.96222 125.382C6.80193 125.382 6.67041 125.308 6.67041 125.218V119.324H7.25402Z" fill="#2D2D2D"/>
<path d="M2.98376 114.947V122.822C2.98376 122.912 2.85224 122.986 2.69195 122.986C2.53166 122.986 2.40015 122.912 2.40015 122.822V114.947H2.98376Z" fill="#2D2D2D"/>
<path d="M27.5942 113.488C27.5942 113.578 27.4627 113.652 27.3024 113.652C27.1421 113.652 27.0106 113.578 27.0106 113.488V107.594H27.5942V113.488V113.488Z" fill="#2D2D2D"/>
<path d="M23.3238 103.213V111.088C23.3238 111.178 23.1923 111.252 23.032 111.252C22.8718 111.252 22.7402 111.178 22.7402 111.088V103.213H23.3238V103.213Z" fill="#2D2D2D"/>
<path d="M2.77723 121.51L2.60657 121.806L6.87331 124.271L7.04398 123.976L2.77723 121.51Z" fill="#2D2D2D"/>
<path d="M9.00884 123.011L31.7039 109.929L22.8922 101.224L0.197144 114.306L9.00884 123.011Z" fill="url(#paint62_linear_45_1849)"/>
<path d="M22.8922 101.705L27.1665 105.909L20.7468 102.942L22.8922 101.705Z" fill="#FFFFF8"/>
<path d="M11.7831 108.121L24.1211 113.821L21.7661 115.181L9.4281 109.481L11.7831 108.121Z" fill="#FFFFF8"/>
<path d="M19.4356 103.702L29.7803 108.486L31.1037 109.789L27.9801 111.593L15.6421 105.889L19.4356 103.702Z" fill="#FFFFF8"/>
<path d="M0.879395 114.417L9.42806 109.481L21.7661 115.181L9.09104 122.497L0.879395 114.417Z" fill="#FFFFF8"/>
<path opacity="0.5" d="M9.42809 109.481L21.7661 115.181L20.4509 115.942L8.11292 110.237L9.42809 109.481Z" fill="#E5E5E5"/>
<path opacity="0.5" d="M16.3862 118.284L9.09104 122.497L0.879395 114.417L4.04815 112.584L16.3862 118.284Z" fill="#E5E5E5"/>
<path d="M20.7466 102.942L27.1663 105.909L29.7802 108.486L19.4355 103.702L20.7466 102.942Z" fill="#FFFFF8"/>
<path opacity="0.5" d="M20.7466 102.942L27.1663 105.909L29.7802 108.486L19.4355 103.702L20.7466 102.942Z" fill="#E5E5E5"/>
<path d="M15.6422 105.889L27.9802 111.593L24.121 113.821L11.783 108.12L15.6422 105.889Z" fill="#FFFFF8"/>
<path opacity="0.5" d="M15.6422 105.889L27.9802 111.593L24.121 113.821L11.783 108.12L15.6422 105.889Z" fill="#E5E5E5"/>
<path d="M29.2546 111.026L29.5916 110.845L25.4241 106.752L27.2325 105.708L26.9694 105.404L25.1282 106.464L21.0799 102.486L20.7429 102.667L24.8035 106.653L23.0527 107.664L19.0044 103.686L18.6633 103.863L22.7239 107.853L21.1128 108.782L17.0604 104.8L16.7234 104.98L20.7881 108.971L19.0373 109.982L14.9808 106L14.6437 106.176L18.7085 110.171L17.1344 111.084L13.2135 107.233L12.8765 107.414L16.8056 111.273L15.0547 112.284L11.138 108.433L10.7969 108.61L14.7301 112.473L13.0861 113.418L9.07068 109.477L8.73366 109.653L12.7573 113.607L11.0065 114.618L6.99516 110.677L6.65404 110.854L10.6818 114.807L9.10356 115.72L5.22378 111.91L4.88677 112.087L8.77887 115.909L7.02804 116.92L2.93455 112.896L2.59753 113.073L6.70336 117.105L4.54564 118.354L4.82512 118.646L6.99516 117.397L11.1051 121.433L11.4462 121.256L7.32396 117.207L9.07068 116.196L13.3984 120.446L13.7355 120.269L9.39947 116.007L10.9736 115.099L15.1657 119.213L15.5027 119.036L11.3024 114.91L13.0532 113.899L17.2453 118.013L17.5823 117.836L13.3779 113.71L15.0219 112.761L19.3085 116.969L19.6455 116.792L15.3507 112.571L17.1015 111.56L21.3881 115.773L21.7252 115.592L17.4262 111.371L19.0044 110.459L23.1554 114.536L23.4924 114.359L19.3291 110.274L21.0799 109.263L25.2309 113.34L25.5721 113.159L21.4087 109.074L23.0198 108.141L27.1749 112.222L27.5119 112.045L23.3486 107.952L25.0953 106.941L29.2546 111.026Z" fill="url(#paint63_linear_45_1849)"/>
<path d="M0.197277 114.306L0 114.733L8.80759 123.438L9.00897 123.011L0.197277 114.306Z" fill="#969696"/>
<path d="M31.7039 109.929L31.5025 110.356L8.8075 123.438L9.00888 123.011L31.7039 109.929Z" fill="#969696"/>
<path d="M15.218 95.3302L12.2603 97.0378L12.4308 97.3333L15.3886 95.6256L15.218 95.3302Z" fill="#2D2D2D"/>
<path d="M19.3678 97.8271L16.41 99.5348L16.5806 99.8302L19.5384 98.1225L19.3678 97.8271Z" fill="#2D2D2D"/>
<path d="M16.7069 95.0756V100.969C16.7069 101.06 16.5754 101.134 16.4151 101.134C16.2548 101.134 16.1233 101.06 16.1233 100.969V95.0756H16.7069Z" fill="#2D2D2D"/>
<path d="M12.4368 90.6985V98.5731C12.4368 98.6635 12.3052 98.7375 12.145 98.7375C11.9847 98.7375 11.8531 98.6635 11.8531 98.5731V90.6985H12.4368V90.6985Z" fill="#2D2D2D"/>
<path d="M37.0471 89.2395C37.0471 89.3299 36.9156 89.4039 36.7553 89.4039C36.595 89.4039 36.4635 89.3299 36.4635 89.2395V83.3458H37.0471V89.2395V89.2395Z" fill="#2D2D2D"/>
<path d="M32.7768 78.9646V86.8392C32.7768 86.9297 32.6453 87.0036 32.485 87.0036C32.3248 87.0036 32.1932 86.9297 32.1932 86.8392V78.9646H32.7768V78.9646Z" fill="#2D2D2D"/>
<path d="M12.231 97.2608L12.0603 97.5562L16.3271 100.022L16.4977 99.7262L12.231 97.2608Z" fill="#2D2D2D"/>
<path d="M18.462 98.7621L41.157 85.6802L32.3453 76.9753L9.65027 90.0573L18.462 98.7621Z" fill="url(#paint64_linear_45_1849)"/>
<path d="M32.3453 77.4563L36.6197 81.6608L30.2 78.6934L32.3453 77.4563Z" fill="#FFFFF8"/>
<path d="M21.2361 83.8719L33.5741 89.5724L31.2191 90.9328L18.8811 85.2323L21.2361 83.8719Z" fill="#FFFFF8"/>
<path d="M28.8888 79.4537L39.2335 84.2377L40.5569 85.5405L37.4334 87.3448L25.0953 81.6402L28.8888 79.4537Z" fill="#FFFFF8"/>
<path d="M10.3324 90.1683L18.8811 85.2323L31.2191 90.9328L18.544 98.2485L10.3324 90.1683Z" fill="#FFFFF8"/>
<path opacity="0.5" d="M18.8812 85.2323L31.2192 90.9328L29.9041 91.6931L17.566 85.9885L18.8812 85.2323Z" fill="#E5E5E5"/>
<path opacity="0.5" d="M25.8392 94.0357L18.544 98.2484L10.3324 90.1682L13.5012 88.3352L25.8392 94.0357Z" fill="#E5E5E5"/>
<path d="M30.1999 78.6934L36.6196 81.6607L39.2335 84.2377L28.8888 79.4537L30.1999 78.6934Z" fill="#FFFFF8"/>
<path opacity="0.5" d="M30.1999 78.6934L36.6196 81.6607L39.2335 84.2377L28.8888 79.4537L30.1999 78.6934Z" fill="#E5E5E5"/>
<path d="M25.0954 81.6401L37.4335 87.3447L33.5742 89.5723L21.2362 83.8718L25.0954 81.6401Z" fill="#FFFFF8"/>
<path opacity="0.5" d="M25.0954 81.6401L37.4335 87.3447L33.5742 89.5723L21.2362 83.8718L25.0954 81.6401Z" fill="#E5E5E5"/>
<path d="M38.7074 86.7776L39.0445 86.5968L34.877 82.5033L36.6854 81.4594L36.4223 81.1552L34.5811 82.2156L30.5328 78.2372L30.1958 78.418L34.2564 82.4047L32.5056 83.4157L28.4573 79.4373L28.1161 79.614L32.1768 83.6048L30.5657 84.5336L26.5133 80.5511L26.1763 80.7319L30.241 84.7227L28.4901 85.7337L24.4336 81.7512L24.0966 81.9279L28.1614 85.9228L26.5872 86.8352L22.6664 82.9842L22.3294 83.165L26.2585 87.0242L24.5076 88.0353L20.5909 84.1843L20.2497 84.361L24.1829 88.2243L22.539 89.1696L18.5236 85.2282L18.1865 85.4049L22.2102 89.3587L20.4593 90.3697L16.448 86.4283L16.1069 86.605L20.1347 90.5588L18.5564 91.4712L14.6767 87.6613L14.3396 87.838L18.2318 91.6602L16.4809 92.6713L12.3874 88.6476L12.0504 88.8244L16.1562 92.8562L13.9985 94.1056L14.278 94.3974L16.448 93.148L20.558 97.184L20.8991 97.0072L16.7768 92.959L18.5236 91.9479L22.8513 96.1976L23.1883 96.0209L18.8524 91.7589L20.4265 90.8506L24.6186 94.9646L24.9556 94.7879L20.7553 90.6615L22.5061 89.6505L26.6982 93.7645L27.0352 93.5878L22.8308 89.4614L24.4747 88.512L28.7614 92.7206L29.0984 92.5439L24.8035 88.323L26.5544 87.3119L30.841 91.5246L31.178 91.3438L26.8791 87.1229L28.4573 86.2105L32.6083 90.2875L32.9453 90.1108L28.782 86.0255L30.5328 85.0145L34.6838 89.0915L35.0249 88.9107L30.8616 84.8254L32.4727 83.8924L36.6278 87.9736L36.9648 87.7969L32.8015 83.7034L34.5482 82.6923L38.7074 86.7776Z" fill="url(#paint65_linear_45_1849)"/>
<path d="M9.6504 90.0574L9.45312 90.4848L18.2607 99.1896L18.4621 98.7622L9.6504 90.0574Z" fill="#969696"/>
<path d="M41.1571 85.6802L40.9557 86.1076L18.2606 99.1895L18.462 98.7621L41.1571 85.6802Z" fill="#969696"/>
<path d="M10.6945 78.4806L7.73669 80.1882L7.90725 80.4837L10.865 78.776L10.6945 78.4806Z" fill="#2D2D2D"/>
<path d="M14.8482 80.9776L11.8904 82.6853L12.0609 82.9807L15.0187 81.273L14.8482 80.9776Z" fill="#2D2D2D"/>
<path d="M12.1861 78.2249V84.1185C12.1861 84.2089 12.0546 84.2829 11.8943 84.2829C11.7341 84.2829 11.6025 84.2089 11.6025 84.1185V78.2249H12.1861Z" fill="#2D2D2D"/>
<path d="M7.91576 73.8478V81.7224C7.91576 81.8128 7.78425 81.8868 7.62396 81.8868C7.46367 81.8868 7.33215 81.8128 7.33215 81.7224V73.8478H7.91576V73.8478Z" fill="#2D2D2D"/>
<path d="M32.526 72.3888C32.526 72.4792 32.3945 72.5532 32.2342 72.5532C32.0739 72.5532 31.9424 72.4792 31.9424 72.3888V66.4951H32.526V72.3888V72.3888Z" fill="#2D2D2D"/>
<path d="M28.2557 62.1139V69.9885C28.2557 70.0789 28.1242 70.1529 27.9639 70.1529C27.8036 70.1529 27.6721 70.0789 27.6721 69.9885V62.1139H28.2557V62.1139Z" fill="#2D2D2D"/>
<path d="M7.70863 80.4108L7.53796 80.7062L11.8047 83.1716L11.9754 82.8762L7.70863 80.4108Z" fill="#2D2D2D"/>
<path d="M13.941 81.9114L36.636 68.8295L27.8243 60.1246L5.12927 73.2066L13.941 81.9114Z" fill="url(#paint66_linear_45_1849)"/>
<path d="M27.8245 60.6056L32.0988 64.8101L25.6791 61.8427L27.8245 60.6056Z" fill="#FFFFF8"/>
<path d="M16.7153 67.0211L29.0534 72.7216L26.6984 74.082L14.3604 68.3815L16.7153 67.0211Z" fill="#FFFFF8"/>
<path d="M24.3679 62.603L34.7126 67.387L36.036 68.6898L32.9125 70.4941L20.5745 64.7895L24.3679 62.603Z" fill="#FFFFF8"/>
<path d="M5.81152 73.3176L14.3602 68.3816L26.6982 74.0821L14.0232 81.3977L5.81152 73.3176Z" fill="#FFFFF8"/>
<path opacity="0.5" d="M14.3602 68.3816L26.6982 74.0821L25.3831 74.8424L13.045 69.1378L14.3602 68.3816Z" fill="#E5E5E5"/>
<path opacity="0.5" d="M21.3183 77.185L14.0232 81.3977L5.81152 73.3175L8.98028 71.4845L21.3183 77.185Z" fill="#E5E5E5"/>
<path d="M25.6789 61.8427L32.0986 64.81L34.7125 67.3869L24.3678 62.603L25.6789 61.8427Z" fill="#FFFFF8"/>
<path opacity="0.5" d="M25.6789 61.8427L32.0986 64.81L34.7125 67.3869L24.3678 62.603L25.6789 61.8427Z" fill="#E5E5E5"/>
<path d="M20.5746 64.7896L32.9126 70.4941L29.0534 72.7217L16.7153 67.0212L20.5746 64.7896Z" fill="#FFFFF8"/>
<path opacity="0.5" d="M20.5746 64.7896L32.9126 70.4941L29.0534 72.7217L16.7153 67.0212L20.5746 64.7896Z" fill="#E5E5E5"/>
<path d="M34.1863 69.9268L34.5233 69.746L30.3559 65.6525L32.1642 64.6085L31.9012 64.3044L30.0599 65.3648L26.0117 61.3864L25.6747 61.5672L29.7353 65.5538L27.9844 66.5649L23.9362 62.5865L23.595 62.7632L27.6556 66.7539L26.0445 67.6828L21.9922 63.7002L21.6551 63.8811L25.7199 67.8718L23.969 68.8829L19.9125 64.9003L19.5755 65.0771L23.6402 69.0719L22.0661 69.9843L18.1453 66.1333L17.8082 66.3142L21.7373 70.1734L19.9865 71.1844L16.0697 67.3334L15.7286 67.5102L19.6618 71.3735L18.0178 72.3188L14.0024 68.3773L13.6654 68.5541L17.6891 72.5078L15.9382 73.5189L11.9269 69.5774L11.5858 69.7542L15.6135 73.7079L14.0353 74.6203L10.1555 70.8104L9.81853 70.9872L13.7106 74.8094L11.9598 75.8204L7.86631 71.7968L7.5293 71.9735L11.6351 76.0054L9.47741 77.2548L9.75688 77.5466L11.9269 76.2972L16.0369 80.3331L16.378 80.1564L12.2557 76.1081L14.0024 75.0971L18.3302 79.3468L18.6672 79.17L14.3312 74.908L15.9053 73.9997L20.0975 78.1138L20.4345 77.937L16.2341 73.8107L17.985 72.7996L22.1771 76.9137L22.5141 76.7369L18.3097 72.6106L19.9536 71.6612L24.2403 75.8698L24.5773 75.693L20.2824 71.4721L22.0333 70.4611L26.3199 74.6738L26.6569 74.4929L22.3579 70.272L23.9362 69.3596L28.0872 73.4367L28.4242 73.2599L24.2608 69.1747L26.0117 68.1636L30.1627 72.2407L30.5038 72.0599L26.3405 67.9746L27.9516 67.0416L32.1067 71.1228L32.4437 70.9461L28.2803 66.8526L30.0271 65.8415L34.1863 69.9268Z" fill="url(#paint67_linear_45_1849)"/>
<path d="M5.12916 73.2065L4.93188 73.634L13.7395 82.3388L13.9409 81.9114L5.12916 73.2065Z" fill="#969696"/>
<path d="M36.6361 68.8296L36.4347 69.257L13.7396 82.3389L13.941 81.9115L36.6361 68.8296Z" fill="#969696"/>
<path d="M119.459 84.1309V111.248C123.586 108.186 126.048 104.385 126.064 100.283V84.1309H119.459V84.1309Z" fill="#B4B4B4"/>
<path d="M61.9902 84.1309C61.9902 86.3872 61.9902 100.719 61.9902 100.867C62.0354 104.853 64.3822 108.507 68.3072 111.445V84.1309H61.9902V84.1309Z" fill="#B4B4B4"/>
<path d="M68.3114 84.1309V111.445C74.1927 115.851 83.6332 118.646 94.245 118.523C104.536 118.404 113.652 115.56 119.459 111.248V84.1309H68.3073H68.3114Z" fill="#B4B4B4"/>
<path d="M68.3114 84.1309V111.445C71.8829 114.121 76.7738 116.197 82.4331 117.393V84.1309H68.3114V84.1309Z" fill="#D7D7D7"/>
<path d="M119.459 84.1309H105.338V117.277C110.976 116.032 115.855 113.928 119.459 111.252V84.135V84.1309Z" fill="#D7D7D7"/>
<path d="M82.433 84.1309V117.393C86.0949 118.165 90.0775 118.572 94.2449 118.523C98.1494 118.478 101.885 118.038 105.338 117.277V84.1309H82.433V84.1309Z" fill="#D7D7D7"/>
<path d="M93.8214 66.4417C76.1282 66.6513 61.879 74.8917 61.9941 84.8501C62.1092 94.8084 76.5515 102.716 94.2447 102.506C111.942 102.297 126.191 94.0563 126.072 84.0979C125.957 74.1396 111.515 66.2362 93.8214 66.4417Z" fill="#EFDBD3"/>
<path d="M67.0247 110.41L66.6713 110.093V94.7427L67.0247 95.0838V110.41Z" fill="#EDEDED"/>
<path d="M120.524 110.41L120.877 110.093V94.7427L120.524 95.0838V110.41Z" fill="#EDEDED"/>
<path d="M80.5711 116.965L80.2177 116.871V100.78L80.5711 100.875V116.965Z" fill="#EDEDED"/>
<path d="M106.575 116.965L106.928 116.871V100.78L106.575 100.875V116.965Z" fill="#EDEDED"/>
<path d="M60.9174 83.6253C60.9174 83.6253 60.9174 84.7144 60.9174 84.8706C61.0365 95.1208 75.8981 103.254 94.1051 103.041C112.209 102.827 126.804 94.4385 126.853 84.2706V82.7745L60.9174 83.6253V83.6253Z" fill="#1B1B1B"/>
<path d="M93.6693 64.8921C75.4582 65.1059 60.794 73.5888 60.9173 83.8348C61.0365 94.085 75.898 102.219 94.105 102.005C112.316 101.791 126.98 93.3082 126.857 83.058C126.738 72.812 111.876 64.6743 93.6652 64.888L93.6693 64.8921Z" fill="#2D2D2D"/>
<path d="M61.9902 78.3563C61.9902 78.3563 61.9902 81.8909 61.9902 83.1691C61.9902 87.1721 64.3493 90.8382 68.3072 93.785V78.3604H61.9902V78.3563Z" fill="#B4B4B4"/>
<path d="M119.459 78.3563V93.5507C123.586 90.4888 126.048 86.6872 126.064 82.5854V78.3563H119.459Z" fill="#B4B4B4"/>
<path d="M68.3112 78.3564V93.781C74.2049 98.1663 83.6618 100.945 94.2449 100.821C104.536 100.702 113.652 97.858 119.459 93.5467V78.3523H68.3071L68.3112 78.3564Z" fill="#B4B4B4"/>
<path d="M68.3112 78.3564V93.781C74.2049 98.1663 83.6618 100.945 94.2449 100.821C104.536 100.702 113.652 97.858 119.459 93.5467V78.3523H68.3071L68.3112 78.3564Z" fill="#D7D7D7"/>
<path d="M82.433 66.4293V99.691C86.0949 100.464 90.0775 100.871 94.2449 100.821C98.1494 100.776 101.885 100.336 105.338 99.5759V66.4293H82.433V66.4293Z" fill="#D7D7D7"/>
<path d="M93.8215 60.3219C76.1283 60.5315 61.8791 68.7719 61.9942 78.7303C62.1093 88.6887 76.5516 96.5962 94.2449 96.3866C111.942 96.177 126.191 87.9366 126.072 77.9782C125.957 68.0198 111.515 60.1164 93.8215 60.3219Z" fill="#EDEDED"/>
<path d="M93.7146 59.5C79.5888 59.6644 68.2166 66.2444 68.3111 74.193C68.4057 82.1416 79.9299 88.4545 94.0558 88.2859C108.182 88.1215 119.554 81.5415 119.463 73.5929C119.369 65.6443 107.845 59.3356 93.7187 59.5H93.7146Z" fill="#969696"/>
<path d="M93.5049 88.4627C86.851 88.4627 80.5956 87.0407 75.8363 84.435C70.9168 81.743 68.1836 78.1057 68.1384 74.193C68.0891 70.1283 71.0031 66.417 75.7336 63.7127C80.3532 61.0741 86.703 59.5781 93.7146 59.4959C100.492 59.4137 106.686 60.659 111.317 63.0386C116.385 65.6402 119.582 69.3885 119.632 73.5847C119.726 81.6155 108.251 88.286 94.0557 88.4545C93.8707 88.4545 93.6899 88.4545 93.5049 88.4545V88.4627ZM93.7187 59.5C92.0377 59.5205 90.3197 59.6521 88.8032 59.9973C77.1597 61.4193 68.4056 67.2924 68.4878 74.1889C68.533 77.97 71.2044 81.5005 76.009 84.1308C80.8464 86.7776 87.2661 88.1997 94.0557 88.1134C108.062 87.949 119.381 81.4347 119.291 73.593C119.208 66.7335 110.43 61.0988 98.852 59.9028C97.1957 59.5781 95.4777 59.4794 93.7187 59.5Z" fill="#EDEDED"/>
<path d="M117.651 65.9772C121.502 68.7802 123.606 72.1956 123.647 75.8123C123.701 80.214 120.688 84.3938 115.173 87.5873C109.624 90.7971 102.214 92.6137 94.3064 92.7082C94.0968 92.7082 93.8872 92.7082 93.6776 92.7082C77.6776 92.7082 64.682 85.5117 64.5752 76.5028C64.53 72.5654 66.9302 68.8049 71.3895 65.7717C70.214 66.5074 68.8331 67.4157 68.3152 67.8185C65.6191 70.4324 64.193 73.4121 64.2299 76.5028C64.3368 85.7008 77.4886 93.0494 93.6817 93.0494C93.8913 93.0494 94.1009 93.0494 94.3106 93.0494C102.276 92.9548 109.747 91.1218 115.345 87.8832C120.976 84.6281 124.046 80.3373 123.992 75.8041C123.96 72.9888 122.723 70.2968 120.421 67.913C119.722 67.1855 118.588 66.5362 117.651 65.9731V65.9772Z" fill="#EDEDED"/>
<path d="M93.7764 59.5C84.8578 59.6027 77.6778 63.7579 77.7353 68.7761C77.7929 73.7943 85.0716 77.7769 93.9901 77.6741C102.909 77.5673 110.089 73.4162 110.031 68.398C109.974 63.3798 102.695 59.3972 93.7764 59.5V59.5Z" fill="#B4B4B4"/>
<path d="M104.635 65.9238H104.47C103.595 63.1126 99.2096 61.0166 93.9571 61.0782C88.8567 61.1399 84.6234 63.2154 83.6412 65.9238H83.4233V67.1691C83.4603 70.4653 88.2402 73.0833 94.0968 73.0135C99.8055 72.9477 104.429 70.3543 104.622 67.1691H104.631V65.9238H104.635Z" fill="#B4B4B4"/>
<path d="M93.9611 59.8082C88.1044 59.8781 83.3904 62.603 83.4273 65.8991C83.4643 69.1953 88.2442 71.8133 94.1008 71.7435C99.9575 71.6736 104.672 68.9487 104.635 65.6525C104.598 62.3564 99.8178 59.7425 93.9611 59.8082Z" fill="#EDEDED"/>
<path d="M93.9694 60.7247C99.1355 60.663 103.356 62.9276 103.558 65.8087C103.562 65.7306 103.578 65.6566 103.574 65.5785C103.541 62.6111 99.2383 60.2561 93.9694 60.3219C88.7004 60.3835 84.4549 62.8372 84.4877 65.8046C84.4877 65.8621 84.5001 65.9196 84.5042 65.9813C84.685 63.1208 88.8319 60.7863 93.9652 60.7288L93.9694 60.7247Z" fill="#B4B4B4"/>
<path d="M94.0968 71.0612C99.2301 70.9995 103.377 68.6692 103.558 65.8046C103.356 62.9235 99.1356 60.6589 93.9694 60.7206C88.8361 60.7822 84.6891 63.1126 84.5083 65.9731C84.7097 68.8541 88.9306 71.1187 94.0968 71.0571V71.0612Z" fill="#D7D7D7"/>
<path d="M67.0247 92.7534L66.6713 92.4369V87.9653L67.0247 88.3023V92.7534Z" fill="#EDEDED"/>
<path d="M120.524 92.7534L120.877 92.4369V87.9653L120.524 88.3023V92.7534Z" fill="#EDEDED"/>
<path d="M80.5711 99.2636L80.2177 99.1732V94.7427L80.5711 94.8331V99.2636Z" fill="#EDEDED"/>
<path d="M106.575 99.3005L106.928 99.2059V94.7795L106.575 94.87V99.3005Z" fill="#EDEDED"/>
<path d="M71.5252 101.713L66.7001 98.9265C66.3261 98.7128 65.985 98.684 65.7096 98.8155C65.7096 98.8155 65.6233 98.8607 65.5822 98.8895L44.4818 111.207L51.9907 126.706L73.3048 114.261V104.689C73.3048 103.509 72.4129 102.223 71.5293 101.713H71.5252Z" fill="#1B1B1B"/>
<path d="M43.9473 122.061V112.489C43.9473 111.31 44.6707 110.763 45.5543 111.273L50.3794 114.059C51.263 114.569 51.9864 115.954 51.9864 117.134V126.706L43.9432 122.061H43.9473Z" fill="#2D2D2D"/>
<path d="M73.3006 114.261L51.9906 126.706V117.277L73.3006 104.972V114.261Z" fill="#2D2D2D"/>
<path d="M60.8024 111.98C60.8024 110.8 60.0791 109.415 59.1955 108.906L54.3704 106.119C53.9964 105.905 53.6553 105.877 53.3799 106.008C53.3347 106.029 53.2936 106.053 53.2525 106.082L53.084 106.181C53.3593 106.045 53.7087 106.07 54.0868 106.287L58.9119 109.074C59.7955 109.584 60.5189 110.969 60.5189 112.148V121.72L60.7983 121.556V111.984L60.8024 111.98Z" fill="#EDEDED"/>
<path d="M64.9616 109.559C64.9616 108.379 64.2383 106.994 63.3546 106.485L58.5296 103.698C58.1556 103.484 57.8144 103.456 57.5391 103.587C57.4939 103.608 57.4528 103.632 57.4117 103.661L57.2432 103.76C57.5185 103.624 57.8679 103.649 58.246 103.867L63.0711 106.653C63.9547 107.163 64.678 108.548 64.678 109.727V119.3L64.9575 119.135V109.563L64.9616 109.559Z" fill="#EDEDED"/>
<path d="M69.1333 107.126C69.1333 105.946 68.4099 104.561 67.5263 104.052L62.7012 101.265C62.3272 101.051 61.9861 101.023 61.7107 101.154C61.6655 101.175 61.6244 101.199 61.5833 101.228L61.4148 101.327C61.6902 101.191 62.0395 101.216 62.4176 101.434L67.2427 104.22C68.1263 104.73 68.8497 106.115 68.8497 107.294V116.866L69.1291 116.702V107.13L69.1333 107.126Z" fill="#EDEDED"/>
<path d="M73.3007 104.689C73.3007 103.509 72.5774 102.124 71.6937 101.615L66.8687 98.828C66.4947 98.6143 66.1536 98.5855 65.8782 98.717C65.833 98.7376 65.7919 98.7622 65.7508 98.791L65.5823 98.8896C65.8576 98.754 66.207 98.7787 66.5851 98.9965L71.4102 101.783C72.2938 102.293 73.0171 103.678 73.0171 104.857V114.429L73.2966 114.265V104.693L73.3007 104.689Z" fill="#EDEDED"/>
<path d="M52.2578 116.969C52.2578 115.79 51.5344 114.405 50.6508 113.895L45.8257 111.108C45.4517 110.895 45.1106 110.866 44.8352 110.998C44.79 111.018 44.7489 111.043 44.7078 111.071L44.5393 111.17C44.8147 111.035 45.164 111.059 45.5421 111.277L50.3672 114.064C51.2508 114.573 51.9742 115.958 51.9742 117.138V126.71L52.2536 126.545V116.973L52.2578 116.969Z" fill="#EDEDED"/>
<path d="M56.5321 114.479C56.5321 113.299 55.8087 111.914 54.9251 111.404L50.1 108.618C49.726 108.404 49.3849 108.375 49.1095 108.507C49.0643 108.527 49.0232 108.552 48.9821 108.581L48.8136 108.679C49.089 108.544 49.4383 108.568 49.8164 108.786L54.6415 111.573C55.5251 112.082 56.2485 113.467 56.2485 114.647V124.219L56.5279 124.055V114.483L56.5321 114.479Z" fill="#EDEDED"/>
<path d="M57.9337 103.386L58.0083 103.345C57.9835 103.357 57.9586 103.374 57.9337 103.386Z" fill="#EDEDED"/>
<path d="M46.056 123.278V114.795C46.056 114.109 46.4752 113.792 46.989 114.088L48.9494 115.222C49.4632 115.518 49.8824 116.32 49.8824 117.006V125.489L46.056 123.278V123.278Z" fill="#D7D7D7"/>
<path d="M46.364 123.459V115.046C46.364 114.511 46.6887 114.269 47.0874 114.499L48.8464 115.514C49.2451 115.744 49.5698 116.365 49.5698 116.895V125.308L46.364 123.455V123.459Z" fill="#969696"/>
<path d="M115.83 101.713L120.655 98.9265C121.029 98.7128 121.37 98.684 121.646 98.8155C121.646 98.8155 121.732 98.8607 121.773 98.8895L142.874 111.207L135.365 126.706L114.051 114.261V104.689C114.051 103.509 114.943 102.223 115.826 101.713H115.83Z" fill="#1B1B1B"/>
<path d="M143.408 122.061V112.489C143.408 111.31 142.685 110.763 141.801 111.273L136.976 114.059C136.092 114.569 135.369 115.954 135.369 117.134V126.706L143.412 122.061H143.408Z" fill="#2D2D2D"/>
<path d="M114.055 114.261L135.365 126.706V117.277L114.055 104.972V114.261Z" fill="#2D2D2D"/>
<path d="M126.553 111.98C126.553 110.8 127.276 109.415 128.16 108.906L132.985 106.119C133.359 105.905 133.7 105.877 133.976 106.008C134.021 106.029 134.062 106.053 134.103 106.082L134.271 106.181C133.996 106.045 133.647 106.07 133.269 106.287L128.444 109.074C127.56 109.584 126.837 110.969 126.837 112.148V121.72L126.557 121.556V111.984L126.553 111.98Z" fill="#EDEDED"/>
<path d="M122.394 109.559C122.394 108.379 123.117 106.994 124.001 106.485L128.826 103.698C129.2 103.484 129.541 103.456 129.816 103.587C129.862 103.608 129.903 103.632 129.944 103.661L130.112 103.76C129.837 103.624 129.488 103.649 129.109 103.867L124.284 106.653C123.401 107.163 122.677 108.548 122.677 109.727V119.3L122.398 119.135V109.563L122.394 109.559Z" fill="#EDEDED"/>
<path d="M118.222 107.126C118.222 105.946 118.946 104.561 119.829 104.052L124.654 101.265C125.028 101.051 125.369 101.023 125.645 101.154C125.69 101.175 125.731 101.199 125.772 101.228L125.941 101.327C125.665 101.191 125.316 101.216 124.938 101.434L120.113 104.22C119.229 104.73 118.506 106.115 118.506 107.294V116.866L118.226 116.702V107.13L118.222 107.126Z" fill="#EDEDED"/>
<path d="M114.055 104.689C114.055 103.509 114.778 102.124 115.662 101.615L120.487 98.828C120.861 98.6143 121.202 98.5855 121.477 98.717C121.522 98.7376 121.564 98.7622 121.605 98.791L121.773 98.8896C121.498 98.754 121.148 98.7787 120.77 98.9965L115.945 101.783C115.062 102.293 114.338 103.678 114.338 104.857V114.429L114.059 114.265V104.693L114.055 104.689Z" fill="#EDEDED"/>
<path d="M135.098 116.969C135.098 115.79 135.821 114.405 136.705 113.895L141.53 111.108C141.904 110.895 142.245 110.866 142.52 110.998C142.565 111.018 142.607 111.043 142.648 111.071L142.816 111.17C142.541 111.035 142.191 111.059 141.813 111.277L136.988 114.064C136.105 114.573 135.381 115.958 135.381 117.138V126.71L135.102 126.545V116.973L135.098 116.969Z" fill="#EDEDED"/>
<path d="M130.823 114.479C130.823 113.299 131.547 111.914 132.43 111.404L137.255 108.618C137.629 108.404 137.971 108.375 138.246 108.507C138.291 108.527 138.332 108.552 138.373 108.581L138.542 108.679C138.266 108.544 137.917 108.568 137.539 108.786L132.714 111.573C131.83 112.082 131.107 113.467 131.107 114.647V124.219L130.827 124.055V114.483L130.823 114.479Z" fill="#EDEDED"/>
<path d="M129.422 103.386L129.348 103.345C129.373 103.357 129.398 103.374 129.422 103.386Z" fill="#EDEDED"/>
<path d="M141.304 123.278V114.795C141.304 114.109 140.884 113.792 140.371 114.088L138.41 115.222C137.897 115.518 137.477 116.32 137.477 117.006V125.489L141.304 123.278V123.278Z" fill="#D7D7D7"/>
<path d="M140.991 123.459V115.046C140.991 114.511 140.666 114.269 140.268 114.499L138.509 115.514C138.11 115.744 137.785 116.365 137.785 116.895V125.308L140.991 123.455V123.459Z" fill="#969696"/>
<path d="M90.2952 104.976C90.5994 104.997 90.7514 105.009 91.0597 105.026C91.0597 106.674 91.0597 107.5 91.0597 109.148C90.7556 109.132 90.6035 109.119 90.2952 109.099C90.2952 108.063 90.2952 107.545 90.2952 106.509C89.987 107.027 89.8349 107.286 89.5267 107.8C89.2842 107.779 89.1609 107.767 88.9184 107.742C88.6143 107.179 88.4663 106.896 88.1622 106.324C88.1622 107.356 88.1622 107.87 88.1622 108.901C87.8581 108.869 87.706 108.848 87.4019 108.811C87.4019 107.163 87.4019 106.337 87.4019 104.689C87.7019 104.726 87.8539 104.746 88.1581 104.779C88.5855 105.589 88.7992 105.992 89.2308 106.789C89.6582 106.066 89.8719 105.704 90.2994 104.972L90.2952 104.976Z" fill="#1B1B1B"/>
<path d="M94.1133 109.23C93.8091 109.23 93.6571 109.23 93.3529 109.226C93.3529 108.737 93.3529 108.495 93.3529 108.005C92.983 108.001 92.8022 107.997 92.4323 107.985V109.206C92.1282 109.197 91.972 109.189 91.6678 109.177C91.6678 107.977 91.6678 107.377 91.6678 106.172C91.6678 106.004 91.7007 105.848 91.7624 105.7C91.824 105.556 91.9103 105.428 92.0213 105.322C92.1323 105.215 92.2638 105.133 92.4117 105.071C92.5597 105.009 92.72 104.985 92.8926 104.985C93.0611 104.985 93.2214 105.022 93.3694 105.091C93.5173 105.157 93.6447 105.248 93.7557 105.359C93.8667 105.47 93.953 105.601 94.0146 105.745C94.0763 105.893 94.1091 106.053 94.1091 106.222V107.241C94.1091 108.034 94.1091 108.433 94.1091 109.226L94.1133 109.23ZM93.3529 106.222C93.3529 106.094 93.3077 105.983 93.2214 105.893C93.131 105.802 93.0241 105.757 92.8926 105.753C92.7652 105.753 92.6542 105.79 92.5638 105.876C92.4734 105.963 92.4323 106.07 92.4323 106.197C92.4323 106.608 92.4323 106.809 92.4323 107.22C92.7981 107.233 92.983 107.237 93.3529 107.241C93.3529 106.83 93.3529 106.629 93.3529 106.218V106.222Z" fill="#1B1B1B"/>
<path d="M96.7314 105.137C96.8794 105.194 97.0109 105.272 97.1218 105.375C97.2328 105.478 97.3191 105.601 97.3849 105.745C97.4506 105.889 97.4835 106.045 97.4835 106.213C97.4835 106.382 97.4547 106.538 97.3931 106.682C97.3356 106.83 97.2492 106.961 97.1424 107.081C97.2451 107.183 97.3273 107.307 97.3849 107.446C97.4424 107.586 97.4753 107.738 97.4753 107.903V109.119C97.1712 109.14 97.0191 109.148 96.7108 109.164V107.948C96.7108 107.82 96.6656 107.709 96.5793 107.623C96.493 107.537 96.3862 107.496 96.2546 107.504C95.9505 107.516 95.7984 107.52 95.4943 107.529C95.4943 108.203 95.4943 108.54 95.4943 109.21C95.182 109.218 95.0299 109.222 94.7175 109.226C94.7175 107.578 94.7175 106.752 94.7175 105.104C95.0258 105.104 95.1778 105.096 95.4861 105.087C95.7902 105.079 95.9423 105.075 96.2464 105.063C96.4149 105.054 96.5752 105.079 96.7273 105.137H96.7314ZM96.5875 106.592C96.678 106.497 96.7232 106.386 96.7232 106.255C96.7232 106.123 96.678 106.02 96.5875 105.938C96.4971 105.856 96.3862 105.819 96.2588 105.823C95.9546 105.835 95.8025 105.839 95.4984 105.848V106.764C95.8025 106.756 95.9546 106.752 96.2588 106.74C96.3862 106.735 96.4971 106.682 96.5875 106.587V106.592Z" fill="#1B1B1B"/>
<path d="M99.9247 106.559C100.073 106.608 100.2 106.678 100.311 106.777C100.422 106.875 100.508 106.994 100.57 107.134C100.632 107.274 100.664 107.43 100.664 107.599C100.664 107.767 100.632 107.931 100.57 108.088C100.504 108.244 100.418 108.384 100.307 108.507C100.196 108.63 100.069 108.733 99.9164 108.811C99.7685 108.889 99.6082 108.938 99.4397 108.955C98.889 109.012 98.6136 109.037 98.0629 109.078C98.0629 108.774 98.0629 108.622 98.0629 108.314C98.6136 108.273 98.889 108.248 99.4397 108.19C99.5671 108.178 99.6781 108.12 99.7685 108.022C99.8589 107.923 99.9041 107.808 99.9041 107.681C99.9041 107.553 99.8589 107.446 99.7685 107.368C99.6781 107.29 99.5671 107.257 99.4397 107.27C99.3822 107.274 99.3534 107.278 99.2958 107.286C99.1273 107.303 98.967 107.286 98.8191 107.237C98.6711 107.188 98.5396 107.114 98.4287 107.011C98.3177 106.908 98.2314 106.789 98.1697 106.645C98.1081 106.501 98.0752 106.345 98.0752 106.176C98.0752 106.008 98.1081 105.844 98.1738 105.692C98.2396 105.535 98.3259 105.4 98.4369 105.281C98.5478 105.161 98.6752 105.063 98.8232 104.989C98.9712 104.915 99.1273 104.865 99.3 104.849C99.8425 104.796 100.114 104.763 100.656 104.697V105.461C100.114 105.531 99.8425 105.56 99.3 105.613C99.1725 105.626 99.0616 105.683 98.9753 105.778C98.8849 105.876 98.8438 105.987 98.8438 106.115C98.8438 106.242 98.889 106.349 98.9753 106.427C99.0657 106.509 99.1725 106.542 99.3 106.53C99.3616 106.526 99.3945 106.522 99.4561 106.513C99.6246 106.497 99.7849 106.513 99.9288 106.559H99.9247Z" fill="#1B1B1B"/>
<path d="M90.7433 114.659C90.4351 114.639 90.283 114.631 89.9747 114.606C89.9747 114.298 89.9747 114.146 89.9747 113.837C89.7939 113.825 89.7076 113.817 89.5268 113.8C89.3583 113.784 89.198 113.739 89.05 113.665C88.902 113.587 88.7746 113.488 88.6637 113.369C88.5527 113.25 88.4664 113.114 88.4006 112.962C88.3349 112.81 88.302 112.65 88.302 112.477C88.302 111.618 88.302 111.191 88.302 110.332C88.602 110.365 88.7541 110.381 89.0541 110.41C89.0541 111.269 89.0541 111.696 89.0541 112.555C89.0541 112.678 89.0993 112.789 89.1939 112.884C89.2843 112.978 89.3952 113.032 89.5268 113.044C89.7076 113.061 89.7939 113.065 89.9747 113.081C89.9747 112.046 89.9747 111.524 89.9747 110.488C90.283 110.513 90.4351 110.521 90.7433 110.541C90.7433 112.189 90.7433 113.015 90.7433 114.664V114.659Z" fill="#1B1B1B"/>
<path d="M92.9914 110.726C93.1393 110.792 93.2668 110.882 93.3777 110.993C93.4887 111.104 93.575 111.236 93.6408 111.384C93.7065 111.532 93.7394 111.692 93.7394 111.86C93.7394 112.534 93.7394 112.871 93.7394 113.545C93.7394 113.714 93.7065 113.874 93.6408 114.022C93.575 114.17 93.4887 114.298 93.3777 114.409C93.2668 114.52 93.1393 114.602 92.9914 114.663C92.8434 114.725 92.6831 114.75 92.5146 114.746C92.3461 114.741 92.1858 114.704 92.0379 114.635C91.8899 114.565 91.7625 114.474 91.6516 114.359C91.5406 114.244 91.4543 114.109 91.3926 113.961C91.331 113.808 91.2981 113.648 91.2981 113.48C91.2981 112.806 91.2981 112.469 91.2981 111.795C91.2981 111.626 91.331 111.47 91.3926 111.322C91.4543 111.178 91.5406 111.055 91.6516 110.948C91.7625 110.841 91.8899 110.763 92.0379 110.705C92.1858 110.648 92.3461 110.623 92.5146 110.627C92.6831 110.632 92.8434 110.668 92.9914 110.734V110.726ZM92.8434 113.858C92.9297 113.771 92.9749 113.665 92.9749 113.533C92.9749 112.859 92.9749 112.522 92.9749 111.848C92.9749 111.725 92.9297 111.614 92.8434 111.523C92.7571 111.433 92.6503 111.388 92.5187 111.384C92.3913 111.384 92.2804 111.421 92.1941 111.507C92.1078 111.593 92.0625 111.696 92.0625 111.823C92.0625 112.497 92.0625 112.834 92.0625 113.508C92.0625 113.636 92.1078 113.747 92.1941 113.841C92.2804 113.932 92.3872 113.981 92.5187 113.985C92.6503 113.985 92.7571 113.948 92.8434 113.862V113.858Z" fill="#1B1B1B"/>
<path d="M95.9915 110.702C96.1395 110.759 96.2669 110.841 96.3778 110.944C96.4888 111.051 96.5751 111.174 96.6409 111.318C96.7066 111.462 96.7395 111.618 96.7395 111.791C96.7395 112.465 96.7395 112.802 96.7395 113.476C96.7395 113.644 96.7066 113.804 96.6409 113.957C96.5751 114.109 96.4888 114.24 96.3778 114.355C96.2669 114.47 96.1395 114.565 95.9915 114.631C95.8436 114.696 95.6833 114.737 95.5148 114.742C95.3462 114.746 95.186 114.717 95.038 114.659C94.89 114.598 94.7626 114.516 94.6517 114.405C94.5407 114.294 94.4544 114.166 94.3927 114.018C94.3311 113.87 94.2982 113.714 94.2982 113.541C94.2982 112.867 94.2982 112.53 94.2982 111.856C94.2982 111.688 94.3311 111.528 94.3927 111.38C94.4544 111.232 94.5407 111.1 94.6517 110.989C94.7626 110.878 94.89 110.788 95.038 110.722C95.186 110.656 95.3462 110.623 95.5148 110.615C95.6833 110.611 95.8436 110.636 95.9915 110.693V110.702ZM95.8436 113.841C95.9299 113.751 95.9751 113.64 95.9751 113.509C95.9751 112.835 95.9751 112.498 95.9751 111.824C95.9751 111.7 95.9299 111.593 95.8436 111.507C95.7572 111.421 95.6504 111.38 95.5189 111.384C95.3915 111.384 95.2805 111.433 95.1942 111.523C95.1079 111.614 95.0627 111.721 95.0627 111.848C95.0627 112.522 95.0627 112.859 95.0627 113.533C95.0627 113.661 95.1079 113.772 95.1942 113.858C95.2805 113.944 95.3874 113.985 95.5189 113.981C95.6504 113.981 95.7572 113.932 95.8436 113.837V113.841Z" fill="#1B1B1B"/>
<path d="M98.9878 110.504C99.1357 110.553 99.2631 110.627 99.3741 110.726C99.4851 110.825 99.5714 110.944 99.6371 111.088C99.7029 111.228 99.7358 111.384 99.7358 111.552C99.7358 112.226 99.7358 112.563 99.7358 113.237C99.7358 113.406 99.7029 113.57 99.6412 113.722C99.5755 113.878 99.4892 114.014 99.3782 114.137C99.2672 114.261 99.1398 114.359 98.9919 114.433C98.8439 114.511 98.6877 114.557 98.5151 114.569C98.3466 114.581 98.1863 114.565 98.0384 114.511C97.8904 114.458 97.763 114.384 97.652 114.281C97.5411 114.178 97.4548 114.055 97.3931 113.911C97.3315 113.767 97.2986 113.611 97.2986 113.443C97.2986 112.769 97.2986 112.432 97.2986 111.758C97.2986 111.589 97.3315 111.429 97.3931 111.277C97.4548 111.125 97.5411 110.989 97.652 110.874C97.763 110.755 97.8904 110.66 98.0384 110.586C98.1863 110.512 98.3425 110.467 98.5151 110.455C98.6836 110.438 98.8439 110.455 98.9919 110.508L98.9878 110.504ZM98.8398 113.652C98.9261 113.554 98.9713 113.443 98.9713 113.315V111.63C98.9713 111.507 98.9261 111.404 98.8398 111.322C98.7535 111.24 98.6466 111.207 98.5151 111.219C98.3877 111.232 98.2767 111.285 98.1904 111.38C98.1041 111.474 98.0589 111.585 98.0589 111.708C98.0589 112.382 98.0589 112.719 98.0589 113.393C98.0589 113.521 98.1041 113.628 98.1904 113.71C98.2767 113.792 98.3836 113.825 98.5151 113.817C98.6425 113.804 98.7535 113.751 98.8398 113.656V113.652Z" fill="#1B1B1B"/>
<defs>
<linearGradient id="paint0_linear_45_1849" x1="176.082" y1="144.51" x2="165.499" y2="121.087" gradientUnits="userSpaceOnUse">
<stop stop-color="#D7D7D7"/>
<stop offset="1" stop-color="#B4B4B4"/>
</linearGradient>
<linearGradient id="paint1_linear_45_1849" x1="176.168" y1="144.473" x2="165.585" y2="121.046" gradientUnits="userSpaceOnUse">
<stop stop-color="#D7D7D7"/>
<stop offset="1" stop-color="#B4B4B4"/>
</linearGradient>
<linearGradient id="paint2_linear_45_1849" x1="176.3" y1="144.411" x2="165.72" y2="120.988" gradientUnits="userSpaceOnUse">
<stop stop-color="#D7D7D7"/>
<stop offset="1" stop-color="#B4B4B4"/>
</linearGradient>
<linearGradient id="paint3_linear_45_1849" x1="176.221" y1="134.412" x2="177.672" y2="134.412" gradientUnits="userSpaceOnUse">
<stop stop-color="#D7D7D7"/>
<stop offset="1" stop-color="#B4B4B4"/>
</linearGradient>
<linearGradient id="paint4_linear_45_1849" x1="175.066" y1="122.472" x2="177.627" y2="122.472" gradientUnits="userSpaceOnUse">
<stop stop-color="#D7D7D7"/>
<stop offset="1" stop-color="#B4B4B4"/>
</linearGradient>
<linearGradient id="paint5_linear_45_1849" x1="184.992" y1="140.486" x2="174.409" y2="117.064" gradientUnits="userSpaceOnUse">
<stop stop-color="#D7D7D7"/>
<stop offset="1" stop-color="#B4B4B4"/>
</linearGradient>
<linearGradient id="paint6_linear_45_1849" x1="183.595" y1="141.119" x2="173.012" y2="117.692" gradientUnits="userSpaceOnUse">
<stop stop-color="#D7D7D7"/>
<stop offset="1" stop-color="#B4B4B4"/>
</linearGradient>
<linearGradient id="paint7_linear_45_1849" x1="185.781" y1="140.129" x2="175.198" y2="116.706" gradientUnits="userSpaceOnUse">
<stop stop-color="#D7D7D7"/>
<stop offset="1" stop-color="#B4B4B4"/>
</linearGradient>
<linearGradient id="paint8_linear_45_1849" x1="180.241" y1="142.632" x2="169.662" y2="119.205" gradientUnits="userSpaceOnUse">
<stop stop-color="#D7D7D7"/>
<stop offset="1" stop-color="#B4B4B4"/>
</linearGradient>
<linearGradient id="paint9_linear_45_1849" x1="184.417" y1="140.745" x2="173.838" y2="117.323" gradientUnits="userSpaceOnUse">
<stop stop-color="#D7D7D7"/>
<stop offset="1" stop-color="#B4B4B4"/>
</linearGradient>
<linearGradient id="paint10_linear_45_1849" x1="164.163" y1="136.29" x2="153.58" y2="112.867" gradientUnits="userSpaceOnUse">
<stop stop-color="#D7D7D7"/>
<stop offset="1" stop-color="#B4B4B4"/>
</linearGradient>
<linearGradient id="paint11_linear_45_1849" x1="164.249" y1="136.253" x2="153.666" y2="112.826" gradientUnits="userSpaceOnUse">
<stop stop-color="#D7D7D7"/>
<stop offset="1" stop-color="#B4B4B4"/>
</linearGradient>
<linearGradient id="paint12_linear_45_1849" x1="164.381" y1="136.191" x2="153.802" y2="112.769" gradientUnits="userSpaceOnUse">
<stop stop-color="#D7D7D7"/>
<stop offset="1" stop-color="#B4B4B4"/>
</linearGradient>
<linearGradient id="paint13_linear_45_1849" x1="164.303" y1="126.192" x2="165.754" y2="126.192" gradientUnits="userSpaceOnUse">
<stop stop-color="#D7D7D7"/>
<stop offset="1" stop-color="#B4B4B4"/>
</linearGradient>
<linearGradient id="paint14_linear_45_1849" x1="163.148" y1="114.253" x2="165.708" y2="114.253" gradientUnits="userSpaceOnUse">
<stop stop-color="#D7D7D7"/>
<stop offset="1" stop-color="#B4B4B4"/>
</linearGradient>
<linearGradient id="paint15_linear_45_1849" x1="173.073" y1="132.266" x2="162.49" y2="108.844" gradientUnits="userSpaceOnUse">
<stop stop-color="#D7D7D7"/>
<stop offset="1" stop-color="#B4B4B4"/>
</linearGradient>
<linearGradient id="paint16_linear_45_1849" x1="171.676" y1="132.899" x2="161.093" y2="109.473" gradientUnits="userSpaceOnUse">
<stop stop-color="#D7D7D7"/>
<stop offset="1" stop-color="#B4B4B4"/>
</linearGradient>
<linearGradient id="paint17_linear_45_1849" x1="173.862" y1="131.909" x2="163.279" y2="108.486" gradientUnits="userSpaceOnUse">
<stop stop-color="#D7D7D7"/>
<stop offset="1" stop-color="#B4B4B4"/>
</linearGradient>
<linearGradient id="paint18_linear_45_1849" x1="168.322" y1="134.412" x2="157.743" y2="110.985" gradientUnits="userSpaceOnUse">
<stop stop-color="#D7D7D7"/>
<stop offset="1" stop-color="#B4B4B4"/>
</linearGradient>
<linearGradient id="paint19_linear_45_1849" x1="172.498" y1="132.525" x2="161.919" y2="109.103" gradientUnits="userSpaceOnUse">
<stop stop-color="#D7D7D7"/>
<stop offset="1" stop-color="#B4B4B4"/>
</linearGradient>
<linearGradient id="paint20_linear_45_1849" x1="171.15" y1="119.85" x2="160.567" y2="96.4278" gradientUnits="userSpaceOnUse">
<stop stop-color="#D7D7D7"/>
<stop offset="1" stop-color="#B4B4B4"/>
</linearGradient>
<linearGradient id="paint21_linear_45_1849" x1="171.236" y1="119.813" x2="160.653" y2="96.3865" gradientUnits="userSpaceOnUse">
<stop stop-color="#D7D7D7"/>
<stop offset="1" stop-color="#B4B4B4"/>
</linearGradient>
<linearGradient id="paint22_linear_45_1849" x1="171.368" y1="119.752" x2="160.789" y2="96.3291" gradientUnits="userSpaceOnUse">
<stop stop-color="#D7D7D7"/>
<stop offset="1" stop-color="#B4B4B4"/>
</linearGradient>
<linearGradient id="paint23_linear_45_1849" x1="171.29" y1="109.752" x2="172.74" y2="109.752" gradientUnits="userSpaceOnUse">
<stop stop-color="#D7D7D7"/>
<stop offset="1" stop-color="#B4B4B4"/>
</linearGradient>
<linearGradient id="paint24_linear_45_1849" x1="170.135" y1="97.8127" x2="172.695" y2="97.8127" gradientUnits="userSpaceOnUse">
<stop stop-color="#D7D7D7"/>
<stop offset="1" stop-color="#B4B4B4"/>
</linearGradient>
<linearGradient id="paint25_linear_45_1849" x1="180.06" y1="115.827" x2="169.477" y2="92.404" gradientUnits="userSpaceOnUse">
<stop stop-color="#D7D7D7"/>
<stop offset="1" stop-color="#B4B4B4"/>
</linearGradient>
<linearGradient id="paint26_linear_45_1849" x1="178.663" y1="116.46" x2="168.08" y2="93.0328" gradientUnits="userSpaceOnUse">
<stop stop-color="#D7D7D7"/>
<stop offset="1" stop-color="#B4B4B4"/>
</linearGradient>
<linearGradient id="paint27_linear_45_1849" x1="180.849" y1="115.469" x2="170.266" y2="92.0466" gradientUnits="userSpaceOnUse">
<stop stop-color="#D7D7D7"/>
<stop offset="1" stop-color="#B4B4B4"/>
</linearGradient>
<linearGradient id="paint28_linear_45_1849" x1="175.309" y1="117.972" x2="164.73" y2="94.5453" gradientUnits="userSpaceOnUse">
<stop stop-color="#D7D7D7"/>
<stop offset="1" stop-color="#B4B4B4"/>
</linearGradient>
<linearGradient id="paint29_linear_45_1849" x1="179.485" y1="116.085" x2="168.906" y2="92.6629" gradientUnits="userSpaceOnUse">
<stop stop-color="#D7D7D7"/>
<stop offset="1" stop-color="#B4B4B4"/>
</linearGradient>
<linearGradient id="paint30_linear_45_1849" x1="158.409" y1="102.589" x2="147.826" y2="79.166" gradientUnits="userSpaceOnUse">
<stop stop-color="#D7D7D7"/>
<stop offset="1" stop-color="#B4B4B4"/>
</linearGradient>
<linearGradient id="paint31_linear_45_1849" x1="158.495" y1="102.552" x2="147.913" y2="79.125" gradientUnits="userSpaceOnUse">
<stop stop-color="#D7D7D7"/>
<stop offset="1" stop-color="#B4B4B4"/>
</linearGradient>
<linearGradient id="paint32_linear_45_1849" x1="158.627" y1="102.49" x2="148.048" y2="79.0674" gradientUnits="userSpaceOnUse">
<stop stop-color="#D7D7D7"/>
<stop offset="1" stop-color="#B4B4B4"/>
</linearGradient>
<linearGradient id="paint33_linear_45_1849" x1="158.549" y1="92.4903" x2="160" y2="92.4903" gradientUnits="userSpaceOnUse">
<stop stop-color="#D7D7D7"/>
<stop offset="1" stop-color="#B4B4B4"/>
</linearGradient>
<linearGradient id="paint34_linear_45_1849" x1="157.394" y1="80.551" x2="159.954" y2="80.551" gradientUnits="userSpaceOnUse">
<stop stop-color="#D7D7D7"/>
<stop offset="1" stop-color="#B4B4B4"/>
</linearGradient>
<linearGradient id="paint35_linear_45_1849" x1="167.319" y1="98.5649" x2="156.736" y2="75.1424" gradientUnits="userSpaceOnUse">
<stop stop-color="#D7D7D7"/>
<stop offset="1" stop-color="#B4B4B4"/>
</linearGradient>
<linearGradient id="paint36_linear_45_1849" x1="165.922" y1="99.1978" x2="155.339" y2="75.7711" gradientUnits="userSpaceOnUse">
<stop stop-color="#D7D7D7"/>
<stop offset="1" stop-color="#B4B4B4"/>
</linearGradient>
<linearGradient id="paint37_linear_45_1849" x1="168.109" y1="98.2074" x2="157.525" y2="74.7849" gradientUnits="userSpaceOnUse">
<stop stop-color="#D7D7D7"/>
<stop offset="1" stop-color="#B4B4B4"/>
</linearGradient>
<linearGradient id="paint38_linear_45_1849" x1="162.569" y1="100.71" x2="151.99" y2="77.2837" gradientUnits="userSpaceOnUse">
<stop stop-color="#D7D7D7"/>
<stop offset="1" stop-color="#B4B4B4"/>
</linearGradient>
<linearGradient id="paint39_linear_45_1849" x1="166.744" y1="98.8237" x2="156.165" y2="75.4012" gradientUnits="userSpaceOnUse">
<stop stop-color="#D7D7D7"/>
<stop offset="1" stop-color="#B4B4B4"/>
</linearGradient>
<linearGradient id="paint40_linear_45_1849" x1="146.49" y1="94.3687" x2="135.907" y2="70.9461" gradientUnits="userSpaceOnUse">
<stop stop-color="#D7D7D7"/>
<stop offset="1" stop-color="#B4B4B4"/>
</linearGradient>
<linearGradient id="paint41_linear_45_1849" x1="146.577" y1="94.3317" x2="135.994" y2="70.9052" gradientUnits="userSpaceOnUse">
<stop stop-color="#D7D7D7"/>
<stop offset="1" stop-color="#B4B4B4"/>
</linearGradient>
<linearGradient id="paint42_linear_45_1849" x1="146.708" y1="94.27" x2="136.129" y2="70.8475" gradientUnits="userSpaceOnUse">
<stop stop-color="#D7D7D7"/>
<stop offset="1" stop-color="#B4B4B4"/>
</linearGradient>
<linearGradient id="paint43_linear_45_1849" x1="146.63" y1="84.2706" x2="148.081" y2="84.2706" gradientUnits="userSpaceOnUse">
<stop stop-color="#D7D7D7"/>
<stop offset="1" stop-color="#B4B4B4"/>
</linearGradient>
<linearGradient id="paint44_linear_45_1849" x1="145.475" y1="72.3311" x2="148.036" y2="72.3311" gradientUnits="userSpaceOnUse">
<stop stop-color="#D7D7D7"/>
<stop offset="1" stop-color="#B4B4B4"/>
</linearGradient>
<linearGradient id="paint45_linear_45_1849" x1="155.401" y1="90.3451" x2="144.818" y2="66.9226" gradientUnits="userSpaceOnUse">
<stop stop-color="#D7D7D7"/>
<stop offset="1" stop-color="#B4B4B4"/>
</linearGradient>
<linearGradient id="paint46_linear_45_1849" x1="154.003" y1="90.9779" x2="143.42" y2="67.5513" gradientUnits="userSpaceOnUse">
<stop stop-color="#D7D7D7"/>
<stop offset="1" stop-color="#B4B4B4"/>
</linearGradient>
<linearGradient id="paint47_linear_45_1849" x1="156.19" y1="89.9875" x2="145.607" y2="66.5651" gradientUnits="userSpaceOnUse">
<stop stop-color="#D7D7D7"/>
<stop offset="1" stop-color="#B4B4B4"/>
</linearGradient>
<linearGradient id="paint48_linear_45_1849" x1="150.65" y1="92.4905" x2="140.071" y2="69.0638" gradientUnits="userSpaceOnUse">
<stop stop-color="#D7D7D7"/>
<stop offset="1" stop-color="#B4B4B4"/>
</linearGradient>
<linearGradient id="paint49_linear_45_1849" x1="154.825" y1="90.604" x2="144.246" y2="67.1815" gradientUnits="userSpaceOnUse">
<stop stop-color="#D7D7D7"/>
<stop offset="1" stop-color="#B4B4B4"/>
</linearGradient>
<linearGradient id="paint50_linear_45_1849" x1="153.477" y1="77.929" x2="142.894" y2="54.5064" gradientUnits="userSpaceOnUse">
<stop stop-color="#D7D7D7"/>
<stop offset="1" stop-color="#B4B4B4"/>
</linearGradient>
<linearGradient id="paint51_linear_45_1849" x1="153.563" y1="77.8919" x2="142.981" y2="54.4654" gradientUnits="userSpaceOnUse">
<stop stop-color="#D7D7D7"/>
<stop offset="1" stop-color="#B4B4B4"/>
</linearGradient>
<linearGradient id="paint52_linear_45_1849" x1="153.695" y1="77.8303" x2="143.116" y2="54.4078" gradientUnits="userSpaceOnUse">
<stop stop-color="#D7D7D7"/>
<stop offset="1" stop-color="#B4B4B4"/>
</linearGradient>
<linearGradient id="paint53_linear_45_1849" x1="153.617" y1="67.8308" x2="155.068" y2="67.8308" gradientUnits="userSpaceOnUse">
<stop stop-color="#D7D7D7"/>
<stop offset="1" stop-color="#B4B4B4"/>
</linearGradient>
<linearGradient id="paint54_linear_45_1849" x1="152.462" y1="55.8914" x2="155.023" y2="55.8914" gradientUnits="userSpaceOnUse">
<stop stop-color="#D7D7D7"/>
<stop offset="1" stop-color="#B4B4B4"/>
</linearGradient>
<linearGradient id="paint55_linear_45_1849" x1="162.388" y1="73.9053" x2="151.804" y2="50.4827" gradientUnits="userSpaceOnUse">
<stop stop-color="#D7D7D7"/>
<stop offset="1" stop-color="#B4B4B4"/>
</linearGradient>
<linearGradient id="paint56_linear_45_1849" x1="160.99" y1="74.5381" x2="150.407" y2="51.1115" gradientUnits="userSpaceOnUse">
<stop stop-color="#D7D7D7"/>
<stop offset="1" stop-color="#B4B4B4"/>
</linearGradient>
<linearGradient id="paint57_linear_45_1849" x1="163.177" y1="73.5477" x2="152.593" y2="50.1252" gradientUnits="userSpaceOnUse">
<stop stop-color="#D7D7D7"/>
<stop offset="1" stop-color="#B4B4B4"/>
</linearGradient>
<linearGradient id="paint58_linear_45_1849" x1="157.636" y1="76.0506" x2="147.057" y2="52.624" gradientUnits="userSpaceOnUse">
<stop stop-color="#D7D7D7"/>
<stop offset="1" stop-color="#B4B4B4"/>
</linearGradient>
<linearGradient id="paint59_linear_45_1849" x1="161.812" y1="74.1642" x2="151.233" y2="50.7417" gradientUnits="userSpaceOnUse">
<stop stop-color="#D7D7D7"/>
<stop offset="1" stop-color="#B4B4B4"/>
</linearGradient>
<linearGradient id="paint60_linear_45_1849" x1="9.0129" y1="127.523" x2="39.9073" y2="131.424" gradientUnits="userSpaceOnUse">
<stop stop-color="#D7D7D7"/>
<stop offset="1" stop-color="#B4B4B4"/>
</linearGradient>
<linearGradient id="paint61_linear_45_1849" x1="9.03763" y1="127.351" x2="39.9279" y2="131.247" gradientUnits="userSpaceOnUse">
<stop stop-color="#D7D7D7"/>
<stop offset="1" stop-color="#B4B4B4"/>
</linearGradient>
<linearGradient id="paint62_linear_45_1849" x1="4.49202" y1="110.673" x2="35.3864" y2="114.573" gradientUnits="userSpaceOnUse">
<stop stop-color="#D7D7D7"/>
<stop offset="1" stop-color="#B4B4B4"/>
</linearGradient>
<linearGradient id="paint63_linear_45_1849" x1="4.51687" y1="110.5" x2="35.4071" y2="114.396" gradientUnits="userSpaceOnUse">
<stop stop-color="#D7D7D7"/>
<stop offset="1" stop-color="#B4B4B4"/>
</linearGradient>
<linearGradient id="paint64_linear_45_1849" x1="13.9451" y1="86.4241" x2="44.8395" y2="90.3244" gradientUnits="userSpaceOnUse">
<stop stop-color="#D7D7D7"/>
<stop offset="1" stop-color="#B4B4B4"/>
</linearGradient>
<linearGradient id="paint65_linear_45_1849" x1="13.9698" y1="86.2516" x2="44.86" y2="90.1478" gradientUnits="userSpaceOnUse">
<stop stop-color="#D7D7D7"/>
<stop offset="1" stop-color="#B4B4B4"/>
</linearGradient>
<linearGradient id="paint66_linear_45_1849" x1="9.42415" y1="69.5734" x2="40.3185" y2="73.4737" gradientUnits="userSpaceOnUse">
<stop stop-color="#D7D7D7"/>
<stop offset="1" stop-color="#B4B4B4"/>
</linearGradient>
<linearGradient id="paint67_linear_45_1849" x1="9.44864" y1="69.4007" x2="40.3389" y2="73.2969" gradientUnits="userSpaceOnUse">
<stop stop-color="#D7D7D7"/>
<stop offset="1" stop-color="#B4B4B4"/>
</linearGradient>
</defs>
</svg>
