<svg width="97" height="114" viewBox="0 0 97 114" fill="none" xmlns="http://www.w3.org/2000/svg">
<path d="M31.5224 92.1015C31.8227 93.8782 31.4166 95.7861 29.9487 97.6812C25.8538 102.973 18.3578 101.785 13.0869 99.1576C10.7687 98.0027 7.57906 96.2599 7.04604 93.4594C6.69916 91.632 7.51983 89.631 8.67047 87.9474C6.2719 89.3095 3.44185 92.2369 3.11612 94.9104C2.71001 98.2312 6.14076 100.114 8.59855 101.472C14.191 104.564 23.1042 107.686 29.2254 103.104C34.8051 98.9249 34.1579 95.0966 31.5266 92.1057L31.5224 92.1015Z" fill="#86A7A8"/>
<path d="M7.05014 93.4594C7.58315 96.2599 10.7728 97.9985 13.091 99.1576C18.3619 101.789 25.8579 102.978 29.9528 97.6812C31.4207 95.7861 31.8268 93.8782 31.5265 92.1015C28.2057 88.3281 21.7334 85.8957 20.6039 85.7984C16.7205 85.4642 13.0994 86.0607 9.60945 87.482C9.3091 87.6047 8.99606 87.7612 8.67456 87.9431C7.52393 89.631 6.70325 91.6277 7.05014 93.4552V93.4594Z" fill="#B6CFD1"/>
<path d="M2.86234 101.488C1.91899 100.943 1.06447 100.097 0.307251 99.2167C0.362245 99.0771 0.400317 98.9417 0.472232 98.8021C1.49173 96.7208 3.58148 97.22 5.43011 97.8757C6.55113 98.2734 7.69331 99.4578 8.34054 100.384C7.04185 102.055 4.86749 102.639 2.86657 101.484L2.86234 101.488Z" fill="#B6CFD1"/>
<path d="M2.74403 104.141C0.252396 102.969 -0.487902 101.239 0.303159 99.2209C1.06461 100.101 1.91489 100.947 2.85824 101.493C4.85916 102.647 7.03352 102.064 8.33222 100.393C8.66218 100.867 8.87369 101.277 8.86946 101.471C8.82293 104.2 4.18655 104.826 2.7398 104.145L2.74403 104.141Z" fill="#86A7A8"/>
<path d="M44.8857 100.249C46.0448 99.7075 49.2937 97.7446 49.869 95.7733C49.5602 95.4518 49.226 95.1684 48.8876 94.9357C46.9755 93.6201 43.9974 93.2944 40.3171 96.2471C39.141 97.1905 38.0581 98.7514 37.542 100.27C38.9126 102.182 42.9737 101.137 44.8857 100.245V100.249Z" fill="#B6CFD1"/>
<path d="M39.2256 104.462C42.0599 105.067 47.2251 103.257 50.2709 100.702C52.0264 99.2294 51.2058 97.1608 49.869 95.7733C49.2937 97.7446 46.0448 99.7075 44.8857 100.249C42.9779 101.142 38.9126 102.186 37.542 100.274C36.8905 102.182 37.1359 104.014 39.2256 104.462Z" fill="#86A7A8"/>
<path d="M35.1859 107.673C36.4762 108.418 37.9779 108.701 39.4416 108.828C41.9459 109.044 44.391 108.777 45.7109 106.692C44.3445 104.517 38.2867 101.205 35.5244 102.656C34.4541 103.219 33.2654 104.056 32.7535 105.19C33.2316 106.269 34.5091 107.284 35.1902 107.673H35.1859Z" fill="#B6CFD1"/>
<path d="M37.9271 110.448C41.2183 110.913 46.65 111.163 45.99 107.322C45.9562 107.132 45.8504 106.916 45.7108 106.696C44.391 108.781 41.9459 109.048 39.4416 108.832C37.9779 108.705 36.4761 108.422 35.1859 107.677C34.5048 107.284 33.2273 106.273 32.7493 105.194C32.7027 105.3 32.652 105.401 32.6181 105.511C31.6283 108.612 36.1081 110.194 37.9271 110.452V110.448Z" fill="#86A7A8"/>
<path d="M23.6454 111.768C25.0668 111.709 27.88 111.446 28.4637 109.792C27.5161 108.764 24.8722 107.178 23.0278 107.326C21.3273 107.462 19.614 108.147 18.493 108.887C17.1901 111.527 22.5329 111.815 23.6454 111.772V111.768Z" fill="#B6CFD1"/>
<path d="M17.2535 110.144C16.1663 113.261 22.038 113.422 23.7174 113.414C25.4687 113.405 30.4266 112.745 28.7091 110.084C28.6499 109.995 28.5653 109.894 28.4722 109.792C27.8842 111.451 25.0711 111.713 23.6539 111.768C22.5414 111.815 17.1985 111.527 18.5014 108.883C17.8458 109.319 17.3889 109.771 17.2577 110.144H17.2535Z" fill="#86A7A8"/>
<path d="M83.58 93.3409C86.1986 93.2817 87.4634 92.6429 88.2164 91.2342C88.9482 87.8965 88.8806 82.6172 88.1487 80.4682C87.1842 77.6339 80.5765 80.4513 80.5765 80.4513C80.5765 80.4513 79.5993 84.3981 79.3751 88.1165C79.2863 89.5887 79.2948 90.8535 79.5443 91.8519C79.9801 92.3849 81.1349 93.3959 83.5843 93.3367L83.58 93.3409Z" fill="#E9EEF4"/>
<path d="M80.8472 93.7893C82.3363 94.6481 86.6723 94.8088 87.5776 93.1886C87.8526 92.6937 88.0514 92.0126 88.2206 91.2343C87.4676 92.6429 86.2028 93.2817 83.5842 93.3409C81.1349 93.3959 79.9843 92.3891 79.5443 91.8561C79.7601 92.7233 80.1535 93.3917 80.8472 93.7936V93.7893Z" fill="#D8E1EA"/>
<path d="M82.4338 82.8245C82.3746 83.3279 82.1588 85.5868 82.0827 87.4651C82.0065 89.3475 82.7214 89.6479 84.0751 89.724C85.4288 89.8002 86.038 88.9203 85.9745 86.987C85.9153 85.058 85.6699 82.8245 85.6699 82.8245H82.4338Z" fill="#D8E1EA"/>
<path d="M69.5144 83.5563C72.0737 81.75 72.8394 79.343 72.8394 79.343C72.8394 79.343 73.8039 79.2668 74.633 78.8903C75.0433 78.7042 75.3775 78.3615 75.6102 78.0612V74.8335L68.1522 75.6119C68.1522 75.6119 67.4289 76.3818 66.3924 77.1982C65.1572 78.1669 63.0124 79.9648 62.5471 80.8955C61.976 82.0292 61.9972 83.4548 62.0733 84.2924C62.4583 84.5039 62.9659 84.7408 63.647 84.9904C66.1302 85.8914 66.9593 85.3669 69.5186 83.5605L69.5144 83.5563Z" fill="#E9EEF4"/>
<path d="M65.597 86.3737C67.0565 86.5725 69.032 85.0623 70.5211 83.7678C72.8392 81.7542 73.2031 80.1213 73.2031 80.1213C73.2031 80.1213 73.7488 80.244 74.5567 79.9056C75.0432 79.7025 75.6101 79.0849 75.6101 78.8184V78.0654C75.3732 78.3658 75.039 78.7084 74.6329 78.8946C73.8037 79.2711 72.8392 79.3472 72.8392 79.3472C72.8392 79.3472 72.0736 81.7542 69.5143 83.5606C66.9549 85.3669 66.1258 85.8957 63.6426 84.9904C62.9616 84.7408 62.4539 84.5081 62.069 84.2924C62.107 84.7154 62.162 84.9904 62.162 84.9904C62.162 84.9904 63.7188 86.1199 65.597 86.3779V86.3737Z" fill="#D8E1EA"/>
<path d="M68.1522 76.1787C68.1522 76.1787 66.3543 77.6847 65.301 78.738C64.2477 79.7914 63.9981 80.1679 64.988 80.6966C65.9779 81.2254 67.3188 80.7982 68.8417 79.1145C70.3646 77.4309 70.5212 77.1982 70.5212 77.1982L68.1522 76.1829V76.1787Z" fill="#D8E1EA"/>
<path d="M72.3317 14.7509C72.3317 14.7509 70.0389 13.4734 67.5938 16.3373C66.164 18.0125 65.8002 19.8188 65.0853 22.2724C64.5819 24.011 63.1182 27.1964 62.3948 29.4469C58.3253 32.3954 55.6179 34.3329 54.6788 36.0757C54.1923 36.981 55.8548 40.2679 57.7965 39.8788C59.2729 39.5826 63.8246 37.3575 67.2512 35.1451C69.4847 33.7068 73.2539 25.5212 73.3555 24.9205C73.457 24.3198 72.3317 14.7509 72.3317 14.7509Z" fill="#D8E1EA"/>
<path d="M73.3217 74.732C73.5247 73.4883 73.9689 72.1812 73.9181 70.9417C73.3513 71.0982 72.6787 71.4324 72.1118 71.5847C71.8622 71.6524 71.545 71.4536 71.5703 71.1744C71.6253 70.5144 73.8716 69.7572 73.9181 68.5431C73.952 67.6717 73.8758 66.8933 73.7785 66.4534C73.5247 65.3239 72.3318 66.483 71.4392 66.6733C71.1346 66.7368 70.7497 66.3857 70.9823 66.0811C71.3884 65.5481 71.9003 65.1801 72.3233 64.6893C73.0298 63.8729 73.4528 62.405 73.1567 61.3178C72.7337 59.778 71.16 61.0682 70.2167 60.2603C69.984 60.0614 70.1194 59.668 70.3943 59.5919C71.1346 59.448 72.4164 58.9446 72.8437 58.3228C73.5374 57.3118 71.2446 57.2948 70.792 56.9691C70.5128 56.7703 70.5382 56.343 70.8893 56.233C71.2785 56.1061 71.8834 55.92 72.2683 55.7719C73.3936 55.3362 74.1254 54.7017 74.1212 53.7203C74.1212 53.403 73.4443 53.2084 73.1863 53.0942C72.5687 52.8192 72.6787 52.337 73.1863 52.2946C74.5654 52.2354 75.4157 51.584 76.0967 50.4968C76.1475 50.3149 76.2913 50.1668 76.5494 50.188C77.2558 50.2387 77.8734 50.4206 78.4276 50.6956C78.453 50.5941 78.4699 50.5306 78.4699 50.5306L80.7035 43.0388L68.2834 41.6428C68.2834 41.6428 66.5913 45.9619 65.7156 51.0425C64.9965 55.2093 65.0557 57.9082 65.005 60.2983C64.9373 63.4668 65.4914 65.0193 65.7156 69.6684C65.8975 73.4418 66.6082 76.0053 66.6082 76.0053C66.6082 76.0053 68.9856 77.8709 72.3487 77.4225C72.7294 77.3717 73.0763 77.2913 73.4105 77.1983C73.2921 76.6145 73.144 75.8911 73.3344 74.732H73.3217Z" fill="#D8E1EA"/>
<path d="M75.5637 61.5335C75.4664 60.7509 75.1111 59.596 75.4664 58.3777C77.0105 56.1272 78.1949 51.5881 78.4149 50.6955C77.8607 50.4205 77.2431 50.2386 76.5367 50.1879C76.2828 50.171 76.1348 50.3148 76.084 50.4967C75.403 51.5839 74.5527 52.2311 73.1736 52.2946C72.666 52.3369 72.556 52.8191 73.1736 53.0941C73.4316 53.2083 74.1085 53.4071 74.1085 53.7202C74.1085 54.7016 73.3809 55.3361 72.2556 55.7718C71.8749 55.9199 71.27 56.106 70.8766 56.2329C70.5254 56.3429 70.5043 56.7702 70.7793 56.969C71.2319 57.2947 73.5247 57.3117 72.8309 58.3227C72.4037 58.9445 71.1219 59.4437 70.3816 59.5918C70.1067 59.6637 69.9713 60.0613 70.2039 60.2602C71.1473 61.0639 72.721 59.7779 73.144 61.3177C73.4443 62.4049 73.0213 63.8728 72.3106 64.6892C71.8876 65.18 71.38 65.548 70.9696 66.081C70.737 66.3856 71.1177 66.7367 71.4265 66.6732C72.3191 66.4829 73.512 65.3238 73.7658 66.4533C73.8631 66.8932 73.9393 67.6716 73.9054 68.543C73.8589 69.7571 71.6126 70.5143 71.5576 71.1743C71.5323 71.4577 71.8495 71.6523 72.0991 71.5846C72.666 71.4323 73.3428 71.0981 73.9054 70.9416C73.9604 72.1811 73.512 73.4882 73.309 74.7319C73.1186 75.891 73.2667 76.6144 73.3851 77.1982C75.0941 76.7244 76.1856 75.8445 76.1856 75.8445C76.1856 75.8445 76.8751 63.6909 75.551 61.5377L75.5637 61.5335Z" fill="#CAD6E0"/>
<path d="M87.9965 77.4901C88.1149 75.9418 87.6496 75.9545 86.6512 76.5552C85.6529 77.1559 85.0141 76.4029 85.5429 75.578C86.0717 74.7489 87.0489 73.3952 87.5015 72.566C87.9542 71.7369 87.5777 70.9839 86.6555 71.4662C85.7333 71.9484 85.0945 72.6422 85.0649 71.813C85.0353 70.9839 87.2773 69.4779 88.0007 68.7292C88.7241 67.9762 87.6538 66.0218 87.4296 64.5877C87.2054 63.1579 87.4296 60.6747 87.6538 59.5664C87.878 58.4581 87.5015 58.0393 86.8162 58.4919C86.1309 58.9446 85.471 59.0926 85.6233 58.4919C85.7756 57.8912 86.977 57.5147 87.6538 56.6856C88.3307 55.8565 87.878 55.0315 87.6538 52.0196C87.4296 49.0076 86.6851 45.1835 86.6851 45.1835C86.6851 45.1835 87.5692 44.7816 88.8806 44.2359C88.8129 43.6733 88.7325 43.1233 88.6437 42.6115C87.9034 38.5123 74.2735 43.0345 74.2735 43.0345C74.2735 43.0345 74.2481 48.8638 75.5468 50.4755C76.8412 52.0873 77.4885 52.8064 77.4885 52.8064C77.4885 52.8064 78.0173 61.7492 78.5122 64.9896C79.0072 68.23 79.4386 81.1916 79.4386 81.1916C79.4386 81.1916 81.4311 84.305 85.0522 84.1739C86.1902 84.1316 87.2139 83.5436 87.9669 82.9598C87.6834 81.0858 87.9034 78.7507 88.0007 77.4943L87.9965 77.4901Z" fill="#D8E1EA"/>
<path d="M89.2147 81.7499C89.2147 81.7499 88.9186 68.7292 88.6986 63.6909C88.5971 61.322 89.0751 56.8167 89.1428 54.7312C89.2866 50.3021 89.2105 46.9517 88.8763 44.2401C87.5649 44.7816 86.6808 45.1877 86.6808 45.1877C86.6808 45.1877 87.4253 49.0119 87.6495 52.0238C87.8737 55.0358 88.3264 55.8607 87.6495 56.6898C86.9727 57.5189 85.767 57.8954 85.619 58.4961C85.4667 59.0968 86.1266 58.9488 86.8119 58.4961C87.4972 58.0435 87.8737 58.4623 87.6495 59.5706C87.4253 60.679 87.1969 63.1621 87.4253 64.592C87.6495 66.0218 88.7198 67.9804 87.9964 68.7334C87.273 69.4864 85.031 70.9924 85.0606 71.8173C85.0902 72.6464 85.729 71.9484 86.6512 71.4704C87.5734 70.9881 87.9499 71.7411 87.4972 72.5703C87.0446 73.3994 86.0674 74.7531 85.5386 75.5822C85.0098 76.4113 85.6486 77.1643 86.6469 76.5594C87.6453 75.9587 88.1106 75.946 87.9922 77.4943C87.8949 78.7507 87.6749 81.0858 87.9583 82.9598C88.7282 82.3549 89.2105 81.7542 89.2105 81.7542L89.2147 81.7499Z" fill="#CAD6E0"/>
<path d="M64.9161 22.8096C64.8865 22.89 66.2444 23.7107 66.7098 23.7487C67.1793 23.7826 68.368 20.0853 68.5076 19.2012C68.643 18.3171 66.6125 17.7968 66.6125 17.7968C66.6125 17.7968 65.9441 18.2029 65.3603 20.0346C64.9077 21.4517 64.9204 22.8139 64.9204 22.8139L64.9161 22.8096Z" fill="#D8E1EA"/>
<path d="M68.2707 41.6428L67.835 42.8484C67.835 42.8484 70.1828 45.5347 75.8175 47.1168C76.5155 47.3114 80.2085 47.9417 81.9302 47.709C86.3297 47.1126 88.5675 45.7293 88.5675 45.7293C88.5675 45.7293 88.9652 44.1133 88.5675 44.1133C88.1699 44.1133 68.2707 41.6471 68.2707 41.6471V41.6428Z" fill="#D8E1EA"/>
<path d="M83.4107 17.6106C83.4107 17.6106 86.0546 18.2028 87.459 19.9541C88.8635 21.7097 88.6689 26.5111 88.2755 29.8995C87.9921 32.3446 88.0428 35.0478 88.1317 37.4252C88.1993 39.1765 88.5716 41.8796 88.5631 43.043C88.5505 44.4728 85.4497 46.5752 80.496 46.5752C75.5424 46.5752 69.7342 43.999 68.0886 42.1208C68.0886 41.1774 67.8306 39.0792 68.4313 36.7779C68.1732 33.4614 67.7756 29.2734 67.839 26.418C67.9279 22.6065 68.3171 18.2197 69.7807 16.5318C70.4322 15.7789 71.7563 16.6884 72.9069 16.5868C76.6338 16.2527 83.4064 17.6063 83.4064 17.6063L83.4107 17.6106Z" fill="#E9EEF4"/>
<path d="M78.271 22.412C82.607 21.8155 84.2441 20.2545 84.7644 18.8712C85.2848 17.4879 84.1341 17.1749 83.9438 16.1258C83.7576 15.0809 85.124 13.2069 86.1139 8.95549C87.0784 4.81828 84.4979 2.24204 84.3583 2.10668C82.8016 0.795291 80.7922 0 78.5967 0C73.6515 0 69.6454 4.0103 69.6454 8.95126C69.6454 10.4826 70.0304 11.9251 70.7115 13.1858C70.593 14.1756 70.3138 15.1105 69.785 16.5277C69.4382 17.4626 69.0659 18.7443 69.3959 19.8823C71.6802 22.2089 74.3749 22.9408 78.271 22.4035V22.412Z" fill="#E9EEF4"/>
<path d="M70.407 21.3586C72.6956 23.1184 74.3454 23.3003 78.1992 23.1184C84.4219 22.8265 87.1758 18.9642 87.1758 18.9642C87.1758 18.9642 87.3958 18.4439 87.1758 17.3948C86.9558 16.3415 85.8898 16.185 86.0802 15.0216C86.2198 14.1713 86.6216 13.0292 86.8247 12.475C86.867 12.3777 86.8966 12.2804 86.9347 12.1789C86.9389 12.162 86.9516 12.1366 86.9516 12.1366C87.3281 11.1467 87.5438 10.0807 87.5438 8.95965C87.5438 6.20997 86.3044 3.75642 84.3542 2.11084C84.4938 2.24621 87.0743 4.81821 86.1098 8.95965C85.1199 13.2111 83.7535 15.0809 83.9396 16.13C84.1258 17.1748 85.2806 17.4879 84.7603 18.8754C84.24 20.2587 82.6029 21.8197 78.2668 22.4162C74.3665 22.9534 71.6761 22.2216 69.3917 19.8949C69.5482 20.4322 69.8571 20.9398 70.407 21.3628V21.3586Z" fill="#D8E1EA"/>
<path d="M70.4536 14.5098C70.4536 14.5098 74.0028 17.4837 78.2034 16.8068C81.7103 16.24 82.954 14.5309 82.7764 11.0494C82.6283 8.18553 82.1884 7.01375 78.3642 5.57969C74.7219 4.21754 70.7201 4.70825 70.7201 4.70825C70.7201 4.70825 69.819 5.68967 69.4806 8.9639C69.248 11.2186 70.4536 14.5098 70.4536 14.5098Z" fill="#D8E1EA"/>
<path d="M71.8833 5.39352C73.6135 5.34699 76.9343 5.81232 79.6924 7.11947C81.2026 7.83862 82.0191 9.43766 82.0022 11.7812C81.9895 13.173 81.4903 15.0216 79.5021 15.7069C74.743 17.3398 70.1955 13.7145 70.1955 13.7145C70.1955 13.7145 68.5034 10.7617 69.6498 6.93757C70.1701 5.42314 70.9019 5.42314 71.8918 5.39352H71.8833Z" fill="#232A31"/>
<path d="M86.8457 19.1546C84.8321 19.9203 83.9142 26.1134 84.9548 28.9731C85.2594 29.8065 86.097 32.2008 86.943 33.4191C88.0175 34.9759 88.9905 36.3676 88.9905 36.3676C88.9905 36.3676 87.6622 39.4599 86.943 42.4211C86.3889 44.7097 85.9955 45.2681 87.2053 46.2326C88.6901 47.4171 91.1183 48.4916 91.7402 47.5821C93.6311 44.8282 96.1016 37.5732 96.2031 34.6882C96.2962 32.04 93.5677 28.5924 92.5185 25.5677C90.9068 20.9187 88.4067 18.5539 86.85 19.1462L86.8457 19.1546Z" fill="#D8E1EA"/>
<path d="M75.5213 36.7822L76.1178 36.4988L76.7904 24.7386H76.1178C76.1178 24.7386 74.523 27.3953 74.083 30.3395C73.6431 33.2838 75.5213 36.7865 75.5213 36.7865V36.7822Z" fill="#D8E1EA"/>
<path d="M69.9288 22.7545C69.9288 22.7545 68.7866 25.9315 68.7951 28.9138C68.8036 31.8919 69.2647 34.2186 69.2647 34.2186L75.5212 36.7821C75.5212 36.7821 75.0136 33.5967 75.0221 30.682C75.0347 27.7674 76.1177 24.7385 76.1177 24.7385L69.9288 22.7545V22.7545Z" fill="#E9EEF4"/>
<path d="M71.4012 23.1776C71.4012 23.1776 70.259 26.3545 70.2675 29.3369C70.276 32.315 70.7328 34.8193 70.7328 34.8193L73.7871 36.0715C73.7871 36.0715 73.3725 33.0299 73.381 30.1153C73.3894 27.2006 74.4766 24.1717 74.4766 24.1717L71.4012 23.1818V23.1776Z" fill="#232A31"/>
<path d="M70.7369 22.7545H69.929L76.1221 24.7343H76.7905L70.7369 22.7545Z" fill="#FCF3F0"/>
<path d="M79.1215 26.6549C79.0834 27.0779 78.8211 27.4037 78.5377 27.3783C78.2543 27.3529 78.0512 26.9891 78.0893 26.5661C78.1274 26.143 78.3897 25.8173 78.6731 25.8427C78.9565 25.8681 79.1596 26.2319 79.1215 26.6549Z" fill="#232A31"/>
<path d="M78.7194 29.6288C78.6813 30.0518 78.4191 30.3775 78.1356 30.3522C77.8522 30.3268 77.6491 29.963 77.6872 29.54C77.7253 29.1169 77.9876 28.7912 78.271 28.8166C78.5544 28.842 78.7575 29.2058 78.7194 29.6288Z" fill="#232A31"/>
<path d="M68.2708 37.5606C68.2708 37.5606 73.0848 41.021 78.6053 41.3044C85.4414 41.6555 88.3096 39.7265 88.3096 39.7265L88.2503 39.092C88.2503 39.092 83.7789 40.7883 78.931 40.416C74.1593 40.0522 68.7911 37.0699 68.4315 36.7822C68.2708 37.1587 68.2708 37.5606 68.2708 37.5606V37.5606Z" fill="#D8E1EA"/>
<path d="M66.1261 73.6406C66.1261 73.6406 68.1947 75.2016 71.6973 74.7489C75.1958 74.2963 76.3168 73.1287 76.3168 73.1287L76.3591 71.3986C76.3591 71.3986 73.4656 72.6423 71.0332 72.8284C68.237 73.0399 65.8638 71.7031 65.8638 71.7031L66.1261 73.6364V73.6406Z" fill="#232A31"/>
<path d="M71.6973 69.5583C71.6973 69.5583 70.3436 70.159 69.2141 70.5355C68.0847 70.912 67.3317 71.4027 67.3317 71.4027C67.3317 71.4027 68.2369 71.665 69.5145 71.1405C70.792 70.6117 71.6973 69.5583 71.6973 69.5583Z" fill="#D8E1EA"/>
<path d="M71.1093 64.2156C71.1093 64.2156 69.8867 64.9686 69.0618 65.4212C68.2327 65.8738 67.3317 66.3265 67.3317 66.3265C67.3317 66.3265 68.6642 66.6734 69.7852 65.8442C70.9062 65.0151 71.1135 64.2198 71.1135 64.2198L71.1093 64.2156Z" fill="#D8E1EA"/>
<path d="M65.703 60.9794C65.703 60.9794 65.6776 62.2569 66.2783 62.8618C66.879 63.4625 67.3317 63.3145 67.3317 63.3145C67.3317 63.3145 66.4137 61.6604 65.703 60.9794V60.9794Z" fill="#D8E1EA"/>
<path d="M72.3697 54.3843C72.3697 54.3843 71.1726 54.7523 70.1658 55.1161C69.159 55.4842 68.7952 56.0722 68.7952 56.0722C68.7952 56.0722 70.2208 55.7803 71.1599 55.3403C72.099 54.9004 72.374 54.3843 72.374 54.3843H72.3697Z" fill="#D8E1EA"/>
<path d="M79.3201 78.3616C79.3201 78.3616 80.9995 80.6882 84.2653 80.9082C87.8271 81.1451 89.1005 79.1865 89.1005 79.1865L89.2147 77.194C89.2147 77.194 86.08 78.5392 84.2695 78.5392C81.1052 78.5392 79.3243 76.4749 79.3243 76.4749V78.3573L79.3201 78.3616Z" fill="#232A31"/>
<path d="M80.1239 74.2244C80.1239 74.2244 80.2762 75.2016 81.1772 75.43C82.0825 75.6542 82.6832 75.43 82.6832 75.43C82.6832 75.43 81.1138 74.6812 80.1239 74.2244Z" fill="#D8E1EA"/>
<path d="M86.6724 67.2994C86.6724 67.2994 86.0125 68.2047 85.0607 68.8816C84.1131 69.5584 83.5801 69.5584 83.5801 69.5584C83.5801 69.5584 84.4304 68.3528 85.0607 67.9044C85.691 67.4517 86.6724 67.3037 86.6724 67.3037V67.2994Z" fill="#D8E1EA"/>
<path d="M84.6418 54.0333C86.5623 53.8471 86.6723 54.7524 86.6723 58.3058C86.6723 59.8118 86.8881 62.0835 86.6723 63.2172C86.3804 64.757 85.4582 65.1335 83.58 65.1335C81.008 65.1335 79.6332 65.0066 79.4809 62.4346C79.3201 59.7188 79.3159 58.1409 79.3201 56.4445C79.3201 55.1162 79.3201 53.9233 80.9699 54.0121C82.0867 54.0713 83.6773 54.1306 84.6376 54.0375L84.6418 54.0333Z" fill="#E9EEF4"/>
<path d="M83.9016 55.7464C85.3652 55.6026 85.4541 56.2921 85.4541 59.008C85.4541 60.1586 85.6191 61.893 85.4541 62.756C85.2299 63.932 84.5276 64.2197 83.0936 64.2197C81.1307 64.2197 80.0816 64.1224 79.9674 62.1595C79.8447 60.0867 79.8405 58.8853 79.8447 57.5908C79.8447 56.5798 79.8447 55.6703 81.1053 55.7337C81.9556 55.7803 83.174 55.8226 83.9058 55.7507L83.9016 55.7464Z" fill="#D8E1EA"/>
<path d="M86.7951 42.9965C86.7443 43.1995 87.9627 43.9314 90.3612 44.862L92.7598 45.7885L93.4028 44.3925C93.4028 44.3925 92.561 43.5464 90.8223 42.7004C89.0879 41.8543 87.2012 41.4313 87.2012 41.4313L86.7951 42.9965Z" fill="#232A31"/>
<path d="M55.9521 34.4724C55.9521 34.4724 57.5723 35.327 58.4057 37.0106C59.239 38.6943 59.2771 39.3796 59.2771 39.3796L60.8085 38.7027C60.8085 38.7027 60.6139 36.613 59.2602 35.1451C57.9065 33.6771 56.9928 33.5206 56.9928 33.5206L55.9479 34.4724H55.9521Z" fill="#232A31"/>
<path d="M63.5285 31.3887C63.3974 31.1899 64.4465 31.4183 65.2249 32.3236C66.0032 33.2246 65.8002 33.9141 65.8002 33.9141C65.8002 33.9141 64.4 32.717 63.5285 31.3887Z" fill="#D8E1EA"/>
<path d="M63.8712 30.5341C63.8712 30.5341 64.8357 29.9122 65.8256 30.5341C66.8155 31.1559 67.3358 31.727 67.3358 31.727C67.3358 31.727 66.3205 31.4943 65.6056 31.3251C64.8907 31.1517 63.8754 30.5341 63.8754 30.5341H63.8712Z" fill="#D8E1EA"/>
<path d="M89.473 35.0393C89.1599 35.2212 89.951 33.9945 91.2751 33.4953C92.5991 32.9961 93.4621 33.6222 93.4029 33.4953C93.3394 33.3684 90.907 34.2187 89.4772 35.0393H89.473Z" fill="#CAD6E0"/>
<path d="M90.0946 35.327C90.0946 35.327 90.8984 35.0139 91.9602 35.0393C93.0177 35.0647 93.813 35.6062 93.813 35.6062C93.813 35.6062 92.4847 36.0673 91.4018 35.9615C90.3188 35.8557 90.0946 35.327 90.0946 35.327Z" fill="#CAD6E0"/>
<path d="M91.5245 23.203C91.5245 23.203 88.9864 24.3494 87.9288 24.7047C86.8755 25.0559 87.0743 25.7962 87.9288 27.4925C88.7833 29.1888 89.3925 31.469 90.357 31.1221C91.3215 30.7752 94.3081 29.3665 94.3081 29.3665C94.3081 29.3665 94.6253 28.127 93.3985 26.0119C92.1718 23.8925 91.5245 23.2072 91.5245 23.2072V23.203Z" fill="#E9EEF4"/>
<path d="M93.813 26.8157L90.0946 28.3936L90.7799 29.6753L94.346 28.3936C94.346 28.3936 94.346 27.4248 93.813 26.8157V26.8157Z" fill="#232A31"/>
<path d="M55.5629 34.8743C55.5629 34.8743 54.3277 35.2846 53.9174 35.4961C52.4283 36.2618 51.5188 36.7906 50.4655 37.4632C49.7252 37.9328 48.5322 38.9861 47.8892 39.6206C47.2504 40.2552 47.3774 41.097 47.8892 41.2197C48.4011 41.3424 49.4079 41.8035 50.5374 41.0124C51.1719 40.564 52.5087 39.8364 53.2236 39.6206C53.7735 39.4557 53.8243 39.7137 53.7101 39.8787C53.4563 40.2552 52.3818 41.3085 52.7667 42.0277C53.1517 42.7468 53.6043 42.2434 54.848 41.2197C55.0595 41.0462 57.5935 40.069 57.7923 39.8787C57.8007 39.2864 57.8177 38.7577 57.2 37.4167C56.3328 35.5257 55.5587 34.8785 55.5587 34.8785L55.5629 34.8743Z" fill="#D8E1EA"/>
<path d="M86.461 44.3628C86.461 44.3628 84.9127 46.9094 83.5505 49.2445C82.4887 51.0678 82.0615 53.4452 82.2899 54.0374C82.8229 55.4334 85.5514 56.7025 87.675 54.655C89.7986 52.6076 91.9603 47.2478 91.9603 47.2478L86.4694 44.3628H86.461Z" fill="#D8E1EA"/>
</svg>
