<?xml version="1.0" encoding="UTF-8"?>
<svg id="Layer_2" data-name="Layer 2" xmlns="http://www.w3.org/2000/svg" xmlns:xlink="http://www.w3.org/1999/xlink" viewBox="0 0 345.36 345.59">
  <defs>
    <style>
      .cls-1 {
        fill: url(#radial-gradient);
      }
    </style>
    <radialGradient id="radial-gradient" cx="59.99" cy="-12.67" fx="59.99" fy="-12.67" r="522.96" gradientUnits="userSpaceOnUse">
      <stop offset="0" stop-color="#97ffd0"/>
      <stop offset="1" stop-color="#221e1f"/>
    </radialGradient>
  </defs>
  <g id="Layer_1-2" data-name="Layer 1">
    <path id="celtics_logo" data-name="celtics logo" class="cls-1" d="M0,172.61C-1.01,77.21,79.76-2.82,177.89,.08c93.03,2.75,170.34,81.58,167.39,178.18-2.85,93.12-81.2,168.49-174.79,167.32C76.42,344.41-.06,267.71,0,172.61Zm163.86,64.91c-.19,29.53,7.19,56.07,33.91,74.68,.94-3.12,1.46-5.56,2.41-7.82,1.89-4.47,1.02-7.35-2.77-11.03-15.81-15.33-19.32-35.07-19.1-55.87l2.2-1.75c.88,1.62,1.42,3.59,2.7,4.8,8.57,8.14,17.1,16.34,26.06,24.04,3.7,3.18,8.19,5.86,12.77,7.52,11.21,4.08,22.23,3.13,31.41-5.01,8.75-7.76,10.87-17.83,8.1-29.15-.3-1.24,1.28-3.43,2.57-4.48,9.55-7.82,12.18-16.89,7.98-28.47-6-16.56-23.24-26.58-41.77-23.03-10.37,1.99-20.37,5.91-30.53,9-1.86,.56-3.66,1.3-5.49,1.95,9.57-11.11,17.52-22.73,22.2-36.31,5.03-14.59,3.23-28.24-6.68-40.39-9.24-11.33-23.26-13.17-35.16-4.7-2.13,1.52-4.14,3.21-6,4.65-3.1-1.64-5.77-3.45-8.7-4.52-9.3-3.39-18.41-3.67-26.06,3.8-7.69,7.51-11.16,16.78-10.17,27.59,1.08,11.91,6.87,21.77,13.7,31.12,3.69,5.05,7.68,9.89,12.34,15.85-5.99-1.6-10.75-2.93-15.55-4.13-12.47-3.13-25-5.9-37.96-3.52-12.92,2.37-22.65,8.85-26.28,22.1-3.51,12.84,.56,23.17,11.21,31.15,1.02,.76,1.37,3.38,1.01,4.89-3.39,14.01,1.77,24.57,14.89,29.76,14.43,5.71,27.77,2.78,39.28-6.73,9.69-8,18.35-17.25,27.49-25.98ZM58.63,85.64c12.36,10.8,24.38,21.3,36.51,31.9-.8,1.44-1.48,2.65-2.22,3.98,1.73,1.41,3.22,2.62,4.91,4,6.13-7.04,11.99-13.78,18.02-20.71-4.19-3.65-8.03-6.99-12.05-10.48-1.6,1.99-2.82,3.48-4.11,5.08,2.35,2.19,4.39,4.07,6.54,6.07-2,2.28-3.72,4.26-5.72,6.54-5.53-4.81-10.78-9.36-16.11-14,1.73-2.25,3.22-4.18,4.8-6.22-1.66-1.49-3.12-2.8-5.34-4.79-1.52,2.2-2.93,4.25-4.53,6.57-5.65-4.95-10.62-9.29-15.86-13.87,1.94-2.23,3.63-4.18,5.46-6.29,2.52,2.06,4.66,3.81,7.15,5.84,1.5-1.78,2.85-3.38,4.43-5.25-4.13-3.6-7.97-6.94-12.09-10.53-6.1,6.99-11.96,13.71-18.02,20.66,1.79,1.66,3.21,2.99,4.77,4.43,1.21-1.01,2.2-1.85,3.46-2.9Zm202.08,50.81c2.95-1.41,5.43-2.6,8.2-3.92-.95-2.27-1.81-4.32-2.77-6.61-4.08,1.67-7.6,3.09-11.1,4.56-1.04,.44-2.01,1.02-3.14,1.6,1.58,4.05,3.09,7.88,4.57,11.73,3.82,9.94,7.38,11.46,17.34,7.35,4.45-1.84,8.88-3.72,13.3-5.63,5.34-2.32,6.56-5.32,4.41-10.52-1.31-3.17-2.56-6.37-3.97-9.88,6.36-2.67,12.25-5.14,18.53-7.78,1.49,3.59,2.8,6.75,4.21,10.13-2.95,1.42-5.56,2.68-8.39,4.04,.99,2.28,1.82,4.19,2.78,6.4,2.86-1.15,5.32-2.09,7.74-3.11,2.26-.95,4.5-1.98,6.81-3-1.53-4.01-2.94-7.74-4.37-11.46-3.69-9.63-8.26-11.52-17.94-7.43-4.13,1.75-8.28,3.44-12.37,5.29-4.2,1.9-5.38,4.97-3.69,9.25,1.38,3.49,2.82,6.96,4.34,10.73-6.94,2.88-13.45,5.58-20.22,8.39-1.5-3.54-2.78-6.57-4.29-10.13ZM165.45,39.81c0-2.35-.37-4.56,.15-6.54,.29-1.09,1.99-2.31,3.19-2.48,.75-.11,2.55,1.62,2.55,2.53,.16,15.3,.12,30.6,.12,45.98-1.7,.54-3.03,.96-4.49,1.41,.09,2.05,.18,3.81,.26,5.7h15.8v-5.67c-.46,.14-.92,.27-1.39,.41-.85-1.95-2.39-3.88-2.44-5.85-.25-10.32-.12-20.65-.12-30.97,0-4.44,0-8.87,0-13.3h5.9c.16,3.18,.3,5.93,.44,8.77h6.51v-15.7h-33.36v15.72h6.87Zm-85.24,107.67c-15.75-5.36-30.93-10.52-46.58-15.85,1.25-3.63,2.36-6.85,3.5-10.17,3.13,1,5.77,1.85,8.66,2.77,.8-2.22,1.51-4.21,2.35-6.54-5.23-1.74-10.17-3.39-15.64-5.22-.66,3.26-.44,6.31-1.8,8.24-6.08,8.59-4.37,17.07,6.1,20.56,11.49,3.83,22.97,7.71,34.43,11.62,10.17,3.47,13.9,1.71,17.18-8.56,.76-2.39,1.82-5.43,.99-7.45-2.08-5.1-6-8.54-12.32-8.54-.72,2.04-1.43,4.01-2.2,6.17,3.01,1.16,5.6,2.16,8.53,3.29-1.05,3.16-2.03,6.11-3.21,9.67Zm208.73-70.77c-3.17-3.19-5.9-5.91-8.61-8.67-6.63-6.75-12.62-6.62-19.27,.42-8.92,9.44-17.88,18.83-26.71,28.36-1.27,1.37-2.17,3.26-2.72,5.07-1.27,4.23-.11,7.73,3.67,10.34,2.66,1.83,5.03,5.35,7.73,5.57,5.53,.44,10.68-1.68,13.35-7.79-1.56-1.45-3.12-2.89-4.77-4.42-2.28,2.15-4.39,4.15-6.66,6.3-2.59-2.48-4.85-4.63-7.3-6.97,11.39-12.04,22.52-23.81,34.06-36.01,2.71,2.92,4.97,5.34,7.31,7.86-2.01,2.24-3.98,4.42-6.12,6.81,1.95,1.67,3.51,3.02,5.2,4.47,3.86-4.04,7.29-7.63,10.81-11.32ZM104.78,45.82c.52-.24,1.04-.49,1.56-.73,1.34,1.14,3.29,2.01,3.92,3.45,5.99,13.69,11.75,27.48,17.68,41.47-4.81,2.2-2.58,5.01-.76,8.19,8.06-3.41,15.95-6.74,24.15-10.21-2.13-5.02-4.11-9.69-6.22-14.64-2.31,.96-4.2,1.75-6.31,2.63,1.18,3.08,2.16,5.64,3.26,8.52-2.51,1.05-4.71,1.97-7.14,2.99-6.45-15.31-12.69-30.1-18.99-45.05,5.52-2.53,2.06-5.21,.7-8.15-4.73,2.05-9.25,4-13.98,6.04,.83,2.15,1.47,3.82,2.12,5.49Zm97.44,39.14c-.78,2.15-1.44,3.96-2.15,5.91,5.02,1.93,9.62,3.7,14.73,5.66,.05-2.99,4.32-5.41-.43-7.88-.34-.18,0-2.15,.39-3.16,5-13.21,10.05-26.4,15.15-39.58,.38-.99,1.41-2.65,1.83-2.56,4.87,1.06,3.98-3.05,5.47-5.62-5.03-1.93-9.76-3.75-14.71-5.65-.86,2.23-1.57,4.04-2.34,6.03,1.37,.86,2.56,1.61,3.86,2.41-5.81,15.15-11.51,30.02-17.24,44.98-1.49-.19-2.78-.35-4.55-.56Z"/>
  </g>
</svg>