<svg width="175" height="105" viewBox="0 0 175 105" fill="none" xmlns="http://www.w3.org/2000/svg">
<g clip-path="url(#clip0_18_6)">
<path d="M28.3651 82.9122C27.4671 82.07 26.5672 81.2935 25.7618 80.4284C25.5438 80.1944 25.6105 79.6967 25.5468 79.3194C25.8853 79.4727 26.3064 79.5444 26.5483 79.7912C29.1277 82.4234 32.2914 83.8639 35.8872 84.4293C36.3232 84.498 36.7821 84.4303 37.252 84.2073C36.9564 84.0899 36.6199 84.0262 36.378 83.839C36.158 83.6688 36.0415 83.3651 35.8792 83.1212C36.1699 83.0366 36.5163 82.8047 36.7443 82.8903C38.9763 83.7265 41.2729 83.4926 43.5795 83.4846C45.3127 83.4786 47.0479 83.845 48.781 84.058C49.462 84.1416 50.1549 84.3606 50.4326 83.387C50.4784 83.2268 50.8895 83.17 51.1324 83.0655C51.232 83.4697 51.3306 83.8738 51.444 84.3338C52.9841 84.5339 54.5948 84.7031 56.1906 84.9649C57.2638 85.1411 58.3061 85.5035 59.3793 85.6807C60.8188 85.9176 61.1941 85.4607 60.8397 84.05C60.2503 81.7026 57.4091 79.5603 54.5192 79.7405C50.5063 79.9903 47.1753 78.5289 44.0623 76.2701C43.7238 76.0242 43.5277 75.5832 43.2649 75.2328C43.5924 75.1651 43.9449 75.1522 44.2375 75.0128C44.4725 74.9013 44.6029 74.5817 44.8348 74.4523C45.1355 74.2841 45.4899 74.2114 45.8214 74.0979C45.7865 74.4205 45.7796 74.75 45.7079 75.0646C45.6492 75.3224 45.5138 75.5633 45.4122 75.8112C45.5078 75.8769 45.6044 75.9416 45.6999 76.0073C46.2455 75.3323 46.8139 74.6723 47.3326 73.9765C47.9179 73.191 48.4117 72.3329 49.0439 71.5882C49.2977 71.2886 49.8114 71.2089 50.2066 71.0288C50.1658 71.4538 50.126 71.8789 50.0752 72.4105C51.8393 72.9073 53.4828 72.2453 55.0747 71.2289C55.5107 70.9501 56.0343 70.7719 56.5421 70.6515C58.0731 70.2861 59.6122 69.9566 61.1562 69.65C61.428 69.5962 61.7725 69.65 62.0214 69.7754C64.1298 70.8426 66.3608 71.4021 68.7659 71.5434C70.1666 73.5454 72.8366 74.8485 74.3796 73.7266C74.2841 73.195 74.1955 72.7012 74.071 72.0063C73.6469 71.7774 73.0148 71.4359 72.2741 71.0357C72.3259 71.4618 72.3657 71.7883 72.4145 72.1875C71.3204 72.2303 71.0098 71.7107 71.0138 70.7918C71.0158 70.3737 70.9541 69.7256 70.6923 69.5723C67.3911 67.641 64.1756 65.4937 60.1149 65.4519C55.7715 65.4061 51.4301 65.1881 47.0877 65.203C45.6741 65.208 44.2614 65.7087 42.8478 65.9815C40.6019 66.4146 38.367 66.9103 36.1092 67.2647C31.5219 67.9845 26.9027 68.5201 22.3363 69.3463C20.0904 69.7525 18.0138 70.8366 16.6728 72.8157C13.7022 77.1989 10.1751 81.0068 5.8954 84.1665C4.19805 85.4199 2.84914 87.1411 1.30211 88.6085C0.952686 88.94 0.439002 89.1003 0.000976562 89.3392C0.156276 88.8833 0.179173 88.2899 0.487782 87.9943C2.73266 85.8459 4.8979 83.5802 7.35582 81.6996C10.0527 79.6359 12.3324 77.2029 14.1014 74.4095C16.8381 70.088 20.8311 68.1617 25.6254 67.4429C28.4089 67.0258 31.2033 66.5201 34.0057 66.4225C36.817 66.324 39.3177 65.4409 41.5706 63.9845C44.3351 62.1986 47.1026 61.7834 50.0533 63.1742C52.8537 64.4942 55.7357 64.757 58.769 64.3718C61.424 64.0343 63.8421 64.8138 66.309 65.876C69.5464 67.2697 72.1158 69.5753 75.0038 71.4359C76.3408 72.297 76.1765 73.9506 74.7649 74.7559C73.3324 75.5733 71.2637 75.178 69.641 73.9247C68.745 73.2328 67.7087 72.7231 66.6176 72.3966C68.3906 74.6713 70.1726 76.9401 71.9317 79.2258C72.3468 79.7644 72.752 80.3298 73.0446 80.9391C73.5942 82.0819 73.1552 82.8664 71.8958 83.0296C71.3105 83.1053 70.7082 83.0486 70.2741 83.3532C69.5116 83.7564 68.7769 84.4214 67.9815 84.503C66.751 84.6304 65.7008 83.8489 65.2548 82.731C64.6684 81.2606 63.9755 80.062 62.2862 79.7425C62.0582 79.6997 61.8033 79.5025 61.6689 79.3044C60.5569 77.6589 58.781 77.3722 56.78 77.2009C57.5834 78.1805 58.2752 79.2895 59.219 80.1058C60.4106 81.1362 61.5097 82.1715 61.9029 83.7394C62.4444 85.9007 61.3822 87.0475 59.1961 86.722C58.986 86.6911 58.777 86.6563 58.4953 86.6115C58.2822 87.2994 58.0901 87.9783 57.8631 88.6463C57.3872 90.042 56.1886 90.3248 55.2827 89.1311C54.6834 88.3417 54.4365 87.2924 53.9667 86.3935C53.8034 86.0819 53.4609 85.6658 53.1752 85.6459C49.1434 85.3631 45.1902 84.0769 41.0887 84.6852C40.7542 84.735 40.365 84.6125 40.0773 84.7409C36.5492 86.3128 33.3138 85.2865 30.1331 83.6817C29.944 83.5861 29.7469 83.5055 29.6045 83.4418C28.4547 84.3855 27.1814 85.161 26.2765 86.2442C25.2611 87.4587 24.3811 88.8723 23.7907 90.3397C22.5025 93.5422 21.5269 96.8722 20.2328 100.072C19.6842 101.428 18.6768 102.606 17.8157 103.822C17.6633 104.038 17.2064 104.039 16.8908 104.138C16.9207 103.835 16.8371 103.437 16.9983 103.243C19.9052 99.7532 21.0999 95.5004 22.3263 91.2765C23.1606 88.4024 24.3791 85.8459 27.0779 84.2501C27.4373 84.0371 27.729 83.7016 28.0296 83.401C28.174 83.2566 28.2675 83.0605 28.3681 82.9112L28.3651 82.9122ZM55.7108 71.8879C57.2698 73.4747 58.9452 73.406 60.6356 73.3782C60.9581 73.3732 61.5216 73.6479 61.5754 73.8839C61.9666 75.6161 63.6649 77.2865 65.4857 77.6748C65.7247 77.7256 65.9915 78.0531 66.085 78.3109C66.8794 80.4851 69.1432 82.0232 71.2408 81.9475C70.9391 81.5105 70.5648 80.9689 70.1905 80.4284C70.6027 80.4134 71.0158 80.3995 71.4737 80.3826C71.0188 79.845 70.5618 79.3054 70.2074 78.8863C69.7087 79.0894 69.3304 79.2437 68.9531 79.398C68.9889 78.9729 69.0248 78.5469 69.0626 78.1218C69.0865 77.85 69.2368 77.5046 69.1233 77.3184C67.6241 74.8605 65.7834 72.754 63.1483 71.419C60.6227 70.1398 58.3808 71.6241 55.7108 71.8869V71.8879ZM46.797 76.4702C46.8438 76.5319 46.8916 76.5937 46.9384 76.6544C47.2509 76.5379 47.5715 76.4384 47.8751 76.303C48.9782 75.8102 50.4684 76.082 51.1205 74.6654C51.1534 74.5927 51.6093 74.5897 51.668 74.6813C51.7795 74.8565 51.8283 75.1532 51.7586 75.3483C51.3405 76.53 52.4993 78.5946 53.6859 78.6693C54.6406 78.73 55.6003 78.7071 56.6585 78.7231C55.3833 77.2587 55.3425 74.8127 52.8437 74.5509C52.6715 74.533 52.5411 74.2532 52.3589 74.1586C51.9727 73.9595 51.5745 73.7734 51.1633 73.632C49.4739 73.0516 48.3858 73.7146 47.687 75.2846C47.4909 75.7246 47.0986 76.077 46.796 76.4692L46.797 76.4702ZM61.3554 76.5638C61.3623 77.9097 62.1786 78.5747 63.1294 78.952C64.535 79.5105 65.4837 80.3527 65.9526 81.832C66.2463 82.7569 66.9432 83.4398 68.0283 83.4428C68.2801 83.4428 68.533 83.2407 68.7859 83.1312C68.6714 82.8893 68.6176 82.5777 68.4324 82.4154C66.525 80.738 64.5878 79.0944 62.6794 77.4169C62.2015 76.9968 61.6719 76.5558 61.3932 76.0083C60.8028 74.8485 59.7824 74.6285 58.6685 74.3956C57.7287 74.1985 56.6018 74.0661 55.9577 73.4727C54.9243 72.522 54.1847 72.7092 53.1663 73.5165C54.2365 74.0004 55.3484 74.2831 56.1797 74.9272C57.7028 76.1079 59.3155 76.7599 61.3544 76.5628L61.3554 76.5638ZM49.3903 64.0821C47.1673 63.0826 44.7283 62.9203 42.7313 64.5858C44.8478 64.4255 47.2549 64.2433 49.3903 64.0821ZM54.9034 85.836C55.4599 86.9619 55.9019 87.8569 56.4256 88.9161C56.8317 87.8529 57.1224 87.0923 57.438 86.267C56.5878 86.1227 55.8552 85.9983 54.9034 85.836ZM51.3624 78.6424C50.6224 77.2334 49.5346 76.8515 48.0991 77.4966C49.2788 77.9107 50.3201 78.2771 51.3624 78.6424Z" fill="#97FFD0"/>
<path d="M139.119 41.911C139.634 41.705 142.64 42.3371 142.715 42.7612C142.917 43.9011 143.081 45.0708 143.05 46.2236C143.004 47.9498 143.329 49.5715 144.272 50.9802C144.769 51.7238 145.562 52.3002 146.305 52.8348C146.579 53.0319 147.288 53.0608 147.456 52.8676C147.713 52.574 147.826 51.9806 147.722 51.5864C147.556 50.9523 147.164 50.3779 146.921 49.8841C146.62 49.8512 146.536 49.8333 146.454 49.8353C145.931 49.8473 145.408 49.8642 144.886 49.8791C145.258 49.5396 145.577 49.0419 146.014 48.8926C146.861 48.6049 146.741 48.0882 146.565 47.4829C146.244 46.3779 145.302 46.7363 144.637 46.8199C144.236 46.8707 143.875 47.4501 143.608 46.7243C143.581 46.6517 144.136 46.3162 144.454 46.1738C145.015 45.921 145.602 45.7219 146.396 45.4152C146.276 44.7144 146.131 43.8722 145.972 42.9434C146.951 42.5303 148.093 42.0494 149.312 41.5367C148.27 41.1286 147.37 40.815 146.507 40.4188C146.187 40.2714 145.957 39.929 145.686 39.6751C146.091 39.5995 146.515 39.4083 146.897 39.473C147.605 39.5935 148.303 40.0654 148.98 40.0196C149.901 39.9569 150.977 39.7787 151.676 39.2441C154.967 36.7264 156.916 33.273 158.046 29.3417C158.44 27.9739 159.365 27.1805 160.593 26.6688C161.299 26.3741 162.033 26.1202 162.778 25.95C166.309 25.1407 169.848 24.3642 173.386 23.5817C173.677 23.517 174 23.4134 174.268 23.4841C174.539 23.5548 174.758 23.8196 175 23.9998C174.788 24.17 174.6 24.4408 174.361 24.4956C171.16 25.2283 167.953 25.9291 164.746 26.6399C164.038 26.7972 163.334 26.9644 162.625 27.1177C160.464 27.5876 158.97 28.7086 158.713 31.0699C158.682 31.3616 158.585 31.6603 158.454 31.9241C156.133 36.595 153.052 40.587 148.372 43.1375C147.377 43.6801 146.962 44.7781 147.474 46.5023C147.913 47.9807 147.704 49.5825 148.651 51.01C149.025 51.5735 148.675 52.9891 148.178 53.666C147.524 54.558 146.339 54.2663 145.484 53.7029C143.018 52.0812 142.152 49.6153 142.045 46.794C142.012 45.9329 141.985 45.0718 141.747 44.2435C141.266 45.7487 140.472 47.237 140.386 48.7651C140.283 50.6158 140.693 52.5152 141.044 54.3629C141.279 55.5953 141.892 56.9871 140.662 57.7835C139.285 58.6755 137.884 59.5216 136.542 60.4803C135.805 61.007 135.075 60.4704 134.584 59.7874C132.549 56.9572 130.2 54.3131 129.419 50.7522C129.34 50.3958 128.801 49.9408 128.424 49.8851C126.998 49.673 126.036 48.9931 125.681 47.5855C125.341 46.2326 126.027 45.251 127.036 44.5034C128.728 43.25 129.428 41.5676 129.432 39.4631C128.22 38.9872 127.049 38.6846 125.777 39.3695C125.188 39.6871 124.492 39.8513 123.824 39.9718C120.474 40.5771 117.512 41.9658 114.848 44.0942C113.421 45.2341 111.696 45.8901 109.849 45.7886C109.137 45.7497 108.161 45.3336 107.851 44.7821C107.592 44.3232 107.913 43.2102 108.355 42.7463C109.434 41.6144 110.739 40.7005 111.936 39.6801C112.715 39.0171 113.633 38.4387 114.198 37.6214C115.972 35.0609 118.562 33.927 121.389 33.046C123.095 32.5134 124.757 31.8146 126.397 31.0978C128.539 30.163 130.428 28.834 131.855 26.9595C133.915 24.2527 136.739 22.5205 139.45 20.5742C142.79 18.1761 146.534 16.3015 149.328 13.1338C150.14 12.2129 151.438 11.7261 152.5 11.0203C153.527 10.3384 154.709 9.78887 155.519 8.90287C157.974 6.21499 160.946 4.44198 164.289 3.0851C166.125 2.34046 167.762 1.11199 169.51 0.139379C169.783 -0.0119388 170.169 0.0398278 170.502 -0.00198364C170.383 0.314589 170.356 0.79343 170.13 0.922847C167.955 2.17221 165.807 3.49823 163.53 4.53257C161.042 5.66248 158.862 7.10896 156.899 9.01735C155.638 10.2428 154.058 11.1448 152.601 12.1612C151.868 12.6729 150.954 12.9884 150.354 13.6146C146.437 17.7012 141.405 20.2617 136.927 23.5767C135.57 24.5812 134.264 25.737 133.206 27.0431C131.364 29.3208 129.217 31.1087 126.529 32.2695C126.247 32.391 126.074 32.7852 125.871 33.0679C125.688 33.3238 125.535 33.6005 125.369 33.8683C125.078 33.6662 124.787 33.4641 124.411 33.2033C122.864 33.706 121.126 34.0883 119.561 34.833C118.214 35.4741 117.005 36.4576 115.84 37.4153C114.368 38.6239 113.009 39.9678 111.588 41.2381C110.827 41.918 109.999 42.5283 109.283 43.251C109.031 43.5049 108.872 44.0375 108.956 44.371C109.01 44.588 109.62 44.8548 109.911 44.7891C111.06 44.5292 112.192 44.1748 113.305 43.7856C113.512 43.7129 113.642 43.3306 113.745 43.0678C113.885 42.7134 113.965 42.3361 114.072 41.9688C114.403 42.1758 114.736 42.3829 115.074 42.595C116.006 41.9728 117.048 41.4292 117.877 40.6567C118.265 40.2943 118.25 39.492 118.401 38.8837C118.489 38.5293 118.545 38.1669 118.614 37.8085C118.894 38.1241 119.246 38.4029 119.432 38.7672C119.592 39.0828 119.563 39.4949 119.63 39.9519C121.556 39.4452 123.406 38.9673 125.248 38.4666C125.749 38.3302 126.261 38.159 126.039 37.4193C126.027 37.3805 126.567 37.1764 126.85 37.049C127.29 38.159 128.371 38.0425 129.24 38.2028C130.14 38.369 130.656 38.7135 130.538 39.9081C132.706 37.8563 134.803 36.0564 135.213 33.0809C135.254 32.7852 135.254 32.4587 135.387 32.2068C135.541 31.9131 135.821 31.6852 136.046 31.4283C136.173 31.7359 136.44 32.0595 136.406 32.3472C136.133 34.6518 135.34 36.7224 133.647 38.4039C133.142 38.9066 132.801 39.5746 132.26 40.3461C130.786 40.6507 130.456 42.3092 129.497 43.4113C129.947 43.8135 130.354 44.0703 130.605 44.4347C130.796 44.7134 130.79 45.1275 130.872 45.4809C130.545 45.3894 130.177 45.3635 129.902 45.1893C129.588 44.9912 129.356 44.6626 128.969 44.2694C128.34 44.7921 127.53 45.2191 127.118 45.8911C126.808 46.3948 126.893 47.243 127.06 47.8692C127.105 48.0384 128.213 48.1708 128.621 47.9419C129.48 47.462 130.199 46.7313 131.157 45.9568C131.976 47.2261 130.496 47.7059 130.374 48.8119C131.651 47.9618 133.048 47.244 134.172 46.2246C135.392 45.1186 136.553 43.8483 137.392 42.4426C139.182 39.4392 141.84 37.5617 144.84 36.0067C147.025 34.8748 149.177 33.6782 151.344 32.5114C151.242 32.4198 151.141 32.3283 151.04 32.2367C150.97 31.8624 150.901 31.489 150.831 31.1147C151.195 31.1754 151.56 31.2352 152.239 31.3477C152.81 30.2158 153.553 28.8818 154.168 27.4921C154.997 25.6185 155.987 23.8973 157.873 22.9087C158.161 22.7574 158.588 22.8729 158.951 22.8639C158.781 23.1616 158.685 23.5827 158.428 23.738C156.71 24.7763 155.813 26.4328 155.122 28.1859C153.452 32.4169 150.224 34.9156 146.201 36.6876C144.457 37.4561 142.79 38.4566 141.222 39.5457C140.389 40.1241 139.843 41.1166 139.17 41.922C134.087 46.9185 135.212 52.1977 138.619 57.8163C139.158 57.4112 140.001 57.1095 140.16 56.5958C140.647 55.0209 139.822 53.9279 138.07 53.2858C138.748 52.9513 139.131 52.7621 139.458 52.5999C139.913 49.4749 139.787 49.3027 136.758 48.4954C136.546 48.4386 136.401 48.133 136.225 47.9438C136.443 47.7786 136.676 47.457 136.876 47.476C137.745 47.5576 138.604 47.7388 139.535 47.8961C140.239 45.8234 141.408 43.7627 139.12 41.9061L139.119 41.911ZM130.293 49.7855C131.046 52.4794 131.931 54.9901 133.94 56.9463C134.388 57.3833 134.597 58.0662 135.048 58.4983C135.441 58.8756 136.021 59.0587 136.518 59.3285C136.749 58.7451 137.312 58.0344 137.147 57.6043C136.696 56.4306 135.967 55.3554 135.276 54.2872C135.136 54.0702 134.673 54.0722 134.37 53.9458C134.07 53.8194 133.785 53.6571 133.493 53.5107C133.769 53.2987 134.024 53.0498 134.326 52.8866C134.524 52.78 134.789 52.798 135.215 52.7293C134.947 51.011 134.688 49.3535 134.436 47.7398C133.082 48.4087 131.715 49.0837 130.294 49.7865L130.293 49.7855Z" fill="#97FFD0"/>
<path d="M68.7023 57.4729L90.7937 55.2967L95.3511 33.5717L97.5273 55.6631L119.252 60.2205L97.161 62.3967L92.6035 84.1217L90.4273 62.0303L68.7023 57.4729Z" fill="url(#paint0_radial_18_6)"/>
</g>
<defs>
<radialGradient id="paint0_radial_18_6" cx="0" cy="0" r="1" gradientUnits="userSpaceOnUse" gradientTransform="translate(94.1037 58.5982) scale(30.4618)">
<stop stop-color="#97FFD0"/>
<stop offset="0.85" stop-color="white"/>
</radialGradient>
<clipPath id="clip0_18_6">
<rect width="175" height="104.14" fill="white"/>
</clipPath>
</defs>
</svg>
