<?xml version="1.0" encoding="UTF-8"?>
<svg id="Layer_2" data-name="Layer 2" xmlns="http://www.w3.org/2000/svg" xmlns:xlink="http://www.w3.org/1999/xlink" viewBox="0 0 234.27 75.76">
  <defs>
    <style>
      .cls-1 {
        fill: url(#radial-gradient);
      }

      .cls-2 {
        fill: url(#radial-gradient-2);
      }
    </style>
    <radialGradient id="radial-gradient" cx="-6.33" cy="-48.46" fx="-6.33" fy="-48.46" r="396.68" gradientUnits="userSpaceOnUse">
      <stop offset="0" stop-color="#97ffd0"/>
      <stop offset=".98" stop-color="#221e1f"/>
    </radialGradient>
    <radialGradient id="radial-gradient-2" cx="-6.33" cy="-48.46" fx="-6.33" fy="-48.46" r="396.68" gradientUnits="userSpaceOnUse">
      <stop offset="0" stop-color="#97ffd0"/>
      <stop offset="1" stop-color="#221e1f"/>
    </radialGradient>
  </defs>
  <g id="Layer_1-2" data-name="Layer 1">
    <g id="manga_text" data-name="manga text">
      <path class="cls-1" d="M71.27,17.53c-.25,.42-.67,.67-1.25,.83-7.73,11.8-20.77,24.17-33.56,33.39,6.4,5.15,12.79,11.55,17.03,16.2l-5.07,4.4c-8.72-10.22-25.09-23.92-39.13-32.15l3.99-4.24c5.9,3.32,12.54,7.73,18.52,12.29,11.21-7.97,22.59-18.69,29.16-28.33H0v-5.65H65.38l1-.5,4.9,3.74Z"/>
      <path class="cls-2" d="M85.98,10.63c8.64,2.74,18.61,7.06,24.75,11.3l-3.16,5.23c-5.98-4.24-15.78-8.64-24.26-11.55l2.66-4.98Zm-.33,57.57c29.49-9.14,49.09-25.67,59.06-48.68,1.74,1.41,3.66,2.49,5.4,3.41-10.38,22.76-30.65,40.46-58.81,49.84-.08,.75-.58,1.58-1.16,1.91l-4.49-6.48Z"/>
      <path class="cls-2" d="M224.8,23.67c-.08,.33-.33,.75-.67,1-1.16,24.01-3.49,38.88-6.73,44.77-3.32,5.98-8.47,6.06-10.88,6.06-3.16,0-9.05-.75-14.79-1.99,.08-1.66-.08-4.15-.25-5.81,6.23,1.33,12.63,1.99,14.54,1.99,2.99,0,4.65-.75,6.31-3.9,2.58-4.98,4.57-18.86,5.4-37.55h-26.5c-4.24,19.85-12.46,36.13-27.41,47.52-1.08-1.08-3.24-2.74-4.74-3.74,14.29-10.72,21.85-24.84,25.92-43.86h-22.93v-5.57h24.01c1-5.81,1.58-11.21,1.99-18.19l8.22,.75c-.08,.83-.91,1.33-2.08,1.5-.5,6.06-1,10.72-1.91,16.03h27l1.25-.5,4.24,1.5Zm-14.04-20.02c3.74,3.32,8.22,8.97,10.47,12.79l-3.32,2.33c-2.08-3.49-6.81-9.55-10.3-12.88l3.16-2.24Zm12.96-3.66c3.66,3.49,8.31,8.97,10.55,12.71l-3.41,2.33c-2.08-3.49-6.81-9.39-10.22-12.71l3.07-2.33Z"/>
    </g>
  </g>
</svg>