<svg width="81" height="123" viewBox="0 0 81 123" fill="none" xmlns="http://www.w3.org/2000/svg">
<path d="M52.1451 13.9589H27.0518C29.7533 8.84764 34.3157 4.87697 38.4493 0.846267C38.8695 0.39174 39.7271 0.400317 40.1816 0.820539C44.3153 4.67972 49.4094 8.75331 52.1451 13.9503V13.9589Z" fill="url(#paint0_linear_14_962)"/>
<path d="M73.4306 104.35C73.3363 105.001 73.1133 105.619 72.8904 106.228C54.8465 107.377 29.5474 108.329 7.98746 106.725C7.73019 106.108 7.53294 105.499 7.48149 104.821C7.42145 103.775 7.54152 102.857 7.93601 101.88C8.69927 99.9759 10.4059 98.6637 11.9238 97.3945C14.0935 95.585 16.7349 94.6845 19.1105 93.218C22.0692 91.4171 23.0983 89.2388 22.0435 86.0142C21.7862 85.5597 21.4174 84.7621 22.1635 84.3848C25.4653 82.7468 27.6607 79.0505 29.1615 75.3886H51.2875C52.8312 78.9305 55.0352 82.4294 58.3284 83.9731C59.0745 84.3333 58.7829 84.8736 58.4999 85.6026C57.4279 89.1101 58.8858 91.3913 62.1704 93.0551C64.4516 94.2128 66.8357 95.139 68.8596 96.7427C70.4891 98.0291 72.513 99.5042 73.1648 101.605C73.4392 102.506 73.5764 103.415 73.4306 104.341V104.35Z" fill="url(#paint1_linear_14_962)"/>
<path d="M48.6719 55.5695C47.9 57.0532 47.5827 58.7684 47.5484 60.5522H32.4118C32.3261 58.8284 31.9659 57.199 31.1855 55.7753C25.7826 55.3894 21.9492 49.9523 22.8668 44.678C23.7244 39.8155 27.3863 37.1312 32.0688 36.8653C32.2232 35.2616 30.8253 34.1896 29.659 33.0748C28.4669 31.9256 27.412 30.6907 26.6831 29.207C26.1771 28.1779 25.7655 27.1059 25.4653 26.0253H53.6974C53.3801 27.2431 52.917 28.4266 52.2652 29.5501C51.4419 30.9479 50.49 32.0714 49.3494 33.2206C48.2774 34.2668 47.2054 35.2702 47.3855 36.7024C52.2738 36.8739 56.0558 39.7211 56.8276 44.7981C57.5994 49.9094 53.8689 55.0978 48.689 55.5781L48.6719 55.5695Z" fill="url(#paint2_linear_14_962)"/>
<path d="M79.8798 117.102C78.4562 120.876 72.1957 121.382 68.8768 121.742C59.4604 122.788 21.6661 123.32 12.0782 122.342C8.90511 122.008 2.52459 121.622 1.29823 117.822C0.406326 115.052 0.595003 111.33 3.07346 109.367C4.5914 108.157 6.48669 107.497 8.38198 107.703C8.25334 107.377 8.11613 107.051 7.98749 106.725C29.5475 108.329 54.8551 107.377 72.8904 106.228C72.8046 106.468 72.7189 106.699 72.6331 106.94C77.8902 106.056 81.7751 112.068 79.8798 117.094V117.102Z" fill="#3F4C6B"/>
<path d="M51.2875 75.3971H29.1615C29.7619 73.9049 30.2593 72.4041 30.6538 71.0577C31.5457 68.0561 32.5833 64.1369 32.4118 60.5522H47.5484C47.4884 64.094 48.5861 67.9361 49.5466 70.8433C50.0183 72.2669 50.5843 73.8363 51.2875 75.4057V75.3971Z" fill="#3F4C6B"/>
<path d="M53.6888 26.0253H25.4567C24.7535 23.504 24.6506 20.854 25.3452 18.2727C25.7569 16.7376 26.3315 15.314 27.0433 13.9675H52.1365C52.917 15.4426 53.5001 16.9948 53.826 18.6672C54.3063 21.1027 54.3063 23.6326 53.6802 26.0253H53.6888Z" fill="#3F4C6B"/>
<defs>
<linearGradient id="paint0_linear_14_962" x1="31.1647" y1="6.27988" x2="52.4124" y2="12.7537" gradientUnits="userSpaceOnUse">
<stop stop-color="#83A4D4"/>
<stop offset="1" stop-color="#B6FBFF"/>
</linearGradient>
<linearGradient id="paint1_linear_14_962" x1="18.2883" y1="89.2039" x2="73.2158" y2="107.609" gradientUnits="userSpaceOnUse">
<stop stop-color="#83A4D4"/>
<stop offset="1" stop-color="#B6FBFF"/>
</linearGradient>
<linearGradient id="paint2_linear_14_962" x1="28.336" y1="40.8449" x2="59.174" y2="45.8344" gradientUnits="userSpaceOnUse">
<stop stop-color="#83A4D4"/>
<stop offset="1" stop-color="#B6FBFF"/>
</linearGradient>
</defs>
</svg>
