<svg width="87" height="124" viewBox="0 0 87 124" fill="none" xmlns="http://www.w3.org/2000/svg">
<path d="M86.0694 117.085C84.5531 120.94 78.8351 121.515 75.3276 121.945C64.7045 123.214 22.3585 123.781 11.708 122.657C8.46537 122.319 2.11712 121.899 0.865737 118.044C-0.0476813 115.222 0.144136 111.395 2.65604 109.394C4.17231 108.189 6.04482 107.494 7.94473 107.641C7.93559 107.622 7.92646 107.586 7.90819 107.558C32.059 110.125 63.4075 108.563 81.8859 107.22C85.4117 108.609 87.6313 113.075 86.0694 117.076V117.085Z" fill="#3F4C6B"/>
<path d="M12.8589 34.7498H72.1488C72.021 36.3483 71.8931 37.9377 71.683 39.5087C71.6191 40.0477 71.0253 40.3491 70.5504 40.3948C67.3351 40.6779 64.1199 40.6962 60.8955 40.7327C59.361 42.4499 58.9956 45.5464 58.5755 47.7204C58.3562 48.8804 58.1918 49.9948 58.1461 51.1914C58.0913 52.6254 58.0548 54.0504 58.0457 55.4844H27.4827C27.437 54.0595 27.3731 52.6437 27.2635 51.2188C27.1721 49.9674 26.9438 48.7799 26.6515 47.5286C26.1857 45.5008 25.7929 42.7148 24.304 41.1255C21.0796 41.1712 17.8736 41.2168 14.6492 40.9976C14.1651 40.9793 13.5714 40.6779 13.4983 40.139C13.2151 38.3487 13.0416 36.5401 12.868 34.7316L12.8589 34.7498Z" fill="url(#paint0_linear_14_918)"/>
<path d="M81.8859 107.23C63.4166 108.572 32.059 110.134 7.90821 107.568C7.58851 106.764 7.25055 105.987 7.1044 105.129C6.93085 104.078 7.1044 103.046 7.4515 102.05C8.15483 100.068 9.97253 98.6708 11.5253 97.3738C13.6993 95.5652 16.2934 94.6244 18.6957 93.1995C21.6277 91.4366 22.7787 89.354 21.7922 86.1935C21.4177 85.4354 21.2167 84.4489 22.2032 84.0927C23.619 83.5812 25.5828 81.1971 26.0487 79.7722C26.5054 78.329 26.7246 76.8127 26.8982 75.3056C27.0534 73.8441 27.1722 72.3918 27.2635 70.9303H58.6394C58.7673 72.4557 58.9409 73.9629 59.1692 75.4609C59.3884 76.8401 59.5894 78.3107 60.1283 79.6078C60.6855 80.9231 62.6128 83.161 63.9738 83.6177C64.9694 83.9465 64.7867 84.5585 64.4396 85.7003C63.4532 89.1804 65.0608 91.3544 68.3399 92.9802C70.6144 94.1129 72.9527 95.072 74.9531 96.6522C76.6246 97.9858 78.7986 99.566 79.3375 101.795C79.8033 103.749 79.1548 105.183 78.6798 106.828C79.8216 106.672 80.9086 106.819 81.8951 107.22L81.8859 107.23Z" fill="url(#paint1_linear_14_918)"/>
<path d="M27.5284 62.6821C27.5466 60.289 27.5649 57.8776 27.4827 55.4844H58.0548C58.0548 57.768 58.1005 60.0606 58.1827 62.335C58.274 65.194 58.3745 68.0713 58.6302 70.9303H27.2543C27.4279 68.1809 27.4918 65.4315 27.5284 62.6913V62.6821Z" fill="#3F4C6B"/>
<path d="M73.3363 12.1336C73.1902 13.184 73.0623 14.2253 72.9527 15.2392H72.9344C72.8796 15.7964 72.8065 16.3444 72.7517 16.8651C72.5051 19.0481 72.3681 32.5485 72.222 34.7407H12.7767C12.5849 32.5941 12.3931 19.1395 12.0825 17.0021C12.0003 16.4358 11.909 15.8421 11.8359 15.2392H11.7994C11.6532 14.2253 11.4979 13.184 11.3152 12.1336H73.3363Z" fill="#3F4C6B"/>
<path d="M14.1834 0.368774H69.774C71.5277 0.368774 72.9527 1.79371 72.9527 3.54747V12.5081H11.4888V3.07249C11.4888 1.58362 12.6945 0.377909 14.1834 0.377909V0.368774Z" fill="url(#paint2_linear_14_918)"/>
<defs>
<linearGradient id="paint0_linear_14_918" x1="22.5767" y1="43.6391" x2="67.6285" y2="64.6644" gradientUnits="userSpaceOnUse">
<stop stop-color="#83A4D4"/>
<stop offset="1" stop-color="#B6FBFF"/>
</linearGradient>
<linearGradient id="paint1_linear_14_918" x1="19.3059" y1="87.2468" x2="82.0809" y2="107.44" gradientUnits="userSpaceOnUse">
<stop stop-color="#83A4D4"/>
<stop offset="1" stop-color="#B6FBFF"/>
</linearGradient>
<linearGradient id="paint2_linear_14_918" x1="21.5629" y1="5.57921" x2="55.3355" y2="33.5122" gradientUnits="userSpaceOnUse">
<stop stop-color="#83A4D4"/>
<stop offset="1" stop-color="#B6FBFF"/>
</linearGradient>
</defs>
</svg>
