<svg width="96" height="127" viewBox="0 0 96 127" fill="none" xmlns="http://www.w3.org/2000/svg">
<path d="M93.7181 122.845C89.5844 125.392 83.4698 125.34 78.8045 125.563C70.8974 125.941 31.9282 126.344 24.0126 126.172C19.2787 126.078 13.6357 126.086 9.28769 123.925C7.02364 122.793 6.82639 120.229 7.33237 117.905C8.02703 114.723 10.4798 110.71 14.5019 111.593C15.1537 111.73 15.6596 111.593 16.0112 110.71C16.0455 110.581 16.0798 110.452 16.1142 110.332C39.6895 112.262 68.3161 110.907 86.4628 109.638C86.5314 110.624 87.2432 110.77 88.0408 110.77C93.0577 110.71 93.9753 113.634 95.116 116.421C96.0079 118.591 95.7849 121.558 93.7009 122.836L93.7181 122.845Z" fill="#3F4C6B"/>
<path d="M62.1414 23.3977H11.0286C14.9736 18.2864 19.9476 13.7754 25.7192 11.4771C26.534 11.2026 26.6112 10.4137 26.534 10.0192L23.601 0.345471C30.2988 -1.39545 35.4272 7.84944 40.1955 12.086C40.6586 12.5233 41.1731 12.4547 41.3961 12.3947C46.293 11.2541 50.864 14.0241 54.6203 16.8799C57.2445 18.8781 59.7058 21.1336 62.15 23.3891L62.1414 23.3977Z" fill="url(#paint0_linear_14_976)"/>
<path d="M76.8577 55.7205C76.8577 55.7205 76.7891 55.7548 76.7548 55.7805C70.9832 59.2452 65.5289 50.755 61.7812 47.6076C61.3009 47.2388 60.9236 47.2217 60.5805 47.2989C56.2925 48.3366 51.3614 49.5029 47.0219 48.1479C46.3359 47.9249 45.6326 48.4309 45.4783 49.3485C45.2982 52.2215 46.4045 54.8629 47.648 57.3928C49.1316 60.4801 50.7954 63.576 52.5963 66.4747C53.797 68.4043 55.1519 70.1109 56.6442 71.6889H4.52804C4.33079 71.243 4.15069 70.797 3.97059 70.3425C1.6122 64.2192 0.848946 56.9383 0.694578 50.4291C0.600243 46.6814 1.15768 43.2081 2.17822 39.8892C2.67562 38.3027 3.28451 36.7333 3.97059 35.181H75.1597C75.8543 35.7813 76.549 36.3817 77.2436 36.9734C77.3466 37.0592 77.4409 37.1364 77.5524 37.2221C78.5043 38.0025 79.3104 38.903 79.9451 39.8978C83.3154 45.0434 82.3721 52.3587 76.8577 55.729V55.7205Z" fill="url(#paint1_linear_14_976)"/>
<path d="M86.48 109.157C86.4714 109.337 86.4542 109.5 86.48 109.638C68.3332 110.907 39.7066 112.262 16.1313 110.332C16.5944 108.566 16.037 108.557 15.7282 106.516C15.2651 103.523 14.7763 100.556 14.0902 97.6141C13.104 93.266 12.1263 88.8151 10.5998 84.5786C10.4712 84.2098 10.3254 83.8325 10.1796 83.4723H71.1804C80.048 90.1015 87.8007 96.8508 86.48 109.157V109.157Z" fill="url(#paint2_linear_14_976)"/>
<path d="M71.1804 83.4637H10.1796C8.56732 79.433 6.23466 75.6939 4.52805 71.6889H56.6442C59.6801 74.9049 63.2305 77.5463 66.8582 80.2477C68.3075 81.3283 69.7568 82.3917 71.1804 83.4637Z" fill="#3F4C6B"/>
<path d="M75.1597 35.181H3.97061C4.69099 33.5773 5.50571 31.9993 6.39761 30.4128C6.83499 29.6495 7.28095 28.8777 7.7612 28.1144C8.74744 26.5107 9.83657 24.9327 11.0201 23.4062H62.1328C63.2134 24.3925 64.2854 25.4044 65.3745 26.3821C66.0092 26.9567 66.6438 27.5398 67.2698 28.1144C69.8769 30.49 72.484 32.8741 75.1511 35.181H75.1597Z" fill="#3F4C6B"/>
<defs>
<linearGradient id="paint0_linear_14_976" x1="19.4076" y1="10.1168" x2="61.3148" y2="25.1574" gradientUnits="userSpaceOnUse">
<stop stop-color="#83A4D4"/>
<stop offset="1" stop-color="#B6FBFF"/>
</linearGradient>
<linearGradient id="paint1_linear_14_976" x1="13.9966" y1="50.8509" x2="80.3862" y2="74.9782" gradientUnits="userSpaceOnUse">
<stop stop-color="#83A4D4"/>
<stop offset="1" stop-color="#B6FBFF"/>
</linearGradient>
<linearGradient id="paint2_linear_14_976" x1="22.7097" y1="95.4149" x2="81.59" y2="121.842" gradientUnits="userSpaceOnUse">
<stop stop-color="#83A4D4"/>
<stop offset="1" stop-color="#B6FBFF"/>
</linearGradient>
</defs>
</svg>
