<svg width="76" height="102" viewBox="0 0 76 102" fill="none" xmlns="http://www.w3.org/2000/svg">
<path d="M9.53625 101.414C18.9289 102.488 56.3617 101.973 65.7471 100.782C68.5489 100.427 73.7606 99.8459 74.7913 96.536C76.1777 92.0647 73.1073 86.9038 68.4981 87.3974C68.5417 87.2377 68.5997 87.0852 68.6578 86.9255C54.1913 87.8183 27.9877 89.0233 6.33519 87.7458C6.386 87.8764 6.43682 88.0143 6.48037 88.145C4.99235 88.0652 3.46078 88.5225 2.29214 89.4588C-0.124986 91.3824 -0.350004 94.3511 0.339566 97.1747C1.18157 100.637 6.78523 101.087 9.54351 101.407L9.53625 101.414Z" fill="#3F4C6B"/>
<path d="M56.4778 13.4682H17.0562C19.9742 5.57081 27.6829 0.968842 36.5021 0.867221C45.5028 0.780118 53.6179 5.3458 56.4706 13.4682H56.4778Z" fill="url(#paint0_linear_14_948)"/>
<path d="M16.1343 24.436C16.0762 24.1094 16.0254 23.7755 15.9746 23.4416H57.4359C57.3996 23.7827 57.3488 24.1094 57.2835 24.436C56.2165 30.4897 52.6089 35.7813 46.3447 37.9008C45.6769 41.6172 45.764 46.1538 46.8238 50.3493H27.3634C28.2707 46.1901 28.2417 41.7551 27.5013 38.1113C21.1282 36.1079 17.2304 30.6422 16.127 24.436H16.1343Z" fill="url(#paint1_linear_14_948)"/>
<path d="M70.7991 81.1477C70.6612 83.2527 69.3256 85.0021 68.6578 86.9401C54.1913 87.8257 27.9949 89.0306 6.34245 87.7603C5.57304 85.6191 3.93985 83.71 3.9834 81.3292C4.04147 78.4983 5.61659 76.0957 7.83047 74.4117C9.86289 72.8584 12.2655 72.0527 14.4431 70.7316C17.078 69.1274 18.0724 66.9353 18.1232 63.8867C18.116 63.4076 18.174 62.9794 18.7329 62.7181C20.0613 62.1229 21.2372 61.3026 22.2534 60.3227H52.5001C53.4437 61.1284 54.5107 61.7962 55.7011 62.3043C56.2673 62.5439 56.2963 62.8995 56.3326 63.4512C56.4633 66.6595 57.661 68.946 60.5717 70.4267C62.7638 71.5518 65.1591 72.3793 67.1117 73.9254C69.3619 75.711 71.0168 78.179 70.8209 81.1405L70.7991 81.1477Z" fill="url(#paint2_linear_14_948)"/>
<path d="M52.4855 60.3227H22.2388C24.8737 57.8039 26.5142 54.2037 27.3634 50.3566H46.8238C47.8037 54.2763 49.6329 57.9056 52.4855 60.3227Z" fill="#3F4C6B"/>
<path d="M57.4287 23.4416H15.9747C15.7279 21.4963 15.7351 19.4856 16.0327 17.4895C16.1344 16.7927 16.2723 16.1104 16.4392 15.4643C16.6062 14.7748 16.8167 14.107 17.0562 13.4682H56.4706C56.7101 14.107 56.8988 14.7748 57.0585 15.4643C57.1747 15.9724 57.2763 16.4878 57.3561 17.0177C57.6755 19.1735 57.7046 21.3438 57.4287 23.4343V23.4416Z" fill="#3F4C6B"/>
<defs>
<linearGradient id="paint0_linear_14_948" x1="23.5176" y1="6.27511" x2="52.4435" y2="21.0561" gradientUnits="userSpaceOnUse">
<stop stop-color="#83A4D4"/>
<stop offset="1" stop-color="#B6FBFF"/>
</linearGradient>
<linearGradient id="paint1_linear_14_948" x1="22.7703" y1="34.9909" x2="58.8507" y2="44.0726" gradientUnits="userSpaceOnUse">
<stop stop-color="#83A4D4"/>
<stop offset="1" stop-color="#B6FBFF"/>
</linearGradient>
<linearGradient id="paint2_linear_14_948" x1="14.9402" y1="72.336" x2="68.6297" y2="93.285" gradientUnits="userSpaceOnUse">
<stop stop-color="#83A4D4"/>
<stop offset="1" stop-color="#B6FBFF"/>
</linearGradient>
</defs>
</svg>
