<svg width="95" height="126" viewBox="0 0 95 126" fill="none" xmlns="http://www.w3.org/2000/svg">
<path d="M90.7576 102.614C90.453 102.811 90.1395 102.954 89.8349 103.116C90.1664 103.42 90.4709 103.743 90.7576 104.083C70.8623 105.633 32.9978 107.774 4.95097 104.513C5.09429 104.352 5.23763 104.191 5.38095 104.047C5.05847 103.904 4.75391 103.761 4.4583 103.581C0.839356 101.342 0.015237 96.4063 0.382506 92.5365C1.13496 84.4745 8.03245 79.5835 15.4495 79.1804C15.3151 77.7293 15.0643 76.2154 14.7239 74.6657H79.6768C79.4439 75.9736 79.2827 77.2366 79.1931 78.4549C86.6281 78.6967 93.633 83.4354 94.5557 91.4795C95.0125 95.3403 94.2959 100.303 90.7397 102.614H90.7576Z" fill="url(#paint0_linear_14_1002)"/>
<path d="M92.791 115.898C89.9962 124.444 82.2477 124.56 74.7411 124.104C74.347 125.286 21.4692 126.155 20.9586 124.704C13.7207 125.322 5.0137 125.492 2.72946 116.902C1.42163 112.002 2.34428 107.568 4.95996 104.513C33.0068 107.774 70.8713 105.633 90.7666 104.083C93.3016 107.048 94.3138 111.24 92.8 115.889L92.791 115.898Z" fill="#3F4C6B"/>
<path d="M85.9024 58.7745C82.7493 63.3788 80.6352 69.2551 79.6857 74.6567H14.7328C13.5415 69.1476 11.1318 63.2265 7.69202 58.7745H85.8935H85.9024Z" fill="#3F4C6B"/>
<path d="M92.8716 52.0024C92.7104 52.1457 92.5402 52.2712 92.3431 52.3876C89.8708 53.8656 87.703 56.114 85.8935 58.7835H7.69206C5.95425 56.5351 3.95666 54.6629 1.72618 53.3909C1.5291 53.2923 1.35891 53.1669 1.19767 53.0326C0.104819 52.1995 -0.0653844 50.9185 0.337716 49.8346C0.606449 48.8224 1.36785 47.9893 2.61299 47.8012C2.72048 47.7922 2.8459 47.7744 2.97131 47.7654C2.99818 47.7654 3.0161 47.7654 3.04297 47.7564C8.41764 46.368 12.592 46.8248 17.0261 46.368H77.5001C77.5001 46.368 77.509 46.4307 77.509 46.4575C81.961 46.8158 86.431 46.8248 90.892 46.78C90.9278 46.78 90.9546 46.789 90.9815 46.789C91.089 46.789 91.2144 46.798 91.3398 46.8159C92.585 46.9592 93.3553 47.7833 93.6509 48.7866C94.0809 49.8705 93.9376 51.1514 92.8627 52.0114L92.8716 52.0024Z" fill="url(#paint1_linear_14_1002)"/>
<path d="M63.8663 9.46193H29.567C32.4066 3.20044 39.5191 0.737054 46.4614 0.665392C53.547 0.59373 61.3492 2.91379 63.8663 9.46193Z" fill="#3F4C6B"/>
<path d="M77.5091 46.368H17.0351C18.316 36.6847 23.7534 29.823 32.8187 27.2611C31.4571 25.6039 30.3195 23.7407 29.5312 21.761C29.2087 20.9637 28.94 20.1396 28.7429 19.2976H64.3322C64.162 20.1307 63.9022 20.9548 63.6066 21.761C62.9079 23.6152 61.9225 25.3531 60.6953 26.9386C69.7964 29.2855 75.9952 36.7563 77.5091 46.368Z" fill="#3F4C6B"/>
<path d="M64.3321 19.2976H28.7429C28.1875 16.9954 28.1158 14.5768 28.6712 12.1224C28.8952 11.1639 29.1908 10.2771 29.567 9.45296H63.8664C64.1351 10.1696 64.359 10.9131 64.4934 11.7282C64.9592 14.3618 64.8875 16.9058 64.3321 19.2976Z" fill="url(#paint2_linear_14_1002)"/>
<defs>
<linearGradient id="paint0_linear_14_1002" x1="15.7713" y1="88.2091" x2="86.2725" y2="122.655" gradientUnits="userSpaceOnUse">
<stop stop-color="#83A4D4"/>
<stop offset="1" stop-color="#B6FBFF"/>
</linearGradient>
<linearGradient id="paint1_linear_14_1002" x1="15.5024" y1="51.6969" x2="49.9081" y2="94.1308" gradientUnits="userSpaceOnUse">
<stop stop-color="#83A4D4"/>
<stop offset="1" stop-color="#B6FBFF"/>
</linearGradient>
<linearGradient id="paint2_linear_14_1002" x1="34.2732" y1="13.6785" x2="58.988" y2="28.6519" gradientUnits="userSpaceOnUse">
<stop stop-color="#83A4D4"/>
<stop offset="1" stop-color="#B6FBFF"/>
</linearGradient>
</defs>
</svg>
