<svg width="31" height="30" viewBox="0 0 31 30" fill="none" xmlns="http://www.w3.org/2000/svg">
<path fill-rule="evenodd" clip-rule="evenodd" d="M0.5 15C0.5 6.72 7.22 0 15.5 0C23.78 0 30.5 6.72 30.5 15C30.5 23.28 23.78 30 15.5 30C7.22 30 0.5 23.28 0.5 15ZM3.50003 15C3.50003 21.615 8.88503 27 15.5 27C22.115 27 27.5 21.615 27.5 15C27.5 8.385 22.115 3 15.5 3C8.88503 3 3.50003 8.385 3.50003 15ZM14.0001 21H17.0001V24H14.0001V21ZM9.77007 10.245C10.5951 7.515 13.3251 5.61 16.4151 6.06C19.0251 6.45 21.0801 8.655 21.4401 11.265C21.7822 13.6853 20.4437 14.8531 19.1517 15.9803C18.9144 16.1874 18.6786 16.3931 18.4551 16.605C18.2751 16.77 18.1101 16.935 17.9601 17.115C17.9526 17.1225 17.9451 17.1338 17.9376 17.145C17.9301 17.1563 17.9226 17.1675 17.9151 17.175C17.7651 17.355 17.6151 17.55 17.4951 17.76C17.4801 17.7825 17.4688 17.805 17.4576 17.8275C17.4463 17.85 17.4351 17.8725 17.4201 17.895C17.1651 18.345 17.0001 18.87 17.0001 19.5H14.0001C14.0001 18.75 14.1201 18.135 14.3001 17.625C14.3066 17.6053 14.3103 17.5884 14.3137 17.5732C14.3179 17.5537 14.3216 17.5368 14.3301 17.52C14.3376 17.4975 14.3488 17.4788 14.3601 17.46C14.3713 17.4413 14.3826 17.4225 14.3901 17.4C14.4951 17.13 14.6301 16.875 14.7651 16.65C14.7726 16.635 14.7801 16.6238 14.7876 16.6125C14.7951 16.6013 14.8026 16.59 14.8101 16.575C14.8101 16.5675 14.8138 16.5638 14.8176 16.56C14.8213 16.5563 14.8251 16.5525 14.8251 16.545C15.3359 15.7756 16.0211 15.2487 16.6618 14.7559C17.5826 14.0478 18.4116 13.4102 18.5001 12.225C18.6201 10.77 17.5701 9.375 16.1451 9.075C14.6001 8.745 13.1751 9.66 12.6951 10.995C12.4851 11.565 11.9901 12 11.3751 12H11.0751C10.1601 12 9.50007 11.115 9.77007 10.245Z" fill="#1C1C1C"/>
</svg>
