<svg width="39" height="39" viewBox="0 0 39 39" fill="none" xmlns="http://www.w3.org/2000/svg">
<path fill-rule="evenodd" clip-rule="evenodd" d="M5.75 5.75C13.3538 -1.85375 25.6462 -1.85375 33.25 5.75C40.8537 13.3537 40.8538 25.6462 33.25 33.25C25.6462 40.8537 13.3538 40.8537 5.75 33.25C-1.85375 25.6462 -1.85375 13.3537 5.75 5.75ZM18.2537 25.8551C18.2537 26.5446 18.8106 27.1014 19.5 27.1014C20.1806 27.0926 20.7463 26.5269 20.7463 25.8551L20.7463 20.7463H25.8551C26.5445 20.7463 27.1014 20.1894 27.1014 19.5C27.1014 18.8106 26.5445 18.2537 25.8551 18.2537L20.7463 18.2537V13.1449C20.7463 12.4555 20.1894 11.8986 19.5 11.8986C19.1693 11.8982 18.8521 12.0294 18.6183 12.2632C18.3845 12.497 18.2533 12.8142 18.2537 13.1449V18.2537L13.1449 18.2537C12.8142 18.2534 12.497 18.3846 12.2632 18.6184C12.0294 18.8522 11.8982 19.1694 11.8986 19.5C11.8986 20.1894 12.4554 20.7463 13.1449 20.7463L18.2537 20.7463V25.8551Z" fill="#F2F2F2"/>
</svg>
