<svg width="25" height="24" viewBox="0 0 25 24" fill="none" xmlns="http://www.w3.org/2000/svg">
<path d="M20.9714 3.52874C18.5239 1.08418 15.0554 -0.325558 11.2415 0.0643711C5.73084 0.61927 1.19621 5.08845 0.580578 10.5924C-0.245265 17.8661 5.38548 24 12.4877 24C17.2776 24 21.3918 21.1955 23.3138 17.1612C23.7943 16.1564 23.0735 15.0016 21.9624 15.0016C21.4068 15.0016 20.8813 15.3016 20.6411 15.7965C18.9443 19.4408 14.8752 21.7504 10.4306 20.7606C7.09723 20.0257 4.40949 17.3112 3.70377 13.9818C2.44248 8.16289 6.872 3.00383 12.4877 3.00383C14.9803 3.00383 17.2025 4.03864 18.8242 5.67335L16.5569 7.93793C15.6109 8.88276 16.2716 10.5025 17.608 10.5025H22.9985C23.8243 10.5025 24.5 9.82759 24.5 9.00274V3.61872C24.5 2.28397 22.8783 1.60909 21.9324 2.55392L20.9714 3.52874Z" fill="#1C1C1C"/>
</svg>
