<svg width="44" height="58" viewBox="0 0 44 58" fill="none" xmlns="http://www.w3.org/2000/svg">
<path d="M42.628 56.2278C40.734 57.3949 37.9323 57.3713 35.7946 57.4735C32.1716 57.6464 14.316 57.8311 10.689 57.7525C8.51996 57.7092 5.93435 57.7132 3.9421 56.7229C2.90471 56.2042 2.81433 55.0293 3.04617 53.9644C3.36446 52.5066 4.4883 50.6676 6.33123 51.0723C6.62987 51.1352 6.86171 51.0723 7.02282 50.6676C7.03854 50.6086 7.05426 50.5497 7.06997 50.4947C17.8722 51.3788 30.9888 50.758 39.3037 50.1764C39.3351 50.6283 39.6612 50.6951 40.0267 50.6951C42.3254 50.6676 42.7459 52.0075 43.2685 53.2846C43.6772 54.2788 43.575 55.6384 42.6202 56.2239L42.628 56.2278Z" fill="#1C1C1C"/>
<path d="M28.1596 10.6613H4.73975C6.54732 8.31932 8.82642 6.25241 11.471 5.1993C11.8443 5.07356 11.8796 4.71204 11.8443 4.53129L10.5004 0.0988104C13.5693 -0.698878 15.9192 3.53712 18.104 5.47829C18.3162 5.6787 18.5519 5.64726 18.6541 5.61976C20.8978 5.09713 22.9923 6.36636 24.7134 7.67488C25.9158 8.59046 27.0436 9.62392 28.1635 10.6574L28.1596 10.6613Z" fill="url(#paint0_linear_14_1449)"/>
<path d="M34.9026 25.4716C34.9026 25.4716 34.8712 25.4873 34.8555 25.4991C32.2109 27.0866 29.7117 23.1964 27.9946 21.7543C27.7745 21.5853 27.6016 21.5774 27.4444 21.6128C25.4797 22.0883 23.2202 22.6227 21.2319 22.0018C20.9175 21.8997 20.5953 22.1315 20.5246 22.552C20.4421 23.8683 20.949 25.0786 21.5187 26.2378C22.1985 27.6524 22.9609 29.071 23.7861 30.3992C24.3362 31.2833 24.957 32.0653 25.6408 32.7883H1.76121C1.67083 32.584 1.58831 32.3796 1.50579 32.1714C0.425179 29.3657 0.0754564 26.0296 0.00472545 23.0471C-0.038499 21.3299 0.216917 19.7384 0.684527 18.2177C0.912438 17.4908 1.19143 16.7717 1.50579 16.0604H34.1246C34.4428 16.3355 34.7611 16.6106 35.0794 16.8817C35.1266 16.921 35.1698 16.9564 35.2209 16.9956C35.6571 17.3532 36.0264 17.7658 36.3172 18.2216C37.8615 20.5793 37.4293 23.9312 34.9026 25.4755V25.4716Z" fill="url(#paint1_linear_14_1449)"/>
<path d="M39.3115 49.9563C39.3075 50.0388 39.2997 50.1135 39.3115 50.1763C30.9966 50.7579 17.88 51.3788 7.07778 50.4946C7.28997 49.6852 7.03456 49.6812 6.89309 48.746C6.6809 47.3746 6.45692 46.015 6.14256 44.6672C5.69067 42.6749 5.24271 40.6355 4.54326 38.6943C4.48431 38.5254 4.41751 38.3525 4.35071 38.1874H32.3012C36.3643 41.2249 39.9166 44.3175 39.3115 49.9563V49.9563Z" fill="url(#paint2_linear_14_1449)"/>
<path d="M32.3013 38.1835H4.35077C3.61202 36.3367 2.5432 34.6234 1.76123 32.7883H25.6408C27.0318 34.2619 28.6586 35.4722 30.3208 36.71C30.9849 37.2051 31.649 37.6923 32.3013 38.1835Z" fill="#1C1C1C"/>
<path d="M34.1245 16.0604H1.50574C1.83582 15.3256 2.20912 14.6026 2.61779 13.8756C2.81819 13.5259 3.02253 13.1722 3.24258 12.8225C3.69447 12.0877 4.19352 11.3647 4.73579 10.6652H28.1556C28.6507 11.1171 29.1419 11.5808 29.641 12.0288C29.9317 12.292 30.2225 12.5592 30.5094 12.8225C31.7039 13.911 32.8985 15.0034 34.1206 16.0604H34.1245Z" fill="#1C1C1C"/>
<defs>
<linearGradient id="paint0_linear_14_1449" x1="6.80068" y1="-2.31724" x2="17.1981" y2="13.9342" gradientUnits="userSpaceOnUse">
<stop stop-color="#780206"/>
<stop offset="1" stop-color="#FF6B6B"/>
</linearGradient>
<linearGradient id="paint1_linear_14_1449" x1="3.27437" y1="12.4246" x2="19.5018" y2="38.1079" gradientUnits="userSpaceOnUse">
<stop stop-color="#780206"/>
<stop offset="1" stop-color="#FF6B6B"/>
</linearGradient>
<linearGradient id="paint2_linear_14_1449" x1="7.43266" y1="35.4164" x2="18.538" y2="57.1233" gradientUnits="userSpaceOnUse">
<stop stop-color="#780206"/>
<stop offset="1" stop-color="#FF6B6B"/>
</linearGradient>
</defs>
</svg>
