<svg width="35" height="47" viewBox="0 0 35 47" fill="none" xmlns="http://www.w3.org/2000/svg">
<path d="M4.3695 46.0709C8.67321 46.5631 25.8249 46.327 30.1253 45.7815C31.4091 45.6186 33.797 45.3525 34.2693 43.8359C34.9046 41.7871 33.4977 39.4224 31.3858 39.6486C31.4057 39.5754 31.4323 39.5055 31.4589 39.4324C24.8304 39.8415 12.8239 40.3936 2.90278 39.8082C2.92606 39.8681 2.94934 39.9313 2.9693 39.9911C2.28749 39.9545 1.58572 40.1641 1.05026 40.5931C-0.0572686 41.4745 -0.160372 42.8348 0.155589 44.1286C0.541393 45.715 3.10899 45.9212 4.37283 46.0675L4.3695 46.0709Z" fill="#1C1C1C"/>
<path d="M25.8781 5.77432H7.81519C9.1522 2.15574 12.6843 0.0471234 16.7253 0.000560782C20.8494 -0.03935 24.5677 2.05264 25.8748 5.77432H25.8781Z" fill="url(#paint0_linear_14_1400)"/>
<path d="M7.39275 10.7997C7.36614 10.65 7.34286 10.497 7.31958 10.3441H26.3171C26.3005 10.5004 26.2772 10.65 26.2473 10.7997C25.7584 13.5735 24.1054 15.9981 21.2351 16.9692C20.9292 18.6721 20.9691 20.7508 21.4546 22.6732H12.5379C12.9537 20.7674 12.9403 18.7353 12.6011 17.0657C9.68097 16.1477 7.89496 13.6433 7.38942 10.7997H7.39275Z" fill="url(#paint1_linear_14_1400)"/>
<path d="M32.4401 36.785C32.3769 37.7495 31.765 38.551 31.459 39.4391C24.8305 39.8448 12.8273 40.3969 2.90614 39.8149C2.55359 38.8337 1.80527 37.959 1.82522 36.8681C1.85183 35.571 2.57355 34.4702 3.58795 33.6986C4.5192 32.9868 5.62007 32.6176 6.61784 32.0123C7.82514 31.2773 8.28079 30.2729 8.30407 28.876C8.30074 28.6565 8.32735 28.4603 8.58345 28.3405C9.19208 28.0678 9.73088 27.692 10.1965 27.243H24.0555C24.4879 27.6122 24.9768 27.9181 25.5222 28.151C25.7817 28.2607 25.795 28.4237 25.8116 28.6764C25.8715 30.1465 26.4202 31.1942 27.7539 31.8726C28.7583 32.3882 29.8559 32.7673 30.7506 33.4757C31.7816 34.2939 32.5399 35.4247 32.4501 36.7817L32.4401 36.785Z" fill="url(#paint2_linear_14_1400)"/>
<path d="M24.0488 27.243H10.1898C11.3971 26.0889 12.1488 24.4392 12.5379 22.6765H21.4546C21.9036 24.4725 22.7418 26.1354 24.0488 27.243Z" fill="#1C1C1C"/>
<path d="M26.3138 10.3441H7.31959C7.20651 9.45273 7.20983 8.53146 7.3462 7.61684C7.39276 7.29755 7.45595 6.98492 7.53245 6.68891C7.60894 6.37295 7.70539 6.06697 7.81515 5.77429H25.8748C25.9845 6.06697 26.071 6.37295 26.1442 6.68891C26.1974 6.92173 26.2439 7.15787 26.2805 7.40066C26.4269 8.38845 26.4402 9.38289 26.3138 10.3407V10.3441Z" fill="#1C1C1C"/>
<defs>
<linearGradient id="paint0_linear_14_1400" x1="9.40445" y1="-1.25505" x2="14.0422" y2="9.06581" gradientUnits="userSpaceOnUse">
<stop stop-color="#780206"/>
<stop offset="1" stop-color="#FF6B6B"/>
</linearGradient>
<linearGradient id="paint1_linear_14_1400" x1="8.99107" y1="7.66431" x2="22.1786" y2="22.1204" gradientUnits="userSpaceOnUse">
<stop stop-color="#780206"/>
<stop offset="1" stop-color="#FF6B6B"/>
</linearGradient>
<linearGradient id="paint2_linear_14_1400" x1="4.52002" y1="24.4556" x2="16.5625" y2="44.9192" gradientUnits="userSpaceOnUse">
<stop stop-color="#780206"/>
<stop offset="1" stop-color="#FF6B6B"/>
</linearGradient>
</defs>
</svg>
