<svg width="77" height="101" viewBox="0 0 77 101" fill="none" xmlns="http://www.w3.org/2000/svg">
<path d="M47.2173 38.4955C47.2391 38.3358 47.2536 38.1688 47.2899 38.0091C50.0191 37.08 52.2548 35.5484 53.9896 33.6104C54.8098 32.6958 55.5066 31.6941 56.0946 30.6198C56.6825 29.5964 57.1543 28.5148 57.51 27.3825C57.8221 26.4679 58.0617 25.5098 58.2286 24.5444C58.2359 24.4936 58.2504 24.4427 58.2504 24.3919C58.3012 24.1161 58.352 23.833 58.3811 23.5427C58.4899 22.7587 58.548 21.9603 58.5625 21.1473C58.5916 20.1601 58.5553 19.1512 58.4319 18.1568C58.4028 17.8084 58.3593 17.4672 58.3157 17.1188C58.2359 16.5889 58.1343 16.0735 58.0181 15.5654C57.9673 15.3477 57.9092 15.1299 57.8512 14.9194C57.735 14.4621 57.5899 14.0121 57.4302 13.5766C57.2342 13.0104 57.0019 12.4587 56.7551 11.9289C56.218 10.7602 55.5574 9.67869 54.788 8.69151C53.9388 7.57369 52.9661 6.57925 51.8773 5.70095C48.1101 2.63055 43.0871 0.975586 37.723 0.975586H37.4617C32.1992 1.03365 27.3359 2.70314 23.6485 5.70095C22.5597 6.5865 21.5871 7.5882 20.7305 8.69151C19.9539 9.68595 19.2715 10.7675 18.7199 11.9289C18.4586 12.4587 18.2336 13.0031 18.0231 13.5766C17.8634 14.0121 17.7109 14.4621 17.5875 14.9194C17.515 15.1299 17.4569 15.3477 17.4061 15.5654C17.2391 16.2114 17.094 16.8938 16.9996 17.5906C16.9706 17.7793 16.9488 17.968 16.9198 18.1568C16.8036 19.1512 16.7528 20.1601 16.7673 21.1473C16.7746 21.953 16.8399 22.7515 16.9343 23.5427C16.9706 23.833 17.0214 24.1088 17.0722 24.3919C17.0722 24.4427 17.0794 24.4936 17.094 24.5444C17.2609 25.5098 17.5004 26.4679 17.8198 27.3825C18.19 28.5221 18.6691 29.5964 19.2425 30.6198C19.8377 31.6941 20.5491 32.6958 21.3693 33.6104C23.2057 35.6864 25.5793 37.3123 28.4682 38.2124C28.49 38.2995 28.4973 38.4011 28.519 38.4882H47.2391L47.2173 38.4955ZM37.4689 2.96444H37.7085C41.6789 2.96444 45.3155 3.94437 48.3278 5.6937H27.1254C30.0579 3.98066 33.5928 3.00074 37.4762 2.96444H37.4689ZM23.3436 8.68425H52.1096C53.046 9.66416 53.8444 10.7457 54.4904 11.9216H20.9483C21.6161 10.7384 22.4145 9.64965 23.3436 8.68425ZM18.9449 17.8664C19.032 17.2712 19.1554 16.6615 19.3151 16.0445C19.4022 15.6671 19.5111 15.2969 19.6417 14.9194H55.7679C55.8696 15.2606 55.9639 15.6162 56.0583 16.0227C56.1672 16.4728 56.2543 16.9518 56.3269 17.4091C56.3632 17.6559 56.3994 17.91 56.4285 18.1568H18.9086C18.9159 18.0551 18.9377 17.968 18.9449 17.8664ZM19.0756 24.3847C19.0683 24.3121 19.0465 24.2468 19.0393 24.1742C18.9812 23.862 18.9376 23.5644 18.8868 23.2886C18.7997 22.5773 18.7489 21.8659 18.7344 21.1473H56.5519C56.5301 21.8732 56.4793 22.5918 56.3849 23.3104C56.3559 23.6007 56.3051 23.8911 56.2543 24.1887C56.247 24.2613 56.2325 24.3266 56.218 24.3847H19.0756ZM21.5798 30.6126C20.912 29.6254 20.3531 28.5366 19.903 27.3752H55.3978C54.9622 28.5439 54.4106 29.6254 53.7428 30.6126H21.5798ZM45.5333 36.4921H29.6441L29.0489 36.3033C27.2415 35.7372 25.6228 34.8153 24.2147 33.6031H51.1006C49.8013 34.7065 48.3061 35.5557 46.6511 36.1146L45.5333 36.4921Z" fill="black"/>
<path d="M46.8834 42.328C46.9124 40.9997 47.0213 39.7076 47.2173 38.4954H28.4973C28.7223 39.6786 28.8675 40.9489 28.9401 42.2627C34.7688 41.8562 40.9168 42.132 46.8834 42.3353V42.328Z" fill="black"/>
<path d="M70.2635 85.4878C70.9095 84.1232 71.6426 82.7804 71.7442 81.2488C71.9402 78.2873 70.2852 75.8193 68.0351 74.0337C66.0825 72.4876 63.6871 71.6601 61.495 70.535C58.5843 69.047 57.3866 66.7678 57.256 63.5595C57.227 63.0079 57.1979 62.6522 56.6245 62.4126C55.4413 61.9045 54.3743 61.2367 53.4234 60.431C50.5708 58.0067 48.7416 54.3773 47.7617 50.4649C47.0866 47.7865 46.8181 44.9847 46.8761 42.3353C43.167 42.2119 39.3852 42.0594 35.6543 42.0594C33.3824 42.0594 31.1322 42.1175 28.9256 42.2699C29.0707 44.9266 28.8893 47.7502 28.2941 50.4649C27.4448 54.312 25.8043 57.9123 23.1695 60.431C22.1532 61.411 20.9773 62.2239 19.649 62.8264C19.0901 63.0877 19.032 63.516 19.0393 63.995C18.9885 67.0437 17.9941 69.2358 15.3592 70.8399C13.1888 72.1537 10.7862 72.9667 8.74655 74.52C6.53267 76.204 4.95755 78.6067 4.89948 81.4375C4.87044 83.2304 5.77777 84.7474 6.56171 86.3008C5.34951 86.3952 4.16636 86.8234 3.21548 87.5783C0.798353 89.5019 0.573336 92.4706 1.26291 95.2942C2.10491 98.7566 7.70857 99.2066 10.4669 99.526C19.8595 100.6 57.2923 100.085 66.6777 98.8945C69.4795 98.5388 74.6912 97.9582 75.7219 94.6482C77.0212 90.4455 74.3864 85.6403 70.2489 85.4806L70.2635 85.4878ZM9.98052 76.0952C11.0403 75.2822 12.2742 74.6797 13.5735 74.041C14.5026 73.5837 15.468 73.1119 16.4189 72.5384C19.424 70.7093 20.8975 68.1034 21.0427 64.3725C22.3202 63.7265 23.5034 62.8844 24.5631 61.8682C27.2778 59.2696 29.2449 55.4734 30.2539 50.8859C30.7184 48.7446 30.9652 46.4509 30.9725 44.1427C32.4242 44.0773 33.9703 44.0483 35.6616 44.0483C38.7174 44.0483 41.8532 44.1499 44.9018 44.2588C44.9816 46.5525 45.301 48.839 45.8309 50.944C46.9995 55.6331 49.1771 59.4366 52.1314 61.9481C53.0823 62.7611 54.142 63.4434 55.2816 63.995C55.5284 67.9002 57.2705 70.6222 60.5804 72.3134C61.27 72.6691 61.9741 72.9957 62.6564 73.3078C64.1735 74.0047 65.6107 74.6652 66.7938 75.6016C68.2383 76.7412 69.9223 78.6284 69.7481 81.1254C69.6828 82.0763 69.2182 83.0634 68.7101 84.1087C58.5843 84.7257 43.617 85.437 28.4102 85.437C20.9773 85.437 14.1542 85.2628 8.1078 84.9217C8.09328 84.8926 8.07876 84.8636 8.06424 84.8346C7.43274 83.6078 6.88834 82.5481 6.91012 81.4811C6.96819 78.7881 8.85543 76.9589 9.97326 76.1024L9.98052 76.0952Z" fill="black"/>
</svg>
