<svg width="97" height="125" viewBox="0 0 97 125" fill="none" xmlns="http://www.w3.org/2000/svg">
<path d="M89.8398 103.763C90.5947 103.709 91.3315 103.655 92.0319 103.601C91.7408 103.26 91.4316 102.937 91.095 102.632C91.4043 102.471 91.7226 102.327 92.0319 102.13C95.6431 99.8148 96.3707 94.8438 95.9068 90.9765C94.9699 82.9188 87.8477 78.1721 80.3071 77.9298C80.398 76.7095 80.5527 75.4443 80.7983 74.1343C81.7624 68.7236 83.9091 62.8374 87.1109 58.2253C88.9483 55.5514 91.1496 53.2991 93.6601 51.8186C93.8602 51.7109 94.0331 51.5853 94.1968 51.4328C95.2792 50.5714 95.4338 49.2883 94.9972 48.2025C94.6971 47.2065 93.9148 46.381 92.6504 46.2285C92.5231 46.2195 92.4048 46.2016 92.2866 46.2016C92.2593 46.2016 92.2411 46.1926 92.1956 46.1926C87.6567 46.2375 83.1268 46.2285 78.6061 45.8696C78.6061 45.8426 78.597 45.8068 78.597 45.7799C78.597 45.7799 78.4242 45.7799 78.1149 45.7799C76.9052 40.441 74.4401 34.4112 70.9654 31.3155C69.8284 30.2926 68.564 29.3773 67.2178 28.6147C65.8079 27.7981 64.298 27.1521 62.6789 26.6585C62.2878 26.5329 61.9057 26.4253 61.5146 26.3266C61.9239 25.7972 62.3151 25.2588 62.6789 24.6845C63.4066 23.5629 64.0069 22.3785 64.4799 21.1312C65.0802 19.552 65.4623 17.9189 65.6169 16.2051C65.7624 14.5541 65.6897 12.8403 65.3804 11.0905C65.244 10.274 65.0166 9.52924 64.7437 8.8114C64.2434 7.52828 63.543 6.42461 62.6789 5.44656C61.6419 4.28008 60.3594 3.31101 58.9313 2.54831C55.5839 0.735776 51.3906 0 47.3884 0H47.0609C43.8864 0.0358917 40.6755 0.556312 37.8557 1.6869C36.5095 2.2163 35.236 2.89824 34.1081 3.73273C32.3344 5.04277 30.8699 6.71174 29.9148 8.8114C29.7875 9.07162 29.6783 9.34081 29.5783 9.60999C29.3418 10.2022 29.1508 10.8303 29.0052 11.4853C28.6323 13.0915 28.5413 14.6618 28.6778 16.2051C28.7869 17.6228 29.1053 19.0046 29.5783 20.3326C29.6692 20.6018 29.7693 20.871 29.8784 21.1312C30.6789 23.1142 31.825 24.9716 33.2167 26.6406C31.9433 26.9995 30.7335 27.4392 29.5783 27.9955C28.2412 28.6146 26.9768 29.3594 25.8307 30.2118C21.5737 33.3524 18.5811 39.8308 17.1803 45.726C16.6255 45.735 16.4344 45.7529 16.6709 45.7709C16.6709 45.7709 6.05583 47.5654 2.98136 47.1617C2.95407 47.1617 2.93589 47.1707 2.9086 47.1707C2.78125 47.1796 2.663 47.1976 2.54475 47.2066C1.28039 47.395 0.507235 48.2295 0.234352 49.2434C-0.174971 50.3291 -0.00215333 51.6123 1.10757 52.4467C1.2713 52.5813 1.44413 52.7069 1.64425 52.8056C3.90917 54.0708 5.93758 55.9462 7.70222 58.2073C11.186 62.6669 13.6329 68.598 14.8517 74.1163C15.1974 75.6687 15.4521 77.1851 15.5885 78.6387C8.05696 79.0425 1.0439 83.9507 0.288927 92.0173C-0.0840124 95.9026 0.752829 100.838 4.42764 103.081C4.72781 103.269 5.03708 103.404 5.36454 103.548C5.219 103.691 5.07345 103.853 4.92791 104.014C2.28096 107.074 1.34407 111.515 2.663 116.424C4.9825 125.029 13.833 124.849 21.1735 124.239C21.7011 125.693 75.3861 124.822 75.7863 123.638C83.4088 124.096 91.2769 123.979 94.1149 115.419C95.6522 110.762 94.6243 106.562 92.0501 103.592C91.3406 103.646 90.6038 103.7 89.8579 103.754L89.8398 103.763ZM62.6698 10.4983C62.7698 10.8393 62.8608 11.1803 62.9063 11.5212C63.1792 13.0377 63.2428 14.5361 63.1155 15.9987C63.0427 16.8512 62.8881 17.7036 62.6698 18.538V10.5073V10.4983ZM75.4953 45.7709C74.2764 45.7709 72.7392 45.7619 70.9472 45.7529V34.8149C73.0211 37.1658 74.5766 42.5047 75.4953 45.7709ZM67.1996 31.5398V45.744C65.7716 45.744 64.2525 45.7439 62.6607 45.735V29.2607C64.298 29.8439 65.8079 30.6066 67.1996 31.5398ZM58.9131 5.42861V45.726C57.4395 45.726 55.9296 45.726 54.3924 45.717V3.40073C55.9569 3.8404 57.5396 4.48646 58.9131 5.43759V5.42861ZM47.07 2.46755H47.3793C48.107 2.46755 49.2622 2.50345 50.6357 2.66496V45.6991C49.1257 45.6991 47.6158 45.6991 46.0967 45.6901V2.49447C46.4424 2.4855 46.7699 2.46755 47.0609 2.46755H47.07ZM42.3582 2.93414V45.6811C40.8301 45.6811 39.3202 45.6811 37.8375 45.6811V4.37878C39.3202 3.66094 40.8847 3.22127 42.3582 2.93414ZM32.1798 20.207C31.6067 18.8162 31.252 17.3985 31.1428 15.9808C31.0336 14.6528 31.1155 13.3158 31.4157 12.0417C31.6067 11.2251 31.8523 10.5163 32.1616 9.83432C32.6709 8.73962 33.3259 7.79746 34.0899 7.01682V23.7423C33.2986 22.6118 32.6618 21.4363 32.1798 20.216V20.207ZM33.8625 29.0184L34.0899 28.9556V45.6722C32.5163 45.6722 30.9973 45.6722 29.551 45.6722V30.7771C30.8881 30.0234 32.3344 29.4312 33.8625 29.0184ZM25.8034 33.4331V45.6811C23.393 45.6811 21.3372 45.6901 19.7818 45.6991C20.9188 41.742 23.0018 35.9635 25.8034 33.4331ZM2.74486 92.2596C3.42707 85.0454 9.93986 81.4203 15.6977 81.1063L18.29 80.9627L18.0536 78.4144C17.908 76.88 17.6442 75.2559 17.2713 73.5959C16.2616 69.0018 14.5243 64.4884 12.323 60.6749H82.7266C80.6891 64.5871 79.1428 69.1364 78.3332 73.6856C78.0785 75.0675 77.9057 76.4314 77.8147 77.7414L77.6328 80.2897L80.2252 80.3705C86.0012 80.5589 92.5959 84.0404 93.4327 91.2456C93.8056 94.4041 93.2872 98.3702 90.6948 100.03C90.5129 100.147 90.3309 100.228 90.149 100.326L89.9489 100.425L88.0205 101.412C75.4952 102.309 58.1217 103.26 40.4572 103.26C27.9046 103.26 16.8256 102.776 7.5021 101.816L6.38329 101.304L6.27414 101.25C6.04674 101.152 5.85572 101.062 5.71928 100.972C3.07233 99.3572 2.45378 95.4001 2.75395 92.2327L2.74486 92.2596ZM89.0575 103.826C88.539 103.862 88.0114 103.897 87.4748 103.942C88.0114 103.906 88.539 103.871 89.0575 103.826ZM4.89154 104.032C6.11041 104.176 7.34748 104.301 8.59364 104.418C7.34748 104.301 6.10131 104.176 4.89154 104.032ZM13.5965 104.849C14.7881 104.938 15.9978 105.019 17.2076 105.091C15.9887 105.019 14.7881 104.938 13.5965 104.849ZM9.49415 104.508C10.7312 104.624 11.9865 104.732 13.2599 104.831C11.9865 104.732 10.7403 104.624 9.49415 104.508ZM18.1081 105.145C19.4089 105.217 20.7096 105.288 22.0285 105.351C20.7096 105.288 19.4089 105.225 18.1081 105.145ZM36.1456 105.719C37.4828 105.728 38.8199 105.737 40.1661 105.737C38.829 105.737 37.4919 105.737 36.1456 105.719ZM22.5925 105.369C23.775 105.423 24.9666 105.468 26.1582 105.504C24.9666 105.468 23.775 105.414 22.5925 105.369ZM27.0496 105.54C28.3776 105.584 29.7056 105.62 31.0337 105.647C29.6965 105.62 28.3685 105.584 27.0496 105.54ZM31.7886 105.656C32.962 105.683 34.1445 105.692 35.3179 105.71C34.1354 105.701 32.962 105.683 31.7886 105.656ZM41.2303 105.737C42.0035 105.737 42.7858 105.737 43.5589 105.737C42.7858 105.737 42.0035 105.737 41.2303 105.737ZM44.7505 105.719C45.5237 105.719 46.3059 105.701 47.0791 105.692C46.3059 105.701 45.5328 105.71 44.7505 105.719ZM48.1706 105.683C49.1621 105.665 50.1536 105.647 51.136 105.629C50.1536 105.647 49.1621 105.665 48.1706 105.683ZM51.518 105.629C52.6277 105.602 53.7192 105.584 54.8199 105.548C53.7283 105.575 52.6277 105.602 51.518 105.629ZM55.8659 105.522C56.6209 105.504 57.3759 105.477 58.1309 105.459C57.385 105.486 56.63 105.504 55.8659 105.522ZM59.2952 105.414C60.0228 105.387 60.7505 105.369 61.4691 105.342C60.7505 105.369 60.0228 105.396 59.2952 105.414ZM62.5697 105.297C63.3793 105.27 64.1797 105.234 64.9802 105.199C64.1797 105.234 63.3793 105.261 62.5697 105.297ZM65.7352 105.172C66.7721 105.127 67.8 105.082 68.8096 105.037C67.7909 105.082 66.7721 105.127 65.7352 105.172ZM69.601 104.992C70.356 104.956 71.1018 104.92 71.8477 104.884C71.1109 104.92 70.356 104.956 69.601 104.992ZM72.8756 104.831C73.5396 104.795 74.1945 104.759 74.8494 104.723C74.1945 104.759 73.5396 104.795 72.8756 104.831ZM78.688 104.508C79.6067 104.454 80.5072 104.4 81.3895 104.346C80.5072 104.4 79.5976 104.454 78.688 104.508ZM75.8773 104.669C76.5686 104.633 77.2599 104.588 77.9421 104.553C77.2599 104.588 76.5777 104.633 75.8773 104.669ZM86.5924 103.996C86.0376 104.032 85.4736 104.077 84.9006 104.113C85.4736 104.077 86.0376 104.032 86.5924 103.996ZM84.0456 104.167C83.3725 104.212 82.6902 104.256 81.9989 104.301C82.6902 104.256 83.3725 104.212 84.0456 104.167Z" fill="black"/>
</svg>
