<svg width="77" height="122" viewBox="0 0 77 122" fill="none" xmlns="http://www.w3.org/2000/svg">
<path d="M68.6186 106.136C68.7005 105.896 68.7824 105.665 68.8644 105.426C67.6437 105.503 66.3902 105.588 65.1039 105.665C66.3902 105.588 67.6437 105.511 68.8644 105.426C69.0856 104.81 69.2904 104.203 69.3805 103.553C69.5198 102.629 69.3887 101.723 69.1265 100.825C68.5039 98.7298 66.5704 97.2675 65.0138 95.9762C63.0803 94.3771 60.7945 93.4535 58.6234 92.299C55.4856 90.64 54.0928 88.3652 55.1169 84.8676C55.3955 84.1493 55.674 83.602 54.9531 83.2428C51.807 81.7035 49.7015 78.2144 48.2268 74.6826C47.555 73.1177 47.0143 71.5527 46.5637 70.1331C45.6461 67.2341 44.5974 63.4115 44.6548 59.8712C44.6875 58.0924 44.9907 56.3821 45.728 54.9026C50.6846 54.4238 54.2403 49.25 53.5029 44.1532C53.4702 43.9223 53.4374 43.7 53.38 43.4776C52.5608 39.4156 49.7752 36.9271 46.0967 36.2601C45.5805 36.1489 45.0398 36.1061 44.4827 36.0805C44.4581 35.9265 44.4581 35.7812 44.4745 35.6358C44.4745 35.4305 44.5237 35.2424 44.581 35.0628C44.8432 34.1392 45.6051 33.3782 46.367 32.6085C46.4817 32.4888 46.5964 32.3691 46.7029 32.2493C47.6451 31.2231 48.4562 30.2055 49.1608 28.957C49.7834 27.8367 50.234 26.6566 50.529 25.4422C51.127 23.0649 51.127 20.5336 50.6682 18.1049C50.3569 16.4373 49.808 14.8809 49.0543 13.4186C48.3988 12.1102 47.5878 10.8702 46.7029 9.69009C45.8509 8.58693 44.9251 7.52653 43.9584 6.50033C43.8682 6.40626 43.7618 6.29509 43.6716 6.20102C41.689 4.12297 39.5507 2.19885 37.6254 0.317488C37.1912 -0.101543 36.3719 -0.118646 35.9704 0.343143C34.0943 2.26726 32.1034 4.16573 30.2683 6.20102C30.1781 6.29509 30.0798 6.40626 30.0061 6.50033C29.3015 7.27853 28.6215 8.07383 27.9907 8.90334C26.8847 10.3229 25.9015 11.8109 25.0904 13.4101C24.4104 14.7612 23.8615 16.1722 23.4683 17.703C22.7965 20.277 22.903 22.9195 23.5748 25.4337C23.8615 26.5197 24.2548 27.5887 24.7381 28.6063C25.4427 30.0858 26.4422 31.3258 27.581 32.4631C27.7203 32.5914 27.8596 32.7282 27.9989 32.8736C28.6871 33.5321 29.3917 34.2248 29.7194 35.0543C29.7849 35.2339 29.8422 35.4305 29.8832 35.6272C29.916 35.8239 29.916 36.0206 29.8914 36.243C29.8422 36.243 29.8013 36.243 29.7521 36.2515C25.5247 36.5508 22.182 39.0137 21.2153 43.4691C21.1661 43.6487 21.1333 43.8454 21.1006 44.0335C20.2239 49.2928 23.8861 54.7145 29.0476 55.0993C29.7931 56.5189 30.1454 58.1437 30.2191 59.8626C30.383 63.4372 29.3917 67.3453 28.5396 70.3384C28.1627 71.6895 27.6875 73.1775 27.114 74.6655C25.6885 78.3256 23.5912 82.0028 20.4288 83.6362C19.716 84.0125 20.0683 84.7992 20.3141 85.261C21.33 88.4679 20.3386 90.6485 17.5121 92.4444C15.2427 93.8982 12.7194 94.8046 10.6466 96.609C9.1965 97.8747 7.55792 99.1831 6.83696 101.082C6.46009 102.056 6.3454 102.971 6.40275 104.015C6.4519 104.69 6.64853 105.298 6.88612 105.913C8.63937 106.05 10.4254 106.161 12.2196 106.264C10.4254 106.161 8.63937 106.05 6.88612 105.913C7.00901 106.238 7.14011 106.563 7.263 106.888C5.4524 106.683 3.6418 107.341 2.19168 108.547C-0.167836 110.505 -0.356276 114.208 0.495771 116.979C1.66734 120.767 7.76276 121.152 10.7941 121.486C19.9536 122.461 56.0591 121.93 65.0547 120.887C68.2253 120.528 74.2061 120.023 75.566 116.261C77.3766 111.249 73.6653 105.255 68.6432 106.136H68.6186ZM46.6948 13.9574C46.8095 14.1626 46.916 14.3507 47.0061 14.5474C47.6861 15.8729 48.1367 17.1813 48.3988 18.5753C48.8167 20.7559 48.7675 22.9195 48.2842 24.8436C48.0302 25.8784 47.6533 26.8532 47.1536 27.7426C47.0061 28.0077 46.8504 28.2557 46.6948 28.5037V13.9574ZM27.9743 29.4358C27.4664 28.7945 27.0731 28.1873 26.7782 27.5459C26.3603 26.6651 26.0162 25.7415 25.7786 24.8009C25.1806 22.5518 25.1478 20.3711 25.6721 18.3273C26.008 17.0274 26.475 15.7874 27.114 14.5389C27.3762 14.0258 27.6548 13.5041 27.9743 12.991V29.4273V29.4358ZM39.0591 8.60403H42.6967C42.8769 8.80927 43.0654 8.99741 43.2374 9.20265V32.6085C42.9589 32.9933 42.7213 33.4038 42.5328 33.857H39.0509V8.60403H39.0591ZM31.4316 8.60403H35.6018V33.857H31.6938C31.6119 33.6775 31.5218 33.5064 31.4316 33.3525V8.60403ZM8.95071 101.971C9.40131 100.782 10.5483 99.7902 11.769 98.7469L12.1049 98.4562C13.1946 97.507 14.5136 96.8143 15.9064 96.0788C16.8239 95.5999 17.7661 95.0954 18.7001 94.5053C22.3704 92.1793 23.6977 89.0066 22.649 85.0729C25.2953 83.2428 27.4582 80.1215 29.236 75.572C29.7685 74.1866 30.2765 72.6559 30.7353 71.0311C31.7102 67.6104 32.6851 63.5911 32.5131 59.7514C32.4066 57.5366 31.915 55.5868 31.0548 53.9449L30.4485 52.7989L29.195 52.7049C27.4827 52.5766 25.9179 51.6701 24.7791 50.1479C23.837 48.8908 23.3126 47.3857 23.2635 45.8807H51.2991C51.2254 47.3344 50.701 48.7711 49.808 49.9683C48.702 51.4478 47.1781 52.3457 45.5314 52.5082L44.2779 52.6279L43.6962 53.7909C42.8605 55.4756 42.41 57.5023 42.369 59.8284C42.3034 63.8135 43.4996 68.0465 44.4008 70.8857C44.9743 72.6901 45.5396 74.2465 46.1376 75.6404C47.9646 80.0103 50.1521 83.0034 52.782 84.7308C52.061 87.7581 52.4297 91.7089 57.5993 94.4455C58.1564 94.7448 58.7217 95.027 59.287 95.3092C60.8682 96.0959 62.3511 96.8399 63.6046 97.8661L63.9487 98.1483C65.1858 99.1574 66.5786 100.312 66.9473 101.526C67.1275 102.15 67.193 102.664 67.1357 103.134C54.355 103.955 42.3362 104.365 31.3825 104.365C23.1078 104.365 15.4803 104.126 8.68853 103.647C8.67215 103.023 8.76227 102.527 8.97528 101.979L8.95071 101.971ZM63.8832 105.734C62.9738 105.785 62.048 105.836 61.1058 105.888C62.048 105.836 62.9656 105.785 63.8832 105.734ZM59.6639 105.973C58.7299 106.024 57.7796 106.067 56.821 106.118C57.7796 106.076 58.7299 106.024 59.6639 105.973ZM55.4201 106.178C54.1911 106.238 52.9458 106.289 51.6842 106.341C52.9458 106.289 54.1911 106.238 55.4201 106.178ZM51.0943 106.366C49.6442 106.426 48.1695 106.469 46.6866 106.52C48.1695 106.478 49.6442 106.426 51.0943 106.366ZM45.3757 106.555C44.3025 106.589 43.2292 106.614 42.1478 106.64C43.2292 106.614 44.3107 106.589 45.3757 106.555ZM40.542 106.674C39.5015 106.691 38.461 106.709 37.4206 106.726C38.461 106.709 39.5097 106.691 40.542 106.674ZM35.8557 106.743C34.6268 106.751 33.3979 106.76 32.169 106.76C33.3979 106.76 34.6268 106.751 35.8557 106.743ZM25.7622 106.726C27.581 106.751 29.3998 106.768 31.2186 106.768C29.3998 106.768 27.581 106.751 25.7622 106.726ZM13.4813 106.341C15.2591 106.435 17.0534 106.512 18.864 106.572C17.0534 106.512 15.2591 106.435 13.4813 106.341ZM19.2244 106.58C20.9531 106.64 22.69 106.674 24.4268 106.709C22.69 106.674 20.9531 106.64 19.2244 106.58Z" fill="black"/>
</svg>
