<svg width="82" height="127" viewBox="0 0 82 127" fill="none" xmlns="http://www.w3.org/2000/svg">
<path d="M75.3986 106.649C76.0743 106.599 76.742 106.558 77.4015 106.508C77.2549 106.351 77.1084 106.21 76.9537 106.061C77.2631 105.912 77.5725 105.747 77.8575 105.548C80.7397 103.637 81.2934 99.5487 80.9351 96.3792C80.6665 93.9793 79.7382 91.9353 78.3948 90.2968C76.3593 87.839 73.3712 86.2997 70.1632 85.7949C71.7102 83.9578 73.1676 82.071 74.4541 80.0683C74.9345 79.3318 75.3904 78.5705 75.8057 77.7926C76.4082 76.7002 76.9537 75.5665 77.4259 74.3831C77.5969 73.9776 77.7516 73.5556 77.8982 73.1335C77.9796 72.9184 78.0447 72.7115 78.1017 72.4963C79.4859 68.0276 79.4858 62.8389 78.5495 58.0971C78.4192 57.4351 78.2727 56.7896 78.1017 56.1524C77.89 55.3083 77.6295 54.4808 77.3608 53.6863C76.7338 51.8574 75.8545 50.1031 74.7472 48.4562C73.5096 46.5446 71.987 44.7737 70.2772 43.1517C69.2269 42.1504 68.1114 41.2235 66.9227 40.3463C65.791 39.5022 64.5941 38.7326 63.3809 38.0127H62.8761V37.7313C61.7769 37.1024 60.6615 36.5479 59.5216 36.0349C55.6053 34.3053 51.518 33.2626 47.6342 33.0805C47.5528 31.0365 47.6098 29.0007 47.5691 26.9567C50.9562 26.9153 54.3351 27.0891 57.7141 26.8905C58.1945 26.8574 58.5853 26.7085 58.9109 26.485C58.9354 26.4767 58.9435 26.4602 58.9679 26.4519C59.0005 26.4188 59.0575 26.394 59.0901 26.3609C59.3913 26.154 59.6356 25.8726 59.7984 25.5168C59.9287 25.2354 60.0101 24.8879 60.0101 24.5155C60.0346 21.1143 60.1893 17.7214 60.1648 14.3202C60.1648 14.2622 60.1648 14.2043 60.1567 14.1464C60.1241 13.443 59.8066 12.9299 59.375 12.574C59.0087 12.2182 58.4957 11.9948 57.8281 11.9948C54.6608 12.0279 51.4854 12.061 48.3263 12.1106C48.3833 8.87494 48.5624 5.63098 48.538 2.39529C48.5299 1.27811 47.9029 0.59124 47.1213 0.301601C47.0969 0.293325 47.0887 0.276775 47.0806 0.276775C47.0724 0.276775 47.0562 0.27678 47.0562 0.268504C46.7875 0.169199 46.5106 0.0947207 46.1931 0.061619C44.5403 -0.0956139 42.863 0.0947268 41.1939 0.119553C40.396 0.144379 38.507 0.152645 37.7173 0.16092C36.0481 0.16092 34.3709 0.0119685 32.7099 0.218854C32.4168 0.251956 32.1318 0.334713 31.8713 0.442294C31.8631 0.442294 31.8469 0.442289 31.8387 0.450565C31.8306 0.450565 31.8143 0.458835 31.8061 0.458835C31.0245 0.765026 30.4057 1.46844 30.4302 2.58562C30.4872 5.82131 30.7314 9.04872 30.8535 12.2927C27.6781 12.3341 24.5109 12.3754 21.3355 12.4085C20.676 12.4085 20.1712 12.6568 19.813 13.0209C19.4873 13.294 19.243 13.6581 19.1209 14.1381C19.0802 14.345 19.0557 14.5601 19.0557 14.7836C19.1127 18.1848 19.3489 21.5694 19.4384 24.9706C19.4466 25.161 19.471 25.343 19.5198 25.5085C19.6501 26.0878 19.9758 26.5099 20.3992 26.7912C20.4399 26.8243 20.4887 26.8491 20.5213 26.874C20.5457 26.8988 20.562 26.9071 20.5783 26.9153C20.904 27.1222 21.3029 27.2712 21.7752 27.2877C25.1623 27.4119 28.5412 27.1636 31.9283 27.1305C31.9283 29.1663 32.026 31.2103 31.9934 33.246C29.7218 33.4033 27.442 33.8253 25.1948 34.5205C24.3806 34.7687 23.5746 35.0418 22.7685 35.3645C21.3925 35.9025 20.0409 36.5231 18.7219 37.2265C18.266 37.4748 17.8019 37.7396 17.3459 38.0127C16.6783 38.4099 16.0188 38.8319 15.3674 39.2705C13.9507 40.2222 12.5828 41.2897 11.3045 42.44C10.1076 43.5158 8.97591 44.6661 7.95001 45.8826C5.71095 48.5059 3.91156 51.4437 2.73097 54.5304C2.2913 55.6642 1.94934 56.8641 1.68879 58.0888C0.614044 63.2941 1.11886 69.1283 2.61699 73.9776C2.6577 74.1101 2.70656 74.2507 2.74727 74.3748C3.13809 75.5582 3.6266 76.692 4.1884 77.7843C4.60364 78.554 5.05146 79.307 5.51555 80.0601C6.98926 82.3441 8.77236 84.4543 10.5962 86.4818C7.80345 86.9783 5.18171 88.2858 3.2602 90.2885C1.52594 92.0925 0.353506 94.4593 0.0929613 97.2978C-0.183868 100.393 0.418641 104.357 3.17065 106.243C4.3431 106.392 5.53182 106.533 6.74498 106.666C5.53996 106.533 4.3431 106.401 3.17065 106.243C3.23578 106.301 3.30092 106.343 3.3742 106.392C3.67545 106.575 3.96855 106.723 4.27795 106.872C1.80277 109.372 0.874592 113.244 2.02262 117.564C3.88714 124.698 11.0358 124.499 16.9307 123.978C18.4614 128.273 63.2262 127.9 64.7081 123.432C70.839 123.829 77.1979 123.787 79.4777 116.695C80.7886 112.607 79.779 108.958 77.4096 106.5C76.7583 106.55 76.0906 106.591 75.4067 106.641L75.3986 106.649ZM70.2772 46.3874C72.2313 48.5142 73.7539 50.8065 74.7472 53.165V74.9376C74.6576 75.1279 74.5681 75.3348 74.4704 75.5251H70.2772V46.3874ZM62.8761 40.3629C64.3173 41.2235 65.6688 42.1918 66.9227 43.2014V75.5251H62.8761V40.3629ZM55.7437 40.2967H59.5216V75.5251H55.7437V40.2967ZM48.3426 40.2967H52.3892V75.5251H48.3426V40.2967ZM40.9252 40.2967H44.9881V75.5251H40.9252V40.2967ZM33.5241 40.2967H37.5707V75.5251H33.5241V40.2967ZM26.1067 40.2967H30.1696V75.5251H26.1067V40.2967ZM18.7056 40.2967H22.7522V75.5251H18.7056V40.2967ZM11.2882 45.5681C12.5177 44.3103 13.8855 43.1352 15.3511 42.0594V75.5334H11.2882V45.5764V45.5681ZM3.86272 58.5771C4.09884 57.4516 4.40823 56.3758 4.7909 55.3745C5.56439 53.3884 6.62287 51.4189 7.93374 49.5652V75.5251H5.57255C5.29572 74.8879 5.04332 74.2507 4.83163 73.6135C4.79906 73.4977 4.75019 73.3901 4.7339 73.3073C3.23577 68.4745 2.92639 63.1037 3.86272 58.5771ZM2.30759 97.5212C2.47858 95.6427 3.12994 93.9876 4.2454 92.5725H77.2631C78.0447 93.7807 78.5332 95.1379 78.6961 96.6357C78.9811 99.168 78.5902 102.346 76.6199 103.645C76.4163 103.777 76.2128 103.893 75.9929 104.001L75.2031 104.382C65.2617 105.052 51.119 105.788 36.7972 105.788C24.0386 105.788 13.0225 105.217 4.01742 104.084C2.44601 102.66 2.0796 99.8218 2.29129 97.5295L2.30759 97.5212ZM11.4266 107.121C12.6072 107.22 13.8041 107.311 15.0092 107.394C13.8041 107.311 12.6072 107.22 11.4266 107.121ZM7.24981 106.732C8.40598 106.856 9.57028 106.963 10.759 107.063C9.57843 106.963 8.40598 106.848 7.24981 106.732ZM15.6035 107.427C16.8655 107.51 18.1438 107.584 19.4303 107.65C18.1438 107.584 16.8737 107.51 15.6035 107.427ZM32.8239 108.031C34.1429 108.048 35.4701 108.056 36.7891 108.056C35.4701 108.056 34.1429 108.056 32.8239 108.031ZM19.4954 107.65C20.7818 107.717 22.0764 107.766 23.3792 107.816C22.0764 107.766 20.7818 107.717 19.4954 107.65ZM23.9328 107.841C25.1867 107.882 26.4487 107.923 27.7188 107.948C26.4487 107.915 25.1867 107.882 23.9328 107.841ZM28.4272 107.965C29.6892 107.99 30.9594 108.014 32.2214 108.031C30.9512 108.014 29.6892 107.998 28.4272 107.965ZM37.2206 108.056C37.9615 108.056 38.7024 108.056 39.4434 108.056C38.7024 108.056 37.9615 108.056 37.2206 108.056ZM64.3254 107.303C64.8139 107.278 65.3024 107.253 65.7828 107.228C65.3024 107.253 64.8139 107.278 64.3254 107.303ZM40.339 108.039C40.9252 108.039 41.5114 108.031 42.0895 108.023C41.5033 108.023 40.9252 108.031 40.339 108.039ZM43.1317 108.006C43.6691 108.006 44.1983 107.99 44.7357 107.981C44.2064 107.99 43.6691 107.998 43.1317 108.006ZM45.8104 107.965C46.3315 107.957 46.8526 107.948 47.3656 107.932C46.8445 107.94 46.3315 107.957 45.8104 107.965ZM48.4403 107.907C48.9614 107.89 49.4744 107.882 49.9954 107.865C49.4825 107.882 48.9614 107.89 48.4403 107.907ZM51.0376 107.841C51.5669 107.824 52.0961 107.808 52.6253 107.791C52.0961 107.808 51.5669 107.824 51.0376 107.841ZM53.5861 107.758C54.1804 107.741 54.7667 107.717 55.3529 107.692C54.7667 107.717 54.1804 107.733 53.5861 107.758ZM56.1101 107.667C56.9406 107.634 57.7711 107.601 58.5934 107.568C57.7711 107.601 56.9487 107.634 56.1101 107.667ZM58.8132 107.559C59.5623 107.526 60.3032 107.493 61.036 107.46C60.3032 107.493 59.5623 107.526 58.8132 107.559ZM61.8095 107.427C62.355 107.402 62.9005 107.377 63.4379 107.344C62.9005 107.369 62.355 107.394 61.8095 107.427ZM74.8123 106.682C74.3319 106.715 73.8434 106.748 73.3468 106.781C73.8434 106.748 74.3238 106.715 74.8123 106.682ZM72.5407 106.831C72.1011 106.856 71.6614 106.889 71.2136 106.914C71.6614 106.889 72.1011 106.856 72.5407 106.831ZM70.3424 106.963C69.8945 106.988 69.4549 107.013 68.9989 107.046C69.4467 107.021 69.8945 106.997 70.3424 106.963ZM68.087 107.096C67.6311 107.121 67.1751 107.146 66.711 107.17C67.1751 107.146 67.6311 107.121 68.087 107.096Z" fill="black"/>
</svg>
