<svg width="99" height="127" viewBox="0 0 99 127" fill="none" xmlns="http://www.w3.org/2000/svg">
<path d="M15.9807 111.008C15.9453 111.128 15.9099 111.258 15.8745 111.388C15.5117 112.277 14.9895 112.416 14.3169 112.277C10.1576 111.388 7.63548 115.43 6.91866 118.635C6.39653 120.976 6.60007 123.559 8.93637 124.699C13.4231 126.884 19.2462 126.867 24.1312 126.962C32.2994 127.126 72.512 126.729 80.6714 126.349C85.4856 126.124 91.7953 126.167 96.0609 123.61C98.2113 122.315 98.4414 119.326 97.521 117.149C96.344 114.342 95.3971 111.396 90.2201 111.457C89.3971 111.457 88.6626 111.318 88.5918 110.316C88.5652 110.178 88.5829 110.005 88.5918 109.833C89.7953 98.897 83.7068 92.3234 75.9723 86.3286C74.9368 85.5339 73.8837 84.7392 72.8041 83.9531C71.335 82.8734 69.8394 81.8023 68.3439 80.7139C67.1138 79.8155 65.8925 78.9344 64.6978 78.0188C62.3615 76.2653 60.1314 74.434 58.1137 72.3868C58.0075 72.2918 57.9102 72.1968 57.8128 72.0931C56.6093 70.8492 55.4942 69.5276 54.4677 68.0851C54.1756 67.6791 53.8924 67.2644 53.627 66.8412C52.3615 64.8631 51.1756 62.7813 50.0517 60.6736C49.5207 59.6889 49.0074 58.6955 48.5207 57.6935C47.6004 55.8449 46.7331 53.9446 46.4057 51.9319C46.2818 51.1718 46.2375 50.3857 46.2818 49.591C46.3083 49.4528 46.3437 49.306 46.4057 49.185C46.6269 48.6408 47.0605 48.3299 47.5384 48.3299C47.6623 48.3299 47.7685 48.3385 47.8747 48.373C48.5915 48.589 49.3172 48.7445 50.0517 48.8481C50.8216 48.9432 51.5915 48.9863 52.3703 48.9863C53.0606 48.9863 53.7686 48.9518 54.4588 48.8827C55.6889 48.779 56.9013 48.589 58.1049 48.3471C59.3969 48.0966 60.6535 47.8029 61.8571 47.5179C61.9633 47.492 62.0606 47.4833 62.1757 47.4833C62.2907 47.4833 62.3969 47.492 62.512 47.5265C62.6801 47.5697 62.8748 47.6647 63.096 47.8202C64.0164 48.5804 65.0518 49.6428 66.158 50.7831C67.5209 52.1738 68.9987 53.6682 70.5563 54.817C71.7244 55.6981 72.9545 56.3805 74.2023 56.6828C74.6802 56.8124 75.1492 56.8729 75.636 56.8729C76.5917 56.8729 77.5563 56.6224 78.5386 56.0523C78.574 56.0263 78.6094 56.0177 78.6448 55.9918C84.3351 52.597 85.3086 45.2288 81.8307 40.046C81.1758 39.0526 80.3439 38.137 79.3616 37.3509C79.2554 37.2645 79.1581 37.1868 79.0431 37.1004C78.3262 36.5044 77.6094 35.8997 76.8926 35.295C75.9899 34.5263 75.0961 33.7488 74.1935 32.9714C72.9634 31.9176 71.7598 30.8465 70.5474 29.7667C69.9545 29.2311 69.3527 28.7129 68.7598 28.1773C68.1138 27.5985 67.4589 27.0112 66.804 26.4324C66.5828 26.2424 66.3704 26.0437 66.1492 25.8537C65.2465 25.0503 64.3615 24.2383 63.4589 23.435C63.1403 23.15 62.8306 22.8563 62.5031 22.5712C61.0606 21.2669 59.6004 19.9884 58.0872 18.7532C57.2995 18.114 56.5031 17.4834 55.6889 16.8787C55.273 16.5678 54.8659 16.2741 54.4411 15.9804C53.0517 15.0216 51.5827 14.1059 50.0252 13.4322C48.857 12.8966 47.6269 12.4992 46.3791 12.2833C45.7331 12.1624 45.0782 12.1019 44.4145 12.1019C43.6357 12.1019 42.8481 12.1883 42.0428 12.361C42.0163 12.361 42.0074 12.3697 41.9809 12.3697C41.9101 12.3956 41.795 12.4042 41.6888 12.4042C41.4322 12.4042 41.1047 12.3351 40.8038 12.0501C39.9985 11.3504 39.1755 10.5039 38.3348 9.6055C36.9277 8.0593 35.4587 6.34032 33.9189 4.78548C32.7419 3.60206 31.5383 2.50503 30.2728 1.66714C28.8746 0.75151 27.4144 0.138209 25.8745 0.0259141C25.7153 0 25.5471 0 25.3878 0C24.8303 0 24.2551 0.0604663 23.671 0.215951L25.8745 7.29915L26.6976 9.95966C26.7861 10.3657 26.6976 11.1431 25.8745 11.4281H25.8657C24.6179 11.9119 23.4144 12.4992 22.2285 13.173C20.6975 14.0368 19.2285 15.0475 17.8302 16.1618C16.5559 17.1811 15.3347 18.2954 14.1842 19.4874C12.9453 20.7486 11.7859 22.0702 10.7063 23.435C10.3877 23.841 10.078 24.2383 9.76824 24.6443C8.90098 25.8105 8.08681 26.9852 7.33459 28.1773C6.90981 28.8424 6.51158 29.4903 6.1222 30.1554C6.06025 30.2591 5.98945 30.38 5.92751 30.4837C5.00715 32.0817 4.16643 33.6711 3.42306 35.2864C2.71509 36.8499 2.08677 38.4307 1.5735 40.0287C0.520391 43.3716 -0.0548435 46.87 0.0425023 50.6448C0.201795 57.2011 0.989418 64.5348 3.42306 70.7024C3.60891 71.1516 3.78589 71.6007 3.99828 72.0586C4.64431 73.527 5.36998 74.9609 6.1222 76.4035C6.40539 76.939 6.67972 77.4573 6.96291 77.9929C7.96292 79.9019 8.95407 81.8023 9.76824 83.7804C9.79479 83.8236 9.80364 83.8754 9.83019 83.9186C9.98948 84.29 10.1311 84.6701 10.2638 85.0329C10.4231 85.4475 10.5647 85.8621 10.6975 86.2941C12.0249 90.1812 12.9364 94.2151 13.8568 98.1714C14.5647 101.134 15.0692 104.123 15.547 107.138C15.8656 109.194 16.432 109.202 15.963 110.982M74.1758 36.1243C74.5386 36.4439 74.9014 36.7635 75.282 37.0745C76.0076 37.6878 76.7245 38.2924 77.459 38.8971L77.4944 38.923L77.5298 38.9576L77.636 39.044C77.7067 39.1044 77.7687 39.1476 77.8041 39.1735C78.574 39.7782 79.2289 40.5038 79.7687 41.333C81.2289 43.5012 81.7333 46.1963 81.1581 48.7013C80.8041 50.2648 79.8572 52.4416 77.4059 53.9187C77.3439 53.9446 77.2997 53.9791 77.2377 54.005C76.6891 54.3247 76.1581 54.4801 75.6094 54.4801C75.1492 54.4801 74.6714 54.3765 74.1758 54.1951V36.1243ZM66.1314 29.0411C66.4589 29.3262 66.7863 29.6199 67.1049 29.9222C68.2465 30.9415 69.3881 31.9521 70.5297 32.9628V51.7073C69.5297 50.8262 68.5651 49.8329 67.6713 48.9172C67.1403 48.373 66.627 47.8375 66.1314 47.3538V29.0497V29.0411ZM58.0695 21.8629C59.3173 22.934 60.5474 24.031 61.804 25.1713C62.0341 25.3699 62.2642 25.5772 62.4854 25.7846V45.0819C62.3792 45.0733 62.2553 45.0733 62.1491 45.0733C61.8571 45.0733 61.565 45.1079 61.2642 45.177C60.2465 45.4102 59.1757 45.6607 58.0783 45.8853V21.8888L58.0695 21.8629ZM50.0075 16.0495C51.5385 16.8355 52.9632 17.8289 54.2022 18.7446C54.273 18.805 54.3438 18.8482 54.4234 18.9087V46.464C53.7155 46.5504 53.0252 46.585 52.3349 46.585C51.4942 46.585 50.7331 46.5245 50.0163 46.3949V16.084L50.0075 16.0495ZM6.1045 70.8665C5.9452 70.521 5.81246 70.1755 5.67972 69.8472C3.7328 64.9149 2.6443 58.4364 2.45846 50.5844C2.36996 47.2501 2.83899 44.0281 3.88325 40.7284C4.31688 39.3377 4.90095 37.8692 5.61776 36.2539C5.77706 35.9256 5.93635 35.5887 6.1045 35.2432V70.8665ZM50.0075 65.5887C50.503 66.4438 51.0075 67.2644 51.5119 68.0591C52.388 69.424 53.3349 70.7024 54.4146 71.9635V75.6174H49.9986V65.5973L50.0075 65.5887ZM41.9631 14.7451C42.1844 14.7365 42.3879 14.702 42.5915 14.6415C43.1844 14.5119 43.7862 14.4514 44.388 14.4514C45.0428 14.4514 45.6977 14.5378 46.3526 14.676V46.1272C45.0605 46.5504 44.0959 47.6906 43.8393 49.185L43.8127 49.306V49.4355C43.5826 52.9858 44.9632 56.0868 46.2818 58.7128C46.3083 58.756 46.326 58.8078 46.3526 58.851V75.6347H41.9543V14.7711L41.9631 14.7451ZM33.9012 8.28388C34.2551 8.6726 34.6091 9.06995 34.9454 9.45002C36.0959 10.7285 37.1932 11.9551 38.3083 13.0348V75.6433H33.8923V8.3098L33.9012 8.28388ZM25.8569 13.9764C26.14 13.8554 26.4144 13.7431 26.6976 13.6308C28.6799 12.9398 29.3967 11.0221 29.0693 9.4673L29.0427 9.36364L29.0073 9.25998L26.9542 2.64324C28.0604 3.02332 29.1666 3.74891 30.264 4.65591V75.6433H25.8657V14.0023L25.8569 13.9764ZM17.8125 19.3147C19.2462 18.0103 20.7152 16.896 22.2108 15.9458V75.6433H17.7948V19.3406L17.8125 19.3147ZM9.76824 75.6174V28.8683C10.6709 27.469 11.6267 26.1474 12.6267 24.8948C13.1399 24.2556 13.6444 23.6337 14.1842 23.0463V75.6433H9.76824V75.6174ZM18.255 108.045C18.1488 107.699 18.0426 107.345 17.9541 106.775C17.494 103.872 16.9718 100.754 16.2285 97.6358L16.0426 96.8584C15.4143 94.1633 14.7683 91.4078 13.9807 88.6695H75.0873C82.2732 94.3447 86.6537 99.7348 86.2555 108.062C70.8926 109.073 56.5385 109.582 43.5561 109.582C34.3436 109.582 25.91 109.314 18.4586 108.788C18.4055 108.537 18.3347 108.295 18.255 108.045ZM85.3617 110.489C85.0962 110.506 84.8396 110.524 84.5741 110.541C84.8396 110.524 85.105 110.506 85.3617 110.489Z" fill="black"/>
</svg>
