<svg width="38" height="38" viewBox="0 0 38 38" fill="none" xmlns="http://www.w3.org/2000/svg">
<path d="M19.0001 27.9052C24.0177 27.9052 28.0852 23.8377 28.0852 18.8201C28.0852 13.8026 24.0177 9.73505 19.0001 9.73505C13.9826 9.73505 9.91504 13.8026 9.91504 18.8201C9.91504 23.8377 13.9826 27.9052 19.0001 27.9052Z" fill="#F2F2F2"/>
<path d="M19 38C18.4359 38 17.978 37.5421 17.978 36.978V31.6803C17.978 31.1162 18.4359 30.6583 19 30.6583C19.5641 30.6583 20.0219 31.1162 20.0219 31.6803V36.978C20.0219 37.5421 19.5641 38 19 38Z" fill="#F2F2F2"/>
<path d="M6.2871 32.735C6.02549 32.735 5.76387 32.6348 5.56357 32.4366C5.16501 32.038 5.16501 31.3901 5.56357 30.9915L9.31002 27.2451C9.70858 26.8465 10.3565 26.8465 10.755 27.2451C11.1536 27.6436 11.1536 28.2916 10.755 28.6901L7.0086 32.4366C6.8083 32.6369 6.54668 32.735 6.28506 32.735H6.2871Z" fill="#F2F2F2"/>
<path d="M6.31971 20.0219H1.02194C0.457831 20.0219 0 19.5641 0 19C0 18.4359 0.457831 17.978 1.02194 17.978H6.31971C6.88382 17.978 7.34165 18.4359 7.34165 19C7.34165 19.5641 6.88382 20.0219 6.31971 20.0219Z" fill="#F2F2F2"/>
<path d="M10.0336 11.0574C9.77194 11.0574 9.51032 10.9573 9.31002 10.759L5.56357 7.01256C5.16501 6.61401 5.16501 5.96609 5.56357 5.56753C5.96213 5.16898 6.61004 5.16898 7.0086 5.56753L10.755 9.31398C11.1536 9.71254 11.1536 10.3605 10.755 10.759C10.5547 10.9593 10.2931 11.0574 10.0315 11.0574H10.0336Z" fill="#F2F2F2"/>
<path d="M19 7.34165C18.4359 7.34165 17.978 6.88382 17.978 6.31971V1.02194C17.978 0.457831 18.4359 0 19 0C19.5641 0 20.0219 0.457831 20.0219 1.02194V6.31971C20.0219 6.88382 19.5641 7.34165 19 7.34165Z" fill="#F2F2F2"/>
<path d="M27.9665 11.0554C27.7049 11.0554 27.4433 10.9553 27.243 10.757C26.8445 10.3584 26.8445 9.71053 27.243 9.31197L30.9895 5.56552C31.388 5.16696 32.0359 5.16696 32.4345 5.56552C32.8331 5.96408 32.8331 6.61199 32.4345 7.01055L28.688 10.757C28.4877 10.9573 28.2261 11.0554 27.9645 11.0554H27.9665Z" fill="#F2F2F2"/>
<path d="M36.9782 20.0219H31.6804C31.1163 20.0219 30.6584 19.5641 30.6584 19C30.6584 18.4359 31.1163 17.978 31.6804 17.978H36.9782C37.5423 17.978 38.0001 18.4359 38.0001 19C38.0001 19.5641 37.5423 20.0219 36.9782 20.0219Z" fill="#F2F2F2"/>
<path d="M31.713 32.735C31.4514 32.735 31.1898 32.6348 30.9895 32.4366L27.243 28.6901C26.8445 28.2916 26.8445 27.6436 27.243 27.2451C27.6416 26.8465 28.2895 26.8465 28.688 27.2451L32.4345 30.9915C32.8331 31.3901 32.8331 32.038 32.4345 32.4366C32.2342 32.6369 31.9726 32.735 31.711 32.735H31.713Z" fill="#F2F2F2"/>
</svg>
