<?xml version="1.0" encoding="UTF-8"?>
<svg id="Layer_2" data-name="Layer 2" xmlns="http://www.w3.org/2000/svg" xmlns:xlink="http://www.w3.org/1999/xlink" viewBox="0 0 125.36 203.46">
  <defs>
    <style>
      .cls-1 {
        fill: url(#radial-gradient-7);
      }

      .cls-2 {
        fill: url(#radial-gradient-10);
      }

      .cls-3 {
        fill: #fff;
      }

      .cls-4 {
        fill: url(#radial-gradient-8);
      }

      .cls-5 {
        fill: url(#radial-gradient-5);
      }

      .cls-6 {
        fill: #b2b2b2;
      }

      .cls-7 {
        fill: url(#radial-gradient-4);
      }

      .cls-8 {
        fill: #06033e;
        opacity: .4;
      }

      .cls-9 {
        fill: #0a0a0a;
      }

      .cls-10 {
        fill: url(#radial-gradient-6);
      }

      .cls-11 {
        fill: url(#radial-gradient);
      }

      .cls-12 {
        fill: url(#radial-gradient-2);
      }

      .cls-13 {
        fill: url(#radial-gradient-3);
      }

      .cls-14 {
        fill: url(#radial-gradient-9);
      }
    </style>
    <radialGradient id="radial-gradient" cx="63.13" cy="147.56" fx="63.13" fy="147.56" r="165.35" gradientTransform="translate(-139.62 -226.6) scale(2.11)" gradientUnits="userSpaceOnUse">
      <stop offset="0" stop-color="#97ffd0"/>
      <stop offset="1" stop-color="#221e1f"/>
    </radialGradient>
    <radialGradient id="radial-gradient-2" cx="61.67" cy="125.16" fx="61.67" fy="125.16" r="94.06" gradientTransform="translate(-139.62 -226.6) scale(2.11)" gradientUnits="userSpaceOnUse">
      <stop offset="0" stop-color="#97ffd0"/>
      <stop offset=".96" stop-color="#221e1f"/>
    </radialGradient>
    <radialGradient id="radial-gradient-3" cx="63.21" cy="97.9" fx="63.21" fy="97.9" r="73.1" xlink:href="#radial-gradient"/>
    <radialGradient id="radial-gradient-4" cx="70.75" cy="114.87" fx="70.75" fy="114.87" r="95.14" xlink:href="#radial-gradient"/>
    <radialGradient id="radial-gradient-5" cx="95.71" cy="137.55" fx="95.71" fy="137.55" r="2.34" gradientTransform="translate(-139.62 -226.6) scale(2.11)" gradientUnits="userSpaceOnUse">
      <stop offset="0" stop-color="#161616"/>
      <stop offset=".65" stop-color="#231f20"/>
    </radialGradient>
    <radialGradient id="radial-gradient-6" cx="95.71" cy="137.31" fx="95.71" fy="137.31" r="2.31" xlink:href="#radial-gradient-5"/>
    <radialGradient id="radial-gradient-7" cx="92.17" cy="183.28" fx="92.17" fy="183.28" r="4.3" xlink:href="#radial-gradient-5"/>
    <radialGradient id="radial-gradient-8" cx="98.81" cy="177.81" fx="98.81" fy="177.81" r="2.2" xlink:href="#radial-gradient-5"/>
    <radialGradient id="radial-gradient-9" cx="93.4" cy="174.93" fx="93.4" fy="174.93" r="2.2" xlink:href="#radial-gradient-5"/>
    <radialGradient id="radial-gradient-10" cx="87.72" cy="175.51" fx="87.72" fy="175.51" r="2.2" xlink:href="#radial-gradient-5"/>
  </defs>
  <g id="Layer_1-2" data-name="Layer 1">
    <g id="café">
      <path class="cls-11" d="M121.8,47.65H3.56L14.55,175.68h0c0,7.11,4.7,14.22,14.1,19.65,18.79,10.85,49.27,10.85,68.06,0,9.4-5.43,14.1-12.54,14.09-19.65l11-128.02Z"/>
      <path class="cls-12" d="M121.8,47.65H3.56l1.81,21.06c2.71,3.47,6.36,6.81,10.96,9.86,22.59,14.99,59.88,17.88,85.32,7.08l-3.93,93.64c-.17,4.08-1.58,8.05-4.22,11.16-3.83,4.51-11.21,9.81-25.4,12.81,10.46-.68,20.6-3.31,28.62-7.94,9.4-5.43,14.1-12.54,14.09-19.65l8.82-102.67h0l2.18-25.35Z"/>
      <ellipse class="cls-8" cx="62.68" cy="47.65" rx="59.12" ry="34.13"/>
      <ellipse class="cls-8" cx="62.68" cy="35.62" rx="50.92" ry="29.4"/>
      <path class="cls-13" d="M125.3,46.05h0s0-.1,0-.1c0-.06-.01-.12-.02-.18l-1.13-11.46-.05,.13c-.51-8.68-6.48-17.27-17.95-23.89-24-13.86-62.92-13.86-86.93,0C7.45,17.34,1.47,26.2,1.23,35.1v-.03S.14,45.27,.14,45.27c-.03,.27-.06,.53-.08,.8l-.02,.17h.01c-.65,9.72,5.45,19.56,18.3,26.99,24.48,14.13,64.17,14.13,88.66,0,12.94-7.47,19.03-17.4,18.29-27.18Z"/>
      <ellipse class="cls-6" cx="62.68" cy="35.62" rx="50.92" ry="29.4"/>
      <ellipse class="cls-7" cx="60.26" cy="35.62" rx="50.92" ry="29.4"/>
      <path class="cls-3" d="M26.67,19.94c19.89-11.48,52.13-11.48,72.02,0,8.82,5.09,13.72,11.59,14.72,18.24,1.25-8.35-3.65-16.95-14.72-23.34-19.89-11.48-52.13-11.48-72.02,0-11.07,6.39-15.97,14.99-14.71,23.34,1-6.65,5.9-13.15,14.71-18.24Z"/>
      <path class="cls-9" d="M106.52,10.82C82.55-3.3,43.49-3.65,19.28,10.05c-24.21,13.7-24.41,36.25-.44,50.37,23.97,14.12,63.03,14.47,87.25,.77,24.21-13.7,24.41-36.25,.44-50.37Zm-7.84,45.59c-6.64,3.84-14.68,6.36-23.16,7.63l-.92-3.04c-.37-1.23-1.5-2.06-2.79-2.06h-18.29c-1.28,0-2.41,.84-2.79,2.06l-.92,3.04c-8.48-1.27-16.51-3.8-23.15-7.63-19.89-11.48-19.89-30.1,0-41.58,19.89-11.48,52.13-11.48,72.02,0,19.89,11.48,19.89,30.1,0,41.58Z"/>
      <path class="cls-3" d="M98.69,12.66c-19.89-11.48-52.13-11.48-72.02,0-10.42,6.02-15.37,13.99-14.87,21.88,.46-7.16,5.41-14.24,14.87-19.7,19.89-11.48,52.13-11.48,72.02,0,9.46,5.46,14.41,12.54,14.87,19.7,.5-7.88-4.45-15.86-14.87-21.88Z"/>
      <path class="cls-3" d="M106.08,59.02c-24.21,13.7-63.28,13.35-87.25-.77C7.43,51.53,1.51,42.9,1.03,34.22c-.47,9.4,5.44,18.92,17.81,26.2,23.97,14.12,63.03,14.47,87.25,.77,12.69-7.18,18.77-16.79,18.25-26.35-.44,8.82-6.52,17.54-18.25,24.17Z"/>
      <rect class="cls-5" x="55.83" y="62.67" width="13.69" height="2.96" rx=".65" ry=".65"/>
      <path class="cls-10" d="M68.14,62.67h-10.93c-.76,0-1.38,.62-1.38,1.38v.19c0,.13,.04,.25,.07,.37,.16-.58,.67-1.01,1.31-1.01h10.93c.63,0,1.14,.43,1.31,1.01,.03-.12,.07-.24,.07-.37v-.19c0-.76-.62-1.38-1.38-1.38Z"/>
      <path class="cls-1" d="M64.35,162.53c-1.34,5.04-6.51,8.04-11.56,6.7-5.04-1.34-8.04-6.51-6.7-11.56,1.34-5.04,6.1-6.47,11.14-5.13,5.04,1.34,8.46,4.94,7.12,9.98Z"/>
      <path class="cls-4" d="M71.79,152.58c-1.9,1.86-4.33,1.62-5.95-.03-1.61-1.65-1.8-4.09,.1-5.95,1.9-1.86,5.52-2.77,7.13-1.12,1.61,1.65,.62,5.25-1.28,7.1Z"/>
      <path class="cls-14" d="M61.91,144.67c-.47,2.62-2.58,3.84-4.86,3.43-2.27-.4-3.84-2.28-3.38-4.9s2.87-5.47,5.15-5.06c2.27,.4,3.55,3.91,3.09,6.53Z"/>
      <path class="cls-2" d="M49.73,143.46c1.01,2.46-.12,4.63-2.26,5.5-2.14,.88-4.47,.14-5.48-2.32-1.01-2.46-.51-6.15,1.63-7.03,2.14-.88,5.1,1.39,6.11,3.85Z"/>
    </g>
  </g>
</svg>