<svg width="26" height="26" viewBox="0 0 26 26" fill="none" xmlns="http://www.w3.org/2000/svg">
<path d="M0.00133847 11.6059C0.571528 10.0212 1.80025 9.33532 3.38232 9.27906C5.17186 9.21477 6.96408 9.26433 8.75495 9.26433C8.80314 9.32193 8.84999 9.37953 8.89817 9.43713C8.2035 10.0774 7.4901 10.7003 6.81684 11.3621C5.51451 12.6413 4.22154 13.93 2.95267 15.2427C2.66758 15.5374 2.42264 15.5508 2.07463 15.4383C1.01724 15.0967 0.418942 14.3131 0 13.3459V11.6059H0.00133847Z" fill="#FAFAFA"/>
<path d="M6.09942 22.3127C3.74773 22.3127 2.11613 19.7689 2.97811 17.9257C3.28328 17.2733 3.72096 16.7107 4.22824 16.203C8.24767 12.1844 12.2698 8.16841 16.2919 4.15378C16.7523 3.69431 17.2676 3.30986 17.8539 3.0232C19.1817 2.37352 20.3943 2.58785 21.4356 3.66484C22.4636 4.72845 22.6349 5.9769 21.9255 7.27627C21.5815 7.90719 21.1278 8.45909 20.6232 8.9641C16.6867 12.9091 12.7463 16.8473 8.8018 20.7843C7.96526 21.6188 7.02832 22.2739 6.09809 22.3127H6.09942Z" fill="#FAFAFA"/>
<path d="M16.1754 15.5372C17.7722 13.9606 19.3704 12.3853 20.9671 10.8086C21.3152 10.4644 21.6926 10.1429 21.9938 9.76109C22.3056 9.36727 22.6322 9.39004 23.0458 9.53471C24.2919 9.9714 24.9504 10.9278 25 12.4161C25.0455 13.7972 24.3936 14.8554 23.2051 15.3323C22.5773 15.5841 21.9188 15.6886 21.2482 15.6926C19.5885 15.7033 17.9302 15.6953 16.2704 15.6953C16.2383 15.6417 16.2075 15.5881 16.1754 15.5359V15.5372Z" fill="#FAFAFA"/>
<path d="M6.95871 7.70223C5.91337 7.70223 4.86802 7.68348 3.82267 7.71161C3.42381 7.72233 3.22437 7.56292 3.05573 7.22536C2.35704 5.83089 2.66088 4.58912 4.02344 3.37415C5.04336 2.46594 6.37514 2.3936 7.58913 3.20537C8.97178 4.131 9.99972 5.43974 11.1923 6.57166C11.361 6.7324 11.3422 6.84626 11.1883 7.01103C10.8175 7.40887 10.4575 7.72099 9.8284 7.67544C8.87675 7.60713 7.91572 7.65803 6.95871 7.65803C6.95871 7.67276 6.95871 7.6875 6.95871 7.70223Z" fill="#FAFAFA"/>
<path d="M18.1148 17.2492C19.1401 17.2492 20.1654 17.2679 21.1893 17.2398C21.5842 17.2291 21.789 17.3738 21.9616 17.7154C22.6202 19.0201 22.4368 20.2632 21.3941 21.3268C20.3608 22.381 19.1254 22.5779 17.799 21.9095C16.8835 21.4473 16.1968 20.7159 15.4914 20.002C15.0845 19.5894 14.6549 19.1969 14.2734 18.7615C14.0874 18.5499 13.6029 18.3918 13.817 18.0636C14.0512 17.7046 14.3323 17.2773 14.9025 17.288C15.972 17.3081 17.0427 17.2934 18.1135 17.2934V17.2492H18.1148Z" fill="#FAFAFA"/>
<path d="M12.496 25C11.0357 24.9959 10.0573 24.282 9.58214 22.9089C9.46034 22.5566 9.47506 22.3182 9.7789 22.0355C10.6088 21.2626 11.4051 20.4509 12.1908 19.6324C12.4532 19.3578 12.6098 19.3578 12.8734 19.6311C13.6926 20.4803 14.5251 21.3175 15.3844 22.1253C15.6481 22.3731 15.5691 22.5995 15.4982 22.8446C15.0953 24.2378 14.0192 25.0067 12.4973 25.0013L12.496 25Z" fill="#FAFAFA"/>
<path d="M12.5562 0.000203455C14.0914 0.0149385 15.1903 0.830723 15.533 2.19438C15.5972 2.45158 15.5878 2.6284 15.3683 2.83737C14.513 3.65181 13.6805 4.49171 12.856 5.3383C12.6231 5.57808 12.4772 5.61425 12.2216 5.35036C11.3837 4.48635 10.5257 3.6411 9.65572 2.80924C9.42684 2.58955 9.47636 2.3779 9.54061 2.1408C9.91404 0.771783 11.0236 -0.0145316 12.5562 0.000203455Z" fill="#FAFAFA"/>
</svg>
