<svg width="25" height="24" viewBox="0 0 25 24" fill="none" xmlns="http://www.w3.org/2000/svg">
<path d="M12.0094 5.75728C8.60223 5.75728 5.85402 8.46255 5.85402 11.8165C5.85402 15.1704 8.60223 17.8756 12.0094 17.8756C15.4165 17.8756 18.1647 15.1704 18.1647 11.8165C18.1647 8.46255 15.4165 5.75728 12.0094 5.75728ZM12.0094 15.7557C9.80759 15.7557 8.00759 13.9891 8.00759 11.8165C8.00759 9.6438 9.80223 7.8772 12.0094 7.8772C14.2165 7.8772 16.0112 9.6438 16.0112 11.8165C16.0112 13.9891 14.2112 15.7557 12.0094 15.7557ZM19.8522 5.50942C19.8522 6.29517 19.2094 6.92271 18.4165 6.92271C17.6183 6.92271 16.9808 6.28989 16.9808 5.50942C16.9808 4.72895 17.6237 4.09614 18.4165 4.09614C19.2094 4.09614 19.8522 4.72895 19.8522 5.50942ZM23.929 6.9438C23.8379 5.05063 23.3987 3.37368 21.9897 1.99204C20.5862 0.6104 18.8826 0.177979 16.9594 0.0830566C14.9772 -0.0276855 9.03616 -0.0276855 7.05402 0.0830566C5.13616 0.172705 3.43259 0.605127 2.02366 1.98677C0.614732 3.36841 0.180804 5.04536 0.084375 6.93853C-0.028125 8.8897 -0.028125 14.7379 0.084375 16.6891C0.175446 18.5823 0.614732 20.2592 2.02366 21.6409C3.43259 23.0225 5.1308 23.4549 7.05402 23.5499C9.03616 23.6606 14.9772 23.6606 16.9594 23.5499C18.8826 23.4602 20.5862 23.0278 21.9897 21.6409C23.3933 20.2592 23.8326 18.5823 23.929 16.6891C24.0415 14.7379 24.0415 8.89497 23.929 6.9438ZM21.3683 18.7827C20.9504 19.8163 20.1415 20.6125 19.0862 21.0292C17.5058 21.6461 13.7558 21.5038 12.0094 21.5038C10.2629 21.5038 6.50759 21.6409 4.93259 21.0292C3.88259 20.6178 3.07366 19.8215 2.65045 18.7827C2.02366 17.227 2.1683 13.5356 2.1683 11.8165C2.1683 10.0973 2.02902 6.40063 2.65045 4.85024C3.0683 3.81665 3.87723 3.02036 4.93259 2.60376C6.51295 1.98677 10.2629 2.12915 12.0094 2.12915C13.7558 2.12915 17.5112 1.99204 19.0862 2.60376C20.1362 3.01509 20.9451 3.81138 21.3683 4.85024C21.9951 6.40591 21.8504 10.0973 21.8504 11.8165C21.8504 13.5356 21.9951 17.2323 21.3683 18.7827Z" fill="#FAFAFA"/>
</svg>
