<?xml version="1.0" encoding="UTF-8"?>
<svg id="Layer_2" data-name="Layer 2" xmlns="http://www.w3.org/2000/svg" xmlns:xlink="http://www.w3.org/1999/xlink" viewBox="0 0 288.61 262.5">
  <defs>
    <style>
      .cls-1 {
        fill: url(#radial-gradient-7);
      }

      .cls-2 {
        fill: url(#radial-gradient-10);
      }

      .cls-3 {
        fill: #fff;
      }

      .cls-4 {
        opacity: .5;
      }

      .cls-5 {
        fill: url(#radial-gradient-8);
      }

      .cls-6 {
        fill: url(#radial-gradient-5);
      }

      .cls-7 {
        fill: url(#radial-gradient-4);
      }

      .cls-8 {
        fill: #06033e;
        opacity: .4;
      }

      .cls-9 {
        fill: url(#_Áåçûìÿííûé_ãðàäèåíò_441);
      }

      .cls-10 {
        fill: #0a0a0a;
      }

      .cls-11 {
        fill: url(#_Áåçûìÿííûé_ãðàäèåíò_343);
      }

      .cls-12 {
        fill: url(#radial-gradient-6);
      }

      .cls-13 {
        fill: url(#radial-gradient-12);
      }

      .cls-14 {
        fill: url(#radial-gradient);
      }

      .cls-15 {
        fill: url(#radial-gradient-13);
      }

      .cls-16 {
        fill: url(#radial-gradient-2);
      }

      .cls-17 {
        fill: url(#radial-gradient-3);
      }

      .cls-18 {
        fill: url(#radial-gradient-14);
      }

      .cls-19 {
        fill: url(#radial-gradient-11);
      }

      .cls-20 {
        fill: url(#radial-gradient-9);
      }
    </style>
    <radialGradient id="radial-gradient" cx="308.57" cy="175.61" fx="308.57" fy="175.61" r="102.89" gradientUnits="userSpaceOnUse">
      <stop offset="0" stop-color="#97ffd0"/>
      <stop offset="1" stop-color="#221e1f"/>
    </radialGradient>
    <radialGradient id="radial-gradient-2" cx="28.28" cy="256.87" fx="28.28" fy="256.87" r="211.01" xlink:href="#radial-gradient"/>
    <radialGradient id="radial-gradient-3" cx="18.51" cy="170.99" fx="18.51" fy="170.99" r="264.78" xlink:href="#radial-gradient"/>
    <radialGradient id="radial-gradient-4" cx="79.61" cy="41.92" fx="79.61" fy="41.92" r="223.34" xlink:href="#radial-gradient"/>
    <linearGradient id="_Áåçûìÿííûé_ãðàäèåíò_441" data-name="Áåçûìÿííûé ãðàäèåíò 441" x1="104.16" y1="100.55" x2="283.12" y2="100.55" gradientUnits="userSpaceOnUse">
      <stop offset="0" stop-color="#3919bb"/>
      <stop offset="1" stop-color="#6507fa"/>
    </linearGradient>
    <radialGradient id="radial-gradient-5" cx="193.64" cy="100.55" fx="193.64" fy="100.55" r="92.74" gradientUnits="userSpaceOnUse">
      <stop offset="0" stop-color="#161616"/>
      <stop offset=".65" stop-color="#231f20"/>
    </radialGradient>
    <radialGradient id="_Áåçûìÿííûé_ãðàäèåíò_343" data-name="Áåçûìÿííûé ãðàäèåíò 343" cx="-1.92" cy="-5.77" fx="-1.92" fy="-5.77" r="347.85" gradientUnits="userSpaceOnUse">
      <stop offset="0" stop-color="#e39a65"/>
      <stop offset=".47" stop-color="#a92ffb"/>
      <stop offset=".59" stop-color="#881bfa"/>
      <stop offset=".73" stop-color="#6507fa"/>
      <stop offset="1" stop-color="#3919bb"/>
    </radialGradient>
    <radialGradient id="radial-gradient-6" cx="139.11" cy="35.47" fx="139.11" fy="35.47" r="161.37" xlink:href="#radial-gradient"/>
    <radialGradient id="radial-gradient-7" cx="210.17" cy="117.16" fx="210.17" fy="117.16" r="151.72" xlink:href="#radial-gradient"/>
    <radialGradient id="radial-gradient-8" cx="210.17" cy="117.16" fx="210.17" fy="117.16" r="151.72" xlink:href="#radial-gradient"/>
    <radialGradient id="radial-gradient-9" cx="210.17" cy="117.16" fx="210.17" fy="117.16" r="151.72" xlink:href="#radial-gradient"/>
    <radialGradient id="radial-gradient-10" cx="210.17" cy="117.16" fx="210.17" fy="117.16" r="151.72" xlink:href="#radial-gradient"/>
    <radialGradient id="radial-gradient-11" cx="159.6" cy="99.29" fx="159.6" fy="99.29" r="5.87" xlink:href="#radial-gradient-5"/>
    <radialGradient id="radial-gradient-12" cx="162.91" cy="62.94" fx="162.91" fy="62.94" r="4.61" xlink:href="#radial-gradient-5"/>
    <radialGradient id="radial-gradient-13" cx="210.17" cy="117.16" fx="210.17" fy="117.16" r="151.72" xlink:href="#radial-gradient"/>
    <radialGradient id="radial-gradient-14" cx="241.02" cy="96.25" fx="241.02" fy="96.25" r=".89" xlink:href="#radial-gradient-5"/>
  </defs>
  <g id="Layer_1-2" data-name="Layer 1">
    <g id="ordinateur">
      <path class="cls-14" d="M285.72,83.62L141.86,.56c-.99-.57-2.02-.69-2.94-.42h0s0,0,0,0c0,0,0,0-.01,0l-2.66,.93,.94,.22c-.38,.45-.68,1-.88,1.65l-32.53,105.63c-.81,2.62,.37,5.8,2.64,7.11l143.86,83.06c.35,.2,.7,.34,1.06,.43l-.36,.78,2.54-.89h0c1.04-.42,1.9-1.35,2.31-2.69l32.53-105.63c.81-2.62-.37-5.8-2.64-7.11Z"/>
      <path class="cls-16" d="M245.12,202.68l.05,.06L103.07,120.7c-2.09-1.21-5.74-1.06-8.16,.34L3.11,174.04l-3.06-1.17,.86,4.3h0c.11,.64,.57,1.25,1.38,1.72l143.41,82.8c2.09,1.21,5.74,1.06,8.16-.34l92.04-53.14c1.14-.66,1.79-1.47,1.95-2.27h0s.88-4.17,.88-4.17l-3.61,.92Z"/>
      <path class="cls-17" d="M145.85,257.91L1.42,174.52c-2.11-1.22-1.84-3.34,.59-4.74l92.7-53.52c2.43-1.4,6.11-1.56,8.21-.34l144.43,83.39c2.11,1.22,1.84,3.34-.59,4.74l-92.7,53.52c-2.43,1.4-6.11,1.56-8.21,.34Z"/>
      <path class="cls-3" d="M246.76,202.92l-92.7,53.52c-2.43,1.4-6.11,1.56-8.21,.34L1.42,173.39c-.72-.41-1.14-.94-1.31-1.5-.28,.97,.13,1.94,1.31,2.62l144.43,83.39c2.11,1.22,5.78,1.06,8.21-.34l92.7-53.52c1.6-.93,2.24-2.16,1.9-3.24-.22,.75-.84,1.51-1.9,2.12Z"/>
      <path class="cls-10" d="M70.31,160.99l-4.88-2.82c-.39-.23-.34-.62,.11-.88l5.76-3.32c.45-.26,1.14-.29,1.53-.06l4.88,2.82c.39,.23,.34,.62-.11,.88l-5.76,3.32c-.45,.26-1.14,.29-1.53,.06Z"/>
      <path class="cls-10" d="M77.84,165.33l-4.88-2.82c-.39-.23-.34-.62,.11-.88l5.76-3.32c.45-.26,1.14-.29,1.53-.06l4.88,2.82c.39,.23,.34,.62-.11,.88l-5.76,3.32c-.45,.26-1.14,.29-1.53,.06Z"/>
      <path class="cls-10" d="M85.37,169.68l-4.88-2.82c-.39-.23-.34-.62,.11-.88l5.76-3.32c.45-.26,1.14-.29,1.53-.06l4.88,2.82c.39,.23,.34,.62-.11,.88l-5.76,3.32c-.45,.26-1.14,.29-1.53,.06Z"/>
      <path class="cls-10" d="M95.79,166.09l-4.88-2.82c-.39-.23-.34-.62,.11-.88l4.83-2.79c.45-.26,1.14-.29,1.53-.06l4.88,2.82c.39,.23,.34,.62-.11,.88l-4.83,2.79c-.45,.26-1.14,.29-1.53,.06Z"/>
      <path class="cls-10" d="M103.32,170.44l-4.88-2.82c-.39-.23-.34-.62,.11-.88l4.83-2.79c.45-.26,1.14-.29,1.53-.06l4.88,2.82c.39,.23,.34,.62-.11,.88l-4.83,2.79c-.45,.26-1.14,.29-1.53,.06Z"/>
      <path class="cls-10" d="M110.85,174.79l-4.88-2.82c-.39-.23-.34-.62,.11-.88l4.83-2.79c.45-.26,1.14-.29,1.53-.06l4.88,2.82c.39,.23,.34,.62-.11,.88l-4.83,2.79c-.45,.26-1.14,.29-1.53,.06Z"/>
      <path class="cls-10" d="M118.38,179.13l-4.88-2.82c-.39-.23-.34-.62,.11-.88l4.83-2.79c.45-.26,1.14-.29,1.53-.06l4.88,2.82c.39,.23,.34,.62-.11,.88l-4.83,2.79c-.45,.26-1.14,.29-1.53,.06Z"/>
      <path class="cls-10" d="M125.91,183.48l-4.88-2.82c-.39-.23-.34-.62,.11-.88l4.83-2.79c.45-.26,1.14-.29,1.53-.06l4.88,2.82c.39,.23,.34,.62-.11,.88l-4.83,2.79c-.45,.26-1.14,.29-1.53,.06Z"/>
      <path class="cls-10" d="M133.44,187.83l-4.88-2.82c-.39-.23-.34-.62,.11-.88l4.83-2.79c.45-.26,1.14-.29,1.53-.06l4.88,2.82c.39,.23,.34,.62-.11,.88l-4.83,2.79c-.45,.26-1.14,.29-1.53,.06Z"/>
      <path class="cls-10" d="M140.97,192.18l-4.88-2.82c-.39-.23-.34-.62,.11-.88l4.83-2.79c.45-.26,1.14-.29,1.53-.06l4.88,2.82c.39,.23,.34,.62-.11,.88l-4.83,2.79c-.45,.26-1.14,.29-1.53,.06Z"/>
      <path class="cls-10" d="M148.5,196.52l-4.88-2.82c-.39-.23-.34-.62,.11-.88l4.83-2.79c.45-.26,1.14-.29,1.53-.06l4.88,2.82c.39,.23,.34,.62-.11,.88l-4.83,2.79c-.45,.26-1.14,.29-1.53,.06Z"/>
      <path class="cls-10" d="M156.03,200.87l-4.88-2.82c-.39-.23-.34-.62,.11-.88l4.83-2.79c.45-.26,1.14-.29,1.53-.06l4.88,2.82c.39,.23,.34,.62-.11,.88l-4.83,2.79c-.45,.26-1.14,.29-1.53,.06Z"/>
      <path class="cls-10" d="M163.56,205.22l-4.88-2.82c-.39-.23-.34-.62,.11-.88l4.83-2.79c.45-.26,1.14-.29,1.53-.06l4.88,2.82c.39,.23,.34,.62-.11,.88l-4.83,2.79c-.45,.26-1.14,.29-1.53,.06Z"/>
      <path class="cls-10" d="M106.88,164.03l-4.88-2.82c-.39-.23-.34-.62,.11-.88l4.83-2.79c.45-.26,1.14-.29,1.53-.06l4.88,2.82c.39,.23,.34,.62-.11,.88l-4.83,2.79c-.45,.26-1.14,.29-1.53,.06Z"/>
      <path class="cls-10" d="M99.24,159.62l-4.88-2.82c-.39-.23-.34-.62,.11-.88l4.83-2.79c.45-.26,1.14-.29,1.53-.06l4.88,2.82c.39,.23,.34,.62-.11,.88l-4.83,2.79c-.45,.26-1.14,.29-1.53,.06Z"/>
      <path class="cls-10" d="M91.59,155.2l-10.5-6.06c-.39-.23-.34-.62,.11-.88l4.83-2.79c.45-.26,1.14-.29,1.53-.06l10.5,6.06c.39,.23,.34,.62-.11,.88l-4.83,2.79c-.45,.26-1.14,.29-1.53,.06Z"/>
      <path class="cls-10" d="M96.94,149.83l-8.52-4.92c-.39-.23-.34-.62,.11-.88l4.83-2.79c.45-.26,1.14-.29,1.53-.06l8.52,4.92c.39,.23,.34,.62-.11,.88l-4.83,2.79c-.45,.26-1.14,.29-1.53,.06Z"/>
      <path class="cls-10" d="M114.41,168.38l-4.88-2.82c-.39-.23-.34-.62,.11-.88l4.83-2.79c.45-.26,1.14-.29,1.53-.06l4.88,2.82c.39,.23,.34,.62-.11,.88l-4.83,2.79c-.45,.26-1.14,.29-1.53,.06Z"/>
      <path class="cls-10" d="M121.94,172.73l-4.88-2.82c-.39-.23-.34-.62,.11-.88l4.83-2.79c.45-.26,1.14-.29,1.53-.06l4.88,2.82c.39,.23,.34,.62-.11,.88l-4.83,2.79c-.45,.26-1.14,.29-1.53,.06Z"/>
      <path class="cls-10" d="M129.47,177.08l-4.88-2.82c-.39-.23-.34-.62,.11-.88l4.83-2.79c.45-.26,1.14-.29,1.53-.06l4.88,2.82c.39,.23,.34,.62-.11,.88l-4.83,2.79c-.45,.26-1.14,.29-1.53,.06Z"/>
      <path class="cls-10" d="M137,181.42l-4.88-2.82c-.39-.23-.34-.62,.11-.88l4.83-2.79c.45-.26,1.14-.29,1.53-.06l4.88,2.82c.39,.23,.34,.62-.11,.88l-4.83,2.79c-.45,.26-1.14,.29-1.53,.06Z"/>
      <path class="cls-10" d="M144.53,185.77l-4.88-2.82c-.39-.23-.34-.62,.11-.88l4.83-2.79c.45-.26,1.14-.29,1.53-.06l4.88,2.82c.39,.23,.34,.62-.11,.88l-4.83,2.79c-.45,.26-1.14,.29-1.53,.06Z"/>
      <path class="cls-10" d="M152.06,190.12l-4.88-2.82c-.39-.23-.34-.62,.11-.88l4.83-2.79c.45-.26,1.14-.29,1.53-.06l4.88,2.82c.39,.23,.34,.62-.11,.88l-4.83,2.79c-.45,.26-1.14,.29-1.53,.06Z"/>
      <path class="cls-10" d="M159.6,194.47l-4.88-2.82c-.39-.23-.34-.62,.11-.88l4.83-2.79c.45-.26,1.14-.29,1.53-.06l4.88,2.82c.39,.23,.34,.62-.11,.88l-4.83,2.79c-.45,.26-1.14,.29-1.53,.06Z"/>
      <path class="cls-10" d="M167.13,198.81l-4.88-2.82c-.39-.23-.34-.62,.11-.88l4.83-2.79c.45-.26,1.14-.29,1.53-.06l4.88,2.82c.39,.23,.34,.62-.11,.88l-4.83,2.79c-.45,.26-1.14,.29-1.53,.06Z"/>
      <path class="cls-10" d="M174.66,203.16l-4.88-2.82c-.39-.23-.34-.62,.11-.88l4.83-2.79c.45-.26,1.14-.29,1.53-.06l4.88,2.82c.39,.23,.34,.62-.11,.88l-4.83,2.79c-.45,.26-1.14,.29-1.53,.06Z"/>
      <path class="cls-10" d="M188.04,210.89l-10.64-6.14c-.39-.23-.34-.62,.11-.88l4.83-2.79c.45-.26,1.14-.29,1.53-.06l10.64,6.14c.39,.23,.34,.62-.11,.88l-4.83,2.79c-.45,.26-1.14,.29-1.53,.06Z"/>
      <path class="cls-10" d="M202.7,202.43l-8.98-5.18c-.39-.23-.34-.62,.11-.88l4.83-2.79c.45-.26,1.14-.29,1.53-.06l8.98,5.18c.39,.23,.34,.62-.11,.88l-4.83,2.79c-.45,.26-1.14,.29-1.53,.06Z"/>
      <path class="cls-10" d="M127.6,167.53l-4.88-2.82c-.39-.23-.34-.62,.11-.88l4.83-2.79c.45-.26,1.14-.29,1.53-.06l4.88,2.82c.39,.23,.34,.62-.11,.88l-4.83,2.79c-.45,.26-1.14,.29-1.53,.06Z"/>
      <path class="cls-10" d="M119.88,163.07l-4.88-2.82c-.39-.23-.34-.62,.11-.88l4.83-2.79c.45-.26,1.14-.29,1.53-.06l4.88,2.82c.39,.23,.34,.62-.11,.88l-4.83,2.79c-.45,.26-1.14,.29-1.53,.06Z"/>
      <path class="cls-10" d="M112.17,158.62l-4.88-2.82c-.39-.23-.34-.62,.11-.88l4.83-2.79c.45-.26,1.14-.29,1.53-.06l4.88,2.82c.39,.23,.34,.62-.11,.88l-4.83,2.79c-.45,.26-1.14,.29-1.53,.06Z"/>
      <path class="cls-10" d="M104.45,154.16l-4.88-2.82c-.39-.23-.34-.62,.11-.88l4.83-2.79c.45-.26,1.14-.29,1.53-.06l4.88,2.82c.39,.23,.34,.62-.11,.88l-4.83,2.79c-.45,.26-1.14,.29-1.53,.06Z"/>
      <path class="cls-10" d="M135.13,171.88l-4.88-2.82c-.39-.23-.34-.62,.11-.88l4.83-2.79c.45-.26,1.14-.29,1.53-.06l4.88,2.82c.39,.23,.34,.62-.11,.88l-4.83,2.79c-.45,.26-1.14,.29-1.53,.06Z"/>
      <path class="cls-10" d="M142.66,176.23l-4.88-2.82c-.39-.23-.34-.62,.11-.88l4.83-2.79c.45-.26,1.14-.29,1.53-.06l4.88,2.82c.39,.23,.34,.62-.11,.88l-4.83,2.79c-.45,.26-1.14,.29-1.53,.06Z"/>
      <path class="cls-10" d="M150.19,180.57l-4.88-2.82c-.39-.23-.34-.62,.11-.88l4.83-2.79c.45-.26,1.14-.29,1.53-.06l4.88,2.82c.39,.23,.34,.62-.11,.88l-4.83,2.79c-.45,.26-1.14,.29-1.53,.06Z"/>
      <path class="cls-10" d="M157.72,184.92l-4.88-2.82c-.39-.23-.34-.62,.11-.88l4.83-2.79c.45-.26,1.14-.29,1.53-.06l4.88,2.82c.39,.23,.34,.62-.11,.88l-4.83,2.79c-.45,.26-1.14,.29-1.53,.06Z"/>
      <path class="cls-10" d="M165.25,189.27l-4.88-2.82c-.39-.23-.34-.62,.11-.88l4.83-2.79c.45-.26,1.14-.29,1.53-.06l4.88,2.82c.39,.23,.34,.62-.11,.88l-4.83,2.79c-.45,.26-1.14,.29-1.53,.06Z"/>
      <path class="cls-10" d="M172.78,193.62l-4.88-2.82c-.39-.23-.34-.62,.11-.88l4.83-2.79c.45-.26,1.14-.29,1.53-.06l4.88,2.82c.39,.23,.34,.62-.11,.88l-4.83,2.79c-.45,.26-1.14,.29-1.53,.06Z"/>
      <path class="cls-10" d="M180.31,197.96l-4.88-2.82c-.39-.23-.34-.62,.11-.88l4.83-2.79c.45-.26,1.14-.29,1.53-.06l4.88,2.82c.39,.23,.34,.62-.11,.88l-4.83,2.79c-.45,.26-1.14,.29-1.53,.06Z"/>
      <path class="cls-10" d="M187.84,202.31l-4.88-2.82c-.39-.23-.34-.62,.11-.88l4.83-2.79c.45-.26,1.14-.29,1.53-.06l4.88,2.82c.39,.23,.34,.62-.11,.88l-4.83,2.79c-.45,.26-1.14,.29-1.53,.06Z"/>
      <path class="cls-10" d="M195.37,206.66l-4.88-2.82c-.39-.23-.34-.62,.11-.88l4.83-2.79c.45-.26,1.14-.29,1.53-.06l4.88,2.82c.39,.23,.34,.62-.11,.88l-4.83,2.79c-.45,.26-1.14,.29-1.53,.06Z"/>
      <path class="cls-10" d="M123.64,156.78l-4.88-2.82c-.39-.23-.34-.62,.11-.88l4.83-2.79c.45-.26,1.14-.29,1.53-.06l4.88,2.82c.39,.23,.34,.62-.11,.88l-4.83,2.79c-.45,.26-1.14,.29-1.53,.06Z"/>
      <path class="cls-10" d="M116.14,152.45l-4.88-2.82c-.39-.23-.34-.62,.11-.88l4.83-2.79c.45-.26,1.14-.29,1.53-.06l4.88,2.82c.39,.23,.34,.62-.11,.88l-4.83,2.79c-.45,.26-1.14,.29-1.53,.06Z"/>
      <path class="cls-10" d="M108.65,148.12l-4.88-2.82c-.39-.23-.34-.62,.11-.88l4.83-2.79c.45-.26,1.14-.29,1.53-.06l4.88,2.82c.39,.23,.34,.62-.11,.88l-4.83,2.79c-.45,.26-1.14,.29-1.53,.06Z"/>
      <path class="cls-10" d="M101.16,143.8l-4.88-2.82c-.39-.23-.34-.62,.11-.88l4.83-2.79c.45-.26,1.14-.29,1.53-.06l4.88,2.82c.39,.23,.34,.62-.11,.88l-4.83,2.79c-.45,.26-1.14,.29-1.53,.06Z"/>
      <path class="cls-10" d="M108.86,139.35l-4.88-2.82c-.39-.23-.34-.62,.11-.88l1.6-.92c.45-.26,1.14-.29,1.53-.06l4.88,2.82c.39,.23,.34,.62-.11,.88l-1.6,.92c-.45,.26-1.14,.29-1.53,.06Z"/>
      <path class="cls-10" d="M118.64,145l-4.88-2.82c-.39-.23-.34-.62,.11-.88l1.6-.92c.45-.26,1.14-.29,1.53-.06l4.88,2.82c.39,.23,.34,.62-.11,.88l-1.6,.92c-.45,.26-1.14,.29-1.53,.06Z"/>
      <path class="cls-10" d="M126.1,149.3l-4.88-2.82c-.39-.23-.34-.62,.11-.88l1.6-.92c.45-.26,1.14-.29,1.53-.06l4.88,2.82c.39,.23,.34,.62-.11,.88l-1.6,.92c-.45,.26-1.14,.29-1.53,.06Z"/>
      <path class="cls-10" d="M133.56,153.61l-4.88-2.82c-.39-.23-.34-.62,.11-.88l1.6-.92c.45-.26,1.14-.29,1.53-.06l4.88,2.82c.39,.23,.34,.62-.11,.88l-1.6,.92c-.45,.26-1.14,.29-1.53,.06Z"/>
      <path class="cls-10" d="M141.02,157.92l-4.88-2.82c-.39-.23-.34-.62,.11-.88l1.6-.92c.45-.26,1.14-.29,1.53-.06l4.88,2.82c.39,.23,.34,.62-.11,.88l-1.6,.92c-.45,.26-1.14,.29-1.53,.06Z"/>
      <path class="cls-10" d="M182.68,181.97l-4.88-2.82c-.39-.23-.34-.62,.11-.88l1.6-.92c.45-.26,1.14-.29,1.53-.06l4.88,2.82c.39,.23,.34,.62-.11,.88l-1.6,.92c-.45,.26-1.14,.29-1.53,.06Z"/>
      <path class="cls-10" d="M190.14,186.28l-4.88-2.82c-.39-.23-.34-.62,.11-.88l1.6-.92c.45-.26,1.14-.29,1.53-.06l4.88,2.82c.39,.23,.34,.62-.11,.88l-1.6,.92c-.45,.26-1.14,.29-1.53,.06Z"/>
      <path class="cls-10" d="M197.6,190.59l-4.88-2.82c-.39-.23-.34-.62,.11-.88l1.6-.92c.45-.26,1.14-.29,1.53-.06l4.88,2.82c.39,.23,.34,.62-.11,.88l-1.6,.92c-.45,.26-1.14,.29-1.53,.06Z"/>
      <path class="cls-10" d="M205.07,194.89l-4.88-2.82c-.39-.23-.34-.62,.11-.88l1.6-.92c.45-.26,1.14-.29,1.53-.06l4.88,2.82c.39,.23,.34,.62-.11,.88l-1.6,.92c-.45,.26-1.14,.29-1.53,.06Z"/>
      <path class="cls-10" d="M131.17,161.12l-4.88-2.82c-.39-.23-.34-.62,.11-.88l4.83-2.79c.45-.26,1.14-.29,1.53-.06l4.88,2.82c.39,.23,.34,.62-.11,.88l-4.83,2.79c-.45,.26-1.14,.29-1.53,.06Z"/>
      <path class="cls-10" d="M138.7,165.47l-4.88-2.82c-.39-.23-.34-.62,.11-.88l4.83-2.79c.45-.26,1.14-.29,1.53-.06l4.88,2.82c.39,.23,.34,.62-.11,.88l-4.83,2.79c-.45,.26-1.14,.29-1.53,.06Z"/>
      <path class="cls-10" d="M146.23,169.82l-4.88-2.82c-.39-.23-.34-.62,.11-.88l4.83-2.79c.45-.26,1.14-.29,1.53-.06l4.88,2.82c.39,.23,.34,.62-.11,.88l-4.83,2.79c-.45,.26-1.14,.29-1.53,.06Z"/>
      <path class="cls-10" d="M153.76,174.17l-4.88-2.82c-.39-.23-.34-.62,.11-.88l4.83-2.79c.45-.26,1.14-.29,1.53-.06l4.88,2.82c.39,.23,.34,.62-.11,.88l-4.83,2.79c-.45,.26-1.14,.29-1.53,.06Z"/>
      <path class="cls-10" d="M161.29,178.51l-4.88-2.82c-.39-.23-.34-.62,.11-.88l4.83-2.79c.45-.26,1.14-.29,1.53-.06l4.88,2.82c.39,.23,.34,.62-.11,.88l-4.83,2.79c-.45,.26-1.14,.29-1.53,.06Z"/>
      <path class="cls-10" d="M168.82,182.86l-4.88-2.82c-.39-.23-.34-.62,.11-.88l4.83-2.79c.45-.26,1.14-.29,1.53-.06l4.88,2.82c.39,.23,.34,.62-.11,.88l-4.83,2.79c-.45,.26-1.14,.29-1.53,.06Z"/>
      <path class="cls-10" d="M176.35,187.21l-4.88-2.82c-.39-.23-.34-.62,.11-.88l4.83-2.79c.45-.26,1.14-.29,1.53-.06l4.88,2.82c.39,.23,.34,.62-.11,.88l-4.83,2.79c-.45,.26-1.14,.29-1.53,.06Z"/>
      <path class="cls-10" d="M183.88,191.56l-4.88-2.82c-.39-.23-.34-.62,.11-.88l4.83-2.79c.45-.26,1.14-.29,1.53-.06l4.88,2.82c.39,.23,.34,.62-.11,.88l-4.83,2.79c-.45,.26-1.14,.29-1.53,.06Z"/>
      <path class="cls-10" d="M191.41,195.91l-4.88-2.82c-.39-.23-.34-.62,.11-.88l4.83-2.79c.45-.26,1.14-.29,1.53-.06l4.88,2.82c.39,.23,.34,.62-.11,.88l-4.83,2.79c-.45,.26-1.14,.29-1.53,.06Z"/>
      <path class="cls-10" d="M88.11,161.66l-14.36-8.29c-.39-.23-.34-.62,.11-.88l4.83-2.79c.45-.26,1.14-.29,1.53-.06l14.36,8.29c.39,.23,.34,.62-.11,.88l-4.83,2.79c-.45,.26-1.14,.29-1.53,.06Z"/>
      <path class="cls-10" d="M180.63,215.07l-14.36-8.29c-.39-.23-.34-.62,.11-.88l4.83-2.79c.45-.26,1.14-.29,1.53-.06l14.36,8.29c.39,.23,.34,.62-.11,.88l-4.83,2.79c-.45,.26-1.14,.29-1.53,.06Z"/>
      <path class="cls-10" d="M150.51,207.29l-4.88-2.82c-.39-.23-.34-.62,.11-.88l5.76-3.32c.45-.26,1.14-.29,1.53-.06l4.88,2.82c.39,.23,.34,.62-.11,.88l-5.76,3.32c-.45,.26-1.14,.29-1.53,.06Z"/>
      <path class="cls-10" d="M95.83,175.72l-7.8-4.5c-.39-.23-.34-.62,.11-.88l5.76-3.32c.45-.26,1.14-.29,1.53-.06l7.8,4.5c.39,.23,.34,.62-.11,.88l-5.76,3.32c-.45,.26-1.14,.29-1.53,.06Z"/>
      <path class="cls-10" d="M143.26,203.1l-7.8-4.5c-.39-.23-.34-.62,.11-.88l5.76-3.32c.45-.26,1.14-.29,1.53-.06l7.8,4.5c.39,.23,.34,.62-.11,.88l-5.76,3.32c-.45,.26-1.14,.29-1.53,.06Z"/>
      <path class="cls-10" d="M106.69,181.99l-7.8-4.5c-.39-.23-.34-.62,.11-.88l5.76-3.32c.45-.26,1.14-.29,1.53-.06l7.8,4.5c.39,.23,.34,.62-.11,.88l-5.76,3.32c-.45,.26-1.14,.29-1.53,.06Z"/>
      <path class="cls-10" d="M106.34,173.25l33.9,19.58c.42,.24,.42,.64,0,.88l-5.87,3.39c-.42,.24-1.1,.24-1.52,0l-33.9-19.58,7.39-4.27Z"/>
      <path class="cls-10" d="M171.56,215.17l5.43,3.14c.32,.19,.28,.51-.09,.72l-2.35,1.36c-.37,.21-.93,.24-1.25,.05l-5.43-3.14c-.32-.19-.28-.51,.09-.72l2.35-1.36c.37-.21,.93-.24,1.25-.05Z"/>
      <path class="cls-10" d="M163.96,210.79l5.43,3.14c.32,.19,.28,.51-.09,.72l-2.35,1.36c-.37,.21-.93,.24-1.25,.05l-5.43-3.14c-.32-.19-.28-.51,.09-.72l2.35-1.36c.37-.21,.93-.24,1.25-.05Z"/>
      <path class="cls-10" d="M156.43,206.44l5.43,3.14c.32,.19,.28,.51-.09,.72l-2.35,1.36c-.37,.21-.93,.24-1.25,.05l-5.43-3.14c-.32-.19-.28-.51,.09-.72l2.35-1.36c.37-.21,.93-.24,1.25-.05Z"/>
      <path class="cls-10" d="M168.12,208.39l5.43,3.14c.32,.19,.28,.51-.09,.72l-2.35,1.36c-.37,.21-.93,.24-1.25,.05l-5.43-3.14c-.32-.19-.28-.51,.09-.72l2.35-1.36c.37-.21,.93-.24,1.25-.05Z"/>
      <path class="cls-10" d="M70.31,160.99l-4.88-2.82c-.39-.23-.34-.62,.11-.88l5.76-3.32c.45-.26,1.14-.29,1.53-.06l4.88,2.82c.39,.23,.34,.62-.11,.88l-5.76,3.32c-.45,.26-1.14,.29-1.53,.06Z"/>
      <path class="cls-10" d="M77.84,165.33l-4.88-2.82c-.39-.23-.34-.62,.11-.88l5.76-3.32c.45-.26,1.14-.29,1.53-.06l4.88,2.82c.39,.23,.34,.62-.11,.88l-5.76,3.32c-.45,.26-1.14,.29-1.53,.06Z"/>
      <path class="cls-10" d="M85.37,169.68l-4.88-2.82c-.39-.23-.34-.62,.11-.88l5.76-3.32c.45-.26,1.14-.29,1.53-.06l4.88,2.82c.39,.23,.34,.62-.11,.88l-5.76,3.32c-.45,.26-1.14,.29-1.53,.06Z"/>
      <path class="cls-10" d="M95.79,166.09l-4.88-2.82c-.39-.23-.34-.62,.11-.88l4.83-2.79c.45-.26,1.14-.29,1.53-.06l4.88,2.82c.39,.23,.34,.62-.11,.88l-4.83,2.79c-.45,.26-1.14,.29-1.53,.06Z"/>
      <path class="cls-10" d="M103.32,170.44l-4.88-2.82c-.39-.23-.34-.62,.11-.88l4.83-2.79c.45-.26,1.14-.29,1.53-.06l4.88,2.82c.39,.23,.34,.62-.11,.88l-4.83,2.79c-.45,.26-1.14,.29-1.53,.06Z"/>
      <path class="cls-10" d="M110.85,174.79l-4.88-2.82c-.39-.23-.34-.62,.11-.88l4.83-2.79c.45-.26,1.14-.29,1.53-.06l4.88,2.82c.39,.23,.34,.62-.11,.88l-4.83,2.79c-.45,.26-1.14,.29-1.53,.06Z"/>
      <path class="cls-10" d="M118.38,179.13l-4.88-2.82c-.39-.23-.34-.62,.11-.88l4.83-2.79c.45-.26,1.14-.29,1.53-.06l4.88,2.82c.39,.23,.34,.62-.11,.88l-4.83,2.79c-.45,.26-1.14,.29-1.53,.06Z"/>
      <path class="cls-10" d="M125.91,183.48l-4.88-2.82c-.39-.23-.34-.62,.11-.88l4.83-2.79c.45-.26,1.14-.29,1.53-.06l4.88,2.82c.39,.23,.34,.62-.11,.88l-4.83,2.79c-.45,.26-1.14,.29-1.53,.06Z"/>
      <path class="cls-10" d="M133.44,187.83l-4.88-2.82c-.39-.23-.34-.62,.11-.88l4.83-2.79c.45-.26,1.14-.29,1.53-.06l4.88,2.82c.39,.23,.34,.62-.11,.88l-4.83,2.79c-.45,.26-1.14,.29-1.53,.06Z"/>
      <path class="cls-10" d="M140.97,192.18l-4.88-2.82c-.39-.23-.34-.62,.11-.88l4.83-2.79c.45-.26,1.14-.29,1.53-.06l4.88,2.82c.39,.23,.34,.62-.11,.88l-4.83,2.79c-.45,.26-1.14,.29-1.53,.06Z"/>
      <path class="cls-10" d="M148.5,196.52l-4.88-2.82c-.39-.23-.34-.62,.11-.88l4.83-2.79c.45-.26,1.14-.29,1.53-.06l4.88,2.82c.39,.23,.34,.62-.11,.88l-4.83,2.79c-.45,.26-1.14,.29-1.53,.06Z"/>
      <path class="cls-10" d="M156.03,200.87l-4.88-2.82c-.39-.23-.34-.62,.11-.88l4.83-2.79c.45-.26,1.14-.29,1.53-.06l4.88,2.82c.39,.23,.34,.62-.11,.88l-4.83,2.79c-.45,.26-1.14,.29-1.53,.06Z"/>
      <path class="cls-10" d="M163.56,205.22l-4.88-2.82c-.39-.23-.34-.62,.11-.88l4.83-2.79c.45-.26,1.14-.29,1.53-.06l4.88,2.82c.39,.23,.34,.62-.11,.88l-4.83,2.79c-.45,.26-1.14,.29-1.53,.06Z"/>
      <path class="cls-10" d="M106.88,164.03l-4.88-2.82c-.39-.23-.34-.62,.11-.88l4.83-2.79c.45-.26,1.14-.29,1.53-.06l4.88,2.82c.39,.23,.34,.62-.11,.88l-4.83,2.79c-.45,.26-1.14,.29-1.53,.06Z"/>
      <path class="cls-10" d="M99.24,159.62l-4.88-2.82c-.39-.23-.34-.62,.11-.88l4.83-2.79c.45-.26,1.14-.29,1.53-.06l4.88,2.82c.39,.23,.34,.62-.11,.88l-4.83,2.79c-.45,.26-1.14,.29-1.53,.06Z"/>
      <path class="cls-10" d="M91.59,155.2l-10.5-6.06c-.39-.23-.34-.62,.11-.88l4.83-2.79c.45-.26,1.14-.29,1.53-.06l10.5,6.06c.39,.23,.34,.62-.11,.88l-4.83,2.79c-.45,.26-1.14,.29-1.53,.06Z"/>
      <path class="cls-10" d="M96.94,149.83l-8.52-4.92c-.39-.23-.34-.62,.11-.88l4.83-2.79c.45-.26,1.14-.29,1.53-.06l8.52,4.92c.39,.23,.34,.62-.11,.88l-4.83,2.79c-.45,.26-1.14,.29-1.53,.06Z"/>
      <path class="cls-10" d="M114.41,168.38l-4.88-2.82c-.39-.23-.34-.62,.11-.88l4.83-2.79c.45-.26,1.14-.29,1.53-.06l4.88,2.82c.39,.23,.34,.62-.11,.88l-4.83,2.79c-.45,.26-1.14,.29-1.53,.06Z"/>
      <path class="cls-10" d="M121.94,172.73l-4.88-2.82c-.39-.23-.34-.62,.11-.88l4.83-2.79c.45-.26,1.14-.29,1.53-.06l4.88,2.82c.39,.23,.34,.62-.11,.88l-4.83,2.79c-.45,.26-1.14,.29-1.53,.06Z"/>
      <path class="cls-10" d="M129.47,177.08l-4.88-2.82c-.39-.23-.34-.62,.11-.88l4.83-2.79c.45-.26,1.14-.29,1.53-.06l4.88,2.82c.39,.23,.34,.62-.11,.88l-4.83,2.79c-.45,.26-1.14,.29-1.53,.06Z"/>
      <path class="cls-10" d="M137,181.42l-4.88-2.82c-.39-.23-.34-.62,.11-.88l4.83-2.79c.45-.26,1.14-.29,1.53-.06l4.88,2.82c.39,.23,.34,.62-.11,.88l-4.83,2.79c-.45,.26-1.14,.29-1.53,.06Z"/>
      <path class="cls-10" d="M144.53,185.77l-4.88-2.82c-.39-.23-.34-.62,.11-.88l4.83-2.79c.45-.26,1.14-.29,1.53-.06l4.88,2.82c.39,.23,.34,.62-.11,.88l-4.83,2.79c-.45,.26-1.14,.29-1.53,.06Z"/>
      <path class="cls-10" d="M152.06,190.12l-4.88-2.82c-.39-.23-.34-.62,.11-.88l4.83-2.79c.45-.26,1.14-.29,1.53-.06l4.88,2.82c.39,.23,.34,.62-.11,.88l-4.83,2.79c-.45,.26-1.14,.29-1.53,.06Z"/>
      <path class="cls-10" d="M159.6,194.47l-4.88-2.82c-.39-.23-.34-.62,.11-.88l4.83-2.79c.45-.26,1.14-.29,1.53-.06l4.88,2.82c.39,.23,.34,.62-.11,.88l-4.83,2.79c-.45,.26-1.14,.29-1.53,.06Z"/>
      <path class="cls-10" d="M167.13,198.81l-4.88-2.82c-.39-.23-.34-.62,.11-.88l4.83-2.79c.45-.26,1.14-.29,1.53-.06l4.88,2.82c.39,.23,.34,.62-.11,.88l-4.83,2.79c-.45,.26-1.14,.29-1.53,.06Z"/>
      <path class="cls-10" d="M174.66,203.16l-4.88-2.82c-.39-.23-.34-.62,.11-.88l4.83-2.79c.45-.26,1.14-.29,1.53-.06l4.88,2.82c.39,.23,.34,.62-.11,.88l-4.83,2.79c-.45,.26-1.14,.29-1.53,.06Z"/>
      <path class="cls-10" d="M188.04,210.89l-10.64-6.14c-.39-.23-.34-.62,.11-.88l4.83-2.79c.45-.26,1.14-.29,1.53-.06l10.64,6.14c.39,.23,.34,.62-.11,.88l-4.83,2.79c-.45,.26-1.14,.29-1.53,.06Z"/>
      <path class="cls-10" d="M202.7,202.43l-8.98-5.18c-.39-.23-.34-.62,.11-.88l4.83-2.79c.45-.26,1.14-.29,1.53-.06l8.98,5.18c.39,.23,.34,.62-.11,.88l-4.83,2.79c-.45,.26-1.14,.29-1.53,.06Z"/>
      <path class="cls-10" d="M127.6,167.53l-4.88-2.82c-.39-.23-.34-.62,.11-.88l4.83-2.79c.45-.26,1.14-.29,1.53-.06l4.88,2.82c.39,.23,.34,.62-.11,.88l-4.83,2.79c-.45,.26-1.14,.29-1.53,.06Z"/>
      <path class="cls-10" d="M119.88,163.07l-4.88-2.82c-.39-.23-.34-.62,.11-.88l4.83-2.79c.45-.26,1.14-.29,1.53-.06l4.88,2.82c.39,.23,.34,.62-.11,.88l-4.83,2.79c-.45,.26-1.14,.29-1.53,.06Z"/>
      <path class="cls-10" d="M112.17,158.62l-4.88-2.82c-.39-.23-.34-.62,.11-.88l4.83-2.79c.45-.26,1.14-.29,1.53-.06l4.88,2.82c.39,.23,.34,.62-.11,.88l-4.83,2.79c-.45,.26-1.14,.29-1.53,.06Z"/>
      <path class="cls-10" d="M104.45,154.16l-4.88-2.82c-.39-.23-.34-.62,.11-.88l4.83-2.79c.45-.26,1.14-.29,1.53-.06l4.88,2.82c.39,.23,.34,.62-.11,.88l-4.83,2.79c-.45,.26-1.14,.29-1.53,.06Z"/>
      <path class="cls-10" d="M135.13,171.88l-4.88-2.82c-.39-.23-.34-.62,.11-.88l4.83-2.79c.45-.26,1.14-.29,1.53-.06l4.88,2.82c.39,.23,.34,.62-.11,.88l-4.83,2.79c-.45,.26-1.14,.29-1.53,.06Z"/>
      <path class="cls-10" d="M142.66,176.23l-4.88-2.82c-.39-.23-.34-.62,.11-.88l4.83-2.79c.45-.26,1.14-.29,1.53-.06l4.88,2.82c.39,.23,.34,.62-.11,.88l-4.83,2.79c-.45,.26-1.14,.29-1.53,.06Z"/>
      <path class="cls-10" d="M150.19,180.57l-4.88-2.82c-.39-.23-.34-.62,.11-.88l4.83-2.79c.45-.26,1.14-.29,1.53-.06l4.88,2.82c.39,.23,.34,.62-.11,.88l-4.83,2.79c-.45,.26-1.14,.29-1.53,.06Z"/>
      <path class="cls-10" d="M157.72,184.92l-4.88-2.82c-.39-.23-.34-.62,.11-.88l4.83-2.79c.45-.26,1.14-.29,1.53-.06l4.88,2.82c.39,.23,.34,.62-.11,.88l-4.83,2.79c-.45,.26-1.14,.29-1.53,.06Z"/>
      <path class="cls-10" d="M165.25,189.27l-4.88-2.82c-.39-.23-.34-.62,.11-.88l4.83-2.79c.45-.26,1.14-.29,1.53-.06l4.88,2.82c.39,.23,.34,.62-.11,.88l-4.83,2.79c-.45,.26-1.14,.29-1.53,.06Z"/>
      <path class="cls-10" d="M172.78,193.62l-4.88-2.82c-.39-.23-.34-.62,.11-.88l4.83-2.79c.45-.26,1.14-.29,1.53-.06l4.88,2.82c.39,.23,.34,.62-.11,.88l-4.83,2.79c-.45,.26-1.14,.29-1.53,.06Z"/>
      <path class="cls-10" d="M180.31,197.96l-4.88-2.82c-.39-.23-.34-.62,.11-.88l4.83-2.79c.45-.26,1.14-.29,1.53-.06l4.88,2.82c.39,.23,.34,.62-.11,.88l-4.83,2.79c-.45,.26-1.14,.29-1.53,.06Z"/>
      <path class="cls-10" d="M187.84,202.31l-4.88-2.82c-.39-.23-.34-.62,.11-.88l4.83-2.79c.45-.26,1.14-.29,1.53-.06l4.88,2.82c.39,.23,.34,.62-.11,.88l-4.83,2.79c-.45,.26-1.14,.29-1.53,.06Z"/>
      <path class="cls-10" d="M195.37,206.66l-4.88-2.82c-.39-.23-.34-.62,.11-.88l4.83-2.79c.45-.26,1.14-.29,1.53-.06l4.88,2.82c.39,.23,.34,.62-.11,.88l-4.83,2.79c-.45,.26-1.14,.29-1.53,.06Z"/>
      <path class="cls-10" d="M123.64,156.78l-4.88-2.82c-.39-.23-.34-.62,.11-.88l4.83-2.79c.45-.26,1.14-.29,1.53-.06l4.88,2.82c.39,.23,.34,.62-.11,.88l-4.83,2.79c-.45,.26-1.14,.29-1.53,.06Z"/>
      <path class="cls-10" d="M116.14,152.45l-4.88-2.82c-.39-.23-.34-.62,.11-.88l4.83-2.79c.45-.26,1.14-.29,1.53-.06l4.88,2.82c.39,.23,.34,.62-.11,.88l-4.83,2.79c-.45,.26-1.14,.29-1.53,.06Z"/>
      <path class="cls-10" d="M108.65,148.12l-4.88-2.82c-.39-.23-.34-.62,.11-.88l4.83-2.79c.45-.26,1.14-.29,1.53-.06l4.88,2.82c.39,.23,.34,.62-.11,.88l-4.83,2.79c-.45,.26-1.14,.29-1.53,.06Z"/>
      <path class="cls-10" d="M101.16,143.8l-4.88-2.82c-.39-.23-.34-.62,.11-.88l4.83-2.79c.45-.26,1.14-.29,1.53-.06l4.88,2.82c.39,.23,.34,.62-.11,.88l-4.83,2.79c-.45,.26-1.14,.29-1.53,.06Z"/>
      <path class="cls-10" d="M108.86,139.35l-4.88-2.82c-.39-.23-.34-.62,.11-.88l1.6-.92c.45-.26,1.14-.29,1.53-.06l4.88,2.82c.39,.23,.34,.62-.11,.88l-1.6,.92c-.45,.26-1.14,.29-1.53,.06Z"/>
      <path class="cls-10" d="M118.64,145l-4.88-2.82c-.39-.23-.34-.62,.11-.88l1.6-.92c.45-.26,1.14-.29,1.53-.06l4.88,2.82c.39,.23,.34,.62-.11,.88l-1.6,.92c-.45,.26-1.14,.29-1.53,.06Z"/>
      <path class="cls-10" d="M126.1,149.3l-4.88-2.82c-.39-.23-.34-.62,.11-.88l1.6-.92c.45-.26,1.14-.29,1.53-.06l4.88,2.82c.39,.23,.34,.62-.11,.88l-1.6,.92c-.45,.26-1.14,.29-1.53,.06Z"/>
      <path class="cls-10" d="M133.56,153.61l-4.88-2.82c-.39-.23-.34-.62,.11-.88l1.6-.92c.45-.26,1.14-.29,1.53-.06l4.88,2.82c.39,.23,.34,.62-.11,.88l-1.6,.92c-.45,.26-1.14,.29-1.53,.06Z"/>
      <path class="cls-10" d="M141.02,157.92l-4.88-2.82c-.39-.23-.34-.62,.11-.88l1.6-.92c.45-.26,1.14-.29,1.53-.06l4.88,2.82c.39,.23,.34,.62-.11,.88l-1.6,.92c-.45,.26-1.14,.29-1.53,.06Z"/>
      <path class="cls-10" d="M182.68,181.97l-4.88-2.82c-.39-.23-.34-.62,.11-.88l1.6-.92c.45-.26,1.14-.29,1.53-.06l4.88,2.82c.39,.23,.34,.62-.11,.88l-1.6,.92c-.45,.26-1.14,.29-1.53,.06Z"/>
      <path class="cls-10" d="M190.14,186.28l-4.88-2.82c-.39-.23-.34-.62,.11-.88l1.6-.92c.45-.26,1.14-.29,1.53-.06l4.88,2.82c.39,.23,.34,.62-.11,.88l-1.6,.92c-.45,.26-1.14,.29-1.53,.06Z"/>
      <path class="cls-10" d="M197.6,190.59l-4.88-2.82c-.39-.23-.34-.62,.11-.88l1.6-.92c.45-.26,1.14-.29,1.53-.06l4.88,2.82c.39,.23,.34,.62-.11,.88l-1.6,.92c-.45,.26-1.14,.29-1.53,.06Z"/>
      <path class="cls-10" d="M205.07,194.89l-4.88-2.82c-.39-.23-.34-.62,.11-.88l1.6-.92c.45-.26,1.14-.29,1.53-.06l4.88,2.82c.39,.23,.34,.62-.11,.88l-1.6,.92c-.45,.26-1.14,.29-1.53,.06Z"/>
      <path class="cls-10" d="M131.17,161.12l-4.88-2.82c-.39-.23-.34-.62,.11-.88l4.83-2.79c.45-.26,1.14-.29,1.53-.06l4.88,2.82c.39,.23,.34,.62-.11,.88l-4.83,2.79c-.45,.26-1.14,.29-1.53,.06Z"/>
      <path class="cls-10" d="M138.7,165.47l-4.88-2.82c-.39-.23-.34-.62,.11-.88l4.83-2.79c.45-.26,1.14-.29,1.53-.06l4.88,2.82c.39,.23,.34,.62-.11,.88l-4.83,2.79c-.45,.26-1.14,.29-1.53,.06Z"/>
      <path class="cls-10" d="M146.23,169.82l-4.88-2.82c-.39-.23-.34-.62,.11-.88l4.83-2.79c.45-.26,1.14-.29,1.53-.06l4.88,2.82c.39,.23,.34,.62-.11,.88l-4.83,2.79c-.45,.26-1.14,.29-1.53,.06Z"/>
      <path class="cls-10" d="M153.76,174.17l-4.88-2.82c-.39-.23-.34-.62,.11-.88l4.83-2.79c.45-.26,1.14-.29,1.53-.06l4.88,2.82c.39,.23,.34,.62-.11,.88l-4.83,2.79c-.45,.26-1.14,.29-1.53,.06Z"/>
      <path class="cls-10" d="M161.29,178.51l-4.88-2.82c-.39-.23-.34-.62,.11-.88l4.83-2.79c.45-.26,1.14-.29,1.53-.06l4.88,2.82c.39,.23,.34,.62-.11,.88l-4.83,2.79c-.45,.26-1.14,.29-1.53,.06Z"/>
      <path class="cls-10" d="M168.82,182.86l-4.88-2.82c-.39-.23-.34-.62,.11-.88l4.83-2.79c.45-.26,1.14-.29,1.53-.06l4.88,2.82c.39,.23,.34,.62-.11,.88l-4.83,2.79c-.45,.26-1.14,.29-1.53,.06Z"/>
      <path class="cls-10" d="M176.35,187.21l-4.88-2.82c-.39-.23-.34-.62,.11-.88l4.83-2.79c.45-.26,1.14-.29,1.53-.06l4.88,2.82c.39,.23,.34,.62-.11,.88l-4.83,2.79c-.45,.26-1.14,.29-1.53,.06Z"/>
      <path class="cls-10" d="M183.88,191.56l-4.88-2.82c-.39-.23-.34-.62,.11-.88l4.83-2.79c.45-.26,1.14-.29,1.53-.06l4.88,2.82c.39,.23,.34,.62-.11,.88l-4.83,2.79c-.45,.26-1.14,.29-1.53,.06Z"/>
      <path class="cls-10" d="M191.41,195.91l-4.88-2.82c-.39-.23-.34-.62,.11-.88l4.83-2.79c.45-.26,1.14-.29,1.53-.06l4.88,2.82c.39,.23,.34,.62-.11,.88l-4.83,2.79c-.45,.26-1.14,.29-1.53,.06Z"/>
      <path class="cls-10" d="M88.11,161.66l-14.36-8.29c-.39-.23-.34-.62,.11-.88l4.83-2.79c.45-.26,1.14-.29,1.53-.06l14.36,8.29c.39,.23,.34,.62-.11,.88l-4.83,2.79c-.45,.26-1.14,.29-1.53,.06Z"/>
      <path class="cls-10" d="M180.63,215.07l-14.36-8.29c-.39-.23-.34-.62,.11-.88l4.83-2.79c.45-.26,1.14-.29,1.53-.06l14.36,8.29c.39,.23,.34,.62-.11,.88l-4.83,2.79c-.45,.26-1.14,.29-1.53,.06Z"/>
      <path class="cls-10" d="M150.51,207.29l-4.88-2.82c-.39-.23-.34-.62,.11-.88l5.76-3.32c.45-.26,1.14-.29,1.53-.06l4.88,2.82c.39,.23,.34,.62-.11,.88l-5.76,3.32c-.45,.26-1.14,.29-1.53,.06Z"/>
      <path class="cls-10" d="M95.83,175.72l-7.8-4.5c-.39-.23-.34-.62,.11-.88l5.76-3.32c.45-.26,1.14-.29,1.53-.06l7.8,4.5c.39,.23,.34,.62-.11,.88l-5.76,3.32c-.45,.26-1.14,.29-1.53,.06Z"/>
      <path class="cls-10" d="M143.26,203.1l-7.8-4.5c-.39-.23-.34-.62,.11-.88l5.76-3.32c.45-.26,1.14-.29,1.53-.06l7.8,4.5c.39,.23,.34,.62-.11,.88l-5.76,3.32c-.45,.26-1.14,.29-1.53,.06Z"/>
      <path class="cls-10" d="M106.69,181.99l-7.8-4.5c-.39-.23-.34-.62,.11-.88l5.76-3.32c.45-.26,1.14-.29,1.53-.06l7.8,4.5c.39,.23,.34,.62-.11,.88l-5.76,3.32c-.45,.26-1.14,.29-1.53,.06Z"/>
      <path class="cls-10" d="M106.34,173.25l33.9,19.58c.42,.24,.42,.64,0,.88l-5.87,3.39c-.42,.24-1.1,.24-1.52,0l-33.9-19.58,7.39-4.27Z"/>
      <path class="cls-10" d="M171.56,215.17l5.43,3.14c.32,.19,.28,.51-.09,.72l-2.35,1.36c-.37,.21-.93,.24-1.25,.05l-5.43-3.14c-.32-.19-.28-.51,.09-.72l2.35-1.36c.37-.21,.93-.24,1.25-.05Z"/>
      <path class="cls-10" d="M163.96,210.79l5.43,3.14c.32,.19,.28,.51-.09,.72l-2.35,1.36c-.37,.21-.93,.24-1.25,.05l-5.43-3.14c-.32-.19-.28-.51,.09-.72l2.35-1.36c.37-.21,.93-.24,1.25-.05Z"/>
      <path class="cls-10" d="M156.43,206.44l5.43,3.14c.32,.19,.28,.51-.09,.72l-2.35,1.36c-.37,.21-.93,.24-1.25,.05l-5.43-3.14c-.32-.19-.28-.51,.09-.72l2.35-1.36c.37-.21,.93-.24,1.25-.05Z"/>
      <path class="cls-10" d="M168.12,208.39l5.43,3.14c.32,.19,.28,.51-.09,.72l-2.35,1.36c-.37,.21-.93,.24-1.25,.05l-5.43-3.14c-.32-.19-.28-.51,.09-.72l2.35-1.36c.37-.21,.93-.24,1.25-.05Z"/>
      <path class="cls-7" d="M247.82,199.59L103.96,116.53c-2.26-1.31-3.44-4.49-2.64-7.11L133.85,3.79c.81-2.62,3.29-3.68,5.56-2.38l143.86,83.06c2.26,1.31,3.44,4.49,2.64,7.11l-32.53,105.63c-.81,2.62-3.29,3.68-5.56,2.38Z"/>
      <path class="cls-9" d="M246.46,195.89L106.92,115.26c-2.16-1.25-3.29-4.3-2.52-6.8L135.5,7.48c.77-2.51,3.15-3.53,5.32-2.28l139.54,80.63c2.16,1.25,3.29,4.3,2.52,6.8l-31.1,100.98c-.77,2.51-3.15,3.53-5.32,2.28Z"/>
      <path class="cls-8" d="M246.46,195.89L106.92,115.26c-2.16-1.25-3.29-4.3-2.52-6.8L135.5,7.48c.77-2.51,3.15-3.53,5.32-2.28l139.54,80.63c2.16,1.25,3.29,4.3,2.52,6.8l-31.1,100.98c-.77,2.51-3.15,3.53-5.32,2.28Z"/>
      <path class="cls-6" d="M246.46,195.89L106.92,115.26c-2.16-1.25-3.29-4.3-2.52-6.8L135.5,7.48c.77-2.51,3.15-3.53,5.32-2.28l139.54,80.63c2.16,1.25,3.29,4.3,2.52,6.8l-31.1,100.98c-.77,2.51-3.15,3.53-5.32,2.28Z"/>
      <path class="cls-4" d="M238.96,165.03l-94.46-54.54c-1.49-.86-2.26-2.95-1.73-4.67l21.36-69.36c.53-1.72,2.16-2.42,3.65-1.56l94.46,54.54c1.49,.86,2.26,2.95,1.73,4.67l-21.36,69.36c-.53,1.72-2.16,2.42-3.65,1.56Z"/>
      <path class="cls-11" d="M226.2,166.71l-94.46-54.54c-1.49-.86-2.26-2.95-1.73-4.67l21.36-69.36c.53-1.72,2.16-2.42,3.65-1.56l94.46,54.54c1.49,.86,2.26,2.95,1.73,4.67l-21.36,69.36c-.53,1.72-2.16,2.42-3.65,1.56Z"/>
      <path class="cls-12" d="M226.2,166.71l-94.46-54.54c-1.49-.86-2.26-2.95-1.73-4.67l21.36-69.36c.53-1.72,2.16-2.42,3.65-1.56l94.46,54.54c1.49,.86,2.26,2.95,1.73,4.67l-21.36,69.36c-.53,1.72-2.16,2.42-3.65,1.56Z"/>
      <path class="cls-3" d="M249.48,91.12l-94.46-54.54c-.93-.54-1.92-.46-2.66,.09,.45-.01,.91,.09,1.36,.35l94.46,54.54c1.49,.86,2.26,2.95,1.73,4.67l-21.36,69.36c-.2,.64-.55,1.14-.99,1.47,1.01-.03,1.92-.72,2.28-1.91l21.36-69.36c.53-1.72-.25-3.81-1.73-4.67Z"/>
      <path class="cls-8" d="M107.07,223.34c-1.3,0-2.55-.27-3.5-.82h0s-37.85-21.85-37.85-21.85c-1-.58-1.55-1.41-1.55-2.33,0-1.07,.76-2.13,2.09-2.89l19.48-11.25c2.38-1.37,5.87-1.51,7.96-.31l37.84,21.85c1,.58,1.55,1.41,1.56,2.33,0,1.07-.76,2.13-2.09,2.89l-19.48,11.25c-1.29,.75-2.91,1.13-4.46,1.13Zm-16.86-39.16c-1.37,0-2.82,.33-3.93,.97l-19.48,11.25c-.98,.57-1.54,1.28-1.54,1.95s.55,1.12,1.01,1.38l37.85,21.85c1.72,.99,4.86,.85,6.86-.31l19.48-11.25c.98-.57,1.54-1.27,1.54-1.95s-.55-1.12-1.01-1.38l-37.84-21.85c-.77-.44-1.82-.66-2.94-.66Z"/>
      <g>
        <path class="cls-3" d="M178.03,72.97l-5.84-3.37c-.54-.31-.83-1.06-.65-1.68h0c.18-.61,.77-.86,1.31-.55l5.84,3.37c.54,.31,.83,1.06,.65,1.68h0c-.18,.61-.77,.86-1.31,.55Z"/>
        <path class="cls-3" d="M191.94,81l-8.61-4.97c-.54-.31-.83-1.06-.65-1.68h0c.18-.61,.77-.86,1.31-.55l8.61,4.97c.54,.31,.83,1.06,.65,1.68h0c-.18,.61-.77,.86-1.31,.55Z"/>
        <path class="cls-3" d="M166.25,98.97l-5.84-3.37c-.54-.31-.83-1.06-.65-1.68h0c.18-.61,.77-.86,1.31-.55l5.84,3.37c.54,.31,.83,1.06,.65,1.68h0c-.18,.61-.77,.86-1.31,.55Z"/>
        <path class="cls-3" d="M178.65,106.13l-8.61-4.97c-.54-.31-.83-1.06-.65-1.68h0c.18-.61,.77-.86,1.31-.55l8.61,4.97c.54,.31,.83,1.06,.65,1.68h0c-.18,.61-.77,.86-1.31,.55Z"/>
        <path class="cls-3" d="M160.53,68.34l-3.65-2.11c-.54-.31-.83-1.06-.65-1.68h0c.18-.61,.77-.86,1.31-.55l3.65,2.11c.54,.31,.83,1.06,.65,1.68h0c-.18,.61-.77,.86-1.31,.55Z"/>
        <path class="cls-3" d="M171.51,80.14l-11.15-6.44c-.54-.31-.83-1.06-.65-1.68h0c.18-.61,.77-.86,1.31-.55l11.15,6.44c.54,.31,.83,1.06,.65,1.68h0c-.18,.61-.77,.86-1.31,.55Z"/>
        <path class="cls-3" d="M161.23,85.14l-3.65-2.11c-.54-.31-.83-1.06-.65-1.68h0c.18-.61,.77-.86,1.31-.55l3.65,2.11c.54,.31,.83,1.06,.65,1.68h0c-.18,.61-.77,.86-1.31,.55Z"/>
        <path class="cls-3" d="M179.99,117.84l-9.74-5.63c-.54-.31-.83-1.06-.65-1.68h0c.18-.61,.77-.86,1.31-.55l9.74,5.63c.54,.31,.83,1.06,.65,1.68h0c-.18,.61-.77,.86-1.31,.55Z"/>
        <path class="cls-3" d="M157.14,93.71l-2.34-1.35c-.54-.31-.83-1.06-.65-1.68h0c.18-.61,.77-.86,1.31-.55l2.34,1.35c.54,.31,.83,1.06,.65,1.68h0c-.18,.61-.77,.86-1.31,.55Z"/>
        <path class="cls-3" d="M154.93,103.37l-2.91-1.68c-.54-.31-.83-1.06-.65-1.68h0c.18-.61,.77-.86,1.31-.55l2.91,1.68c.54,.31,.83,1.06,.65,1.68h0c-.18,.61-.77,.86-1.31,.55Z"/>
        <path class="cls-3" d="M166.24,109.9l-7.67-4.43c-.54-.31-.83-1.06-.65-1.68h0c.18-.61,.77-.86,1.31-.55l7.67,4.43c.54,.31,.83,1.06,.65,1.68h0c-.18,.61-.77,.86-1.31,.55Z"/>
        <path class="cls-3" d="M156.14,109.53l-5.51-3.18c-.54-.31-.83-1.06-.65-1.68h0c.18-.61,.77-.86,1.31-.55l5.51,3.18c.54,.31,.83,1.06,.65,1.68h0c-.18,.61-.77,.86-1.31,.55Z"/>
        <path class="cls-3" d="M188.35,122.69l-3.54-2.04c-.54-.31-.83-1.06-.65-1.68h0c.18-.61,.77-.86,1.31-.55l3.54,2.04c.54,.31,.83,1.06,.65,1.68h0c-.18,.61-.77,.86-1.31,.55Z"/>
        <path class="cls-3" d="M174.8,92.97l-9.74-5.63c-.54-.31-.83-1.06-.65-1.68h0c.18-.61,.77-.86,1.31-.55l9.74,5.63c.54,.31,.83,1.06,.65,1.68h0c-.18,.61-.77,.86-1.31,.55Z"/>
      </g>
      <path class="cls-1" d="M175.96,88.18l-16.98-9.8c-.54-.31-.83-1.06-.65-1.68h0c.18-.61,.77-.86,1.31-.55l16.98,9.8c.54,.31,.83,1.06,.65,1.68h0c-.18,.61-.77,.86-1.31,.55Z"/>
      <path class="cls-5" d="M165.93,93.32l-9.74-5.63c-.54-.31-.83-1.06-.65-1.68h0c.18-.61,.77-.86,1.31-.55l9.74,5.63c.54,.31,.83,1.06,.65,1.68h0c-.18,.61-.77,.86-1.31,.55Z"/>
      <path class="cls-20" d="M182.19,97.24l-3.54-2.04c-.54-.31-.83-1.06-.65-1.68h0c.18-.61,.77-.86,1.31-.55l3.54,2.04c.54,.31,.83,1.06,.65,1.68h0c-.18,.61-.77,.86-1.31,.55Z"/>
      <path class="cls-2" d="M218.2,96.17l-20.96-12.1c-.54-.31-.83-1.06-.65-1.68h0c.18-.61,.77-.86,1.31-.55l20.96,12.1c.54,.31,.83,1.06,.65,1.68h0c-.18,.61-.77,.86-1.31,.55Z"/>
      <path class="cls-19" d="M165.12,103.79l-11.71-6.76c-.54-.31-.83-1.06-.65-1.68h0c.18-.61,.77-.86,1.31-.55l11.71,6.76c.54,.31,.83,1.06,.65,1.68h0c-.18,.61-.77,.86-1.31,.55Z"/>
      <path class="cls-13" d="M166.89,66.54l-8.61-4.97c-.54-.31-.83-1.06-.65-1.68h0c.18-.61,.77-.86,1.31-.55l8.61,4.97c.54,.31,.83,1.06,.65,1.68h0c-.18,.61-.77,.86-1.31,.55Z"/>
      <path class="cls-15" d="M154.34,113.96l-9.97-5.76c-.54-.31-.83-1.06-.65-1.68h0c.18-.61,.77-.86,1.31-.55l9.97,5.76c.54,.31,.83,1.06,.65,1.68h0c-.18,.61-.77,.86-1.31,.55Z"/>
      <path class="cls-3" d="M220.56,85.38l-4.27-2.46c-.4-.23-.61-.78-.47-1.23h0c.13-.45,.56-.63,.96-.4l4.27,2.46c.4,.23,.61,.78,.47,1.23h0c-.13,.45-.56,.63-.96,.4Z"/>
      <path class="cls-3" d="M228.7,90.09l-4.27-2.46c-.4-.23-.61-.78-.47-1.23h0c.13-.45,.56-.63,.96-.4l4.27,2.46c.4,.23,.61,.78,.47,1.23h0c-.13,.45-.56,.63-.96,.4Z"/>
      <path class="cls-3" d="M236.84,94.79l-4.27-2.46c-.4-.23-.61-.78-.47-1.23h0c.13-.45,.56-.63,.96-.4l4.27,2.46c.4,.23,.61,.78,.47,1.23h0c-.13,.45-.56,.63-.96,.4Z"/>
      <path class="cls-18" d="M240.84,97.1l-.13-.08c-.4-.23-.61-.78-.47-1.23h0c.13-.45,.56-.63,.96-.4l.13,.08c.4,.23,.61,.78,.47,1.23h0c-.13,.45-.56,.63-.96,.4Z"/>
    </g>
  </g>
</svg>