<svg width="27" height="16" viewBox="0 0 27 16" fill="none" xmlns="http://www.w3.org/2000/svg">
<g clip-path="url(#clip0_59_48)">
<path d="M26.8161 8.57157C26.8262 8.55793 26.8351 8.54316 26.8451 8.52952C26.8529 8.51702 26.8607 8.50452 26.8685 8.49088C26.8763 8.4761 26.8841 8.46246 26.8919 8.44769C26.8986 8.43405 26.9053 8.42041 26.912 8.40564C26.9187 8.39086 26.9242 8.37723 26.9298 8.36245C26.9354 8.34768 26.9409 8.3329 26.9465 8.31813C26.951 8.30335 26.9554 8.28971 26.9599 8.27494C26.9643 8.25903 26.9688 8.24425 26.9721 8.22834C26.9755 8.21357 26.9788 8.19879 26.9811 8.18402C26.9844 8.1681 26.9866 8.15219 26.9889 8.13628C26.9911 8.12151 26.9922 8.10673 26.9944 8.09082C26.9955 8.07491 26.9967 8.06013 26.9978 8.04422C26.9978 8.02831 26.9978 8.01354 26.9978 7.99763C26.9978 7.98171 26.9978 7.96694 26.9978 7.95103C26.9978 7.93512 26.9955 7.91921 26.9944 7.90443C26.9933 7.88966 26.9911 7.87488 26.9889 7.85897C26.9866 7.84306 26.9844 7.82715 26.9811 7.81124C26.9777 7.79646 26.9755 7.78169 26.9721 7.76691C26.9688 7.751 26.9643 7.73623 26.9599 7.72031C26.9554 7.70554 26.951 7.69076 26.9465 7.67713C26.9409 7.66235 26.9354 7.64758 26.9298 7.6328C26.9242 7.61803 26.9175 7.60325 26.912 7.58961C26.9053 7.57597 26.8986 7.56234 26.8919 7.5487C26.8841 7.53392 26.8763 7.51915 26.8685 7.50551C26.8607 7.49301 26.8529 7.47937 26.8451 7.46687C26.8362 7.45209 26.8262 7.43846 26.8161 7.42482C26.8072 7.41232 26.7983 7.40095 26.7883 7.38845C26.7771 7.37481 26.7671 7.36231 26.7548 7.34867C26.7504 7.34299 26.7459 7.3373 26.7404 7.33162C26.7348 7.3248 26.7281 7.31912 26.7214 7.31344C26.7147 7.30662 26.7092 7.2998 26.7036 7.29412L20.4966 1.3069C20.4876 1.29781 20.4776 1.28872 20.4676 1.28076C19.4446 0.371542 17.2571 -0.769529 15.5454 0.718183C15.1476 1.06369 15.0997 1.674 15.4384 2.07974C15.7783 2.48548 16.3756 2.53435 16.7735 2.18885C17.6271 1.4467 19.0858 2.62414 19.2139 2.72983L23.6736 7.03385H0.947212C0.424574 7.03385 0 7.46687 0 7.9999C0 8.53293 0.424574 8.96595 0.947212 8.96595H23.6747L19.2161 13.2688C19.0769 13.3836 17.6248 14.5497 16.7746 13.811C16.3767 13.4654 15.7783 13.5143 15.4396 13.9201C15.1008 14.3258 15.1476 14.9361 15.5465 15.2816C16.1449 15.801 16.8002 15.9999 17.4443 15.9999C18.6445 15.9999 19.8023 15.31 20.4687 14.719C20.4787 14.7099 20.4876 14.702 20.4977 14.6929L26.7058 8.70227C26.7125 8.69545 26.7181 8.68863 26.7248 8.68181C26.7303 8.67613 26.737 8.67045 26.7426 8.66363C26.747 8.65795 26.7515 8.65226 26.7571 8.64658C26.7682 8.63408 26.7794 8.62044 26.7905 8.6068C26.7994 8.59544 26.8094 8.58294 26.8184 8.57043L26.8161 8.57157Z" fill="#97FFD0"/>
</g>
<defs>
<clipPath id="clip0_59_48">
<rect width="27" height="16" fill="white"/>
</clipPath>
</defs>
</svg>
