<?xml version="1.0" encoding="UTF-8"?>
<svg id="Layer_2" data-name="Layer 2" xmlns="http://www.w3.org/2000/svg" xmlns:xlink="http://www.w3.org/1999/xlink" viewBox="0 0 315.65 140.93">
  <defs>
    <style>
      .cls-1 {
        fill: url(#radial-gradient);
      }
    </style>
    <radialGradient id="radial-gradient" cx="-16.84" cy="-26.83" fx="-16.84" fy="-26.83" r="685.16" gradientUnits="userSpaceOnUse">
      <stop offset="0" stop-color="#97ffd0"/>
      <stop offset="1" stop-color="#221e1f"/>
    </radialGradient>
  </defs>
  <g id="Layer_1-2" data-name="Layer 1">
    <g id="UX_text" data-name="UX text">
      <path class="cls-1" d="M159.28,0V2.12c-20.64,7.14-29.63,35.72-30.43,64.82v8.2c0,88.11-98.69,87.31-98.69,0,0-2.91,.26-6.35,0-8.2C29.63,37.84,20.64,9.26,0,2.12V0H65.88V2.12c-21.17,7.41-30.96,35.72-31.75,64.82v8.2c.79,65.88,89.96,65.62,91.02,0v-8.2c-.79-29.1-10.58-57.42-31.75-64.82V0h65.88Z"/>
      <path class="cls-1" d="M315.65,138.64v1.59h-56.62v-2.12s1.06-.26,1.32-.79c4.5-5.82-15.08-42.6-28.58-67.73-2.12-3.97-3.97-7.41-5.82-10.58-3.17,7.14-6.09,14.55-9,21.7-4.76,11.38-7.41,19.05-7.14,30.43,0,12.96,4.23,25.4,12.96,26.72v2.38h-50.8v-2.38c8.2,0,30.96-35.46,41.01-59,0,0,4.76-10.85,10.58-23.81C197.38,11.64,177.8,6.62,166.15,3.17V.53c4.5,0,48.68,.26,55.3,0V3.44c-20.9,8.2,3.7,47.63,19.05,65.88,2.91,3.44,6.35,7.41,10.05,11.38,2.91-6.88,5.56-13.76,8.47-20.64,4.5-11.38,7.14-18.79,6.88-30.43,0-12.7-4.23-25.4-12.96-26.72V.53h50.8V2.91c-8.2,0-30.96,35.46-41.01,59,0,0-4.23,9.79-9.52,21.7,22.75,23.81,53.45,50.54,61.12,54.5,.53,.53,1.32,.53,1.32,.53Z"/>
    </g>
  </g>
</svg>