<?xml version="1.0" encoding="UTF-8"?>
<svg id="Layer_2" data-name="Layer 2" xmlns="http://www.w3.org/2000/svg" xmlns:xlink="http://www.w3.org/1999/xlink" viewBox="0 0 391.26 392.74">
  <defs>
    <style>
      .cls-1 {
        fill: url(#linear-gradient-2);
      }

      .cls-2 {
        fill: #1b1b1b;
      }

      .cls-3 {
        fill: #2d2d2d;
      }

      .cls-4 {
        fill: url(#linear-gradient-3);
      }

      .cls-5 {
        fill: url(#linear-gradient);
      }

      .cls-6 {
        fill: #b08d57;
      }
    </style>
    <linearGradient id="linear-gradient" x1="86.02" y1="53.55" x2="264.88" y2="53.55" gradientUnits="userSpaceOnUse">
      <stop offset="0" stop-color="#895e1a"/>
      <stop offset="1" stop-color="#ad8a56"/>
    </linearGradient>
    <linearGradient id="linear-gradient-2" x1="285.8" y1="214.15" x2="391.26" y2="214.15" xlink:href="#linear-gradient"/>
    <linearGradient id="linear-gradient-3" x1="216.8" y1="139.27" x2="328" y2="139.27" xlink:href="#linear-gradient"/>
  </defs>
  <g id="Layer_1-2" data-name="Layer 1">
    <g>
      <path class="cls-3" d="M3.1,357.35c1.11-2.67,3.08-4.69,5.07-6.68,67.54-67.55,135.09-135.1,202.64-202.64,.81-.81,1.74-1.51,2.62-2.26,2.67-.49,3.35,1.81,4.33,3.35,8.93,14.05,7.11,28.21-3.41,40.9-.63,.77-1.38,1.44-2.08,2.15-55.91,55.92-111.84,111.81-167.72,167.76-6.68,6.69-14.27,11-24,9.48-7.61-1.2-14.41-4.03-17.45-12.06Z"/>
      <path class="cls-2" d="M3.1,357.35c2.63,2.22,4.25,5.35,7.35,7.24,11.05,6.75,23.38,4.36,32.14-4.42,48.44-48.56,96.97-97.03,145.48-145.53,8.34-8.34,16.75-16.6,24.99-25.03,11.97-12.25,12.08-32.26,.38-43.83,2.4-2.65,4.79-5.3,7.19-7.95,1.93-1.32,3.14,.21,4.24,1.28,9.77,9.61,19.47,19.3,29.08,29.07,.88,.9,1.98,1.87,1.3,3.43-70.86,70.81-141.73,141.6-212.54,212.45-6.52,6.52-13.84,9.98-23.24,8.23-16.05-2.98-24.38-20.68-16.35-34.94Z"/>
      <path class="cls-5" d="M228.47,106.89c-21.57-19.41-43.89-37.9-67.25-55.13-23.11-17.03-46.95-32.95-71.6-47.67-.83-.5-1.63-1.05-3.6-2.32,14.74-2.24,28.19-2.63,41.66,.4,1.25,1.08,2.55,2.11,3.53,3.49,3.98,5.61,9.43,9.35,15.75,11.75,28.1,10.68,54.6,24.32,78.99,41.98,6.53,4.73,13.73,5.51,21.31,2.67,1.67-.63,3.24-1.83,5.21-1.14,4,3.01,7.99,6.01,11.99,9.02,1.38,2.71-.92,3.98-2.32,5.38-10.3,10.36-20.54,20.78-31.01,30.97-.8,.55-1.61,1.12-2.66,.6Z"/>
      <path class="cls-1" d="M391.21,267.46c-.88-6.09-1.34-12.28-4.04-17.97-1-.9-2.19-1.48-3.4-2.03-10.86-4.92-18.24-13.09-22.3-24.63-6.63-18.82-15.61-36.8-28.07-52.39-6.67-8.35-7.7-17.1-2.91-26.13,.76-1.44,1.88-2.83,.88-4.61-2.51-4.36-5.99-7.98-9.15-11.84-1.79-.61-2.8,.7-3.81,1.7-10.24,10.13-20.44,20.31-30.55,30.57-1.19,1.21-2.93,2.48-1.55,4.65,10.75,12.14,21.4,24.38,31.6,36.99,24.3,30.03,46.47,61.55,66.52,94.57,.49,.81,1.09,2.52,1.81,3.34,.82,.94,2.24,1.25,3.19,.44,.84-.72,2.05-2.99,1.79-5.6v-27.06Z"/>
      <path class="cls-4" d="M322.22,127.86c-11.69,11.55-23.38,23.08-35.03,34.67-.52,.52-.6,1.49-.88,2.25-3.24,.27-4.51,3.17-6.52,5.02-8.15,7.52-15.25,8.1-24.56,1.8-10.81-10.93-21.61-21.86-32.46-32.76-.53-.53-1.43-.69-2.16-1.03-.03-.16-.01-.36-.09-.49-6.77-10.84-3.9-19.75,5.43-27.42,1-.82,1.69-2.01,2.52-3.02,.66-.34,1.32-.67,1.98-1.01,2.65,.57,4.03,2.8,5.78,4.5,20.65,20.02,52.13,20.93,74.1,2.34,3.91-3.31,7.26-7.25,11.61-10.05,.55-.15,.99,.01,1.33,.47,6.56,9.09,6.36,13.88-1.05,24.72Z"/>
      <path class="cls-6" d="M322.26,102.9c-9.32,10.99-20.3,19.75-34.64,22.83-22.89,4.9-42.08-1.8-57.17-19.84,10.26-10.38,20.53-20.76,30.76-31.17,1.35-1.37,3.28-2.43,3.24-4.77,.78-.23,1.73-.24,2.31-.71,7.51-6.1,15.04-5.17,22.63-.22,1.65,.49,2.81,1.67,3.97,2.83,8.85,8.85,17.72,17.67,26.52,26.57,1.19,1.21,3.01,2.24,2.38,4.48Z"/>
      <path class="cls-6" d="M387.18,249.5c-10.25-2.42-17.95-8.42-22.76-17.59-4.84-9.23-8.75-18.95-13.32-28.33-5.73-11.78-12.47-23-19.88-33.81-6.4-9.34-6.88-18.68-.5-28.2,.35-.53,.44-1.24,.64-1.86,16.73,21.34,30.79,44.28,41.98,69.01,5.41,11.96,9.82,24.23,13.25,36.88,.34,1.26,.39,2.61,.58,3.91Z"/>
      <path class="cls-6" d="M252.47,60.92c-10.74,6.3-20.38,4.69-30.38-2.58-22.24-16.15-46.51-28.7-72.26-38.35-9.34-3.5-17.68-8.25-22.15-17.82,14.76,1.54,28.75,6.12,42.51,11.33,29.66,11.24,56.44,27.62,81.7,46.62,.25,.19,.39,.53,.58,.8Z"/>
      <path class="cls-2" d="M322.26,102.9c-9.81-9.91-19.64-19.81-29.42-29.75-1.26-1.28-2.91-2.25-3.45-4.14,2.6-2.37,5.2-4.74,7.8-7.11,2.65-.54,3.83,1.62,5.31,3.03,9.74,9.26,20.7,9.93,31.45,1.93,1.45-1.08,2.65-3.3,5.09-1.83,4.17,9.35,3.13,18.14-3.46,25.9-3.73,4.39-8.18,8.16-12.3,12.21-.34-.08-.67-.16-1.01-.25Z"/>
      <path class="cls-3" d="M339.04,65.03c-5.05,2.58-8.97,6.96-15,8.1-8.18,1.56-14.92-.69-20.99-5.91-2-1.72-3.91-3.55-5.86-5.33,13.81-15.38,31.9-14.02,41.85,3.13Z"/>
    </g>
  </g>
</svg>