<svg width="25" height="25" viewBox="0 0 25 25" fill="none" xmlns="http://www.w3.org/2000/svg">
<path fill-rule="evenodd" clip-rule="evenodd" d="M11.1048 0.0677552C7.76907 0.464824 4.72624 2.18027 2.65136 4.83349C-0.241935 8.53319 -0.812903 13.5025 1.16371 17.7809C2.31919 20.2818 4.61343 22.6034 7.08956 23.7772C7.80134 24.1146 9.1489 24.6049 9.36525 24.6052C9.43897 24.6054 9.4607 24.2153 9.44124 23.2416L9.41397 21.878H8.43503C7.2541 21.878 6.66476 21.7244 6.23188 21.3041C5.91772 20.9989 5.85027 20.8705 5.3273 19.5804C5.13067 19.0952 4.91559 18.7484 4.64115 18.474C4.15409 17.9869 4.12382 17.7872 4.53698 17.7877C4.97804 17.7881 5.38793 18.0729 6.2107 18.9504L6.95266 19.7417L7.9266 19.7731C8.4623 19.7903 9.07836 19.7777 9.29562 19.7452C9.66632 19.6896 9.7085 19.6525 9.98058 19.1419C10.1422 18.8387 10.5009 18.3845 10.7907 18.1163L11.3109 17.6347L10.4575 17.4835C7.10456 16.8893 5.24148 15.055 5.24148 12.3477C5.24148 11.2924 5.5921 10.2951 6.27979 9.39414L6.60286 8.97098L6.45759 8.3112C6.24152 7.32962 6.24797 6.10623 6.47159 5.65162C6.68795 5.21183 6.97384 5.15192 7.76207 5.381C8.49739 5.59481 9.05054 5.89533 9.56369 6.35994L10.0093 6.76338L10.5904 6.5973C12.0178 6.18905 13.9855 6.1885 15.455 6.59602L16.0553 6.76247L16.4786 6.37385C17.0109 5.88506 17.6032 5.56063 18.2894 5.38191C19.5744 5.0472 19.7475 5.23274 19.7283 6.92428C19.7211 7.55797 19.6616 8.20511 19.5863 8.46846L19.4567 8.92189L19.9203 9.60476C20.5413 10.5193 20.7991 11.3261 20.7991 12.3546C20.7991 15.0915 18.8627 16.9641 15.4551 17.5225L14.8058 17.6289L15.3275 18.1399C15.9301 18.7302 16.4441 19.707 16.5976 20.5539C16.6514 20.8505 16.6954 21.806 16.6954 22.6772V24.2612L16.9417 24.1994C17.0772 24.1654 17.5239 23.9772 17.9344 23.7813C20.4251 22.5926 22.7084 20.2819 23.8639 17.7809C24.6637 16.0497 25 14.4908 25 12.5149C25 10.4348 24.6066 8.72917 23.7207 6.96973C23.0417 5.62108 22.4627 4.82758 21.3319 3.6961C19.8228 2.18591 18.3977 1.29096 16.4827 0.650813C14.8454 0.10348 12.7305 -0.125779 11.1048 0.0677552Z" fill="#1B1B1B"/>
</svg>
