<svg width="26" height="26" viewBox="0 0 26 26" fill="none" xmlns="http://www.w3.org/2000/svg">
<path d="M0.00133847 11.6061C0.571528 10.0214 1.80025 9.33557 3.38232 9.27931C5.17186 9.21501 6.96408 9.26457 8.75495 9.26457C8.80314 9.32217 8.84999 9.37977 8.89817 9.43737C8.2035 10.0777 7.4901 10.7006 6.81684 11.3623C5.51451 12.6416 4.22154 13.9302 2.95267 15.243C2.66758 15.5377 2.42264 15.5511 2.07463 15.4386C1.01724 15.097 0.418942 14.3133 0 13.3462V11.6061H0.00133847Z" fill="#1B1B1B"/>
<path d="M6.09955 22.3131C3.74785 22.3131 2.11625 19.7693 2.97823 17.926C3.2834 17.2737 3.72108 16.7111 4.22836 16.2034C8.2478 12.1847 12.2699 8.16877 16.292 4.15414C16.7525 3.69468 17.2678 3.31023 17.854 3.02357C19.1818 2.37388 20.3944 2.58821 21.4358 3.66521C22.4637 4.72881 22.635 5.97727 21.9257 7.27663C21.5817 7.90756 21.1279 8.45945 20.6233 8.96446C16.6869 12.9094 12.7464 16.8477 8.80192 20.7846C7.96538 21.6192 7.02845 22.2742 6.09821 22.3131H6.09955Z" fill="#1B1B1B"/>
<path d="M16.1758 15.5376C17.7726 13.9609 19.3707 12.3856 20.9675 10.809C21.3155 10.4647 21.693 10.1432 21.9941 9.76146C22.306 9.36763 22.6326 9.3904 23.0462 9.53508C24.2923 9.97177 24.9508 10.9282 25.0003 12.4164C25.0458 13.7975 24.394 14.8558 23.2054 15.3326C22.5777 15.5845 21.9192 15.689 21.2486 15.693C19.5889 15.7037 17.9305 15.6957 16.2708 15.6957C16.2387 15.6421 16.2079 15.5885 16.1758 15.5363V15.5376Z" fill="#1B1B1B"/>
<path d="M6.95871 7.7026C5.91337 7.7026 4.86802 7.68385 3.82267 7.71198C3.42381 7.72269 3.22437 7.56329 3.05573 7.22572C2.35704 5.83125 2.66088 4.58949 4.02344 3.37452C5.04336 2.4663 6.37514 2.39397 7.58913 3.20574C8.97178 4.13136 9.99972 5.4401 11.1923 6.57202C11.361 6.73277 11.3422 6.84663 11.1883 7.01139C10.8175 7.40924 10.4575 7.72135 9.8284 7.67581C8.87675 7.60749 7.91572 7.6584 6.95871 7.6584C6.95871 7.67313 6.95871 7.68787 6.95871 7.7026Z" fill="#1B1B1B"/>
<path d="M18.1151 17.2496C19.1404 17.2496 20.1656 17.2683 21.1896 17.2402C21.5844 17.2295 21.7892 17.3741 21.9619 17.7157C22.6204 19.0204 22.437 20.2635 21.3944 21.3271C20.3611 22.3814 19.1256 22.5783 17.7992 21.9098C16.8837 21.4477 16.1971 20.7163 15.4917 20.0023C15.0848 19.5897 14.6551 19.1973 14.2737 18.7619C14.0876 18.5503 13.6031 18.3922 13.8173 18.064C14.0515 17.705 14.3326 17.2777 14.9028 17.2884C15.9722 17.3085 17.043 17.2938 18.1138 17.2938V17.2496H18.1151Z" fill="#1B1B1B"/>
<path d="M12.496 25.0002C11.0357 24.9962 10.0573 24.2822 9.58214 22.9092C9.46034 22.5569 9.47506 22.3184 9.7789 22.0358C10.6088 21.2629 11.4051 20.4511 12.1908 19.6326C12.4532 19.358 12.6098 19.358 12.8734 19.6313C13.6926 20.4806 14.5251 21.3178 15.3844 22.1255C15.6481 22.3734 15.5691 22.5997 15.4982 22.8449C15.0953 24.238 14.0192 25.0069 12.4973 25.0015L12.496 25.0002Z" fill="#1B1B1B"/>
<path d="M12.5562 0.000203455C14.0914 0.0149385 15.1903 0.830723 15.533 2.19438C15.5972 2.45158 15.5878 2.6284 15.3683 2.83737C14.513 3.65181 13.6805 4.49171 12.856 5.3383C12.6231 5.57808 12.4772 5.61425 12.2216 5.35036C11.3837 4.48635 10.5257 3.6411 9.65572 2.80924C9.42684 2.58955 9.47636 2.3779 9.54061 2.1408C9.91404 0.771783 11.0236 -0.0145316 12.5562 0.000203455Z" fill="#1B1B1B"/>
</svg>
