<svg width="114" height="94" viewBox="0 0 114 94" fill="none" xmlns="http://www.w3.org/2000/svg">
<path d="M105.205 49.3248V46.5342H104.872C101.893 32.2152 80.0812 21.4184 53.8188 21.9075C27.8892 22.3883 6.71072 33.7071 3.82966 47.8781H3.46387L3.4803 50.9524H3.49264C3.49264 51.1291 3.47619 51.3058 3.4803 51.4825C3.7721 67.2934 26.7877 79.689 54.8791 79.1712C82.9746 78.6492 105.509 65.407 105.218 49.5961C105.218 49.5057 105.205 49.4193 105.201 49.3289L105.205 49.3248Z" fill="#2D2D2D"/>
<path d="M52.2814 3.72103C52.2814 3.72103 52.2732 3.72103 52.2691 3.72103C52.265 3.72103 52.2609 3.72103 52.2568 3.72103C52.2568 3.72103 52.2568 3.71692 52.2568 3.71281C49.125 2.75108 44.9041 2.36886 40.6873 2.29077C28.9288 5.38144 18.8923 12.356 12.2219 21.665C13.9111 20.0292 15.7113 18.5209 17.6347 17.1893C35.0731 5.08964 52.1129 3.72103 52.1129 3.72103C52.1129 3.72103 43.3095 17.3372 39.8283 47.0644C38.4597 58.7243 37.8885 68.1319 37.6624 74.9174C43.0464 75.8997 48.8373 76.3888 54.8666 76.2737C58.9642 76.1997 62.9385 75.8462 66.7443 75.2626C66.5306 68.4525 65.9593 58.9215 64.566 47.0644C61.0808 17.3372 52.2814 3.72103 52.2814 3.72103V3.72103Z" fill="#D8B88D"/>
<path d="M52.2774 3.71274C52.2774 3.71274 52.2774 3.71685 52.2774 3.72096C52.2774 3.72096 69.3213 5.08957 86.7556 17.1892C94.8768 22.8239 100.988 31.4548 104.502 40.5624C101.231 22.1252 86.846 7.25961 68.0636 2.30303C62.5974 2.17974 56.4572 2.42633 52.2692 3.71685L52.2774 3.71274Z" fill="#D8B88D"/>
<path d="M52.2691 3.6922C52.8363 2.55375 53.5637 1.48105 54.509 0.523438C54.4597 0.523438 54.4063 0.523438 54.3569 0.523438C52.9555 0.523438 51.5745 0.589197 50.2018 0.696056C51.0649 1.60846 51.7348 2.62773 52.2691 3.69631V3.6922Z" fill="#D8B88D"/>
<path d="M52.0965 3.74569L52.1129 3.71692C52.1129 3.71692 35.069 5.08553 17.6347 17.1852C15.7154 18.5168 13.9111 20.0251 12.2219 21.6609C7.16671 28.7176 4.03905 37.1019 3.56641 46.152C5.86797 38.787 9.41483 31.1384 14.9057 25.031C29.7795 8.47622 50.0415 4.14846 52.0965 3.74569V3.74569Z" fill="#B08D57"/>
<path d="M30.3344 33.3659C25.4436 44.4504 23.3229 59.4763 22.3159 70.2978C26.8533 72.3117 32.0359 73.8899 37.6624 74.9174C37.8844 68.1319 38.4597 58.7242 39.8283 47.0643C43.0587 19.499 50.8594 5.79238 51.9773 3.94702C49.9758 5.50469 38.4145 15.0603 30.3385 33.37L30.3344 33.3659Z" fill="#B08D57"/>
<path d="M52.0966 3.74557C50.0416 4.14834 29.7837 8.4761 14.9058 25.0309C9.419 31.1383 5.86803 38.7869 3.56647 46.1519C3.55414 46.4108 3.5336 46.6656 3.52538 46.9245C3.48017 47.4753 3.4555 48.026 3.46372 48.5849C3.62812 57.4583 10.952 65.2548 22.3119 70.2936C23.3188 59.4722 25.4395 44.4462 30.3304 33.3617C38.4064 15.0561 49.9717 5.50051 51.9692 3.93873C52.1664 3.78667 52.2733 3.70447 52.2733 3.70447C52.2733 3.70447 52.2034 3.7168 52.0883 3.74146L52.0966 3.74557Z" fill="url(#paint0_linear_45_108)"/>
<path d="M89.6571 25.0351C97.392 33.6454 101.28 45.3094 103.236 54.9266C104.33 52.7648 104.995 50.5084 105.164 48.1863H105.226C105.226 47.8493 105.201 47.5123 105.189 47.1753C105.189 47.015 105.205 46.8588 105.201 46.7026C105.189 46.1396 105.143 45.5847 105.078 45.034C104.962 43.5257 104.769 42.0337 104.506 40.5665C100.992 31.4589 94.8808 22.828 86.7596 17.1933C69.9664 5.54165 53.5472 3.84013 52.3553 3.73328C53.7157 3.9922 74.4873 8.16378 89.653 25.0433L89.6571 25.0351Z" fill="#B08D57"/>
<path d="M52.2977 3.72107H52.2854C52.2854 3.72107 61.0889 17.3373 64.57 47.0644C65.9592 58.9216 66.5304 68.4525 66.7483 75.2627C72.3789 74.3955 77.6273 73.0022 82.3331 71.1938C81.3591 60.319 79.2589 44.7588 74.2325 33.366C65.4454 13.4452 52.532 3.88958 52.2977 3.72107V3.72107Z" fill="#B08D57"/>
<path d="M52.2855 3.71277C52.2855 3.71277 52.2938 3.72106 52.298 3.72106C52.3063 3.72106 52.327 3.72106 52.3601 3.72521C52.3145 3.71692 52.2855 3.71277 52.2855 3.71277Z" fill="#D8B88D"/>
<path d="M103.236 54.9267C101.28 45.3095 97.392 33.6455 89.6571 25.0352C74.4915 8.15569 53.7199 3.98411 52.3595 3.72518C52.3225 3.72518 52.3061 3.72107 52.2979 3.72107C52.528 3.88958 65.4414 13.4493 74.2326 33.366C79.259 44.7588 81.3592 60.3149 82.3333 71.1938C92.3409 67.347 99.8621 61.6013 103.24 54.9267H103.236Z" fill="url(#paint1_linear_45_108)"/>
<path d="M52.2692 3.69227C51.7349 2.62369 51.065 1.60442 50.2019 0.692017C46.9345 0.942723 43.7575 1.48113 40.6915 2.28667C44.9083 2.36476 49.1292 2.74698 52.261 3.70871C52.261 3.70049 52.2692 3.69638 52.2733 3.68816L52.2692 3.69227Z" fill="url(#paint2_linear_45_108)"/>
<path d="M52.2692 3.71691C52.2692 3.71691 52.2774 3.71691 52.2816 3.71691C52.2816 3.71691 52.2816 3.71276 52.2816 3.70862C52.2816 3.70862 52.2733 3.70862 52.2692 3.70862V3.71691Z" fill="#D8B88D"/>
<path d="M52.2692 3.6922C52.2692 3.6922 52.2774 3.70453 52.2815 3.71274C56.4695 2.42634 62.6098 2.17563 68.076 2.29893C63.7564 1.16048 59.2108 0.535767 54.5091 0.523438C53.5638 1.48105 52.8363 2.55375 52.2692 3.6922V3.6922Z" fill="url(#paint3_linear_45_108)"/>
<path d="M52.2567 3.72107C52.2567 3.72107 52.265 3.72107 52.2692 3.72107C52.2692 3.72107 52.2609 3.72107 52.2567 3.72107C52.2567 3.72107 52.2567 3.72521 52.2567 3.72936V3.72107Z" fill="#D8B88D"/>
<path d="M52.2692 3.69226C52.2692 3.69226 52.2609 3.7047 52.2567 3.71299C52.2567 3.71299 52.265 3.71299 52.2692 3.71299C52.2692 3.71299 52.2774 3.71299 52.2816 3.71299C52.2816 3.7047 52.2733 3.70055 52.2692 3.69226Z" fill="#D8B88D"/>
<path d="M86.3323 55.7323L93.1342 51.8073C93.6603 51.5031 94.1453 51.4661 94.5316 51.6511C94.5316 51.6511 94.6549 51.7127 94.7084 51.7538L111.95 61.9177L101.794 83.8935L83.8293 73.4173V59.9285C83.8293 58.2681 85.087 56.4556 86.3323 55.7364V55.7323Z" fill="#1B1B1B"/>
<path d="M113.125 77.3505V63.8617C113.125 62.2013 112.106 61.4286 110.856 62.1479L104.054 66.0728C102.809 66.7921 101.786 68.7402 101.786 70.4047V83.8935L113.121 77.3505H113.125Z" fill="#2D2D2D"/>
<path d="M110.154 79.0643V67.1126C110.154 66.1468 109.566 65.6988 108.838 66.118L106.072 67.7127C105.349 68.1319 104.757 69.258 104.757 70.2238V82.1755L110.15 79.0602L110.154 79.0643Z" fill="#D8B88D"/>
<path d="M109.718 79.3149V67.4619C109.718 66.7098 109.262 66.3645 108.699 66.6892L106.22 68.1195C105.657 68.4441 105.201 69.3154 105.201 70.0676V81.9206L109.718 79.3108V79.3149Z" fill="#B08D57"/>
<path d="M19.2827 48.8029C18.2182 48.1905 17.2236 48.0097 16.3647 48.1864V48.1782L16.34 48.1905C15.9413 48.2768 15.5756 48.4371 15.2468 48.6714C15.0947 48.7782 2.88818 55.7199 2.88818 55.7199L12.5383 81.7234L25.0777 74.5557V59.8791C25.0777 55.6295 22.4679 50.6482 19.2827 48.807V48.8029Z" fill="#1B1B1B"/>
<path d="M23.6353 60.6723C23.6353 56.4226 21.0254 51.4414 17.8402 49.6001C16.7758 48.9877 15.7812 48.8069 14.9222 48.9836V48.9754L14.8975 48.9877C14.4372 49.0864 14.018 49.2919 13.6522 49.5878C13.9522 49.3946 14.281 49.2508 14.6345 49.1727L14.655 49.1603V49.1686C15.5181 48.9918 16.5127 49.1686 17.5772 49.7851C20.7665 51.6263 23.3722 56.6076 23.3722 60.8572L23.364 75.5297L23.6394 75.3735V60.6682L23.6353 60.6723Z" fill="#D8B88D"/>
<path d="M21.235 62.0409C21.235 57.7913 18.6252 52.81 15.44 50.9688C14.3755 50.3564 13.3809 50.1755 12.5219 50.3523V50.3441L12.4972 50.3564C12.0369 50.455 11.6177 50.6605 11.252 50.9564C11.552 50.7633 11.8808 50.6194 12.2342 50.5413L12.2548 50.529V50.5372C13.1179 50.3605 14.1125 50.5372 15.1769 51.1537C18.3662 52.995 20.9719 57.9762 20.9719 62.2259L20.9596 76.9066L21.2391 76.7463V62.0368L21.235 62.0409Z" fill="#D8B88D"/>
<path d="M18.835 63.3849C18.835 59.1353 16.2251 54.154 13.04 52.3128C11.9755 51.7004 10.9809 51.5195 10.1219 51.6963V51.688L10.0973 51.7004C9.63694 51.799 9.21771 52.0045 8.85193 52.3004C9.15195 52.1073 9.48075 51.9634 9.83421 51.8853L9.85475 51.873V51.8812C10.7178 51.7045 11.7124 51.8812 12.7769 52.4977C15.9662 54.339 18.5719 59.3202 18.5719 63.5699L18.5596 78.2506L18.8391 78.0903V63.3808L18.835 63.3849Z" fill="#D8B88D"/>
<path d="M16.4346 64.7741C16.4346 60.5244 13.8248 55.5432 10.6396 53.7019C9.57509 53.0895 8.58047 52.9087 7.72149 53.0854V53.0772L7.69683 53.0895C7.23652 53.1882 6.81732 53.3937 6.45154 53.6896C6.75156 53.4964 7.08034 53.3526 7.43379 53.2745L7.45436 53.2622V53.2704C8.31745 53.0936 9.31205 53.2704 10.3765 53.8869C13.5658 55.7281 16.1715 60.7094 16.1715 64.959L16.1592 79.6397L16.4387 79.4794V64.77L16.4346 64.7741Z" fill="#D8B88D"/>
<path d="M14.0345 66.1179C14.0345 61.8683 11.4247 56.887 8.23954 55.0458C7.17506 54.4334 6.18047 54.2526 5.32149 54.4293V54.4211L5.29684 54.4334C4.83652 54.532 4.4173 54.7375 4.05151 55.0335C4.35154 54.8403 4.68034 54.6964 5.03379 54.6184L5.05434 54.606V54.6142C5.91742 54.4375 6.91202 54.6142 7.9765 55.2307C11.1658 57.072 13.7715 62.0532 13.7715 66.3029L13.7509 81.0247L14.0345 80.8603V66.1138V66.1179Z" fill="#D8B88D"/>
<path d="M13.2207 49.9249L13.1016 50.0318C13.1386 49.9948 13.1796 49.9619 13.2207 49.9249Z" fill="#D8B88D"/>
<path d="M0.948364 75.0284V60.3519C0.948364 56.1022 3.55816 54.1294 6.74336 55.9707C9.93267 57.8119 12.5384 62.7932 12.5384 67.0428V81.7194L0.948364 75.0284V75.0284Z" fill="#2D2D2D"/>
<path d="M101.441 70.1951C101.441 68.5347 102.46 66.5825 103.709 65.8632L110.511 61.9382C111.037 61.6341 111.522 61.5971 111.909 61.7821C111.97 61.8108 112.032 61.8437 112.085 61.8848L112.324 62.0246C111.933 61.8314 111.444 61.8643 110.91 62.1725L104.108 66.0975C102.863 66.8167 101.839 68.7648 101.839 70.4294V83.9141L101.445 83.6839V70.1951H101.441Z" fill="#D8B88D"/>
<path d="M95.5796 66.7879C95.5796 65.1275 96.5989 63.1752 97.8483 62.456L104.65 58.531C105.176 58.2269 105.661 58.1899 106.048 58.3748C106.109 58.4036 106.171 58.4365 106.224 58.4776L106.463 58.6173C106.072 58.4242 105.583 58.457 105.049 58.7653L98.2469 62.6903C97.0016 63.4095 95.9782 65.3576 95.9782 67.0221V80.5068L95.5837 80.2767V66.7879H95.5796Z" fill="#D8B88D"/>
<path d="M89.7026 63.3603C89.7026 61.6999 90.7219 59.7476 91.9713 59.0284L98.7733 55.1034C99.2993 54.7993 99.7843 54.7623 100.171 54.9472C100.232 54.976 100.294 55.0089 100.347 55.05L100.586 55.1897C100.195 54.9965 99.7062 55.0294 99.1719 55.3377L92.37 59.2627C91.1247 59.9819 90.1054 61.93 90.1054 63.5945V77.0792L89.7067 76.8491V63.3603H89.7026Z" fill="#D8B88D"/>
<path d="M83.8293 59.9285C83.8293 58.2681 84.8486 56.3159 86.098 55.5966L92.9 51.6716C93.426 51.3675 93.911 51.3305 94.2974 51.5155C94.359 51.5442 94.4207 51.5771 94.4741 51.6182L94.7125 51.758C94.322 51.5648 93.8329 51.5977 93.2986 51.9059L86.4967 55.8309C85.2514 56.5501 84.228 58.4982 84.228 60.1628V73.6475L83.8293 73.4173V59.9285V59.9285Z" fill="#D8B88D"/>
<path d="M105.484 58.0913L105.382 58.0297C105.419 58.0461 105.452 58.0666 105.484 58.0913Z" fill="#D8B88D"/>
<path d="M2.88428 76.138V61.2149C2.88428 59.9983 3.62819 59.4394 4.54059 59.9655L8.0176 61.9752C8.93001 62.5013 9.67389 63.9192 9.67389 65.1357V80.0589L2.88839 76.1421L2.88428 76.138Z" fill="#D8B88D"/>
<path d="M3.4349 76.4381V61.6547C3.4349 60.7094 4.01029 60.2738 4.7172 60.6847L7.83665 62.4849C8.54356 62.8959 9.11894 63.9932 9.11894 64.9344V79.7384L3.43079 76.4381H3.4349Z" fill="#B08D57"/>
<path d="M4.32666 64.6877C4.32666 66.0317 5.14454 67.5976 6.15559 68.1812C7.16663 68.7648 7.98451 68.1442 7.98451 66.8002C7.98451 65.4563 7.16663 63.8904 6.15559 63.3068C5.14454 62.7232 4.32666 63.3438 4.32666 64.6877Z" fill="#D8B88D"/>
<path d="M4.58972 64.8151C4.58972 65.9659 5.28841 67.3016 6.15149 67.7989C7.01458 68.2962 7.71326 67.7701 7.71326 66.6193C7.71326 65.4686 7.01458 64.1328 6.15149 63.6355C5.28841 63.1382 4.58972 63.6643 4.58972 64.8151Z" fill="white"/>
<path d="M4.58972 64.8151C4.58972 65.9659 5.28841 67.3016 6.15149 67.7989C7.01458 68.2962 7.71326 67.7701 7.71326 66.6193C7.71326 65.4686 7.01458 64.1328 6.15149 63.6355C5.28841 63.1382 4.58972 63.6643 4.58972 64.8151Z" fill="#FDFFFF"/>
<path d="M108.616 70.3143C108.616 71.1692 108.098 72.1597 107.457 72.5296C106.816 72.8994 106.298 72.5049 106.298 71.6541C106.298 70.8034 106.816 69.8088 107.457 69.4389C108.098 69.069 108.616 69.4635 108.616 70.3143Z" fill="#D8B88D"/>
<path d="M108.448 70.3965C108.448 71.1281 108.004 71.9747 107.458 72.2912C106.911 72.6077 106.467 72.2707 106.467 71.5432C106.467 70.8157 106.911 69.965 107.458 69.6485C108.004 69.3321 108.448 69.6691 108.448 70.3965Z" fill="white"/>
<path d="M108.448 70.3965C108.448 71.1281 108.004 71.9747 107.458 72.2912C106.911 72.6077 106.467 72.2707 106.467 71.5432C106.467 70.8157 106.911 69.965 107.458 69.6485C108.004 69.3321 108.448 69.6691 108.448 70.3965Z" fill="#FDFFFF"/>
<path d="M27.4779 83.4003V77.6546L32.0646 75.0037V80.7411L27.4779 83.4003Z" fill="#D8B88D"/>
<path d="M27.478 83.4003V77.6546L22.8872 75.0037V80.7411L27.478 83.4003Z" fill="#B08D57"/>
<path d="M23.4833 80.359V75.9491L23.3477 75.871V80.4577L27.0178 82.5825V82.4058L23.4833 80.359Z" fill="#895E1A"/>
<path d="M27.0177 82.4057L27.0136 77.9916L23.4832 75.949V80.3589L27.0177 82.4057Z" fill="#895E1A"/>
<path d="M31.4729 80.359V75.9491L31.6044 75.871V80.4577L27.9342 82.5825V82.4058L31.4729 80.359Z" fill="#A57F6B"/>
<path d="M27.9343 82.4057L27.9384 77.9916L31.473 75.949V80.3589L27.9343 82.4057Z" fill="#895E1A"/>
<path d="M22.8872 75.0037L27.478 77.6546L32.0647 75.0037L27.478 72.3486L22.8872 75.0037Z" fill="#D8B88D"/>
<path d="M31.1153 75.0572L31.2674 74.9668L27.4781 72.7803L23.6887 74.9668L23.8408 75.0572L27.4781 72.9529L31.1153 75.0572Z" fill="#895E1A"/>
<path d="M31.1153 75.0572L27.478 72.9529L23.8407 75.0572L27.478 77.1573L31.1153 75.0572Z" fill="#B08D57"/>
<path d="M30.8893 75.1845L24.0833 75.1968L23.7997 75.0037H31.2058L30.8893 75.1845Z" fill="#895E1A"/>
<path d="M31.5961 75.0695L23.2817 75.0818L23.3187 74.8599L31.6372 74.8475L31.5961 75.0695Z" fill="#D8B88D"/>
<path d="M27.363 77.3464L27.3424 72.5419L27.5726 72.5337L27.589 77.3382L27.363 77.3464Z" fill="#D8B88D"/>
<path d="M31.4729 75.949L28.2424 82.2289L27.9342 82.4838V82.3687L31.218 76.0928L31.4729 75.949Z" fill="#A57F6B"/>
<path d="M31.8469 75.5667L27.9342 83.0386L27.7493 82.9358L31.6578 75.464L31.8469 75.5667Z" fill="#D8B88D"/>
<path d="M31.8469 80.7987L27.6753 77.934L27.7904 77.7203L31.9579 80.5808L31.8469 80.7987Z" fill="#D8B88D"/>
<path d="M23.4871 75.949L26.7175 82.2289L27.0175 82.5084V82.3523L23.7378 76.0928L23.4871 75.949Z" fill="#895E1A"/>
<path d="M23.1129 75.5667L27.0215 83.0386L27.2105 82.9358L23.302 75.464L23.1129 75.5667Z" fill="#B08D57"/>
<path d="M23.1129 80.7987L27.2804 77.934L27.1694 77.7203L23.002 80.5808L23.1129 80.7987Z" fill="#B08D57"/>
<path d="M32.529 86.3224L32.5249 80.5767L37.1157 77.9258V83.6633L32.529 86.3224Z" fill="#D8B88D"/>
<path d="M32.5292 86.3224L32.5251 80.5767L27.9343 77.9258V83.6633L32.5292 86.3224Z" fill="#B08D57"/>
<path d="M28.5302 83.2811V78.8671L28.3987 78.7931V83.3757L32.0688 85.5046V85.3279L28.5302 83.2811Z" fill="#895E1A"/>
<path d="M32.0689 85.3279L32.0648 80.9138L28.5303 78.8671V83.2811L32.0689 85.3279Z" fill="#895E1A"/>
<path d="M36.524 83.2811V78.8671L36.6555 78.7931V83.3757L32.9854 85.5046V85.3279L36.524 83.2811Z" fill="#A57F6B"/>
<path d="M32.9855 85.3279L32.9896 80.9138L36.5241 78.8671V83.2811L32.9855 85.3279Z" fill="#895E1A"/>
<path d="M27.9342 77.9259L32.525 80.5768L37.1158 77.9259L32.5291 75.2709L27.9342 77.9259Z" fill="#D8B88D"/>
<path d="M36.1622 77.9793L36.3142 77.8889L32.529 75.7024L28.7396 77.8889L28.8917 77.9793L32.529 75.875L36.1622 77.9793Z" fill="#895E1A"/>
<path d="M36.1623 77.9793L32.5291 75.875L28.8918 77.9793L32.5291 80.0795L36.1623 77.9793Z" fill="#B08D57"/>
<path d="M35.9403 78.1066L29.1302 78.1148L28.8507 77.9258H36.2568L35.9403 78.1066Z" fill="#895E1A"/>
<path d="M36.6473 77.9916L28.3329 77.9998L28.3699 77.782L36.6843 77.7697L36.6473 77.9916Z" fill="#D8B88D"/>
<path d="M32.4099 80.2685L32.3934 75.464L32.6236 75.4558L32.64 80.2603L32.4099 80.2685Z" fill="#D8B88D"/>
<path d="M36.524 78.8671L33.2936 85.1512L32.9854 85.406V85.2868L36.2692 79.015L36.524 78.8671Z" fill="#A57F6B"/>
<path d="M36.898 78.489L32.9854 85.9608L32.8004 85.8581L36.709 78.3862L36.898 78.489Z" fill="#D8B88D"/>
<path d="M36.898 83.7166L32.7264 80.8561L32.8415 80.6383L37.009 83.5029L36.898 83.7166Z" fill="#D8B88D"/>
<path d="M28.5383 78.8671L31.7687 85.1512L32.0687 85.4306V85.2744L28.789 79.015L28.5383 78.8671Z" fill="#895E1A"/>
<path d="M28.1643 78.489L32.0729 85.9608L32.2619 85.8581L28.3493 78.3862L28.1643 78.489Z" fill="#B08D57"/>
<path d="M28.1643 83.7166L32.3317 80.8561L32.2208 80.6383L28.0492 83.5029L28.1643 83.7166Z" fill="#B08D57"/>
<path d="M27.4779 77.4162V71.6706L32.0646 69.0197V74.7571L27.4779 77.4162Z" fill="#D8B88D"/>
<path d="M27.478 77.4162V71.6706L22.8872 69.0197V74.7571L27.478 77.4162Z" fill="#B08D57"/>
<path d="M23.4833 74.3749V69.9649L23.3477 69.8868V74.4735L27.0178 76.5984V76.4216L23.4833 74.3749Z" fill="#895E1A"/>
<path d="M27.0177 76.4216L27.0136 72.0075L23.4832 69.9648V74.3748L27.0177 76.4216Z" fill="#895E1A"/>
<path d="M31.4729 74.3749V69.9649L31.6044 69.8868V74.4735L27.9342 76.5984V76.4216L31.4729 74.3749Z" fill="#A57F6B"/>
<path d="M27.9343 76.4216L27.9384 72.0075L31.473 69.9648V74.3748L27.9343 76.4216Z" fill="#895E1A"/>
<path d="M22.8872 69.0195L27.478 71.6704L32.0647 69.0195L27.478 66.3645L22.8872 69.0195Z" fill="#D8B88D"/>
<path d="M31.1153 69.073L31.2674 68.9826L27.4781 66.7961L23.6887 68.9826L23.8408 69.073L27.4781 66.9729L31.1153 69.073Z" fill="#895E1A"/>
<path d="M31.1153 69.0731L27.478 66.9729L23.8407 69.0731L27.478 71.1733L31.1153 69.0731Z" fill="#B08D57"/>
<path d="M30.8893 69.2005L24.0833 69.2128L23.7997 69.0197H31.2058L30.8893 69.2005Z" fill="#895E1A"/>
<path d="M31.5961 69.0853L23.2817 69.0977L23.3187 68.8757L31.6372 68.8634L31.5961 69.0853Z" fill="#D8B88D"/>
<path d="M27.363 71.3623L27.3424 66.5578L27.5726 66.5496L27.589 71.3541L27.363 71.3623Z" fill="#D8B88D"/>
<path d="M31.4729 69.9648L28.2424 76.2448L27.9342 76.4996V76.3846L31.218 70.1087L31.4729 69.9648Z" fill="#A57F6B"/>
<path d="M31.8469 69.5827L27.9342 77.0546L27.7493 76.956L31.6578 69.48L31.8469 69.5827Z" fill="#D8B88D"/>
<path d="M31.8469 74.8145L27.6753 71.9499L27.7904 71.7362L31.9579 74.5967L31.8469 74.8145Z" fill="#D8B88D"/>
<path d="M23.4871 69.9648L26.7175 76.2448L27.0175 76.5243V76.3722L23.7378 70.1087L23.4871 69.9648Z" fill="#895E1A"/>
<path d="M23.1129 69.5827L27.0215 77.0546L27.2105 76.956L23.302 69.48L23.1129 69.5827Z" fill="#B08D57"/>
<path d="M23.1129 74.8145L27.2804 71.9499L27.1694 71.7362L23.002 74.5967L23.1129 74.8145Z" fill="#B08D57"/>
<path d="M78.5852 85.2621V79.5164L83.176 76.8655V82.6029L78.5852 85.2621Z" fill="#D8B88D"/>
<path d="M78.5852 85.2621V79.5164L73.9944 76.8655V82.6029L78.5852 85.2621Z" fill="#B08D57"/>
<path d="M74.5903 82.2207V77.8108L74.4547 77.7327V82.3193L78.1249 84.4442V84.2675L74.5903 82.2207Z" fill="#895E1A"/>
<path d="M78.125 84.2675V79.8534L74.5905 77.8108V82.2207L78.125 84.2675Z" fill="#895E1A"/>
<path d="M82.5799 82.2207V77.8108L82.7156 77.7327V82.3193L79.0454 84.4442V84.2675L82.5799 82.2207Z" fill="#A57F6B"/>
<path d="M79.0455 84.2675V79.8534L82.5801 77.8108V82.2207L79.0455 84.2675Z" fill="#895E1A"/>
<path d="M73.9943 76.8656L78.5851 79.5165L83.1759 76.8656L78.5851 74.2106L73.9943 76.8656Z" fill="#D8B88D"/>
<path d="M82.2225 76.919L82.3745 76.8327L78.5893 74.6421L74.7999 76.8327L74.952 76.919L78.5893 74.8188L82.2225 76.919Z" fill="#895E1A"/>
<path d="M82.2224 76.919L78.5892 74.8188L74.9519 76.919L78.5851 79.0192L82.2224 76.919Z" fill="#B08D57"/>
<path d="M82.0004 77.0463L75.1903 77.0586L74.9108 76.8655H82.3169L82.0004 77.0463Z" fill="#895E1A"/>
<path d="M82.7073 76.9313L74.3929 76.9436L74.4299 76.7217L82.7443 76.7094L82.7073 76.9313Z" fill="#D8B88D"/>
<path d="M78.4702 79.2081L78.4537 74.4077L78.6839 74.3954L78.7003 79.1999L78.4702 79.2081Z" fill="#D8B88D"/>
<path d="M82.5799 77.8108L79.3537 84.0908L79.0454 84.3456V84.2305L82.3292 77.9546L82.5799 77.8108Z" fill="#A57F6B"/>
<path d="M82.9582 77.4285L79.0455 84.9044L78.8564 84.8017L82.7691 77.3298L82.9582 77.4285Z" fill="#D8B88D"/>
<path d="M82.9581 82.6605L78.7865 79.7959L78.8975 79.5822L83.069 82.4427L82.9581 82.6605Z" fill="#D8B88D"/>
<path d="M74.5985 77.8108L77.8248 84.0908L78.1248 84.3702V84.2182L74.8492 77.9546L74.5985 77.8108Z" fill="#895E1A"/>
<path d="M74.2205 77.4285L78.1331 84.9044L78.3222 84.8017L74.4095 77.3298L74.2205 77.4285Z" fill="#B08D57"/>
<path d="M74.2204 82.6605L78.392 79.7959L78.2811 79.5822L74.1095 82.4427L74.2204 82.6605Z" fill="#B08D57"/>
<path d="M91.3915 84.5469V78.8013L95.9782 76.1462V81.8878L91.3915 84.5469Z" fill="#D8B88D"/>
<path d="M91.3916 84.5469V78.8013L86.8008 76.1462V81.8878L91.3916 84.5469Z" fill="#B08D57"/>
<path d="M87.3967 81.5056V77.0915L87.2611 77.0134V81.6001L90.9313 83.7291V83.5523L87.3967 81.5056Z" fill="#895E1A"/>
<path d="M90.9314 83.5524L90.9273 79.1342L87.3969 77.0916V81.5056L90.9314 83.5524Z" fill="#895E1A"/>
<path d="M95.3864 81.5056V77.0915L95.5179 77.0134V81.6001L91.8478 83.7291V83.5523L95.3864 81.5056Z" fill="#A57F6B"/>
<path d="M91.8478 83.5524L91.8519 79.1342L95.3864 77.0916V81.5056L91.8478 83.5524Z" fill="#895E1A"/>
<path d="M86.8007 76.1463L91.3914 78.8013L95.9781 76.1463L91.3914 73.4954L86.8007 76.1463Z" fill="#D8B88D"/>
<path d="M95.0289 76.1998L95.181 76.1134L91.3917 73.9229L87.6023 76.1134L87.7544 76.1998L91.3917 74.0996L95.0289 76.1998Z" fill="#895E1A"/>
<path d="M95.0292 76.1998L91.3919 74.0996L87.7546 76.1998L91.3919 78.3041L95.0292 76.1998Z" fill="#B08D57"/>
<path d="M94.8026 76.3312L87.9966 76.3394L87.713 76.1462H95.1191L94.8026 76.3312Z" fill="#895E1A"/>
<path d="M95.5098 76.2162L87.1954 76.2244L87.2324 76.0066L95.5509 75.9943L95.5098 76.2162Z" fill="#D8B88D"/>
<path d="M91.2763 78.493L91.2557 73.6885L91.4859 73.6803L91.5023 78.4848L91.2763 78.493Z" fill="#D8B88D"/>
<path d="M95.3865 77.0916L92.1561 83.3756L91.8479 83.6305V83.5113L95.1317 77.2395L95.3865 77.0916Z" fill="#A57F6B"/>
<path d="M95.7606 76.7133L91.8479 84.1852L91.663 84.0825L95.5715 76.6106L95.7606 76.7133Z" fill="#D8B88D"/>
<path d="M95.7606 81.9413L91.589 79.0807L91.7041 78.8629L95.8715 81.7275L95.7606 81.9413Z" fill="#D8B88D"/>
<path d="M87.4009 77.0916L90.6313 83.3756L90.9313 83.6551V83.4989L87.6516 77.2395L87.4009 77.0916Z" fill="#895E1A"/>
<path d="M87.0269 76.7133L90.9354 84.1852L91.1244 84.0825L87.2159 76.6106L87.0269 76.7133Z" fill="#B08D57"/>
<path d="M87.0266 81.9413L91.1941 79.0807L91.0831 78.8629L86.9156 81.7275L87.0266 81.9413Z" fill="#B08D57"/>
<path d="M22.6156 86.2484V80.5027L27.2064 77.8477V83.5892L22.6156 86.2484Z" fill="#D8B88D"/>
<path d="M22.6157 86.2484V80.5027L18.0249 77.8477V83.5892L22.6157 86.2484Z" fill="#B08D57"/>
<path d="M18.6209 83.2071V78.7931L18.4852 78.715V83.3017L22.1554 85.4306V85.2539L18.6209 83.2071Z" fill="#895E1A"/>
<path d="M22.1555 85.2539V80.8357L18.621 78.7931V83.2072L22.1555 85.2539Z" fill="#895E1A"/>
<path d="M26.6105 83.2071V78.7931L26.7461 78.715V83.3017L23.0759 85.4306V85.2539L26.6105 83.2071Z" fill="#A57F6B"/>
<path d="M23.0758 85.2539V80.8357L26.6104 78.7931V83.2072L23.0758 85.2539Z" fill="#895E1A"/>
<path d="M18.025 77.8478L22.6158 80.5028L27.2066 77.8478L22.6158 75.1969L18.025 77.8478Z" fill="#D8B88D"/>
<path d="M26.253 77.9012L26.405 77.8149L22.6198 75.6243L18.8304 77.8149L18.9825 77.9012L22.6198 75.801L26.253 77.9012Z" fill="#895E1A"/>
<path d="M26.253 77.9012L22.6198 75.801L18.9825 77.9012L22.6157 80.0055L26.253 77.9012Z" fill="#B08D57"/>
<path d="M26.0312 78.0326L19.221 78.0408L18.9415 77.8477H26.3476L26.0312 78.0326Z" fill="#895E1A"/>
<path d="M26.7383 77.9135L18.424 77.9258L18.4609 77.708L26.7753 77.6957L26.7383 77.9135Z" fill="#D8B88D"/>
<path d="M22.5007 80.1946L22.4843 75.3901L22.7144 75.3818L22.7309 80.1863L22.5007 80.1946Z" fill="#D8B88D"/>
<path d="M26.6105 78.7931L23.3842 85.0772L23.0759 85.332V85.2128L26.3598 78.941L26.6105 78.7931Z" fill="#A57F6B"/>
<path d="M26.9888 78.4149L23.0761 85.8867L22.8871 85.784L26.7997 78.3121L26.9888 78.4149Z" fill="#D8B88D"/>
<path d="M26.9889 83.6427L22.8173 80.7822L22.9282 80.5643L27.0998 83.429L26.9889 83.6427Z" fill="#D8B88D"/>
<path d="M18.6294 78.7931L21.8557 85.0772L22.1557 85.3567V85.2005L18.8801 78.941L18.6294 78.7931Z" fill="#895E1A"/>
<path d="M18.2513 78.4149L22.164 85.8867L22.3531 85.784L18.4404 78.3121L18.2513 78.4149Z" fill="#B08D57"/>
<path d="M18.2512 83.6427L22.4228 80.7822L22.3118 80.5643L18.1403 83.429L18.2512 83.6427Z" fill="#B08D57"/>
<path d="M27.6667 89.1706V83.4249L32.2575 80.7699V86.5074L27.6667 89.1706Z" fill="#D8B88D"/>
<path d="M27.6666 89.1706V83.4249L23.0758 80.7699V86.5074L27.6666 89.1706Z" fill="#B08D57"/>
<path d="M23.672 86.1251V81.7152L23.5364 81.6371V86.2238L27.2066 88.3486V88.176L23.672 86.1251Z" fill="#895E1A"/>
<path d="M27.2064 88.176V83.7578L23.6719 81.7152V86.1252L27.2064 88.176Z" fill="#895E1A"/>
<path d="M31.6616 86.1251V81.7152L31.7972 81.6371V86.2238L28.1271 88.3486V88.176L31.6616 86.1251Z" fill="#A57F6B"/>
<path d="M28.127 88.176V83.7578L31.6615 81.7152V86.1252L28.127 88.176Z" fill="#895E1A"/>
<path d="M23.0759 80.7699L27.6667 83.4249L32.2575 80.7699L27.6667 78.119L23.0759 80.7699Z" fill="#D8B88D"/>
<path d="M31.3041 80.8234L31.4562 80.7371L27.671 78.5465L23.8816 80.7371L24.0337 80.8234L27.671 78.7232L31.3041 80.8234Z" fill="#895E1A"/>
<path d="M31.3042 80.8233L27.671 78.7231L24.0337 80.8233L27.6669 82.9276L31.3042 80.8233Z" fill="#B08D57"/>
<path d="M31.0822 80.9548L24.272 80.9631L23.9926 80.7699H31.3986L31.0822 80.9548Z" fill="#895E1A"/>
<path d="M31.7892 80.8356L23.4707 80.848L23.5118 80.6301L31.8262 80.6178L31.7892 80.8356Z" fill="#D8B88D"/>
<path d="M27.5517 83.1167L27.5353 78.3122L27.7654 78.304L27.7819 83.1085L27.5517 83.1167Z" fill="#D8B88D"/>
<path d="M31.6616 81.7152L28.4312 87.9993L28.1271 88.25V88.1349L31.4109 81.8632L31.6616 81.7152Z" fill="#A57F6B"/>
<path d="M32.0357 81.337L28.1272 88.8089L27.9381 88.7061L31.8508 81.2343L32.0357 81.337Z" fill="#D8B88D"/>
<path d="M32.0356 86.5649L27.8682 83.7003L27.9791 83.4866L32.1507 86.3512L32.0356 86.5649Z" fill="#D8B88D"/>
<path d="M23.6761 81.7152L26.9065 87.9993L27.2066 88.2747V88.1226L23.931 81.8632L23.6761 81.7152Z" fill="#895E1A"/>
<path d="M23.3021 81.337L27.2148 88.8089L27.3997 88.7061L23.4912 81.2343L23.3021 81.337Z" fill="#B08D57"/>
<path d="M23.3021 86.5649L27.4737 83.7003L27.3586 83.4866L23.1912 86.3512L23.3021 86.5649Z" fill="#B08D57"/>
<path d="M36.1666 91.8462L36.1625 86.1046L40.7533 83.4496V89.1871L36.1666 91.8462Z" fill="#D8B88D"/>
<path d="M36.1665 91.8462L36.1624 86.1046L31.5757 83.4496V89.1871L36.1665 91.8462Z" fill="#B08D57"/>
<path d="M32.1675 88.8049V84.395L32.036 84.3169V88.9036L35.7062 91.0284V90.8558L32.1675 88.8049Z" fill="#895E1A"/>
<path d="M35.7062 90.8557L35.702 86.4375L32.1675 84.3949V88.8048L35.7062 90.8557Z" fill="#895E1A"/>
<path d="M40.1613 88.8049V84.395L40.2928 84.3169V88.9036L36.6227 91.0284V90.8558L40.1613 88.8049Z" fill="#A57F6B"/>
<path d="M36.6227 90.8557L36.6268 86.4375L40.1613 84.3949V88.8048L36.6227 90.8557Z" fill="#895E1A"/>
<path d="M31.5756 83.4496L36.1622 86.1046L40.753 83.4496L36.1663 80.7987L31.5756 83.4496Z" fill="#D8B88D"/>
<path d="M39.8038 83.5031L39.9559 83.4168L36.1666 81.2262L32.3772 83.4168L32.5293 83.5031L36.1666 81.4029L39.8038 83.5031Z" fill="#895E1A"/>
<path d="M39.8039 83.503L36.1666 81.4028L32.5293 83.503L36.1666 85.6073L39.8039 83.503Z" fill="#B08D57"/>
<path d="M39.5778 83.6345L32.7717 83.6428L32.4882 83.4496H39.8943L39.5778 83.6345Z" fill="#895E1A"/>
<path d="M40.2845 83.5154L31.9701 83.5278L32.0071 83.3058L40.3256 83.2976L40.2845 83.5154Z" fill="#D8B88D"/>
<path d="M36.0513 85.7963L36.0308 80.9918L36.2609 80.9795L36.2773 85.784L36.0513 85.7963Z" fill="#D8B88D"/>
<path d="M40.1614 84.3949L36.931 90.6749L36.6228 90.9297V90.8146L39.9066 84.5387L40.1614 84.3949Z" fill="#A57F6B"/>
<path d="M40.5355 84.0168L36.6228 91.4887L36.4379 91.3859L40.3464 83.9141L40.5355 84.0168Z" fill="#D8B88D"/>
<path d="M40.5355 89.2446L36.3639 86.38L36.479 86.1663L40.6464 89.0309L40.5355 89.2446Z" fill="#D8B88D"/>
<path d="M32.1759 84.3949L35.4063 90.6749L35.7063 90.9543V90.8023L32.4266 84.5387L32.1759 84.3949Z" fill="#895E1A"/>
<path d="M31.802 84.0168L35.7106 91.4887L35.8996 91.3859L31.987 83.9141L31.802 84.0168Z" fill="#B08D57"/>
<path d="M31.802 89.2446L35.9694 86.38L35.8585 86.1663L31.6869 89.0309L31.802 89.2446Z" fill="#B08D57"/>
<path d="M20.5238 93.2313V87.4856L25.1146 84.8306V90.5721L20.5238 93.2313Z" fill="#D8B88D"/>
<path d="M20.5239 93.2313V87.4856L15.9331 84.8306V90.5721L20.5239 93.2313Z" fill="#B08D57"/>
<path d="M16.5289 90.1899V85.7758L16.3933 85.6978V90.2844L20.0635 92.4134V92.2367L16.5289 90.1899Z" fill="#895E1A"/>
<path d="M20.0637 92.2366V87.8184L16.5292 85.7758V90.1898L20.0637 92.2366Z" fill="#895E1A"/>
<path d="M24.5187 90.1899V85.7758L24.6543 85.6978V90.2844L20.9841 92.4134V92.2367L24.5187 90.1899Z" fill="#A57F6B"/>
<path d="M20.984 92.2366V87.8184L24.5185 85.7758V90.1898L20.984 92.2366Z" fill="#895E1A"/>
<path d="M15.9332 84.8305L20.524 87.4855L25.1148 84.8305L20.524 82.1796L15.9332 84.8305Z" fill="#D8B88D"/>
<path d="M24.1611 84.884L24.3131 84.7976L20.5279 82.6071L16.7385 84.7976L16.8906 84.884L20.5279 82.7838L24.1611 84.884Z" fill="#895E1A"/>
<path d="M24.1613 84.884L20.5282 82.7838L16.8909 84.884L20.5241 86.9883L24.1613 84.884Z" fill="#B08D57"/>
<path d="M23.9392 85.0155L17.1291 85.0237L16.8496 84.8306H24.2557L23.9392 85.0155Z" fill="#895E1A"/>
<path d="M24.646 84.9004L16.3275 84.9086L16.3686 84.6908L24.683 84.6785L24.646 84.9004Z" fill="#D8B88D"/>
<path d="M20.4088 87.1774L20.3923 82.3728L20.6225 82.3646L20.6389 87.1691L20.4088 87.1774Z" fill="#D8B88D"/>
<path d="M24.5188 85.7758L21.2884 92.0598L20.9843 92.3147V92.1955L24.2681 85.9237L24.5188 85.7758Z" fill="#A57F6B"/>
<path d="M24.8928 85.3977L20.9842 92.8695L20.7952 92.7668L24.7078 85.2949L24.8928 85.3977Z" fill="#D8B88D"/>
<path d="M24.8929 90.6255L20.7255 87.7649L20.8364 87.5471L25.008 90.4117L24.8929 90.6255Z" fill="#D8B88D"/>
<path d="M16.5336 85.7758L19.764 92.0598L20.064 92.3393V92.1831L16.7884 85.9237L16.5336 85.7758Z" fill="#895E1A"/>
<path d="M16.1593 85.3977L20.0719 92.8695L20.2569 92.7668L16.3483 85.2949L16.1593 85.3977Z" fill="#B08D57"/>
<path d="M16.1594 90.6255L20.331 87.7649L20.2159 87.5471L16.0485 90.4117L16.1594 90.6255Z" fill="#B08D57"/>
<defs>
<linearGradient id="paint0_linear_45_108" x1="3.46372" y1="37.0031" x2="52.2774" y2="37.0031" gradientUnits="userSpaceOnUse">
<stop stop-color="#895E1A"/>
<stop offset="1" stop-color="#AD8A56"/>
</linearGradient>
<linearGradient id="paint1_linear_45_108" x1="52.2979" y1="37.4554" x2="103.236" y2="37.4554" gradientUnits="userSpaceOnUse">
<stop stop-color="#895E1A"/>
<stop offset="1" stop-color="#AD8A56"/>
</linearGradient>
<linearGradient id="paint2_linear_45_108" x1="40.6915" y1="2.20447" x2="52.2692" y2="2.20447" gradientUnits="userSpaceOnUse">
<stop stop-color="#895E1A"/>
<stop offset="1" stop-color="#AD8A56"/>
</linearGradient>
<linearGradient id="paint3_linear_45_108" x1="52.2692" y1="2.11809" x2="68.0719" y2="2.11809" gradientUnits="userSpaceOnUse">
<stop stop-color="#895E1A"/>
<stop offset="1" stop-color="#AD8A56"/>
</linearGradient>
</defs>
</svg>
