<svg width="206" height="97" viewBox="0 0 206 97" fill="none" xmlns="http://www.w3.org/2000/svg">
<path d="M159.05 49.05V46.2594H158.718C155.738 31.9404 133.926 21.1436 107.664 21.6327C81.7344 22.1135 60.5559 33.4323 57.6749 47.6033H57.3091L57.3255 50.6776H57.3378C57.3378 50.8543 57.3214 51.031 57.3255 51.2078C57.6173 67.0187 80.6329 79.4142 108.724 78.8964C136.82 78.3744 159.355 65.1322 159.063 49.3213C159.063 49.2309 159.05 49.1446 159.046 49.0542L159.05 49.05Z" fill="#2D2D2D"/>
<path d="M106.127 3.44198C106.127 3.44198 106.119 3.44198 106.115 3.44198C106.11 3.44198 106.106 3.44198 106.102 3.44198C106.102 3.44198 106.102 3.43787 106.102 3.43376C102.97 2.47203 98.7496 2.08981 94.5328 2.01172C82.7743 5.10239 72.7378 12.0769 66.0674 21.3859C67.7566 19.7502 69.5567 18.2418 71.4802 16.9102C88.9186 4.81058 105.958 3.44198 105.958 3.44198C105.958 3.44198 97.1549 17.0582 93.6738 46.7853C92.3052 58.4452 91.7339 67.8528 91.5079 74.6383C96.8919 75.6206 102.683 76.1097 108.712 75.9946C112.81 75.9206 116.784 75.5672 120.59 74.9836C120.376 68.1734 119.805 58.6425 118.411 46.7853C114.926 17.0582 106.127 3.44198 106.127 3.44198Z" fill="#D8B88D"/>
<path d="M106.123 3.43381C106.123 3.43381 106.123 3.43792 106.123 3.44203C106.123 3.44203 123.167 4.81064 140.601 16.9103C148.722 22.545 154.834 31.1759 158.348 40.2835C155.076 21.8463 140.691 6.98068 121.909 2.0241C116.443 1.90081 110.303 2.1474 106.115 3.43792L106.123 3.43381Z" fill="#D8B88D"/>
<path d="M106.115 3.41742C106.682 2.27896 107.409 1.20627 108.355 0.248657C108.305 0.248657 108.252 0.248657 108.202 0.248657C106.801 0.248657 105.42 0.314417 104.047 0.421275C104.91 1.33368 105.58 2.35294 106.115 3.42153V3.41742Z" fill="#D8B88D"/>
<path d="M105.942 3.47079L105.958 3.44202C105.958 3.44202 88.9142 4.81062 71.4799 16.9103C69.5606 18.2419 67.7563 19.7502 66.0671 21.386C61.0119 28.4427 57.8843 36.827 57.4116 45.8771C59.7132 38.5121 63.26 30.8635 68.7509 24.7561C83.6248 8.20132 103.887 3.87356 105.942 3.47079V3.47079Z" fill="#B08D57"/>
<path d="M84.1796 33.0911C79.2888 44.1756 77.1681 59.2016 76.1611 70.023C80.6985 72.0369 85.8811 73.6151 91.5076 74.6426C91.7295 67.8571 92.3049 58.4494 93.6736 46.7896C96.904 19.2242 104.705 5.5176 105.822 3.67224C103.821 5.22991 92.2597 14.7855 84.1837 33.0953L84.1796 33.0911Z" fill="#B08D57"/>
<path d="M105.942 3.47079C103.887 3.87356 83.6289 8.20132 68.751 24.7561C63.2642 30.8635 59.7132 38.5121 57.4117 45.8771C57.3994 46.136 57.3788 46.3908 57.3706 46.6497C57.3254 47.2005 57.3007 47.7512 57.3089 48.3102C57.4733 57.1835 64.7972 64.9801 76.1571 70.0188C77.164 59.1974 79.2847 44.1715 84.1756 33.087C92.2516 14.7813 103.817 5.22573 105.814 3.66395C106.012 3.51189 106.119 3.42969 106.119 3.42969C106.119 3.42969 106.049 3.44202 105.934 3.46668L105.942 3.47079Z" fill="url(#paint0_linear_45_473)"/>
<path d="M143.502 24.7561C151.237 33.3664 155.125 45.0304 157.082 54.6477C158.175 52.4858 158.841 50.2295 159.009 47.9074H159.071C159.071 47.5704 159.046 47.2334 159.034 46.8963C159.034 46.7361 159.05 46.5799 159.046 46.4237C159.034 45.8606 158.989 45.3058 158.923 44.7551C158.808 43.2467 158.615 41.7548 158.352 40.2876C154.838 31.18 148.726 22.5491 140.605 16.9144C123.812 5.26272 107.393 3.5612 106.201 3.45435C107.561 3.71327 128.333 7.88485 143.498 24.7643L143.502 24.7561Z" fill="#B08D57"/>
<path d="M106.143 3.44202H106.131C106.131 3.44202 114.935 17.0582 118.416 46.7854C119.805 58.6425 120.376 68.1735 120.594 74.9836C126.225 74.1164 131.473 72.7232 136.179 70.9148C135.205 60.0399 133.105 44.4797 128.078 33.087C119.291 13.1661 106.378 3.61052 106.143 3.44202V3.44202Z" fill="#B08D57"/>
<path d="M106.131 3.43384C106.131 3.43384 106.139 3.44213 106.144 3.44213C106.152 3.44213 106.173 3.44213 106.206 3.44628C106.16 3.43798 106.131 3.43384 106.131 3.43384Z" fill="#D8B88D"/>
<path d="M157.082 54.6477C155.126 45.0304 151.238 33.3664 143.503 24.7561C128.337 7.87663 107.565 3.70505 106.205 3.44612C106.168 3.44612 106.152 3.44202 106.143 3.44202C106.373 3.61052 119.287 13.1702 128.078 33.087C133.104 44.4797 135.205 60.0358 136.179 70.9148C146.186 67.0679 153.708 61.3222 157.086 54.6477H157.082Z" fill="url(#paint1_linear_45_473)"/>
<path d="M106.115 3.41737C105.58 2.34878 104.91 1.32952 104.047 0.417114C100.78 0.66782 97.6029 1.20622 94.5369 2.01177C98.7537 2.08986 102.975 2.47208 106.106 3.43381C106.106 3.42559 106.115 3.42148 106.119 3.41326L106.115 3.41737Z" fill="url(#paint2_linear_45_473)"/>
<path d="M106.115 3.43798C106.115 3.43798 106.123 3.43798 106.127 3.43798C106.127 3.43798 106.127 3.43383 106.127 3.42969C106.127 3.42969 106.119 3.42969 106.115 3.42969V3.43798Z" fill="#D8B88D"/>
<path d="M106.115 3.41742C106.115 3.41742 106.123 3.42975 106.127 3.43797C110.315 2.15156 116.455 1.90085 121.921 2.02415C117.602 0.885697 113.056 0.260987 108.354 0.248657C107.409 1.20627 106.682 2.27896 106.115 3.41742Z" fill="url(#paint3_linear_45_473)"/>
<path d="M106.102 3.44202C106.102 3.44202 106.111 3.44202 106.115 3.44202C106.115 3.44202 106.106 3.44202 106.102 3.44202C106.102 3.44202 106.102 3.44616 106.102 3.45031V3.44202Z" fill="#D8B88D"/>
<path d="M106.115 3.41736C106.115 3.41736 106.106 3.4298 106.102 3.43809C106.102 3.43809 106.111 3.43809 106.115 3.43809C106.115 3.43809 106.123 3.43809 106.127 3.43809C106.127 3.4298 106.119 3.42565 106.115 3.41736Z" fill="#D8B88D"/>
<path d="M140.178 55.4573L146.979 51.5324C147.506 51.2282 147.991 51.1912 148.377 51.3762C148.377 51.3762 148.5 51.4378 148.554 51.4789L165.795 61.6428L155.639 83.6186L137.675 73.1424V59.6536C137.675 57.9932 138.932 56.1807 140.178 55.4615V55.4573Z" fill="#1B1B1B"/>
<path d="M166.97 77.0716V63.5828C166.97 61.9224 165.951 61.1497 164.702 61.8689L157.9 65.7939C156.654 66.5132 155.631 68.4613 155.631 70.1258V83.6146L166.966 77.0716H166.97Z" fill="#2D2D2D"/>
<path d="M155.286 69.9202C155.286 68.2598 156.305 66.3076 157.554 65.5883L164.356 61.6633C164.882 61.3592 165.367 61.3222 165.754 61.5072C165.815 61.5359 165.877 61.5688 165.93 61.6099L166.169 61.7497C165.778 61.5565 165.289 61.5894 164.755 61.8976L157.953 65.8226C156.708 66.5418 155.684 68.4899 155.684 70.1545V83.6392L155.29 83.409V69.9202H155.286Z" fill="#D8B88D"/>
<path d="M149.425 66.5131C149.425 64.8527 150.444 62.9005 151.693 62.1812L158.495 58.2562C159.021 57.9521 159.506 57.9151 159.893 58.1001C159.954 58.1288 160.016 58.1617 160.07 58.2028L160.308 58.3425C159.917 58.1494 159.428 58.1823 158.894 58.4905L152.092 62.4155C150.847 63.1347 149.823 65.0828 149.823 66.7474V80.2321L149.429 80.0019V66.5131H149.425Z" fill="#D8B88D"/>
<path d="M143.548 63.0813C143.548 61.4209 144.567 59.4687 145.817 58.7495L152.619 54.8245C153.145 54.5203 153.63 54.4834 154.016 54.6683C154.077 54.6971 154.139 54.7299 154.193 54.771L154.431 54.9108C154.041 54.7176 153.551 54.7505 153.017 55.0587L146.215 58.9837C144.97 59.703 143.951 61.6511 143.951 63.3156V76.8003L143.552 76.5701V63.0813H143.548Z" fill="#D8B88D"/>
<path d="M137.675 59.6495C137.675 57.989 138.694 56.0368 139.943 55.3176L146.745 51.3926C147.271 51.0885 147.756 51.0515 148.143 51.2364C148.204 51.2652 148.266 51.2981 148.319 51.3392L148.558 51.4789C148.167 51.2857 147.678 51.3186 147.144 51.6269L140.342 55.5518C139.097 56.2711 138.073 58.2192 138.073 59.8837V73.3684L137.675 73.1382V59.6495V59.6495Z" fill="#D8B88D"/>
<path d="M159.33 57.8124L159.227 57.7507C159.264 57.7672 159.297 57.7877 159.33 57.8124Z" fill="#D8B88D"/>
<path d="M163.999 78.7854V66.8337C163.999 65.8679 163.411 65.4199 162.684 65.8391L159.918 67.4337C159.194 67.8529 158.603 68.9791 158.603 69.9449V81.8966L163.995 78.7813L163.999 78.7854Z" fill="#D8B88D"/>
<path d="M163.563 79.0403V67.1872C163.563 66.4351 163.107 66.0899 162.544 66.4145L160.065 67.8448C159.502 68.1695 159.046 69.0408 159.046 69.7929V81.646L163.563 79.0361V79.0403Z" fill="#B08D57"/>
<path d="M73.1284 48.5239C72.0639 47.9116 71.0694 47.7307 70.2104 47.9075V47.8992L70.1857 47.9116C69.787 47.9979 69.4212 48.1582 69.0924 48.3924C68.9404 48.4993 56.7339 55.441 56.7339 55.441L66.384 81.4445L78.9234 74.2768V59.6002C78.9234 55.3505 76.3136 50.3693 73.1284 48.5281V48.5239Z" fill="#1B1B1B"/>
<path d="M77.4806 60.3975C77.4806 56.1478 74.8708 51.1666 71.6856 49.3253C70.6211 48.713 69.6265 48.5321 68.7676 48.7088V48.7006L68.7429 48.713C68.2826 48.8116 67.8633 49.0171 67.4976 49.313C67.7976 49.1198 68.1264 48.976 68.4798 48.8979L68.5004 48.8856V48.8938C69.3635 48.7171 70.3581 48.8938 71.4226 49.5103C74.6119 51.3515 77.2176 56.3328 77.2176 60.5824L77.2093 75.2549L77.4847 75.0987V60.3934L77.4806 60.3975Z" fill="#D8B88D"/>
<path d="M75.0805 61.762C75.0805 57.5123 72.4707 52.5311 69.2855 50.6898C68.221 50.0775 67.2263 49.8966 66.3674 50.0733V50.0651L66.3427 50.0775C65.8824 50.1761 65.4632 50.3816 65.0974 50.6775C65.3974 50.4843 65.7262 50.3405 66.0797 50.2624L66.1003 50.2501V50.2583C66.9633 50.0816 67.9579 50.2583 69.0224 50.8748C72.2117 52.716 74.8174 57.6973 74.8174 61.9469L74.8051 76.6276L75.0846 76.4673V61.7579L75.0805 61.762Z" fill="#D8B88D"/>
<path d="M72.6806 63.106C72.6806 58.8563 70.0707 53.8751 66.8855 52.0338C65.821 51.4215 64.8264 51.2406 63.9675 51.4173V51.4091L63.9428 51.4214C63.4825 51.5201 63.0633 51.7256 62.6975 52.0215C62.9975 51.8283 63.3263 51.6845 63.6798 51.6064L63.7003 51.5941V51.6023C64.5634 51.4256 65.558 51.6023 66.6225 52.2188C69.8118 54.06 72.4175 59.0413 72.4175 63.2909L72.4052 77.9716L72.6846 77.8113V63.1019L72.6806 63.106Z" fill="#D8B88D"/>
<path d="M70.2799 64.4952C70.2799 60.2455 67.6701 55.2642 64.4849 53.423C63.4204 52.8106 62.4258 52.6298 61.5668 52.8065V52.7983L61.5421 52.8106C61.0818 52.9093 60.6627 53.1147 60.2969 53.4107C60.5969 53.2175 60.9257 53.0736 61.2791 52.9956L61.2997 52.9832V52.9914C62.1628 52.8147 63.1574 52.9914 64.2218 53.6079C67.4111 55.4492 70.0168 60.4304 70.0168 64.6801L70.0045 79.3608L70.284 79.2005V64.491L70.2799 64.4952Z" fill="#D8B88D"/>
<path d="M67.8798 65.839C67.8798 61.5894 65.27 56.6081 62.0848 54.7669C61.0203 54.1545 60.0257 53.9736 59.1667 54.1504V54.1422L59.1421 54.1545C58.6817 54.2531 58.2625 54.4586 57.8967 54.7545C58.1968 54.5614 58.5256 54.4175 58.879 54.3394L58.8996 54.3271V54.3353C59.7627 54.1586 60.7573 54.3353 61.8217 54.9518C65.011 56.7931 67.6167 61.7743 67.6167 66.024L67.5962 80.7458L67.8798 80.5814V65.8349V65.839Z" fill="#D8B88D"/>
<path d="M67.066 49.65L66.9468 49.7569C66.9838 49.7199 67.0249 49.687 67.066 49.65Z" fill="#D8B88D"/>
<path d="M54.7939 74.7534V60.0768C54.7939 55.8272 57.4037 53.8544 60.5889 55.6956C63.7782 57.5369 66.3839 62.5181 66.3839 66.7678V81.4444L54.7939 74.7534V74.7534Z" fill="#2D2D2D"/>
<path d="M56.7295 75.859V60.9358C56.7295 59.7193 57.4734 59.1603 58.3858 59.6864L61.8628 61.6962C62.7752 62.2222 63.5191 63.6402 63.5191 64.8567V79.7799L56.7336 75.8631L56.7295 75.859Z" fill="#D8B88D"/>
<path d="M57.2805 76.1591V61.3756C57.2805 60.4304 57.8559 59.9947 58.5628 60.4057L61.6823 62.2058C62.3892 62.6168 62.9646 63.7142 62.9646 64.6554V79.4593L57.2764 76.1591H57.2805Z" fill="#B08D57"/>
<path d="M58.1724 64.413C58.1724 65.7569 58.9902 67.3228 60.0013 67.9064C61.0123 68.49 61.8302 67.8694 61.8302 66.5255C61.8302 65.1815 61.0123 63.6156 60.0013 63.032C58.9902 62.4484 58.1724 63.069 58.1724 64.413Z" fill="#D8B88D"/>
<path d="M58.4353 64.5403C58.4353 65.6911 59.134 67.0268 59.997 67.5241C60.8601 68.0214 61.5588 67.4953 61.5588 66.3446C61.5588 65.1938 60.8601 63.8581 59.997 63.3608C59.134 62.8635 58.4353 63.3895 58.4353 64.5403Z" fill="white"/>
<path d="M58.4353 64.5403C58.4353 65.6911 59.134 67.0268 59.997 67.5241C60.8601 68.0214 61.5588 67.4953 61.5588 66.3446C61.5588 65.1938 60.8601 63.8581 59.997 63.3608C59.134 62.8635 58.4353 63.3895 58.4353 64.5403Z" fill="#FDFFFF"/>
<path d="M162.462 70.0394C162.462 70.8943 161.944 71.8848 161.303 72.2547C160.662 72.6245 160.144 72.23 160.144 71.3792C160.144 70.5285 160.662 69.5339 161.303 69.164C161.944 68.7941 162.462 69.1886 162.462 70.0394Z" fill="#D8B88D"/>
<path d="M162.293 70.1176C162.293 70.8492 161.849 71.6958 161.303 72.0123C160.756 72.3287 160.312 71.9917 160.312 71.2643C160.312 70.5368 160.756 69.6861 161.303 69.3696C161.849 69.0531 162.293 69.3901 162.293 70.1176Z" fill="white"/>
<path d="M162.293 70.1176C162.293 70.8492 161.849 71.6958 161.303 72.0123C160.756 72.3287 160.312 71.9917 160.312 71.2643C160.312 70.5368 160.756 69.6861 161.303 69.3696C161.849 69.0531 162.293 69.3901 162.293 70.1176Z" fill="#FDFFFF"/>
<path d="M81.3235 83.1256V77.3799L85.9102 74.7249V80.4623L81.3235 83.1256Z" fill="#D8B88D"/>
<path d="M81.3237 83.1256V77.3799L76.7329 74.7249V80.4623L81.3237 83.1256Z" fill="#B08D57"/>
<path d="M77.3285 80.08V75.67L77.1929 75.5919V80.1786L80.863 82.3034V82.1308L77.3285 80.08Z" fill="#895E1A"/>
<path d="M80.8629 82.1309L80.8588 77.7127L77.3284 75.67V80.08L80.8629 82.1309Z" fill="#895E1A"/>
<path d="M85.3182 80.08V75.67L85.4497 75.5919V80.1786L81.7795 82.3034V82.1308L85.3182 80.08Z" fill="#A57F6B"/>
<path d="M81.7795 82.1309L81.7837 77.7127L85.3182 75.67V80.08L81.7795 82.1309Z" fill="#895E1A"/>
<path d="M76.7329 74.7248L81.3237 77.3798L85.9104 74.7248L81.3237 72.0739L76.7329 74.7248Z" fill="#D8B88D"/>
<path d="M84.9604 74.7781L85.1124 74.6918L81.323 72.5012L77.5337 74.6918L77.6858 74.7781L81.323 72.678L84.9604 74.7781Z" fill="#895E1A"/>
<path d="M84.9606 74.7782L81.3233 72.678L77.686 74.7782L81.3233 76.8824L84.9606 74.7782Z" fill="#B08D57"/>
<path d="M84.7347 74.9098L77.9286 74.918L77.645 74.7249H85.0511L84.7347 74.9098Z" fill="#895E1A"/>
<path d="M85.4416 74.7905L77.1272 74.8028L77.1642 74.585L85.4827 74.5726L85.4416 74.7905Z" fill="#D8B88D"/>
<path d="M81.2083 77.0715L81.1877 72.267L81.4179 72.2588L81.4343 77.0592L81.2083 77.0715Z" fill="#D8B88D"/>
<path d="M85.3182 75.67L82.0878 81.95L81.7795 82.2048V82.0898L85.0634 75.818L85.3182 75.67Z" fill="#A57F6B"/>
<path d="M85.6921 75.2918L81.7794 82.7637L81.5945 82.6609L85.503 75.1891L85.6921 75.2918Z" fill="#D8B88D"/>
<path d="M85.6923 80.5197L81.5208 77.6551L81.6358 77.4414L85.8033 80.306L85.6923 80.5197Z" fill="#D8B88D"/>
<path d="M77.3328 75.67L80.5632 81.95L80.8632 82.2295V82.0774L77.5835 75.818L77.3328 75.67Z" fill="#895E1A"/>
<path d="M76.9585 75.2918L80.867 82.7637L81.0561 82.6609L77.1476 75.1891L76.9585 75.2918Z" fill="#B08D57"/>
<path d="M76.9586 80.5197L81.1261 77.6551L81.0151 77.4414L76.8477 80.306L76.9586 80.5197Z" fill="#B08D57"/>
<path d="M86.3745 86.0434L86.3704 80.3019L90.9612 77.6469V83.3843L86.3745 86.0434Z" fill="#D8B88D"/>
<path d="M86.3745 86.0434L86.3704 80.3019L81.7795 77.6469V83.3843L86.3745 86.0434Z" fill="#B08D57"/>
<path d="M82.3754 83.0021V78.5921L82.2439 78.514V83.1007L85.9141 85.2256V85.0529L82.3754 83.0021Z" fill="#895E1A"/>
<path d="M85.9144 85.0531L85.9103 80.6349L82.3757 78.5923V83.0022L85.9144 85.0531Z" fill="#895E1A"/>
<path d="M90.3692 83.0021V78.5921L90.5008 78.514V83.1007L86.8306 85.2256V85.0529L90.3692 83.0021Z" fill="#A57F6B"/>
<path d="M86.8306 85.0531L86.8347 80.6349L90.3692 78.5923V83.0022L86.8306 85.0531Z" fill="#895E1A"/>
<path d="M81.7795 77.647L86.3704 80.302L90.9612 77.647L86.3745 74.9919L81.7795 77.647Z" fill="#D8B88D"/>
<path d="M90.0075 77.7002L90.1595 77.6139L86.3743 75.4233L82.585 77.6139L82.737 77.7002L86.3743 75.6001L90.0075 77.7002Z" fill="#895E1A"/>
<path d="M90.0078 77.7003L86.3746 75.6001L82.7373 77.7003L86.3746 79.8046L90.0078 77.7003Z" fill="#B08D57"/>
<path d="M89.7859 77.8318L82.9757 77.84L82.6963 77.6469H90.1023L89.7859 77.8318Z" fill="#895E1A"/>
<path d="M90.4929 77.7127L82.1785 77.725L82.2154 77.5031L90.5298 77.4949L90.4929 77.7127Z" fill="#D8B88D"/>
<path d="M86.2552 79.9937L86.2388 75.1892L86.4689 75.1769L86.4854 79.9814L86.2552 79.9937Z" fill="#D8B88D"/>
<path d="M90.3692 78.5922L87.1388 84.8721L86.8306 85.127V85.0119L90.1144 78.736L90.3692 78.5922Z" fill="#A57F6B"/>
<path d="M90.7433 78.2141L86.8307 85.6859L86.6458 85.5832L90.5543 78.1113L90.7433 78.2141Z" fill="#D8B88D"/>
<path d="M90.7436 83.4419L86.572 80.5772L86.6871 80.3635L90.8546 83.2281L90.7436 83.4419Z" fill="#D8B88D"/>
<path d="M82.384 78.5922L85.6144 84.8721L85.9145 85.1516V84.9996L82.6347 78.736L82.384 78.5922Z" fill="#895E1A"/>
<path d="M82.01 78.2141L85.9186 85.6859L86.1076 85.5832L82.1949 78.1113L82.01 78.2141Z" fill="#B08D57"/>
<path d="M82.0096 83.4419L86.1771 80.5772L86.0661 80.3635L81.8945 83.2281L82.0096 83.4419Z" fill="#B08D57"/>
<path d="M81.3235 77.1414V71.3957L85.9102 68.7407V74.4782L81.3235 77.1414Z" fill="#D8B88D"/>
<path d="M81.3237 77.1414V71.3957L76.7329 68.7407V74.4782L81.3237 77.1414Z" fill="#B08D57"/>
<path d="M77.3285 74.096V69.686L77.1929 69.6079V74.1946L80.863 76.3194V76.1468L77.3285 74.096Z" fill="#895E1A"/>
<path d="M80.8629 76.1469L80.8588 71.7287L77.3284 69.686V74.096L80.8629 76.1469Z" fill="#895E1A"/>
<path d="M85.3182 74.096V69.686L85.4497 69.6079V74.1946L81.7795 76.3194V76.1468L85.3182 74.096Z" fill="#A57F6B"/>
<path d="M81.7795 76.1469L81.7837 71.7287L85.3182 69.686V74.096L81.7795 76.1469Z" fill="#895E1A"/>
<path d="M76.7329 68.7407L81.3237 71.3958L85.9104 68.7407L81.3237 66.0898L76.7329 68.7407Z" fill="#D8B88D"/>
<path d="M84.9604 68.7941L85.1124 68.7078L81.323 66.5172L77.5337 68.7078L77.6858 68.7941L81.323 66.6939L84.9604 68.7941Z" fill="#895E1A"/>
<path d="M84.9606 68.7941L81.3233 66.694L77.686 68.7941L81.3233 70.8984L84.9606 68.7941Z" fill="#B08D57"/>
<path d="M84.7347 68.9257L77.9286 68.9339L77.645 68.7407H85.0511L84.7347 68.9257Z" fill="#895E1A"/>
<path d="M85.4416 68.8064L77.1272 68.8188L77.1642 68.601L85.4827 68.5886L85.4416 68.8064Z" fill="#D8B88D"/>
<path d="M81.2083 71.0874L81.1877 66.2829L81.4179 66.2747L81.4343 71.0751L81.2083 71.0874Z" fill="#D8B88D"/>
<path d="M85.3182 69.686L82.0878 75.9701L81.7795 76.2208V76.1057L85.0634 69.834L85.3182 69.686Z" fill="#A57F6B"/>
<path d="M85.6921 69.3078L81.7794 76.7797L81.5945 76.6769L85.503 69.2051L85.6921 69.3078Z" fill="#D8B88D"/>
<path d="M85.6923 74.5357L81.5208 71.6711L81.6358 71.4574L85.8033 74.322L85.6923 74.5357Z" fill="#D8B88D"/>
<path d="M77.3328 69.686L80.5632 75.9701L80.8632 76.2455V76.0934L77.5835 69.834L77.3328 69.686Z" fill="#895E1A"/>
<path d="M76.9585 69.3078L80.867 76.7797L81.0561 76.6769L77.1476 69.2051L76.9585 69.3078Z" fill="#B08D57"/>
<path d="M76.9586 74.5357L81.1261 71.6711L81.0151 71.4574L76.8477 74.322L76.9586 74.5357Z" fill="#B08D57"/>
<path d="M76.4612 85.9695V80.2238L81.052 77.5729V83.3103L76.4612 85.9695Z" fill="#D8B88D"/>
<path d="M76.4614 85.9695V80.2238L71.8706 77.5729V83.3103L76.4614 85.9695Z" fill="#B08D57"/>
<path d="M72.4667 82.9281V78.5181L72.3311 78.4401V83.0267L76.0012 85.1516V84.9748L72.4667 82.9281Z" fill="#895E1A"/>
<path d="M76.0008 84.9748V80.5607L72.4663 78.5181V82.928L76.0008 84.9748Z" fill="#895E1A"/>
<path d="M80.4564 82.9281V78.5181L80.5921 78.4401V83.0267L76.9219 85.1516V84.9748L80.4564 82.9281Z" fill="#A57F6B"/>
<path d="M76.9219 84.9748V80.5607L80.4564 78.5181V82.928L76.9219 84.9748Z" fill="#895E1A"/>
<path d="M71.8706 77.5729L76.4614 80.2238L81.0522 77.5729L76.4614 74.9178L71.8706 77.5729Z" fill="#D8B88D"/>
<path d="M80.0985 77.6264L80.2506 77.5401L76.4654 75.3495L72.676 77.5401L72.8281 77.6264L76.4654 75.5262L80.0985 77.6264Z" fill="#895E1A"/>
<path d="M80.0988 77.6263L76.4656 75.5261L72.8284 77.6263L76.4615 79.7265L80.0988 77.6263Z" fill="#B08D57"/>
<path d="M79.8767 77.7537L73.0666 77.766L72.7871 77.5729H80.1932L79.8767 77.7537Z" fill="#895E1A"/>
<path d="M80.5837 77.6386L72.2693 77.6509L72.3063 77.429L80.6206 77.4166L80.5837 77.6386Z" fill="#D8B88D"/>
<path d="M76.3465 79.9156L76.3301 75.1152L76.5602 75.1029L76.5767 79.9074L76.3465 79.9156Z" fill="#D8B88D"/>
<path d="M80.4564 78.5181L77.2301 84.798L76.9219 85.0529V84.9378L80.2057 78.6619L80.4564 78.5181Z" fill="#A57F6B"/>
<path d="M80.8346 78.136L76.922 85.6078L76.7329 85.5092L80.6456 78.0332L80.8346 78.136Z" fill="#D8B88D"/>
<path d="M80.8342 83.368L76.6626 80.5034L76.7736 80.2897L80.9452 83.1502L80.8342 83.368Z" fill="#D8B88D"/>
<path d="M72.4746 78.5181L75.7009 84.798L76.0009 85.0775V84.9255L72.7253 78.6619L72.4746 78.5181Z" fill="#895E1A"/>
<path d="M72.0967 78.136L76.0093 85.6078L76.1984 85.5092L72.2857 78.0332L72.0967 78.136Z" fill="#B08D57"/>
<path d="M72.0966 83.368L76.2682 80.5034L76.1572 80.2897L71.9856 83.1502L72.0966 83.368Z" fill="#B08D57"/>
<path d="M81.5125 88.8917V83.146L86.1032 80.4951V86.2326L81.5125 88.8917Z" fill="#D8B88D"/>
<path d="M81.5127 88.8917V83.146L76.9219 80.4951V86.2326L81.5127 88.8917Z" fill="#B08D57"/>
<path d="M77.5174 85.8502V81.4403L77.3818 81.3622V85.9489L81.052 88.0737V87.897L77.5174 85.8502Z" fill="#895E1A"/>
<path d="M81.0522 87.897V83.4829L77.5176 81.4403V85.8503L81.0522 87.897Z" fill="#895E1A"/>
<path d="M85.5074 85.8502V81.4403L85.643 81.3622V85.9489L81.9729 88.0737V87.897L85.5074 85.8502Z" fill="#A57F6B"/>
<path d="M81.9729 87.897V83.4829L85.5074 81.4403V85.8503L81.9729 87.897Z" fill="#895E1A"/>
<path d="M76.9219 80.4951L81.5127 83.146L86.1035 80.4951L81.5127 77.8401L76.9219 80.4951Z" fill="#D8B88D"/>
<path d="M85.1499 80.5485L85.3019 80.4581L81.5167 78.2716L77.7273 80.4581L77.8794 80.5485L81.5167 78.4442L85.1499 80.5485Z" fill="#895E1A"/>
<path d="M85.1501 80.5485L81.517 78.4442L77.8796 80.5485L81.5129 82.6487L85.1501 80.5485Z" fill="#B08D57"/>
<path d="M84.9278 80.676L78.1176 80.6842L77.8381 80.4951H85.2442L84.9278 80.676Z" fill="#895E1A"/>
<path d="M85.6347 80.5608L77.3162 80.5731L77.3573 80.3512L85.6717 80.3389L85.6347 80.5608Z" fill="#D8B88D"/>
<path d="M81.3973 82.8378L81.3809 78.0332L81.611 78.025L81.6274 82.8295L81.3973 82.8378Z" fill="#D8B88D"/>
<path d="M85.5074 81.4404L82.277 87.7204L81.9729 87.9752V87.856L85.2567 81.5843L85.5074 81.4404Z" fill="#A57F6B"/>
<path d="M85.8813 81.0582L81.9728 88.5301L81.7837 88.4273L85.6964 80.9554L85.8813 81.0582Z" fill="#D8B88D"/>
<path d="M85.8813 86.286L81.7139 83.4255L81.8248 83.2076L85.9964 86.0723L85.8813 86.286Z" fill="#D8B88D"/>
<path d="M77.5215 81.4404L80.7519 87.7204L81.052 87.9999V87.8437L77.7763 81.5843L77.5215 81.4404Z" fill="#895E1A"/>
<path d="M77.1477 81.0582L81.0603 88.5301L81.2453 88.4273L77.3367 80.9554L77.1477 81.0582Z" fill="#B08D57"/>
<path d="M77.1476 86.286L81.3191 83.4255L81.2041 83.2076L77.0366 86.0723L77.1476 86.286Z" fill="#B08D57"/>
<path d="M90.0122 91.5714L90.0081 85.8257L94.5989 83.1707V88.9122L90.0122 91.5714Z" fill="#D8B88D"/>
<path d="M90.0117 91.5714L90.0075 85.8257L85.4209 83.1707V88.9122L90.0117 91.5714Z" fill="#B08D57"/>
<path d="M86.0131 88.53V84.1159L85.8816 84.0378V88.6245L89.5517 90.7535V90.5767L86.0131 88.53Z" fill="#895E1A"/>
<path d="M89.5513 90.5767L89.5472 86.1626L86.0127 84.1158V88.5299L89.5513 90.5767Z" fill="#895E1A"/>
<path d="M94.0069 88.53V84.1159L94.1385 84.0378V88.6245L90.4683 90.7535V90.5767L94.0069 88.53Z" fill="#A57F6B"/>
<path d="M90.4683 90.5767L90.4724 86.1626L94.0069 84.1158V88.5299L90.4683 90.5767Z" fill="#895E1A"/>
<path d="M85.4209 83.1706L90.0075 85.8256L94.5984 83.1706L90.0117 80.5197L85.4209 83.1706Z" fill="#D8B88D"/>
<path d="M93.6493 83.2283L93.8013 83.1379L90.012 80.9473L86.2227 83.1379L86.3747 83.2283L90.012 81.124L93.6493 83.2283Z" fill="#895E1A"/>
<path d="M93.6493 83.2282L90.012 81.1239L86.3748 83.2282L90.012 85.3284L93.6493 83.2282Z" fill="#B08D57"/>
<path d="M93.4231 83.3556L86.6171 83.3638L86.3335 83.1707H93.7396L93.4231 83.3556Z" fill="#895E1A"/>
<path d="M94.1301 83.2405L85.8157 83.2487L85.8526 83.0309L94.1711 83.0186L94.1301 83.2405Z" fill="#D8B88D"/>
<path d="M89.8965 85.5174L89.876 80.7129L90.1061 80.7047L90.1226 85.5092L89.8965 85.5174Z" fill="#D8B88D"/>
<path d="M94.0069 84.1158L90.7765 90.3999L90.4683 90.6547V90.5356L93.7521 84.2638L94.0069 84.1158Z" fill="#A57F6B"/>
<path d="M94.3808 83.7379L90.4681 91.2097L90.2832 91.107L94.1918 83.6351L94.3808 83.7379Z" fill="#D8B88D"/>
<path d="M94.3806 88.9657L90.209 86.1052L90.3241 85.8873L94.4916 88.752L94.3806 88.9657Z" fill="#D8B88D"/>
<path d="M86.021 84.1158L89.2514 90.3999L89.5514 90.6794V90.5232L86.2717 84.2638L86.021 84.1158Z" fill="#895E1A"/>
<path d="M85.6472 83.7379L89.5558 91.2097L89.7448 91.107L85.8322 83.6351L85.6472 83.7379Z" fill="#B08D57"/>
<path d="M85.6473 88.9657L89.8148 86.1052L89.7038 85.8873L85.5322 88.752L85.6473 88.9657Z" fill="#B08D57"/>
<path d="M74.3694 92.9523V87.2066L78.9601 84.5557V90.2931L74.3694 92.9523Z" fill="#D8B88D"/>
<path d="M74.3696 92.9523V87.2066L69.7788 84.5557V90.2931L74.3696 92.9523Z" fill="#B08D57"/>
<path d="M70.3746 89.9109V85.5009L70.239 85.4229V90.0095L73.9092 92.1344V91.9576L70.3746 89.9109Z" fill="#895E1A"/>
<path d="M73.9091 91.9577V87.5436L70.3745 85.501V89.9109L73.9091 91.9577Z" fill="#895E1A"/>
<path d="M78.3641 89.9109V85.5009L78.4997 85.4229V90.0095L74.8296 92.1344V91.9576L78.3641 89.9109Z" fill="#A57F6B"/>
<path d="M74.8296 91.9577V87.5436L78.3641 85.501V89.9109L74.8296 91.9577Z" fill="#895E1A"/>
<path d="M69.7788 84.5556L74.3696 87.2066L78.9604 84.5556L74.3696 81.9006L69.7788 84.5556Z" fill="#D8B88D"/>
<path d="M78.0068 84.6092L78.1589 84.5229L74.3736 82.3323L70.5842 84.5229L70.7363 84.6092L74.3736 82.509L78.0068 84.6092Z" fill="#895E1A"/>
<path d="M78.0066 84.6091L74.3734 82.5089L70.7361 84.6091L74.3693 86.7093L78.0066 84.6091Z" fill="#B08D57"/>
<path d="M77.7849 84.7365L70.9748 84.7488L70.6953 84.5557H78.1014L77.7849 84.7365Z" fill="#895E1A"/>
<path d="M78.4918 84.6215L70.1733 84.6338L70.2145 84.4119L78.5289 84.3995L78.4918 84.6215Z" fill="#D8B88D"/>
<path d="M74.2545 86.8983L74.238 82.0979L74.4682 82.0856L74.4846 86.8901L74.2545 86.8983Z" fill="#D8B88D"/>
<path d="M78.3641 85.501L75.1337 91.781L74.8296 92.0358V91.9207L78.1134 85.6448L78.3641 85.501Z" fill="#A57F6B"/>
<path d="M78.7383 85.1188L74.8297 92.5947L74.6406 92.492L78.5533 85.0201L78.7383 85.1188Z" fill="#D8B88D"/>
<path d="M78.7383 90.3508L74.5708 87.4862L74.6818 87.2725L78.8533 90.133L78.7383 90.3508Z" fill="#D8B88D"/>
<path d="M70.3784 85.501L73.6088 91.781L73.9089 92.0604V91.9084L70.6332 85.6448L70.3784 85.501Z" fill="#895E1A"/>
<path d="M70.0046 85.1188L73.9173 92.5947L74.1022 92.492L70.1937 85.0201L70.0046 85.1188Z" fill="#B08D57"/>
<path d="M70.0045 90.3508L74.1761 87.4862L74.061 87.2725L69.8936 90.133L70.0045 90.3508Z" fill="#B08D57"/>
<path d="M105.161 85.1804V79.4347L109.748 76.7797V82.5171L105.161 85.1804Z" fill="#D8B88D"/>
<path d="M105.161 85.1804V79.4347L100.57 76.7797V82.5171L105.161 85.1804Z" fill="#B08D57"/>
<path d="M101.166 82.1349V77.7249L101.031 77.6469V82.2335L104.701 84.3584V84.1858L101.166 82.1349Z" fill="#895E1A"/>
<path d="M104.701 84.1858L104.696 79.7676L101.166 77.725V82.1349L104.701 84.1858Z" fill="#895E1A"/>
<path d="M109.156 82.1349V77.7249L109.287 77.6469V82.2335L105.617 84.3584V84.1858L109.156 82.1349Z" fill="#A57F6B"/>
<path d="M105.617 84.1858L105.621 79.7676L109.156 77.725V82.1349L105.617 84.1858Z" fill="#895E1A"/>
<path d="M100.57 76.7797L105.161 79.4347L109.748 76.7797L105.161 74.1288L100.57 76.7797Z" fill="#D8B88D"/>
<path d="M108.798 76.8332L108.95 76.7469L105.161 74.5563L101.372 76.7469L101.524 76.8332L105.161 74.733L108.798 76.8332Z" fill="#895E1A"/>
<path d="M108.798 76.8332L105.161 74.733L101.524 76.8332L105.161 78.9375L108.798 76.8332Z" fill="#B08D57"/>
<path d="M108.573 76.9646L101.766 76.9728L101.483 76.7797H108.889L108.573 76.9646Z" fill="#895E1A"/>
<path d="M109.279 76.8455L100.965 76.8578L101.002 76.64L109.32 76.6277L109.279 76.8455Z" fill="#D8B88D"/>
<path d="M105.046 79.1265L105.025 74.3219L105.255 74.3137L105.272 79.1141L105.046 79.1265Z" fill="#D8B88D"/>
<path d="M109.156 77.725L105.925 84.005L105.617 84.2598V84.1447L108.901 77.8729L109.156 77.725Z" fill="#A57F6B"/>
<path d="M109.53 77.3468L105.617 84.8186L105.432 84.7159L109.341 77.244L109.53 77.3468Z" fill="#D8B88D"/>
<path d="M109.53 82.5747L105.358 79.7101L105.473 79.4963L109.641 82.361L109.53 82.5747Z" fill="#D8B88D"/>
<path d="M101.17 77.725L104.401 84.005L104.701 84.2844V84.1324L101.421 77.8729L101.17 77.725Z" fill="#895E1A"/>
<path d="M100.796 77.3468L104.705 84.8186L104.894 84.7159L100.985 77.244L100.796 77.3468Z" fill="#B08D57"/>
<path d="M100.796 82.5747L104.964 79.7101L104.853 79.4963L100.685 82.361L100.796 82.5747Z" fill="#B08D57"/>
<path d="M110.212 88.0984L110.208 82.3568L114.799 79.7018V85.4392L110.212 88.0984Z" fill="#D8B88D"/>
<path d="M110.212 88.0984L110.208 82.3568L105.617 79.7018V85.4392L110.212 88.0984Z" fill="#B08D57"/>
<path d="M106.213 85.057V80.647L106.082 80.569V85.1556L109.752 87.2805V87.1079L106.213 85.057Z" fill="#895E1A"/>
<path d="M109.752 87.1079L109.748 82.6897L106.213 80.6471V85.0571L109.752 87.1079Z" fill="#895E1A"/>
<path d="M114.207 85.057V80.647L114.338 80.569V85.1556L110.668 87.2805V87.1079L114.207 85.057Z" fill="#A57F6B"/>
<path d="M110.668 87.1079L110.672 82.6897L114.207 80.6471V85.0571L110.668 87.1079Z" fill="#895E1A"/>
<path d="M105.617 79.7019L110.208 82.3569L114.799 79.7019L110.212 77.0469L105.617 79.7019Z" fill="#D8B88D"/>
<path d="M113.845 79.7553L113.997 79.669L110.212 77.4784L106.423 79.669L106.575 79.7553L110.212 77.6551L113.845 79.7553Z" fill="#895E1A"/>
<path d="M113.845 79.7553L110.212 77.6552L106.575 79.7553L110.212 81.8596L113.845 79.7553Z" fill="#B08D57"/>
<path d="M113.623 79.8867L106.813 79.8949L106.534 79.7018H113.94L113.623 79.8867Z" fill="#895E1A"/>
<path d="M114.33 79.7676L106.016 79.78L106.053 79.558L114.367 79.5498L114.33 79.7676Z" fill="#D8B88D"/>
<path d="M110.093 82.0486L110.076 77.2441L110.307 77.2318L110.323 82.0363L110.093 82.0486Z" fill="#D8B88D"/>
<path d="M114.207 80.6471L110.976 86.9271L110.668 87.1819V87.0668L113.952 80.7909L114.207 80.6471Z" fill="#A57F6B"/>
<path d="M114.581 80.269L110.669 87.7409L110.484 87.6381L114.392 80.1663L114.581 80.269Z" fill="#D8B88D"/>
<path d="M114.581 85.4968L110.409 82.6322L110.525 82.4185L114.692 85.2831L114.581 85.4968Z" fill="#D8B88D"/>
<path d="M106.221 80.6471L109.452 86.9271L109.752 87.2066V87.0545L106.472 80.7909L106.221 80.6471Z" fill="#895E1A"/>
<path d="M105.847 80.269L109.756 87.7409L109.945 87.6381L106.032 80.1663L105.847 80.269Z" fill="#B08D57"/>
<path d="M105.848 85.4968L110.015 82.6322L109.904 82.4185L105.732 85.2831L105.848 85.4968Z" fill="#B08D57"/>
<path d="M105.161 79.1964V73.4507L109.748 70.7957V76.5331L105.161 79.1964Z" fill="#D8B88D"/>
<path d="M105.161 79.1964V73.4507L100.57 70.7957V76.5331L105.161 79.1964Z" fill="#B08D57"/>
<path d="M101.166 76.1509V71.7409L101.031 71.6628V76.2495L104.701 78.3744V78.2017L101.166 76.1509Z" fill="#895E1A"/>
<path d="M104.701 78.2018L104.696 73.7836L101.166 71.741V76.1509L104.701 78.2018Z" fill="#895E1A"/>
<path d="M109.156 76.1509V71.7409L109.287 71.6628V76.2495L105.617 78.3744V78.2017L109.156 76.1509Z" fill="#A57F6B"/>
<path d="M105.617 78.2018L105.621 73.7836L109.156 71.741V76.1509L105.617 78.2018Z" fill="#895E1A"/>
<path d="M100.57 70.7956L105.161 73.4506L109.748 70.7956L105.161 68.1447L100.57 70.7956Z" fill="#D8B88D"/>
<path d="M108.798 70.849L108.95 70.7627L105.161 68.5721L101.372 70.7627L101.524 70.849L105.161 68.7489L108.798 70.849Z" fill="#895E1A"/>
<path d="M108.798 70.8491L105.161 68.7489L101.524 70.8491L105.161 72.9534L108.798 70.8491Z" fill="#B08D57"/>
<path d="M108.573 70.9806L101.766 70.9888L101.483 70.7957H108.889L108.573 70.9806Z" fill="#895E1A"/>
<path d="M109.279 70.8614L100.965 70.8737L101.002 70.6559L109.32 70.6436L109.279 70.8614Z" fill="#D8B88D"/>
<path d="M105.046 73.1424L105.025 68.3379L105.255 68.3297L105.272 73.1301L105.046 73.1424Z" fill="#D8B88D"/>
<path d="M109.156 71.741L105.925 78.0251L105.617 78.2758V78.1607L108.901 71.8889L109.156 71.741Z" fill="#A57F6B"/>
<path d="M109.53 71.3629L105.617 78.8347L105.432 78.732L109.341 71.2601L109.53 71.3629Z" fill="#D8B88D"/>
<path d="M109.53 76.5907L105.358 73.726L105.473 73.5123L109.641 76.377L109.53 76.5907Z" fill="#D8B88D"/>
<path d="M101.17 71.741L104.401 78.0251L104.701 78.3004V78.1484L101.421 71.8889L101.17 71.741Z" fill="#895E1A"/>
<path d="M100.796 71.3629L104.705 78.8347L104.894 78.732L100.985 71.2601L100.796 71.3629Z" fill="#B08D57"/>
<path d="M100.796 76.5907L104.964 73.726L104.853 73.5123L100.685 76.377L100.796 76.5907Z" fill="#B08D57"/>
<path d="M100.299 88.0244V82.2787L104.89 79.6278V85.3653L100.299 88.0244Z" fill="#D8B88D"/>
<path d="M100.299 88.0244V82.2787L95.708 79.6278V85.3653L100.299 88.0244Z" fill="#B08D57"/>
<path d="M96.3041 84.9832V80.5732L96.1685 80.4951V85.0818L99.8386 87.2066V87.0299L96.3041 84.9832Z" fill="#895E1A"/>
<path d="M99.8387 87.0298V82.6158L96.3042 80.5731V84.9831L99.8387 87.0298Z" fill="#895E1A"/>
<path d="M104.294 84.9832V80.5732L104.429 80.4951V85.0818L100.759 87.2066V87.0299L104.294 84.9832Z" fill="#A57F6B"/>
<path d="M100.759 87.0298V82.6158L104.294 80.5731V84.9831L100.759 87.0298Z" fill="#895E1A"/>
<path d="M95.708 79.6279L100.299 82.2788L104.89 79.6279L100.299 76.9729L95.708 79.6279Z" fill="#D8B88D"/>
<path d="M103.936 79.6813L104.088 79.595L100.303 77.4044L96.5139 79.595L96.666 79.6813L100.303 77.5811L103.936 79.6813Z" fill="#895E1A"/>
<path d="M103.936 79.6812L100.303 77.5811L96.6658 79.6812L100.299 81.7814L103.936 79.6812Z" fill="#B08D57"/>
<path d="M103.714 79.8086L96.9043 79.821L96.6248 79.6278H104.031L103.714 79.8086Z" fill="#895E1A"/>
<path d="M104.421 79.6936L96.1069 79.7059L96.1439 79.484L104.458 79.4717L104.421 79.6936Z" fill="#D8B88D"/>
<path d="M100.184 81.9706L100.167 77.1702L100.398 77.1578L100.414 81.9624L100.184 81.9706Z" fill="#D8B88D"/>
<path d="M104.294 80.5731L101.068 86.8531L100.759 87.1079V86.9928L104.043 80.717L104.294 80.5731Z" fill="#A57F6B"/>
<path d="M104.672 80.1909L100.759 87.6627L100.57 87.5641L104.483 80.0881L104.672 80.1909Z" fill="#D8B88D"/>
<path d="M104.672 85.4228L100.5 82.5582L100.611 82.3445L104.783 85.205L104.672 85.4228Z" fill="#D8B88D"/>
<path d="M96.312 80.5731L99.5383 86.8531L99.8383 87.1326V86.9805L96.5627 80.717L96.312 80.5731Z" fill="#895E1A"/>
<path d="M95.9341 80.1909L99.8467 87.6627L100.036 87.5641L96.1231 80.0881L95.9341 80.1909Z" fill="#B08D57"/>
<path d="M95.934 85.4228L100.106 82.5582L99.9946 82.3445L95.823 85.205L95.934 85.4228Z" fill="#B08D57"/>
<path d="M105.35 90.9467V85.201L109.941 82.55V88.2875L105.35 90.9467Z" fill="#D8B88D"/>
<path d="M105.35 90.9467V85.201L100.759 82.55V88.2875L105.35 90.9467Z" fill="#B08D57"/>
<path d="M101.355 87.9053V83.4953L101.22 83.4172V88.0039L104.89 90.1288V89.952L101.355 87.9053Z" fill="#895E1A"/>
<path d="M104.89 89.9521V85.538L101.355 83.4954V87.9053L104.89 89.9521Z" fill="#895E1A"/>
<path d="M109.345 87.9053V83.4953L109.48 83.4172V88.0039L105.81 90.1288V89.952L109.345 87.9053Z" fill="#A57F6B"/>
<path d="M105.81 89.9521V85.538L109.345 83.4954V87.9053L105.81 89.9521Z" fill="#895E1A"/>
<path d="M100.759 82.55L105.35 85.2009L109.941 82.55L105.35 79.895L100.759 82.55Z" fill="#D8B88D"/>
<path d="M108.987 82.6036L109.139 82.5131L105.354 80.3267L101.565 82.5131L101.717 82.6036L105.354 80.4993L108.987 82.6036Z" fill="#895E1A"/>
<path d="M108.988 82.6036L105.354 80.4993L101.717 82.6036L105.35 84.7037L108.988 82.6036Z" fill="#B08D57"/>
<path d="M108.765 82.7309L101.955 82.7391L101.676 82.55H109.082L108.765 82.7309Z" fill="#895E1A"/>
<path d="M109.472 82.6159L101.154 82.6282L101.195 82.4063L109.509 82.3939L109.472 82.6159Z" fill="#D8B88D"/>
<path d="M105.235 84.8927L105.219 80.0882L105.449 80.08L105.465 84.8845L105.235 84.8927Z" fill="#D8B88D"/>
<path d="M109.345 83.4954L106.114 89.7753L105.81 90.0302V89.911L109.094 83.6392L109.345 83.4954Z" fill="#A57F6B"/>
<path d="M109.719 83.113L105.811 90.5849L105.622 90.4821L109.534 83.0103L109.719 83.113Z" fill="#D8B88D"/>
<path d="M109.719 88.3409L105.552 85.4804L105.663 85.2626L109.834 88.1272L109.719 88.3409Z" fill="#D8B88D"/>
<path d="M101.359 83.4954L104.59 89.7753L104.89 90.0548V89.8986L101.614 83.6392L101.359 83.4954Z" fill="#895E1A"/>
<path d="M100.985 83.113L104.898 90.5849L105.083 90.4821L101.174 83.0103L100.985 83.113Z" fill="#B08D57"/>
<path d="M100.985 88.3409L105.157 85.4804L105.042 85.2626L100.874 88.1272L100.985 88.3409Z" fill="#B08D57"/>
<path d="M113.85 93.6263L113.845 87.8806L118.436 85.2256V90.9672L113.85 93.6263Z" fill="#D8B88D"/>
<path d="M113.85 93.6263L113.845 87.8806L109.259 85.2256V90.9672L113.85 93.6263Z" fill="#B08D57"/>
<path d="M109.85 90.5851V86.171L109.719 86.0929V90.6796L113.389 92.8085V92.6318L109.85 90.5851Z" fill="#895E1A"/>
<path d="M113.389 92.6317L113.385 88.2176L109.851 86.1709V90.585L113.389 92.6317Z" fill="#895E1A"/>
<path d="M117.844 90.5851V86.171L117.976 86.0929V90.6796L114.306 92.8085V92.6318L117.844 90.5851Z" fill="#A57F6B"/>
<path d="M114.306 92.6317L114.31 88.2176L117.844 86.1709V90.585L114.306 92.6317Z" fill="#895E1A"/>
<path d="M109.259 85.2256L113.845 87.8806L118.436 85.2256L113.85 82.5747L109.259 85.2256Z" fill="#D8B88D"/>
<path d="M117.487 85.2832L117.639 85.1928L113.85 83.0022L110.06 85.1928L110.212 85.2832L113.85 83.1789L117.487 85.2832Z" fill="#895E1A"/>
<path d="M117.487 85.2831L113.85 83.1788L110.212 85.2831L113.85 87.3833L117.487 85.2831Z" fill="#B08D57"/>
<path d="M117.261 85.4105L110.454 85.4188L110.171 85.2256H117.577L117.261 85.4105Z" fill="#895E1A"/>
<path d="M117.968 85.2955L109.653 85.3038L109.69 85.0859L118.009 85.0736L117.968 85.2955Z" fill="#D8B88D"/>
<path d="M113.734 87.5724L113.714 82.7679L113.944 82.7596L113.96 87.5642L113.734 87.5724Z" fill="#D8B88D"/>
<path d="M117.844 86.1709L114.614 92.455L114.306 92.7098V92.5906L117.589 86.3189L117.844 86.1709Z" fill="#A57F6B"/>
<path d="M118.218 85.7928L114.306 93.2647L114.121 93.1619L118.029 85.6901L118.218 85.7928Z" fill="#D8B88D"/>
<path d="M118.218 91.0206L114.047 88.1601L114.162 87.9423L118.329 90.8069L118.218 91.0206Z" fill="#D8B88D"/>
<path d="M109.859 86.1709L113.089 92.455L113.389 92.7345V92.5783L110.11 86.3189L109.859 86.1709Z" fill="#895E1A"/>
<path d="M109.485 85.7928L113.393 93.2647L113.582 93.1619L109.67 85.6901L109.485 85.7928Z" fill="#B08D57"/>
<path d="M109.485 91.0206L113.652 88.1601L113.541 87.9423L109.37 90.8069L109.485 91.0206Z" fill="#B08D57"/>
<path d="M98.207 95.0072V89.2615L102.798 86.6106V92.3481L98.207 95.0072Z" fill="#D8B88D"/>
<path d="M98.207 95.0072V89.2615L93.6162 86.6106V92.3481L98.207 95.0072Z" fill="#B08D57"/>
<path d="M94.2123 91.9659V87.556L94.0767 87.4779V92.0646L97.7469 94.1894V94.0127L94.2123 91.9659Z" fill="#895E1A"/>
<path d="M97.7467 94.0126V89.5985L94.2122 87.5559V91.9659L97.7467 94.0126Z" fill="#895E1A"/>
<path d="M102.202 91.9659V87.556L102.338 87.4779V92.0646L98.6675 94.1894V94.0127L102.202 91.9659Z" fill="#A57F6B"/>
<path d="M98.6675 94.0126V89.5985L102.202 87.5559V91.9659L98.6675 94.0126Z" fill="#895E1A"/>
<path d="M93.6162 86.6106L98.207 89.2615L102.798 86.6106L98.207 83.9556L93.6162 86.6106Z" fill="#D8B88D"/>
<path d="M101.844 86.6641L101.996 86.5778L98.211 84.3872L94.4216 86.5778L94.5737 86.6641L98.211 84.5639L101.844 86.6641Z" fill="#895E1A"/>
<path d="M101.844 86.6641L98.2113 84.564L94.574 86.6641L98.2072 88.7643L101.844 86.6641Z" fill="#B08D57"/>
<path d="M101.622 86.7914L94.8122 86.8038L94.5327 86.6106H101.939L101.622 86.7914Z" fill="#895E1A"/>
<path d="M102.329 86.6764L94.0107 86.6887L94.0519 86.4668L102.366 86.4545L102.329 86.6764Z" fill="#D8B88D"/>
<path d="M98.0921 88.9534L98.0757 84.153L98.3059 84.1406L98.3223 88.9451L98.0921 88.9534Z" fill="#D8B88D"/>
<path d="M102.202 87.5559L98.9716 93.8359L98.6675 94.0907V93.9756L101.951 87.6997L102.202 87.5559Z" fill="#A57F6B"/>
<path d="M102.576 87.1737L98.6676 94.6497L98.4785 94.5469L102.391 87.0751L102.576 87.1737Z" fill="#D8B88D"/>
<path d="M102.576 92.4056L98.4087 89.541L98.5197 89.3273L102.691 92.1878L102.576 92.4056Z" fill="#D8B88D"/>
<path d="M94.2163 87.5559L97.4467 93.8359L97.7468 94.1154V93.9633L94.4711 87.6997L94.2163 87.5559Z" fill="#895E1A"/>
<path d="M93.8423 87.1737L97.7549 94.6497L97.9399 94.5469L94.0313 87.0751L93.8423 87.1737Z" fill="#B08D57"/>
<path d="M93.8422 92.4056L98.0137 89.541L97.8987 89.3273L93.7312 92.1878L93.8422 92.4056Z" fill="#B08D57"/>
<path d="M133.52 81.0705V75.3248L138.106 72.6698V78.4073L133.52 81.0705Z" fill="#D8B88D"/>
<path d="M133.52 81.0705V75.3248L128.929 72.6698V78.4073L133.52 81.0705Z" fill="#B08D57"/>
<path d="M129.525 78.025V73.6151L129.389 73.537V78.1237L133.059 80.2485V80.0759L129.525 78.025Z" fill="#895E1A"/>
<path d="M133.059 80.0759L133.055 75.6577L129.525 73.6151V78.0251L133.059 80.0759Z" fill="#895E1A"/>
<path d="M137.515 78.025V73.6151L137.646 73.537V78.1237L133.976 80.2485V80.0759L137.515 78.025Z" fill="#A57F6B"/>
<path d="M133.976 80.0759L133.98 75.6577L137.515 73.6151V78.0251L133.976 80.0759Z" fill="#895E1A"/>
<path d="M128.929 72.6698L133.52 75.3248L138.106 72.6698L133.52 70.0189L128.929 72.6698Z" fill="#D8B88D"/>
<path d="M137.157 72.7232L137.309 72.6369L133.519 70.4463L129.73 72.6369L129.882 72.7232L133.519 70.623L137.157 72.7232Z" fill="#895E1A"/>
<path d="M137.157 72.7232L133.52 70.623L129.882 72.7232L133.52 74.8275L137.157 72.7232Z" fill="#B08D57"/>
<path d="M136.931 72.8547L130.125 72.863L129.841 72.6698H137.247L136.931 72.8547Z" fill="#895E1A"/>
<path d="M137.638 72.7355L129.323 72.7479L129.36 72.53L137.679 72.5177L137.638 72.7355Z" fill="#D8B88D"/>
<path d="M133.405 75.0166L133.384 70.2121L133.614 70.2039L133.631 75.0043L133.405 75.0166Z" fill="#D8B88D"/>
<path d="M137.515 73.6151L134.284 79.8951L133.976 80.1499V80.0348L137.26 73.7631L137.515 73.6151Z" fill="#A57F6B"/>
<path d="M137.888 73.2369L133.976 80.7088L133.791 80.606L137.699 73.1342L137.888 73.2369Z" fill="#D8B88D"/>
<path d="M137.888 78.4648L133.717 75.6002L133.832 75.3865L137.999 78.2511L137.888 78.4648Z" fill="#D8B88D"/>
<path d="M129.529 73.6151L132.759 79.8951L133.059 80.1746V80.0225L129.78 73.7631L129.529 73.6151Z" fill="#895E1A"/>
<path d="M129.155 73.2369L133.063 80.7088L133.252 80.606L129.344 73.1342L129.155 73.2369Z" fill="#B08D57"/>
<path d="M129.155 78.4648L133.322 75.6002L133.211 75.3865L129.044 78.2511L129.155 78.4648Z" fill="#B08D57"/>
<path d="M138.571 83.9885L138.566 78.2469L143.157 75.5919V81.3294L138.571 83.9885Z" fill="#D8B88D"/>
<path d="M138.571 83.9885L138.567 78.2469L133.976 75.5919V81.3294L138.571 83.9885Z" fill="#B08D57"/>
<path d="M134.571 80.9472V76.5372L134.44 76.4591V81.0458L138.11 83.1706V82.998L134.571 80.9472Z" fill="#895E1A"/>
<path d="M138.11 82.998L138.106 78.5799L134.572 76.5372V80.9472L138.11 82.998Z" fill="#895E1A"/>
<path d="M142.566 80.9472V76.5372L142.697 76.4591V81.0458L139.027 83.1706V82.998L142.566 80.9472Z" fill="#A57F6B"/>
<path d="M139.027 82.998L139.031 78.5799L142.566 76.5372V80.9472L139.027 82.998Z" fill="#895E1A"/>
<path d="M133.976 75.5919L138.567 78.2469L143.157 75.5919L138.571 72.9369L133.976 75.5919Z" fill="#D8B88D"/>
<path d="M142.204 75.6453L142.356 75.559L138.571 73.3684L134.781 75.559L134.933 75.6453L138.571 73.5451L142.204 75.6453Z" fill="#895E1A"/>
<path d="M142.204 75.6453L138.571 73.5452L134.933 75.6453L138.571 77.7496L142.204 75.6453Z" fill="#B08D57"/>
<path d="M141.982 75.7769L135.172 75.7851L134.893 75.5919H142.299L141.982 75.7769Z" fill="#895E1A"/>
<path d="M142.689 75.6578L134.375 75.6701L134.411 75.4482L142.726 75.4399L142.689 75.6578Z" fill="#D8B88D"/>
<path d="M138.451 77.9388L138.435 73.1343L138.665 73.1219L138.682 77.9265L138.451 77.9388Z" fill="#D8B88D"/>
<path d="M142.566 76.5371L139.335 82.8171L139.027 83.0719V82.9568L142.311 76.681L142.566 76.5371Z" fill="#A57F6B"/>
<path d="M142.94 76.159L139.027 83.6309L138.842 83.5281L142.751 76.0563L142.94 76.159Z" fill="#D8B88D"/>
<path d="M142.939 81.3868L138.768 78.5222L138.883 78.3085L143.05 81.1731L142.939 81.3868Z" fill="#D8B88D"/>
<path d="M134.58 76.5371L137.81 82.8171L138.11 83.0966V82.9445L134.831 76.681L134.58 76.5371Z" fill="#895E1A"/>
<path d="M134.206 76.159L138.115 83.6309L138.304 83.5281L134.391 76.0563L134.206 76.159Z" fill="#B08D57"/>
<path d="M134.206 81.3868L138.373 78.5222L138.262 78.3085L134.091 81.1731L134.206 81.3868Z" fill="#B08D57"/>
<path d="M128.657 83.9145V78.1688L133.248 75.5179V81.2554L128.657 83.9145Z" fill="#D8B88D"/>
<path d="M128.657 83.9145V78.1688L124.067 75.5179V81.2554L128.657 83.9145Z" fill="#B08D57"/>
<path d="M124.663 80.8733V76.4633L124.527 76.3853V80.9719L128.197 83.0968V82.92L124.663 80.8733Z" fill="#895E1A"/>
<path d="M128.197 82.92V78.5059L124.663 76.4633V80.8732L128.197 82.92Z" fill="#895E1A"/>
<path d="M132.652 80.8733V76.4633L132.788 76.3853V80.9719L129.118 83.0968V82.92L132.652 80.8733Z" fill="#A57F6B"/>
<path d="M129.118 82.92V78.5059L132.652 76.4633V80.8732L129.118 82.92Z" fill="#895E1A"/>
<path d="M124.067 75.5179L128.657 78.1688L133.248 75.5179L128.657 72.8629L124.067 75.5179Z" fill="#D8B88D"/>
<path d="M132.295 75.5715L132.447 75.4852L128.662 73.2946L124.872 75.4852L125.024 75.5715L128.662 73.4713L132.295 75.5715Z" fill="#895E1A"/>
<path d="M132.295 75.5714L128.662 73.4712L125.024 75.5714L128.658 77.6715L132.295 75.5714Z" fill="#B08D57"/>
<path d="M132.073 75.6988L125.263 75.7111L124.983 75.5179H132.39L132.073 75.6988Z" fill="#895E1A"/>
<path d="M132.78 75.5838L124.465 75.5961L124.502 75.3741L132.817 75.3618L132.78 75.5838Z" fill="#D8B88D"/>
<path d="M128.542 77.8606L128.526 73.0602L128.756 73.0479L128.772 77.8524L128.542 77.8606Z" fill="#D8B88D"/>
<path d="M132.652 76.4633L129.426 82.7432L129.118 82.998V82.883L132.402 76.6071L132.652 76.4633Z" fill="#A57F6B"/>
<path d="M133.031 76.081L129.118 83.5529L128.929 83.4542L132.842 75.9783L133.031 76.081Z" fill="#D8B88D"/>
<path d="M133.03 81.313L128.859 78.4483L128.97 78.2346L133.141 81.0951L133.03 81.313Z" fill="#D8B88D"/>
<path d="M124.671 76.4633L127.897 82.7432L128.197 83.0227V82.8706L124.922 76.6071L124.671 76.4633Z" fill="#895E1A"/>
<path d="M124.292 76.081L128.205 83.5529L128.394 83.4542L124.482 75.9783L124.292 76.081Z" fill="#B08D57"/>
<path d="M124.293 81.313L128.464 78.4483L128.353 78.2346L124.182 81.0951L124.293 81.313Z" fill="#B08D57"/>
<path d="M133.708 86.8367V81.091L138.299 78.4401V84.1775L133.708 86.8367Z" fill="#D8B88D"/>
<path d="M133.709 86.8367V81.091L129.118 78.4401V84.1775L133.709 86.8367Z" fill="#B08D57"/>
<path d="M129.714 83.7954V79.3855L129.578 79.3074V83.8941L133.248 86.0189V85.8422L129.714 83.7954Z" fill="#895E1A"/>
<path d="M133.248 85.8422V81.4281L129.714 79.3855V83.7955L133.248 85.8422Z" fill="#895E1A"/>
<path d="M137.703 83.7954V79.3855L137.839 79.3074V83.8941L134.169 86.0189V85.8422L137.703 83.7954Z" fill="#A57F6B"/>
<path d="M134.169 85.8422V81.4281L137.703 79.3855V83.7955L134.169 85.8422Z" fill="#895E1A"/>
<path d="M129.118 78.4402L133.709 81.0911L138.299 78.4402L133.709 75.7852L129.118 78.4402Z" fill="#D8B88D"/>
<path d="M137.346 78.4936L137.498 78.4032L133.713 76.2167L129.923 78.4032L130.075 78.4936L133.713 76.3893L137.346 78.4936Z" fill="#895E1A"/>
<path d="M137.346 78.4936L133.713 76.3893L130.075 78.4936L133.708 80.5937L137.346 78.4936Z" fill="#B08D57"/>
<path d="M137.124 78.6209L130.314 78.6291L130.035 78.4401H137.441L137.124 78.6209Z" fill="#895E1A"/>
<path d="M137.831 78.506L129.512 78.5183L129.554 78.2964L137.868 78.2841L137.831 78.506Z" fill="#D8B88D"/>
<path d="M133.594 80.7827L133.577 75.9782L133.807 75.97L133.824 80.7745L133.594 80.7827Z" fill="#D8B88D"/>
<path d="M137.703 79.3855L134.473 85.6655L134.169 85.9203V85.8011L137.453 79.5293L137.703 79.3855Z" fill="#A57F6B"/>
<path d="M138.077 79.0031L134.169 86.475L133.98 86.3723L137.892 78.9004L138.077 79.0031Z" fill="#D8B88D"/>
<path d="M138.077 84.231L133.91 81.3705L134.021 81.1527L138.192 84.0173L138.077 84.231Z" fill="#D8B88D"/>
<path d="M129.718 79.3855L132.948 85.6655L133.248 85.945V85.7888L129.972 79.5293L129.718 79.3855Z" fill="#895E1A"/>
<path d="M129.344 79.0031L133.256 86.475L133.441 86.3723L129.533 78.9004L129.344 79.0031Z" fill="#B08D57"/>
<path d="M129.344 84.231L133.515 81.3705L133.4 81.1527L129.233 84.0173L129.344 84.231Z" fill="#B08D57"/>
<path d="M142.208 89.5164L142.204 83.7707L146.795 81.1157V86.8573L142.208 89.5164Z" fill="#D8B88D"/>
<path d="M142.208 89.5164L142.204 83.7707L137.617 81.1157V86.8573L142.208 89.5164Z" fill="#B08D57"/>
<path d="M138.209 86.4751V82.061L138.078 81.9829V86.5696L141.748 88.6986V88.5218L138.209 86.4751Z" fill="#895E1A"/>
<path d="M141.748 88.5219L141.744 84.1078L138.209 82.061V86.4751L141.748 88.5219Z" fill="#895E1A"/>
<path d="M146.203 86.4751V82.061L146.334 81.9829V86.5696L142.664 88.6986V88.5218L146.203 86.4751Z" fill="#A57F6B"/>
<path d="M142.664 88.5219L142.668 84.1078L146.203 82.061V86.4751L142.664 88.5219Z" fill="#895E1A"/>
<path d="M137.617 81.1156L142.204 83.7706L146.795 81.1156L142.208 78.4647L137.617 81.1156Z" fill="#D8B88D"/>
<path d="M145.845 81.1732L145.997 81.0828L142.208 78.8922L138.419 81.0828L138.571 81.1732L142.208 79.0689L145.845 81.1732Z" fill="#895E1A"/>
<path d="M145.845 81.1731L142.208 79.0688L138.571 81.1731L142.208 83.2733L145.845 81.1731Z" fill="#B08D57"/>
<path d="M145.619 81.3007L138.813 81.3089L138.53 81.1157H145.936L145.619 81.3007Z" fill="#895E1A"/>
<path d="M146.326 81.1856L138.012 81.1938L138.049 80.976L146.367 80.9636L146.326 81.1856Z" fill="#D8B88D"/>
<path d="M142.093 83.4624L142.072 78.6579L142.302 78.6497L142.319 83.4542L142.093 83.4624Z" fill="#D8B88D"/>
<path d="M146.203 82.061L142.972 88.3451L142.664 88.5999V88.4808L145.948 82.209L146.203 82.061Z" fill="#A57F6B"/>
<path d="M146.577 81.6828L142.664 89.1547L142.479 89.0519L146.388 81.5801L146.577 81.6828Z" fill="#D8B88D"/>
<path d="M146.577 86.9107L142.405 84.0502L142.52 83.8324L146.688 86.697L146.577 86.9107Z" fill="#D8B88D"/>
<path d="M138.217 82.061L141.448 88.3451L141.748 88.6246V88.4684L138.468 82.209L138.217 82.061Z" fill="#895E1A"/>
<path d="M137.843 81.6828L141.752 89.1547L141.941 89.0519L138.028 81.5801L137.843 81.6828Z" fill="#B08D57"/>
<path d="M137.843 86.9107L142.011 84.0502L141.9 83.8324L137.728 86.697L137.843 86.9107Z" fill="#B08D57"/>
<path d="M126.566 90.8973V85.1516L131.156 82.5007V88.2382L126.566 90.8973Z" fill="#D8B88D"/>
<path d="M126.565 90.8973V85.1516L121.975 82.5007V88.2382L126.565 90.8973Z" fill="#B08D57"/>
<path d="M122.571 87.856V83.446L122.435 83.3679V87.9546L126.105 90.0794V89.9027L122.571 87.856Z" fill="#895E1A"/>
<path d="M126.105 89.9027V85.4887L122.571 83.446V87.856L126.105 89.9027Z" fill="#895E1A"/>
<path d="M130.56 87.856V83.446L130.696 83.3679V87.9546L127.026 90.0794V89.9027L130.56 87.856Z" fill="#A57F6B"/>
<path d="M127.026 89.9027V85.4887L130.56 83.446V87.856L127.026 89.9027Z" fill="#895E1A"/>
<path d="M121.975 82.5007L126.565 85.1516L131.156 82.5007L126.565 79.8457L121.975 82.5007Z" fill="#D8B88D"/>
<path d="M130.203 82.5543L130.355 82.4679L126.57 80.2773L122.781 82.4679L122.933 82.5543L126.57 80.4541L130.203 82.5543Z" fill="#895E1A"/>
<path d="M130.203 82.5542L126.57 80.454L122.932 82.5542L126.566 84.6543L130.203 82.5542Z" fill="#B08D57"/>
<path d="M129.981 82.6816L123.171 82.6939L122.891 82.5007H130.297L129.981 82.6816Z" fill="#895E1A"/>
<path d="M130.688 82.5664L122.369 82.5788L122.411 82.3568L130.725 82.3445L130.688 82.5664Z" fill="#D8B88D"/>
<path d="M126.451 84.8434L126.434 80.043L126.664 80.0306L126.681 84.8352L126.451 84.8434Z" fill="#D8B88D"/>
<path d="M130.56 83.446L127.33 89.726L127.026 89.9808V89.8658L130.31 83.5899L130.56 83.446Z" fill="#A57F6B"/>
<path d="M130.934 83.0637L127.026 90.5397L126.837 90.4369L130.749 82.9651L130.934 83.0637Z" fill="#D8B88D"/>
<path d="M130.935 88.2957L126.767 85.4311L126.878 85.2174L131.05 88.0779L130.935 88.2957Z" fill="#D8B88D"/>
<path d="M122.575 83.446L125.805 89.726L126.105 90.0055V89.8534L122.83 83.5899L122.575 83.446Z" fill="#895E1A"/>
<path d="M122.201 83.0637L126.113 90.5397L126.298 90.4369L122.39 82.9651L122.201 83.0637Z" fill="#B08D57"/>
<path d="M122.201 88.2957L126.372 85.4311L126.257 85.2174L122.09 88.0779L122.201 88.2957Z" fill="#B08D57"/>
<path d="M133.166 75.9536L133.162 70.2079L137.753 67.5529V73.2944L133.166 75.9536Z" fill="#D8B88D"/>
<path d="M133.166 75.9536L133.162 70.2079L128.575 67.5529V73.2944L133.166 75.9536Z" fill="#B08D57"/>
<path d="M129.167 72.9123V68.4983L129.036 68.4202V73.0069L132.706 75.1358V74.9591L129.167 72.9123Z" fill="#895E1A"/>
<path d="M132.706 74.959L132.702 70.5449L129.167 68.4982V72.9122L132.706 74.959Z" fill="#895E1A"/>
<path d="M137.161 72.9123V68.4983L137.293 68.4202V73.0069L133.623 75.1358V74.9591L137.161 72.9123Z" fill="#A57F6B"/>
<path d="M133.623 74.959L133.627 70.5449L137.161 68.4982V72.9122L133.623 74.959Z" fill="#895E1A"/>
<path d="M128.575 67.553L133.162 70.208L137.753 67.553L133.166 64.9021L128.575 67.553Z" fill="#D8B88D"/>
<path d="M136.804 67.6105L136.956 67.5201L133.166 65.3295L129.377 67.5201L129.529 67.6105L133.166 65.5062L136.804 67.6105Z" fill="#895E1A"/>
<path d="M136.804 67.6104L133.166 65.5061L129.529 67.6104L133.166 69.7106L136.804 67.6104Z" fill="#B08D57"/>
<path d="M136.577 67.7378L129.771 67.746L129.488 67.5529H136.894L136.577 67.7378Z" fill="#895E1A"/>
<path d="M137.284 67.6228L128.97 67.631L129.007 67.4132L137.325 67.4009L137.284 67.6228Z" fill="#D8B88D"/>
<path d="M133.051 69.8996L133.03 65.0951L133.26 65.0869L133.277 69.8914L133.051 69.8996Z" fill="#D8B88D"/>
<path d="M137.161 68.4982L133.931 74.7823L133.623 75.0371V74.9179L136.906 68.6461L137.161 68.4982Z" fill="#A57F6B"/>
<path d="M137.535 68.1201L133.622 75.5919L133.438 75.4892L137.346 68.0173L137.535 68.1201Z" fill="#D8B88D"/>
<path d="M137.535 73.3479L133.363 70.4874L133.478 70.2695L137.646 73.1342L137.535 73.3479Z" fill="#D8B88D"/>
<path d="M129.175 68.4982L132.406 74.7823L132.706 75.0617V74.9056L129.426 68.6461L129.175 68.4982Z" fill="#895E1A"/>
<path d="M128.802 68.1201L132.71 75.5919L132.899 75.4892L128.986 68.0173L128.802 68.1201Z" fill="#B08D57"/>
<path d="M128.801 73.3479L132.969 70.4874L132.858 70.2695L128.686 73.1342L128.801 73.3479Z" fill="#B08D57"/>
<path d="M198.009 83.2076C197.051 83.2076 196.278 83.6433 196.278 84.1817C196.278 84.7201 197.055 85.1557 198.009 85.1557C198.962 85.1557 199.739 84.7201 199.739 84.1817C199.739 83.6433 198.962 83.2076 198.009 83.2076Z" fill="url(#paint4_linear_45_473)"/>
<path d="M199.739 83.557H196.274V84.1776H199.739V83.557Z" fill="url(#paint5_linear_45_473)"/>
<path d="M198.009 82.5829C197.051 82.5829 196.278 83.0185 196.278 83.5569C196.278 84.0953 197.055 84.531 198.009 84.531C198.962 84.531 199.739 84.0953 199.739 83.5569C199.739 83.0185 198.962 82.5829 198.009 82.5829Z" fill="#8E6938"/>
<path d="M198.009 82.8214C197.458 82.8214 197.014 83.0721 197.014 83.3804C197.014 83.6886 197.458 83.9393 198.009 83.9393C198.56 83.9393 199.003 83.6886 199.003 83.3804C199.003 83.0721 198.56 82.8214 198.009 82.8214Z" fill="url(#paint6_linear_45_473)"/>
<path d="M198.592 51.9845H197.417C197.417 51.9845 197.014 76.6318 197.014 83.4255H199.003C199.003 76.6318 198.597 51.9845 198.597 51.9845H198.592Z" fill="url(#paint7_linear_45_473)"/>
<path d="M198.004 51.6516C197.68 51.6516 197.417 51.7996 197.417 51.9845C197.417 52.1695 197.68 52.3174 198.004 52.3174C198.329 52.3174 198.592 52.1695 198.592 51.9845C198.592 51.7996 198.329 51.6516 198.004 51.6516Z" fill="#E2C8BA"/>
<path d="M198.941 50.8583V50.5008C198.941 49.5308 198.35 49.6623 197.622 50.0816L195.423 51.3515V52.8886L198.937 50.8583H198.941Z" fill="url(#paint8_linear_45_473)"/>
<path d="M195.423 51.3516L196.8 52.1694L200.014 50.6118L198.724 49.8391L195.423 51.3516Z" fill="url(#paint9_linear_45_473)"/>
<path d="M200.314 51.6804V51.3228C200.314 50.3528 199.723 50.4844 198.995 50.9036L196.796 52.1735V53.7107L200.31 51.6804H200.314Z" fill="#895E1A"/>
<path d="M196.8 52.1694L195.423 51.3516V52.8887L196.8 53.7066V52.1694Z" fill="url(#paint10_linear_45_473)"/>
<path d="M196.303 35.0968L195.945 35.294L195.929 35.6516C195.703 36.1695 195.46 37.1435 195.46 38.9478C195.46 41.1342 195.81 51.7666 195.81 51.7666L196.418 52.5188L196.775 52.3215C196.775 52.3215 197.141 42.1001 197.141 39.9095C197.141 36.5517 196.299 35.0927 196.299 35.0927L196.303 35.0968Z" fill="#895E1A"/>
<path d="M195.945 35.2941C195.945 35.2941 195.107 35.7873 195.107 39.1492C195.107 41.3357 195.456 51.9681 195.456 51.9681L195.945 52.2517L196.418 52.527C196.418 52.527 196.784 42.3056 196.784 40.115C196.784 36.7572 195.941 35.2982 195.941 35.2982L195.945 35.2941Z" fill="url(#paint11_linear_45_473)"/>
<path d="M188.572 54.1299C190.158 53.5052 195.456 51.964 195.456 51.964L196.303 52.3216L195.912 53.271C195.912 53.271 190.569 55.8684 188.983 56.4931C187.397 57.1178 186.464 56.2876 186.464 56.2876C186.464 56.2876 186.99 54.7546 188.576 54.1299H188.572Z" fill="url(#paint12_linear_45_473)"/>
<path d="M204.161 62.3415C202.846 60.3236 196.784 52.0092 196.784 52.0092L196.434 52.1982L196.508 52.5558L196.245 53.0777C196.245 53.0777 201.765 62.4607 203.08 64.4787C203.725 65.4651 204.296 65.8884 204.716 66.0692L205.073 66.361L205.423 66.172C205.423 66.172 205.48 64.3595 204.165 62.3415H204.161Z" fill="#895E1A"/>
<path d="M203.812 62.5347C202.497 60.5167 196.434 52.2064 196.434 52.2064L196.163 52.7407L195.892 53.275C195.892 53.275 201.411 62.6539 202.727 64.676C204.042 66.6939 205.069 66.3692 205.069 66.3692C205.069 66.3692 205.127 64.5568 203.812 62.5388V62.5347Z" fill="url(#paint13_linear_45_473)"/>
<path d="M195.76 52.4982C195.76 52.6708 195.867 52.8722 195.994 52.9503C196.126 53.0243 196.229 52.9462 196.229 52.7736C196.229 52.6009 196.122 52.3996 195.994 52.3215C195.863 52.2475 195.76 52.3256 195.76 52.4982Z" fill="white"/>
<path d="M8.11183 88.1151L4.02576 90.4742L4.26208 90.8836L8.34815 88.5245L8.11183 88.1151Z" fill="#2D2D2D"/>
<path d="M13.8493 91.5652L9.76318 93.9243L9.9995 94.3336L14.0856 91.9745L13.8493 91.5652Z" fill="#2D2D2D"/>
<path d="M10.1681 87.7573V95.9032C10.1681 96.0306 9.98725 96.1293 9.76531 96.1293C9.54338 96.1293 9.36255 96.0265 9.36255 95.9032V87.7573H10.1681Z" fill="#2D2D2D"/>
<path d="M4.2705 81.7034V92.5865C4.2705 92.7139 4.08967 92.8125 3.86773 92.8125C3.64579 92.8125 3.46497 92.7098 3.46497 92.5865V81.7034H4.2705Z" fill="#2D2D2D"/>
<path d="M38.2801 79.6895C38.2801 79.8169 38.0993 79.9155 37.8774 79.9155C37.6554 79.9155 37.4746 79.8128 37.4746 79.6895V71.5436H38.2843V79.6895H38.2801Z" fill="#2D2D2D"/>
<path d="M32.3822 65.4897V76.3728C32.3822 76.5003 32.2014 76.5989 31.9794 76.5989C31.7575 76.5989 31.5767 76.4961 31.5767 76.3728V65.4897H32.3863H32.3822Z" fill="#2D2D2D"/>
<path d="M3.98439 90.777L3.74792 91.1863L9.64451 94.5934L9.88098 94.1842L3.98439 90.777Z" fill="#2D2D2D"/>
<path d="M12.5972 92.8536L43.9642 74.774L31.7865 62.7443L0.419434 80.8239L12.5972 92.8536Z" fill="url(#paint14_linear_45_473)"/>
<path d="M31.7863 63.406L37.6923 69.2175L28.823 65.1157L31.7863 63.406Z" fill="#FFFFF8"/>
<path d="M16.4275 72.2711L33.4796 80.1499L30.2286 82.0281L13.1765 74.1494L16.4275 72.2711Z" fill="#FFFFF8"/>
<path d="M27.0063 66.1678L41.3047 72.7766L43.1378 74.5768L38.8182 77.0715L21.7661 69.1886L27.0063 66.1678Z" fill="#FFFFF8"/>
<path d="M1.36035 80.9718L13.1764 74.1493L30.2285 82.028L12.7079 92.1467L1.36035 80.9718Z" fill="#FFFFF8"/>
<path opacity="0.5" d="M13.1766 74.1493L30.2287 82.028L28.4121 83.0802L11.36 75.2014L13.1766 74.1493Z" fill="#E5E5E5"/>
<path opacity="0.5" d="M22.7937 86.3229L12.7079 92.1467L1.36035 80.9718L5.74153 78.4401L22.7937 86.3229Z" fill="#E5E5E5"/>
<path d="M28.823 65.1157L37.6923 69.2174L41.3049 72.7766L27.0065 66.1679L28.823 65.1157Z" fill="#FFFFF8"/>
<path opacity="0.5" d="M28.823 65.1157L37.6923 69.2174L41.3049 72.7766L27.0065 66.1679L28.823 65.1157Z" fill="#E5E5E5"/>
<path d="M21.7663 69.1886L38.8184 77.0715L33.4796 80.1498L16.4275 72.271L21.7663 69.1886Z" fill="#FFFFF8"/>
<path opacity="0.5" d="M21.7663 69.1886L38.8184 77.0715L33.4796 80.1498L16.4275 72.271L21.7663 69.1886Z" fill="#E5E5E5"/>
<path d="M40.5775 76.2864L41.0419 76.0398L35.2839 70.3805L37.7869 68.9379L37.417 68.5146L34.877 69.9818L29.2793 64.4868L28.8148 64.7334L34.4249 70.2448L32.0083 71.6422L26.4105 66.1431L25.942 66.3897L31.5562 71.9011L29.3286 73.1875L23.7227 67.6843L23.2541 67.9309L28.8765 73.4506L26.4557 74.848L20.8498 69.3407L20.3854 69.5872L26.0037 75.1069L23.8254 76.3645L18.4085 71.0463L17.94 71.2929L23.3733 76.6276L20.9525 78.0249L15.5357 72.7026L15.0713 72.9492L20.5005 78.2839L18.2318 79.5949L12.6834 74.1452L12.2148 74.3918L17.7797 79.858L15.3589 81.2553L9.81054 75.8056L9.34612 76.0481L14.9068 81.5143L12.7286 82.776L7.36924 77.5071L6.9007 77.7537L12.2765 83.035L9.85986 84.4323L4.20047 78.8716L3.73193 79.1182L9.40775 84.6913L6.42393 86.4133L6.81438 86.8202L9.81463 85.0899L15.4946 90.6712L15.9631 90.4246L10.2667 84.831L12.6834 83.4336L18.6633 89.3067L19.1319 89.0642L13.1355 83.1747L15.3137 81.9129L21.1087 87.6052L21.5731 87.3586L15.7658 81.654L18.1866 80.2566L23.9775 85.9448L24.446 85.7023L18.6386 79.9936L20.9073 78.6825L26.8339 84.5022L27.2983 84.2556L21.3595 78.4236L23.7802 77.0262L29.7026 82.8459L30.1711 82.5993L24.2323 76.7673L26.4105 75.5056L32.148 81.1403L32.6165 80.8978L26.8626 75.2466L29.2834 73.8492L35.0209 79.484L35.4853 79.2374L29.7314 73.5862L31.9631 72.2998L37.7046 77.9427L38.1732 77.6961L32.4151 72.0409L34.8318 70.6435L40.5775 76.2864Z" fill="url(#paint15_linear_45_473)"/>
<path d="M0.419401 80.8239L0.144043 81.4116L12.3218 93.4413L12.5971 92.8536L0.419401 80.8239Z" fill="#895E1A"/>
<path d="M43.9642 74.774L43.6888 75.3618L12.3218 93.4414L12.5971 92.8536L43.9642 74.774Z" fill="#895E1A"/>
<defs>
<linearGradient id="paint0_linear_45_473" x1="57.3089" y1="36.7284" x2="106.123" y2="36.7284" gradientUnits="userSpaceOnUse">
<stop stop-color="#895E1A"/>
<stop offset="1" stop-color="#AD8A56"/>
</linearGradient>
<linearGradient id="paint1_linear_45_473" x1="106.143" y1="37.1805" x2="157.082" y2="37.1805" gradientUnits="userSpaceOnUse">
<stop stop-color="#895E1A"/>
<stop offset="1" stop-color="#AD8A56"/>
</linearGradient>
<linearGradient id="paint2_linear_45_473" x1="94.5369" y1="1.92546" x2="106.115" y2="1.92546" gradientUnits="userSpaceOnUse">
<stop stop-color="#895E1A"/>
<stop offset="1" stop-color="#AD8A56"/>
</linearGradient>
<linearGradient id="paint3_linear_45_473" x1="106.115" y1="1.84331" x2="121.917" y2="1.84331" gradientUnits="userSpaceOnUse">
<stop stop-color="#895E1A"/>
<stop offset="1" stop-color="#AD8A56"/>
</linearGradient>
<linearGradient id="paint4_linear_45_473" x1="196.821" y1="81.5555" x2="182.309" y2="49.4282" gradientUnits="userSpaceOnUse">
<stop stop-color="#895E1A"/>
<stop offset="1" stop-color="#AD8A56"/>
</linearGradient>
<linearGradient id="paint5_linear_45_473" x1="196.936" y1="81.502" x2="182.423" y2="49.3746" gradientUnits="userSpaceOnUse">
<stop stop-color="#895E1A"/>
<stop offset="1" stop-color="#AD8A56"/>
</linearGradient>
<linearGradient id="paint6_linear_45_473" x1="197.121" y1="81.4199" x2="182.609" y2="49.2924" gradientUnits="userSpaceOnUse">
<stop stop-color="#895E1A"/>
<stop offset="1" stop-color="#AD8A56"/>
</linearGradient>
<linearGradient id="paint7_linear_45_473" x1="197.014" y1="67.705" x2="199.003" y2="67.705" gradientUnits="userSpaceOnUse">
<stop stop-color="#895E1A"/>
<stop offset="1" stop-color="#AD8A56"/>
</linearGradient>
<linearGradient id="paint8_linear_45_473" x1="195.423" y1="51.3269" x2="198.941" y2="51.3269" gradientUnits="userSpaceOnUse">
<stop stop-color="#895E1A"/>
<stop offset="1" stop-color="#AD8A56"/>
</linearGradient>
<linearGradient id="paint9_linear_45_473" x1="209.04" y1="76.0358" x2="194.523" y2="43.9084" gradientUnits="userSpaceOnUse">
<stop stop-color="#895E1A"/>
<stop offset="1" stop-color="#AD8A56"/>
</linearGradient>
<linearGradient id="paint10_linear_45_473" x1="207.121" y1="76.903" x2="192.609" y2="44.7712" gradientUnits="userSpaceOnUse">
<stop stop-color="#895E1A"/>
<stop offset="1" stop-color="#AD8A56"/>
</linearGradient>
<linearGradient id="paint11_linear_45_473" x1="210.12" y1="75.5468" x2="195.608" y2="43.4195" gradientUnits="userSpaceOnUse">
<stop stop-color="#895E1A"/>
<stop offset="1" stop-color="#AD8A56"/>
</linearGradient>
<linearGradient id="paint12_linear_45_473" x1="202.525" y1="78.9786" x2="188.013" y2="46.8472" gradientUnits="userSpaceOnUse">
<stop stop-color="#895E1A"/>
<stop offset="1" stop-color="#AD8A56"/>
</linearGradient>
<linearGradient id="paint13_linear_45_473" x1="208.255" y1="76.3893" x2="193.738" y2="44.2619" gradientUnits="userSpaceOnUse">
<stop stop-color="#895E1A"/>
<stop offset="1" stop-color="#AD8A56"/>
</linearGradient>
<linearGradient id="paint14_linear_45_473" x1="6.35418" y1="75.7974" x2="49.0523" y2="81.1897" gradientUnits="userSpaceOnUse">
<stop stop-color="#895E1A"/>
<stop offset="1" stop-color="#AD8A56"/>
</linearGradient>
<linearGradient id="paint15_linear_45_473" x1="6.38695" y1="75.559" x2="49.0809" y2="80.9471" gradientUnits="userSpaceOnUse">
<stop stop-color="#895E1A"/>
<stop offset="1" stop-color="#AD8A56"/>
</linearGradient>
</defs>
</svg>
