<svg width="119" height="102" viewBox="0 0 119 102" fill="none" xmlns="http://www.w3.org/2000/svg">
<path d="M106.176 90.917C108.72 90.8595 109.949 90.2389 110.681 88.8703C111.392 85.6275 111.326 80.4983 110.615 78.4105C109.678 75.6568 103.258 78.3941 103.258 78.3941C103.258 78.3941 102.309 82.2286 102.091 85.8413C102.005 87.2715 102.013 88.5004 102.255 89.4703C102.679 89.9882 103.801 90.9705 106.18 90.9129L106.176 90.917Z" fill="#E9EEF4"/>
<path d="M103.521 91.3568C104.968 92.1911 109.181 92.3473 110.06 90.7732C110.327 90.2923 110.521 89.6306 110.685 88.8744C109.953 90.243 108.725 90.8636 106.18 90.9211C103.801 90.9746 102.683 89.9964 102.255 89.4786C102.465 90.3211 102.847 90.9705 103.521 91.3609V91.3568Z" fill="#D8E1EA"/>
<path d="M105.063 80.6998C105.005 81.1889 104.795 83.3836 104.721 85.2084C104.647 87.0373 105.342 87.3292 106.657 87.4031C107.972 87.4771 108.564 86.6222 108.503 84.744C108.445 82.8699 108.207 80.6998 108.207 80.6998H105.063V80.6998Z" fill="#D8E1EA"/>
<path d="M92.5067 81.4108C94.9932 79.6559 95.7371 77.3173 95.7371 77.3173C95.7371 77.3173 96.6741 77.2434 97.4797 76.8776C97.8783 76.6967 98.203 76.3638 98.4291 76.072V72.9362L91.1833 73.6924C91.1833 73.6924 90.4805 74.4404 89.4735 75.2336C88.2734 76.1748 86.1897 77.9215 85.7376 78.8257C85.1828 79.9272 85.2033 81.3122 85.2773 82.126C85.6513 82.3315 86.1445 82.5616 86.8062 82.8041C89.2187 83.6795 90.0243 83.1699 92.5108 81.415L92.5067 81.4108Z" fill="#E9EEF4"/>
<path d="M88.7009 84.1481C90.1188 84.3412 92.0381 82.874 93.4848 81.6164C95.7371 79.66 96.0905 78.0736 96.0905 78.0736C96.0905 78.0736 96.6207 78.1928 97.4057 77.864C97.8784 77.6667 98.4291 77.0667 98.4291 76.8077V76.0762C98.1989 76.368 97.8742 76.7009 97.4797 76.8817C96.6741 77.2475 95.7371 77.3215 95.7371 77.3215C95.7371 77.3215 94.9932 79.66 92.5067 81.415C90.0202 83.1699 89.2146 83.6837 86.8021 82.8041C86.1404 82.5616 85.6472 82.3356 85.2732 82.126C85.3102 82.537 85.3636 82.8041 85.3636 82.8041C85.3636 82.8041 86.8761 83.9015 88.7009 84.1522V84.1481Z" fill="#D8E1EA"/>
<path d="M91.1835 74.2472C91.1835 74.2472 89.4368 75.7103 88.4134 76.7337C87.39 77.7571 87.1475 78.1229 88.1093 78.6366C89.071 79.1503 90.3738 78.7352 91.8534 77.0995C93.333 75.4637 93.485 75.2377 93.485 75.2377L91.1835 74.2513V74.2472Z" fill="#D8E1EA"/>
<path d="M95.248 14.5668C95.248 14.5668 93.0204 13.3256 90.6449 16.1081C89.2557 17.7356 88.9023 19.4905 88.2077 21.8743C87.7186 23.5635 86.2966 26.6583 85.5938 28.8447C81.64 31.7094 79.0097 33.5917 78.0973 35.285C77.6246 36.1645 79.2398 39.358 81.1263 38.9798C82.5606 38.6921 86.9829 36.5303 90.312 34.3808C92.482 32.9834 96.144 25.0307 96.2426 24.4471C96.3412 23.8635 95.248 14.5668 95.248 14.5668Z" fill="#D8E1EA"/>
<path d="M96.2098 72.8376C96.4071 71.6293 96.8386 70.3593 96.7893 69.1551C96.2386 69.3072 95.5851 69.6318 95.0344 69.7798C94.7919 69.8456 94.4836 69.6524 94.5083 69.3811C94.5617 68.74 96.7441 68.0043 96.7893 66.8248C96.8222 65.9781 96.7482 65.2219 96.6537 64.7945C96.4071 63.6971 95.2481 64.8232 94.3809 65.0082C94.085 65.0698 93.711 64.7287 93.937 64.4328C94.3316 63.9149 94.8289 63.5574 95.2399 63.0806C95.9262 62.2874 96.3372 60.8613 96.0495 59.805C95.6385 58.309 94.1096 59.5625 93.1931 58.7775C92.9671 58.5843 93.0986 58.2021 93.3657 58.1281C94.085 57.9884 95.3303 57.4993 95.7454 56.8952C96.4194 55.9129 94.1918 55.8965 93.7521 55.58C93.4808 55.3868 93.5055 54.9717 93.8466 54.8649C94.2247 54.7416 94.8124 54.5607 95.1864 54.4169C96.2797 53.9936 96.9907 53.3771 96.9866 52.4236C96.9866 52.1153 96.329 51.9263 96.0783 51.8153C95.4782 51.5481 95.5851 51.0796 96.0783 51.0385C97.4181 50.981 98.2442 50.348 98.9059 49.2918C98.9552 49.1151 99.095 48.9712 99.3457 48.9918C100.032 49.0411 100.632 49.2178 101.17 49.485C101.195 49.3863 101.212 49.3247 101.212 49.3247L103.382 42.046L91.3149 40.6897C91.3149 40.6897 89.6709 44.8859 88.8201 49.822C88.1215 53.8703 88.179 56.4924 88.1297 58.8145C88.0639 61.8928 88.6023 63.4012 88.8201 67.918C88.9969 71.5841 89.6873 74.0747 89.6873 74.0747C89.6873 74.0747 91.9971 75.8872 95.2645 75.4515C95.6344 75.4022 95.9714 75.3241 96.2961 75.2337C96.181 74.6665 96.0372 73.9637 96.2221 72.8376H96.2098Z" fill="#D8E1EA"/>
<path d="M98.3881 60.0185C98.2935 59.2582 97.9483 58.1362 98.2935 56.9525C99.7937 54.766 100.944 50.3561 101.158 49.4889C100.62 49.2217 100.02 49.045 99.3334 48.9957C99.0868 48.9793 98.9429 49.119 98.8936 49.2957C98.2319 50.352 97.4058 50.9808 96.066 51.0424C95.5728 51.0835 95.4659 51.5521 96.066 51.8192C96.3167 51.9302 96.9743 52.1234 96.9743 52.4275C96.9743 53.381 96.2673 53.9975 95.1741 54.4208C94.8042 54.5647 94.2165 54.7455 93.8343 54.8688C93.4931 54.9757 93.4726 55.3908 93.7397 55.5839C94.1795 55.9004 96.4071 55.9168 95.7331 56.8991C95.318 57.5033 94.0726 57.9882 93.3534 58.1321C93.0863 58.2019 92.9547 58.5883 93.1808 58.7815C94.0973 59.5623 95.6262 58.3129 96.0372 59.8089C96.329 60.8652 95.918 62.2913 95.2275 63.0846C94.8165 63.5613 94.3234 63.9189 93.9247 64.4367C93.6986 64.7326 94.0685 65.0738 94.3686 65.0121C95.2358 64.8272 96.3948 63.701 96.6414 64.7984C96.7359 65.2258 96.8099 65.9821 96.777 66.8287C96.7318 68.0083 94.5494 68.7439 94.496 69.3851C94.4713 69.6604 94.7796 69.8495 95.022 69.7837C95.5728 69.6358 96.2304 69.3111 96.777 69.159C96.8304 70.3632 96.3948 71.6332 96.1975 72.8415C96.0125 73.9677 96.1564 74.6705 96.2715 75.2376C97.9319 74.7773 98.9922 73.9224 98.9922 73.9224C98.9922 73.9224 99.6622 62.1146 98.3757 60.0227L98.3881 60.0185Z" fill="#CAD6E0"/>
<path d="M110.467 75.5213C110.582 74.017 110.13 74.0294 109.16 74.613C108.19 75.1966 107.57 74.465 108.083 73.6636C108.597 72.858 109.547 71.5428 109.986 70.7373C110.426 69.9317 110.06 69.2002 109.164 69.6687C108.268 70.1372 107.648 70.8113 107.619 70.0057C107.59 69.2002 109.768 67.737 110.471 67.0096C111.174 66.278 110.134 64.3792 109.916 62.986C109.699 61.5968 109.916 59.1843 110.134 58.1075C110.352 57.0307 109.986 56.6238 109.321 57.0635C108.655 57.5033 108.014 57.6472 108.162 57.0635C108.309 56.4799 109.477 56.1142 110.134 55.3086C110.792 54.5031 110.352 53.7016 110.134 50.7753C109.916 47.8491 109.193 44.1337 109.193 44.1337C109.193 44.1337 110.052 43.7432 111.326 43.2131C111.26 42.6664 111.182 42.1322 111.096 41.6349C110.377 37.6523 97.1346 42.0458 97.1346 42.0458C97.1346 42.0458 97.1099 47.7093 98.3716 49.2752C99.6293 50.8411 100.258 51.5398 100.258 51.5398C100.258 51.5398 100.772 60.2282 101.253 63.3764C101.734 66.5246 102.153 79.1174 102.153 79.1174C102.153 79.1174 104.089 82.1424 107.607 82.0149C108.712 81.9739 109.707 81.4026 110.438 80.8354C110.163 79.0147 110.377 76.746 110.471 75.5254L110.467 75.5213Z" fill="#D8E1EA"/>
<path d="M111.651 79.6559C111.651 79.6559 111.363 67.0055 111.149 62.1106C111.051 59.809 111.515 55.432 111.581 53.4058C111.72 49.1027 111.647 45.8476 111.322 43.2131C110.048 43.7392 109.189 44.1338 109.189 44.1338C109.189 44.1338 109.912 47.8491 110.13 50.7754C110.348 53.7017 110.788 54.5031 110.13 55.3087C109.472 56.1142 108.301 56.48 108.157 57.0636C108.009 57.6472 108.65 57.5034 109.316 57.0636C109.982 56.6239 110.348 57.0307 110.13 58.1075C109.912 59.1843 109.69 61.5969 109.912 62.986C110.13 64.3752 111.17 66.2781 110.467 67.0097C109.764 67.7412 107.586 69.2044 107.615 70.0058C107.643 70.8113 108.264 70.1332 109.16 69.6688C110.056 69.2002 110.422 69.9318 109.982 70.7374C109.542 71.5429 108.593 72.8581 108.079 73.6636C107.565 74.4692 108.186 75.2007 109.156 74.613C110.126 74.0294 110.578 74.0171 110.463 75.5213C110.368 76.742 110.155 79.0107 110.43 80.8314C111.178 80.2436 111.647 79.66 111.647 79.66L111.651 79.6559Z" fill="#CAD6E0"/>
<path d="M88.0433 22.3921C88.0145 22.4702 89.3338 23.2675 89.7859 23.3045C90.2421 23.3374 91.397 19.7453 91.5326 18.8863C91.6642 18.0274 89.6914 17.5219 89.6914 17.5219C89.6914 17.5219 89.042 17.9164 88.4749 19.696C88.0351 21.0728 88.0474 22.3962 88.0474 22.3962L88.0433 22.3921Z" fill="#D8E1EA"/>
<path d="M91.3026 40.6897L90.8793 41.861C90.8793 41.861 93.1603 44.4708 98.6347 46.008C99.3129 46.197 102.901 46.8094 104.574 46.5833C108.848 46.0038 111.022 44.6599 111.022 44.6599C111.022 44.6599 111.408 43.0899 111.022 43.0899C110.636 43.0899 91.3026 40.6938 91.3026 40.6938V40.6897Z" fill="#D8E1EA"/>
<path d="M106.012 17.3451C106.012 17.3451 108.581 17.9205 109.945 19.622C111.31 21.3276 111.121 25.9924 110.738 29.2845C110.463 31.66 110.512 34.2863 110.599 36.5961C110.664 38.2976 111.026 40.9238 111.018 42.054C111.006 43.4432 107.993 45.4858 103.18 45.4858C98.3675 45.4858 92.7245 42.9829 91.1258 41.1581C91.1258 40.2416 90.8751 38.203 91.4587 35.9672C91.208 32.745 90.8216 28.6762 90.8833 25.902C90.9696 22.199 91.3477 17.937 92.7697 16.2971C93.4027 15.5655 94.6891 16.4492 95.807 16.3505C99.4278 16.0258 106.008 17.341 106.008 17.341L106.012 17.3451Z" fill="#E9EEF4"/>
<path d="M101.018 22.01C105.231 21.4305 106.822 19.914 107.327 18.57C107.833 17.2261 106.715 16.9219 106.53 15.9027C106.349 14.8875 107.676 13.0668 108.638 8.93633C109.575 4.91681 107.068 2.41386 106.933 2.28234C105.42 1.00826 103.468 0.235596 101.335 0.235596C96.5303 0.235596 92.6382 4.13181 92.6382 8.93221C92.6382 10.42 93.0122 11.8215 93.6739 13.0463C93.5589 14.008 93.2876 14.9163 92.7739 16.2931C92.4369 17.2014 92.0752 18.4467 92.3958 19.5523C94.6151 21.8127 97.2331 22.5238 101.018 22.0018V22.01Z" fill="#E9EEF4"/>
<path d="M93.378 20.9825C95.6015 22.6923 97.2043 22.869 100.948 22.6923C106.994 22.4087 109.67 18.6563 109.67 18.6563C109.67 18.6563 109.883 18.1508 109.67 17.1315C109.456 16.1082 108.42 15.9561 108.605 14.8259C108.741 13.9998 109.131 12.8901 109.329 12.3517C109.37 12.2572 109.399 12.1626 109.435 12.064C109.44 12.0476 109.452 12.0229 109.452 12.0229C109.818 11.0612 110.027 10.0255 110.027 8.93633C110.027 6.26488 108.823 3.88111 106.928 2.28235C107.064 2.41387 109.571 4.91271 108.634 8.93633C107.672 13.0668 106.345 14.8834 106.526 15.9027C106.706 16.9178 107.829 17.222 107.323 18.57C106.817 19.914 105.227 21.4305 101.014 22.01C97.2249 22.532 94.611 21.821 92.3916 19.5605C92.5437 20.0825 92.8437 20.5757 93.378 20.9867V20.9825Z" fill="#D8E1EA"/>
<path d="M93.4191 14.3285C93.4191 14.3285 96.8673 17.2178 100.948 16.5602C104.356 16.0095 105.564 14.349 105.391 10.9666C105.247 8.18414 104.82 7.04569 101.105 5.65242C97.566 4.32902 93.678 4.80578 93.678 4.80578C93.678 4.80578 92.8026 5.75928 92.4738 8.94037C92.2477 11.131 93.4191 14.3285 93.4191 14.3285V14.3285Z" fill="#D8E1EA"/>
<path d="M94.8124 5.47571C96.4933 5.4305 99.7196 5.88259 102.399 7.15256C103.867 7.85125 104.66 9.40481 104.643 11.6817C104.631 13.0339 104.146 14.8299 102.214 15.4957C97.5907 17.0822 93.1725 13.5599 93.1725 13.5599C93.1725 13.5599 91.5285 10.6912 92.6423 6.97584C93.1479 5.50448 93.8589 5.50448 94.8206 5.47571H94.8124Z" fill="#232A31"/>
<path d="M109.345 18.8412C107.389 19.5851 106.497 25.602 107.508 28.3803C107.804 29.19 108.618 31.5162 109.44 32.6999C110.484 34.2123 111.429 35.5645 111.429 35.5645C111.429 35.5645 110.138 38.5689 109.44 41.4458C108.901 43.6693 108.519 44.2118 109.695 45.1489C111.137 46.2996 113.496 47.3436 114.1 46.4599C115.938 43.7844 118.338 36.7358 118.436 33.9328C118.527 31.36 115.876 28.0104 114.857 25.0718C113.291 20.555 110.862 18.2576 109.349 18.8329L109.345 18.8412Z" fill="#D8E1EA"/>
<path d="M98.3469 35.9673L98.9264 35.692L99.5799 24.2664H98.9264C98.9264 24.2664 97.3769 26.8474 96.9495 29.7079C96.5221 32.5684 98.3469 35.9714 98.3469 35.9714V35.9673Z" fill="#D8E1EA"/>
<path d="M92.9136 22.3387C92.9136 22.3387 91.804 25.4253 91.8122 28.3228C91.8204 31.2162 92.2684 33.4767 92.2684 33.4767L98.347 35.9673C98.347 35.9673 97.8538 32.8725 97.862 30.0408C97.8743 27.209 98.9265 24.2663 98.9265 24.2663L92.9136 22.3387Z" fill="#E9EEF4"/>
<path d="M94.3398 22.7498C94.3398 22.7498 93.2301 25.8363 93.2383 28.7338C93.2465 31.6272 93.6904 34.0603 93.6904 34.0603L96.6578 35.2768C96.6578 35.2768 96.255 32.3218 96.2632 29.49C96.2715 26.6583 97.3277 23.7156 97.3277 23.7156L94.3398 22.7539V22.7498Z" fill="#232A31"/>
<path d="M93.6986 22.3387H92.9136L98.9264 24.2663H99.5799L93.6986 22.3387Z" fill="#FCF3F0"/>
<path d="M101.844 26.1323C101.807 26.5432 101.553 26.8597 101.277 26.8351C101.002 26.8104 100.805 26.4569 100.842 26.0459C100.879 25.635 101.133 25.3185 101.409 25.3431C101.684 25.3678 101.881 25.7213 101.844 26.1323Z" fill="#232A31"/>
<path d="M101.454 29.0174C101.417 29.4284 101.162 29.7448 100.887 29.7202C100.611 29.6955 100.414 29.3421 100.451 28.9311C100.488 28.5201 100.743 28.2036 101.018 28.2283C101.294 28.2529 101.491 28.6064 101.454 29.0174Z" fill="#232A31"/>
<path d="M91.3025 36.7235C91.3025 36.7235 95.9796 40.0854 101.343 40.3608C107.985 40.7019 110.771 38.8278 110.771 38.8278L110.714 38.2113C110.714 38.2113 106.37 39.8594 101.66 39.4977C97.0235 39.1443 91.808 36.2468 91.4587 35.9673C91.3025 36.3331 91.3025 36.7235 91.3025 36.7235V36.7235Z" fill="#D8E1EA"/>
<path d="M89.2188 71.7771C89.2188 71.7771 91.2286 73.2937 94.6316 72.8539C98.0305 72.4142 99.1196 71.2798 99.1196 71.2798L99.1607 69.5989C99.1607 69.5989 96.3495 70.8072 93.9863 70.988C91.2697 71.1935 88.964 69.8948 88.964 69.8948L89.2188 71.773V71.7771Z" fill="#232A31"/>
<path d="M94.6273 67.811C94.6273 67.811 93.3121 68.3946 92.2148 68.7604C91.1174 69.1262 90.3859 69.603 90.3859 69.603C90.3859 69.603 91.2654 69.8578 92.5066 69.3482C93.7478 68.8344 94.6273 67.811 94.6273 67.811Z" fill="#D8E1EA"/>
<path d="M94.0603 62.6202C94.0603 62.6202 92.8725 63.3518 92.0711 63.7916C91.2656 64.2313 90.3901 64.6711 90.3901 64.6711C90.3901 64.6711 91.6848 65.0081 92.7739 64.2026C93.863 63.397 94.0644 62.6244 94.0644 62.6244L94.0603 62.6202Z" fill="#D8E1EA"/>
<path d="M88.8036 59.4761C88.8036 59.4761 88.779 60.7173 89.3626 61.305C89.9462 61.8886 90.3859 61.7448 90.3859 61.7448C90.3859 61.7448 89.4941 60.1378 88.8036 59.4761V59.4761Z" fill="#D8E1EA"/>
<path d="M95.285 53.0729C95.285 53.0729 94.1219 53.4304 93.1438 53.7839C92.1656 54.1415 91.8121 54.7127 91.8121 54.7127C91.8121 54.7127 93.1972 54.4292 94.1096 54.0017C95.022 53.5743 95.2891 53.0729 95.2891 53.0729H95.285Z" fill="#D8E1EA"/>
<path d="M102.038 76.3679C102.038 76.3679 103.669 78.6284 106.842 78.8421C110.303 79.0723 111.54 77.1694 111.54 77.1694L111.651 75.2336C111.651 75.2336 108.605 76.5406 106.846 76.5406C103.772 76.5406 102.042 74.5349 102.042 74.5349V76.3638L102.038 76.3679Z" fill="#232A31"/>
<path d="M102.819 72.3444C102.819 72.3444 102.967 73.2938 103.842 73.5157C104.722 73.7335 105.305 73.5157 105.305 73.5157C105.305 73.5157 103.78 72.7882 102.819 72.3444Z" fill="#D8E1EA"/>
<path d="M109.181 65.6165C109.181 65.6165 108.54 66.496 107.615 67.1536C106.694 67.8112 106.176 67.8112 106.176 67.8112C106.176 67.8112 107.002 66.6398 107.615 66.2042C108.227 65.7644 109.181 65.6206 109.181 65.6206V65.6165Z" fill="#D8E1EA"/>
<path d="M107.208 52.7276C109.074 52.5468 109.181 53.4263 109.181 56.8786C109.181 58.3418 109.39 60.5488 109.181 61.6503C108.897 63.1463 108.001 63.5121 106.176 63.5121C103.678 63.5121 102.342 63.3888 102.194 60.8899C102.038 58.2514 102.034 56.7183 102.038 55.0703C102.038 53.7797 102.038 52.6207 103.641 52.707C104.726 52.7646 106.271 52.8221 107.204 52.7317L107.208 52.7276Z" fill="#E9EEF4"/>
<path d="M106.489 54.392C107.911 54.2523 107.997 54.9222 107.997 57.5608C107.997 58.6787 108.157 60.3638 107.997 61.2022C107.779 62.3448 107.097 62.6242 105.704 62.6242C103.797 62.6242 102.777 62.5297 102.666 60.6227C102.547 58.6088 102.543 57.4416 102.547 56.184C102.547 55.2017 102.547 54.3181 103.772 54.3797C104.598 54.4249 105.782 54.466 106.493 54.3961L106.489 54.392Z" fill="#D8E1EA"/>
<path d="M109.3 42.0048C109.251 42.2021 110.434 42.9131 112.765 43.8173L115.095 44.7174L115.72 43.3611C115.72 43.3611 114.902 42.5391 113.213 41.7171C111.528 40.8951 109.695 40.4841 109.695 40.4841L109.3 42.0048V42.0048Z" fill="#232A31"/>
<path d="M79.3344 33.7233C79.3344 33.7233 80.9085 34.5535 81.7182 36.1893C82.5278 37.825 82.5648 38.4908 82.5648 38.4908L84.0526 37.8333C84.0526 37.8333 83.8636 35.8029 82.5484 34.3768C81.2332 32.9507 80.3455 32.7986 80.3455 32.7986L79.3303 33.7233H79.3344Z" fill="#232A31"/>
<path d="M86.6951 30.7311C86.5677 30.538 87.5869 30.7599 88.3432 31.6394C89.0994 32.5149 88.9021 33.1848 88.9021 33.1848C88.9021 33.1848 87.5417 32.0217 86.6951 30.7311Z" fill="#D8E1EA"/>
<path d="M87.0281 29.8969C87.0281 29.8969 87.9651 29.2928 88.9269 29.8969C89.8886 30.5011 90.3941 31.0559 90.3941 31.0559C90.3941 31.0559 89.4077 30.8299 88.7131 30.6655C88.0186 30.497 87.0322 29.8969 87.0322 29.8969H87.0281Z" fill="#D8E1EA"/>
<path d="M111.901 34.274C111.597 34.4507 112.366 33.2589 113.652 32.7739C114.939 32.2889 115.777 32.8972 115.72 32.7739C115.658 32.6506 113.295 33.4767 111.906 34.274H111.901Z" fill="#CAD6E0"/>
<path d="M112.505 34.5575C112.505 34.5575 113.286 34.2534 114.318 34.278C115.345 34.3027 116.118 34.8288 116.118 34.8288C116.118 34.8288 114.828 35.2767 113.775 35.174C112.723 35.0713 112.505 34.5575 112.505 34.5575V34.5575Z" fill="#CAD6E0"/>
<path d="M113.895 22.7784C113.895 22.7784 111.429 23.8922 110.401 24.2375C109.378 24.5786 109.571 25.2978 110.401 26.9459C111.232 28.594 111.823 30.8093 112.76 30.4722C113.697 30.1352 116.599 28.7666 116.599 28.7666C116.599 28.7666 116.907 27.5624 115.715 25.5074C114.524 23.4484 113.895 22.7826 113.895 22.7826V22.7784Z" fill="#E9EEF4"/>
<path d="M116.118 26.2843L112.505 27.8173L113.171 29.0626L116.636 27.8173C116.636 27.8173 116.636 26.8761 116.118 26.2843Z" fill="#232A31"/>
<path d="M78.9562 34.1179C78.9562 34.1179 77.7561 34.5166 77.3575 34.7221C75.9108 35.466 75.0271 35.9797 74.0038 36.6332C73.2845 37.0894 72.1255 38.1128 71.5008 38.7293C70.8802 39.3458 71.0035 40.1636 71.5008 40.2828C71.9981 40.402 72.9763 40.85 74.0736 40.0814C74.6901 39.6458 75.9888 38.9389 76.6834 38.7293C77.2177 38.569 77.267 38.8197 77.1561 38.98C76.9095 39.3458 75.8656 40.3691 76.2396 41.0678C76.6136 41.7665 77.0533 41.2774 78.2616 40.2828C78.4671 40.1143 80.929 39.1649 81.1222 38.98C81.1304 38.4046 81.1468 37.8908 80.5468 36.588C79.7042 34.7509 78.9521 34.122 78.9521 34.122L78.9562 34.1179Z" fill="#D8E1EA"/>
<path d="M108.975 43.3323C108.975 43.3323 107.471 45.8065 106.148 48.0751C105.116 49.8465 104.701 52.1563 104.923 52.7317C105.441 54.088 108.092 55.321 110.155 53.3317C112.218 51.3425 114.318 46.1352 114.318 46.1352L108.983 43.3323H108.975Z" fill="#D8E1EA"/>
<path d="M25.8928 40.0403C25.8928 40.0403 28.4245 38.906 30.6603 41.4254C32.8961 43.9447 33.266 46.7313 33.6935 50.3439C33.9606 52.6167 34.2278 54.0552 34.2278 54.0552C34.2278 54.0552 36.2499 54.4908 38.6994 55.7279C41.1489 56.965 42.7025 58.5884 42.7025 58.5884L40.8982 62.8956C40.8982 62.8956 36.5252 62.8135 32.9496 61.3462C28.7944 59.6447 27.0847 57.0184 27.0847 57.0184L25.8969 40.0362L25.8928 40.0403Z" fill="#D8E1EA"/>
<path d="M6.60498 91.9774C4.18423 91.924 3.02112 91.3362 2.32243 90.0334C1.6484 86.9509 1.71005 82.0766 2.38408 80.0956C3.27594 77.4817 9.37508 80.0791 9.37508 80.0791C9.37508 80.0791 10.2752 83.7247 10.4848 87.1564C10.567 88.5168 10.5587 89.6841 10.3286 90.6047C9.92581 91.0979 8.86134 92.0267 6.60087 91.9774H6.60498Z" fill="#E9EEF4"/>
<path d="M9.13246 92.3926C7.75975 93.1858 3.75256 93.3337 2.91825 91.8377C2.66343 91.3815 2.48259 90.7527 2.32642 90.0334C3.0251 91.3363 4.18822 91.924 6.60897 91.9775C8.86943 92.0268 9.9339 91.0979 10.3367 90.6047C10.1353 91.4062 9.77361 92.0227 9.13246 92.3926V92.3926Z" fill="#D8E1EA"/>
<path d="M7.66529 82.2657C7.72283 82.7301 7.91599 84.8139 7.98997 86.5524C8.05984 88.2909 7.39814 88.5662 6.15283 88.6361C4.90752 88.706 4.34035 87.8922 4.39789 86.1085C4.45543 84.3248 4.68148 82.2616 4.68148 82.2616H7.6694L7.66529 82.2657Z" fill="#D8E1EA"/>
<path d="M36.032 90.6047C33.5579 88.858 32.814 86.5276 32.814 86.5276C32.814 86.5276 31.881 86.4537 31.0796 86.092C30.685 85.9111 30.3603 85.5782 30.1343 85.2905V82.167L37.3513 82.9232C37.3513 82.9232 38.05 83.6671 39.0569 84.4562C40.2529 85.3933 42.3284 87.1359 42.7764 88.0319C43.3272 89.1292 43.3107 90.5102 43.2326 91.3157C42.8627 91.5212 42.3695 91.7514 41.712 91.9897C39.3076 92.8652 38.5103 92.3555 36.032 90.6047Z" fill="#E9EEF4"/>
<path d="M39.8214 93.3255C38.4076 93.5187 36.5006 92.0555 35.058 90.802C32.8181 88.8539 32.4646 87.2716 32.4646 87.2716C32.4646 87.2716 31.9386 87.3907 31.1577 87.062C30.6892 86.8647 30.1384 86.2687 30.1384 86.0098V85.2823C30.3645 85.5742 30.6892 85.903 31.0837 86.0838C31.8851 86.4496 32.8181 86.5194 32.8181 86.5194C32.8181 86.5194 33.5579 88.8498 36.0362 90.5965C38.5104 92.3432 39.3118 92.8529 41.7161 91.9815C42.3737 91.7432 42.8669 91.513 43.2368 91.3075C43.1998 91.7185 43.1464 91.9815 43.1464 91.9815C43.1464 91.9815 41.6421 93.0748 39.8255 93.3214L39.8214 93.3255Z" fill="#D8E1EA"/>
<path d="M37.3513 83.4698C37.3513 83.4698 39.0898 84.9248 40.109 85.944C41.1283 86.9633 41.3667 87.3291 40.4091 87.8387C39.4515 88.3483 38.1527 87.9373 36.6814 86.3098C35.2059 84.6823 35.0538 84.4562 35.0538 84.4562L37.3472 83.474L37.3513 83.4698Z" fill="#D8E1EA"/>
<path d="M42.4601 65.0492C39.1886 63.6847 31.2646 63.6066 28.2479 64.4163C25.2312 65.2259 25.1285 64.9464 25.1285 64.9464L13.2919 69.4715C13.2919 69.4715 13.7234 73.4252 17.7183 75.3651C17.6648 74.0869 17.8457 72.8868 18.8896 72.4594C18.8896 72.4347 22.5721 71.9826 24.0681 72.4224C27.2492 73.3554 26.7848 70.5524 29.0781 69.5126C29.859 69.1591 30.1344 69.6564 29.633 70.3304C29.2631 70.8319 28.8932 71.6785 28.5767 72.1717C27.9767 73.1005 28.0589 74.4034 29.6453 73.6307C29.9618 73.4745 30.3686 72.8868 30.9481 72.0484C31.5687 71.1565 32.2551 70.1455 33.1963 70.2565C34.5813 70.425 32.6743 72.2539 32.2017 72.8827C31.9551 73.191 31.055 73.9513 31.1372 74.3376C31.2235 74.7404 32.2387 73.8773 33.5497 73.7047C34.0799 73.6348 34.7909 73.4992 34.795 73.9842C34.795 75.0117 33.8621 75.4268 33.5949 75.8131C32.925 76.7748 32.0003 77.2351 32.0537 78.5955C32.0825 79.323 33.3114 81.1355 32.5222 81.7643C31.7825 82.3561 31.4948 81.193 31.2276 82.7589C31.129 83.3343 31.3016 83.8686 31.2728 84.3905C31.6592 84.6988 32.14 85.0152 32.7524 85.3399C35.0293 86.5565 39.2255 83.6507 39.2255 83.6507C39.2255 83.6507 41.0175 82.6726 39.1557 79.8408C39.8009 78.5092 43.2492 73.6389 43.6355 71.6991C44.3219 68.2508 45.074 66.1342 42.4601 65.041V65.0492Z" fill="#D8E1EA"/>
<path d="M31.2275 82.763C31.4905 81.1971 31.7782 82.3603 32.5221 81.7684C33.3112 81.1396 32.0823 79.3271 32.0536 78.5997C32.0002 77.2393 32.7605 77.1037 33.7304 76.1871C34.4127 75.546 35.062 74.872 35.0579 73.8445C35.0579 73.3595 34.0798 73.639 33.5496 73.7089C32.2385 73.8815 31.2234 74.7487 31.1371 74.3418C31.0549 73.9554 31.9549 73.1951 32.2015 72.8869C32.6742 72.2539 34.5812 70.425 33.1961 70.2606C32.255 70.1496 31.5686 71.1566 30.948 72.0525C30.3726 72.891 29.9616 73.4787 29.6452 73.6349C28.0587 74.4075 27.9765 73.1047 28.5766 72.1758C28.893 71.6868 29.2629 70.836 29.6328 70.3346C30.1342 69.6565 29.8589 69.1591 29.078 69.5167C26.7846 70.5606 27.2532 73.3636 24.068 72.4265C22.5679 71.9868 18.8854 72.4348 18.8895 72.4635C17.8455 72.891 17.6606 74.0911 17.7181 75.3693C17.9812 75.4967 18.2565 75.6159 18.5483 75.7227C23.3159 77.4818 30.6603 76.4543 30.6603 76.4543C30.6603 76.4543 29.8548 80.3875 29.9657 82.2698C30.0109 82.9973 30.3685 83.6837 31.2727 84.4029C31.3015 83.8809 31.1288 83.3466 31.2275 82.7712V82.763Z" fill="#CAD6E0"/>
<path d="M25.0215 82.8534C24.8858 80.4408 22.9172 73.8238 22.1527 71.6168C25.3297 67.0548 24.031 64.4039 24.183 61.8311L8.43789 62.6654C8.43789 62.6654 7.72687 63.0435 7.02407 65.3327C7.94058 65.2012 8.75435 65.3081 9.46126 66.1383C10.1024 66.8904 10.8052 68.3247 10.0325 69.1508C9.95445 69.233 9.87225 69.2659 9.79005 69.2659C9.38728 71.6291 10.4929 73.2854 11.7341 75.2788C12.7862 76.972 13.8137 78.6777 14.8658 80.3751C15.9755 82.167 18.6922 85.5043 17.0564 87.7401C16.9537 87.8798 16.8345 87.925 16.6619 87.9004C15.1124 87.6661 15.248 85.6276 14.4836 84.5302C14.3932 84.4028 14.0973 84.037 13.8466 84.3042C13.5301 84.6412 13.2917 84.9946 12.9958 85.6481C12.8273 86.0221 12.6259 86.9181 12.1245 86.8441C11.397 86.7372 11.3559 85.9523 11.397 85.5659C11.508 84.5056 11.9478 83.6836 11.2737 83.2767C10.5504 82.8369 9.97911 85.307 9.14479 84.748C8.67215 84.4316 8.71736 83.5767 8.72147 82.6602C8.72147 82.056 7.48849 81.1395 6.76925 80.7573C5.60614 80.1449 4.42659 79.2161 3.40322 78.0858C3.19361 78.3612 3.02099 78.6571 2.91003 78.9859C2.48259 80.2723 2.34696 81.4601 2.91003 82.6807C3.47309 83.9014 3.9334 84.559 5.87329 86.1783C7.80085 87.7853 17.9236 92.9802 21.302 91.9281C21.8239 91.8788 22.3582 91.7637 22.9131 91.5541C26.1311 90.3417 25.2763 87.3661 25.0215 82.8534V82.8534Z" fill="#D8E1EA"/>
<path d="M6.76944 80.7532C7.48868 81.1314 8.72576 82.052 8.72165 82.6561C8.72165 83.5727 8.67234 84.4275 9.14498 84.744C9.97929 85.3029 10.5547 82.8329 11.2739 83.2726C11.948 83.6795 11.5082 84.5015 11.3972 85.5619C11.3561 85.9482 11.3972 86.7332 12.1247 86.8401C12.6261 86.914 12.8234 86.0181 12.996 85.6441C13.2919 84.9947 13.5303 84.6412 13.8467 84.3001C14.0933 84.033 14.3934 84.3988 14.4838 84.5262C15.2441 85.6235 15.1126 87.662 16.662 87.8963C16.8306 87.921 16.9539 87.8758 17.0566 87.736C18.6924 85.5002 15.9798 82.1629 14.866 80.371C13.8139 78.6777 12.7905 76.968 11.7342 75.2747C10.493 73.2855 9.38746 71.6251 9.79024 69.2619C9.87244 69.2619 9.95464 69.2249 10.0327 69.1468C10.8054 68.3207 10.1026 66.8863 9.46144 66.1342C8.75453 65.304 7.94488 65.1971 7.02425 65.3287C6.85575 65.8753 6.68724 66.5329 6.52695 67.3179C5.77072 71.0785 6.39543 73.2033 7.45169 75.7432C6.47352 76.0268 4.435 76.7337 3.39929 78.0777C4.42267 79.2079 5.60222 80.1367 6.76533 80.7491L6.76944 80.7532Z" fill="#CAD6E0"/>
<path d="M15.5974 41.9267C15.5974 41.9267 13.3534 41.6595 11.6683 43.0322C9.51472 44.7831 8.91878 49.6739 8.73383 54.0962C8.63519 56.4758 7.95294 60.4255 7.45564 63.138C6.8186 63.5408 6.18978 65.5382 6.52269 67.3055C6.7775 68.6659 13.2424 70.1167 18.0346 70.1167C22.8268 70.1167 26.5545 67.737 28.0094 64.7902C28.0094 63.8778 27.619 63.9313 26.7805 63.1339C28.4204 59.9734 30.7179 53.2084 30.6562 50.4466C30.5699 46.76 30.2206 42.8884 28.8067 41.2526C28.1738 40.5252 25.7901 40.5375 23.8954 40.9033C20.3403 41.5938 15.5933 41.9226 15.5933 41.9226L15.5974 41.9267Z" fill="#E9EEF4"/>
<path d="M20.4762 60.5446L19.946 60.1829L21.0598 48.8395L21.701 48.9422C21.701 48.9422 22.8312 51.7164 22.8107 54.5975C22.7901 57.4786 20.4762 60.5446 20.4762 60.5446V60.5446Z" fill="#D8E1EA"/>
<path d="M27.9193 47.9724C27.9193 47.9724 28.5358 51.1823 28.0837 54.0263C27.6316 56.8745 26.8425 59.0281 26.8425 59.0281L20.4803 60.5447C20.4803 60.5447 21.4421 57.5732 21.8695 54.7867C22.2928 52.0001 21.7092 48.9424 21.7092 48.9424L27.9234 47.9724H27.9193Z" fill="#E9EEF4"/>
<path d="M26.4519 48.1574C26.4519 48.1574 27.0683 51.3673 26.6163 54.2114C26.1642 57.0595 25.3504 59.3817 25.3504 59.3817L22.2433 60.1214C22.2433 60.1214 23.094 57.2733 23.5215 54.4867C23.9448 51.7002 23.3612 48.6424 23.3612 48.6424L26.4477 48.1533L26.4519 48.1574Z" fill="#232A31"/>
<path d="M27.1465 47.8491L27.9192 47.9724L21.705 48.9424L21.0638 48.8396L27.1465 47.8491Z" fill="#FCF3F0"/>
<path d="M28.737 47.7629C28.7739 48.1739 29.0288 48.4862 29.3041 48.4616C29.5795 48.4369 29.7727 48.0835 29.7357 47.6725C29.6987 47.2615 29.4439 46.9491 29.1685 46.9738C28.8931 46.9984 28.7 47.3519 28.737 47.7629Z" fill="#232A31"/>
<path d="M28.9712 50.389C29.0082 50.8 29.263 51.1123 29.5342 51.0877C29.8096 51.063 30.0028 50.7096 29.9658 50.2986C29.9288 49.8876 29.674 49.5752 29.3986 49.5999C29.1232 49.6245 28.9301 49.978 28.9671 50.389H28.9712Z" fill="#232A31"/>
<path d="M7.55831 61.9709C7.55831 61.9709 11.6641 63.6601 18.3263 63.6601C23.6076 63.6601 27.1504 62.4107 27.1504 62.4107L26.7928 63.1382C26.7928 63.1382 23.0528 65.4233 16.9988 64.9959C10.9449 64.5684 7.4679 63.1382 7.4679 63.1382L7.56653 61.9709H7.55831Z" fill="#D8E1EA"/>
<path d="M19.9251 45.2969C15.8562 44.1255 14.5082 42.4076 14.1999 41.0102C13.8917 39.6128 15.0383 39.4731 15.363 38.499C15.6877 37.525 14.6397 35.544 14.278 31.3354C13.9287 27.2419 16.7563 25.1335 16.9043 25.0226C18.577 23.9828 20.6114 23.5019 22.7116 23.806C27.4462 24.4883 30.7301 28.8818 30.0437 33.6164C29.83 35.0837 29.2628 36.4112 28.4367 37.525C28.4162 38.4867 28.5518 39.4238 28.8601 40.854C29.0655 41.7952 29.2423 43.0775 28.7696 44.1214C26.2585 46.0326 23.5788 46.3613 19.9209 45.3051L19.9251 45.2969Z" fill="#E9EEF4"/>
<path d="M27.5984 45.3748C25.1653 46.7434 22.6623 47.2613 18.9675 46.7146C13.3122 45.8803 11.6724 43.0322 11.6724 43.0322C11.6724 43.0322 11.3764 41.2156 11.734 40.2374C12.0916 39.2592 13.489 38.277 13.4643 37.1385C13.4479 36.3042 13.2218 35.1575 13.1026 34.5945C13.078 34.4958 13.0615 34.3972 13.0369 34.2985C13.0369 34.2821 13.0286 34.2574 13.0286 34.2574C12.8067 33.2587 12.7492 32.2066 12.9012 31.1339C13.2835 28.5035 14.8082 26.3212 16.9043 25.0183C16.7522 25.1293 13.9246 27.2377 14.2781 31.3312C14.6397 35.5397 15.6878 37.5207 15.3631 38.4948C15.0384 39.4688 13.8917 39.6086 14.2 41.006C14.5082 42.4033 15.8604 44.1213 19.9251 45.2926C23.583 46.3448 26.2626 46.016 28.7738 44.109C28.5519 44.6021 28.182 45.046 27.5984 45.3748V45.3748Z" fill="#D8E1EA"/>
<path d="M28.5025 38.8114C28.5025 38.8114 24.6926 41.1705 20.7676 39.9375C17.4879 38.91 16.5344 37.1016 17.1879 33.7931C17.7263 31.0724 18.3099 30.0079 22.1691 29.1695C25.8434 28.368 29.6081 29.3914 29.6081 29.3914C29.6081 29.3914 30.3356 30.4559 30.2041 33.637C30.1136 35.8317 28.5067 38.8155 28.5067 38.8155L28.5025 38.8114Z" fill="#D8E1EA"/>
<path d="M28.3917 29.8886C26.7437 29.605 23.4968 29.5886 20.6774 30.4599C19.1321 30.9366 18.1292 32.3587 17.821 34.6027C17.6402 35.9384 17.8621 37.7756 19.6746 38.7085C24.0064 40.932 28.8603 38.0879 28.8603 38.0879C28.8603 38.0879 30.8906 35.4945 30.3234 31.6764C30.0357 30.1516 29.337 30.053 28.3917 29.8886V29.8886Z" fill="#232A31"/>
<path d="M6.52699 67.3055L6.32971 68.4891C6.32971 68.4891 9.68342 70.3468 15.7538 70.8441C21.5899 71.3209 23.9572 70.503 26.5547 67.737C28.3836 65.7889 28.248 64.4121 28.248 64.4121L27.6685 63.8901C27.6685 63.8901 27.4466 65.867 24.8861 67.585C22.3174 69.307 18.0266 70.0222 14.1427 69.4632C10.2629 68.9043 6.52699 67.3014 6.52699 67.3014V67.3055Z" fill="#CAD6E0"/>
<path d="M30.0233 80.634C30.0233 80.634 30.7467 83.3301 33.4469 83.4699C36.143 83.6096 36.9486 82.989 38.0377 82.2698C39.1268 81.5505 39.6077 80.6381 39.6077 80.6381L39.1597 79.8531C39.1597 79.8531 37.6349 80.7737 35.8594 81.1971C34.0839 81.6245 32.1687 81.2341 31.3878 80.4696C30.6069 79.7052 30.2165 79.0804 30.2165 79.0804L30.0233 80.6381V80.634Z" fill="#232A31"/>
<path d="M35.8594 76.4501C35.8594 76.4501 38.6295 75.7268 39.9775 74.3787C41.3256 73.0307 41.5393 72.4635 41.5393 72.4635C41.5393 72.4635 39.2912 73.6842 38.0376 74.4568C36.7841 75.2295 35.8594 76.4501 35.8594 76.4501Z" fill="#CAD6E0"/>
<path d="M41.0175 70.8894C41.0175 70.8894 40.2612 70.7784 38.6995 71.3702C37.1377 71.962 36.702 72.4593 36.702 72.4593C36.702 72.4593 38.7364 72.1552 39.6036 71.7031C40.4708 71.251 41.0133 70.8852 41.0133 70.8852L41.0175 70.8894Z" fill="#CAD6E0"/>
<path d="M7.45559 75.7514C7.45559 75.7514 8.17072 77.531 9.09545 78.7229C10.0202 79.9148 12.0793 82.1629 12.0793 82.1629C12.0793 82.1629 9.17354 80.5929 7.9981 79.5778C6.82266 78.5626 5.5979 76.446 5.5979 76.446C5.5979 76.446 6.67059 75.8377 7.45559 75.7473V75.7514Z" fill="#CAD6E0"/>
<path d="M8.01054 76.9473C8.01054 76.9473 6.11175 77.3255 4.68972 79.5777C3.27179 81.8299 3.3992 83.6137 3.3992 83.6137L3.97048 84.3904C3.97048 84.3904 5.12948 81.1477 6.19395 79.9805C7.25842 78.8133 8.56949 77.9502 8.56949 77.9502L8.00643 76.9432L8.01054 76.9473Z" fill="#232A31"/>
<path d="M9.79441 43.0527C12.0754 42.0704 14.9524 43.0198 15.0592 46.168C15.1661 49.3163 12.4576 53.0193 11.1178 54.1413C9.77797 55.2592 9.39164 55.325 8.57376 56.0689C9.04229 56.3812 9.87661 56.0689 10.3369 57.5402C10.5219 58.1321 11.9891 60.1295 12.6179 60.9967C13.2426 61.8639 14.603 64.7655 14.603 64.7655C14.603 64.7655 11.8781 65.8793 10.341 67.9096C9.69577 67.5438 5.39267 65.5258 3.70349 63.512C2.01431 61.4981 -0.176285 59.6651 0.366226 56.1346C0.674471 54.1372 0.892297 52.5919 2.54038 50.5287C4.18846 48.4655 7.72712 43.9487 9.79852 43.0568L9.79441 43.0527Z" fill="#D8E1EA"/>
<path d="M12.6137 60.9968C12.6137 60.9968 10.5382 60.9968 8.83255 62.949C7.53792 64.4327 6.868 65.8753 6.86389 65.8753L8.22017 66.7918C8.22017 66.7918 8.5654 65.5753 10.3286 64.0012C11.7136 62.7682 13.4233 62.4024 13.4233 62.4024L12.6096 60.9968H12.6137Z" fill="#232A31"/>
<path d="M7.66113 57.5403C7.66113 57.5403 6.78161 57.8362 5.98428 58.4034C5.18695 58.9705 4.75952 59.6487 4.75952 59.6487C4.75952 59.6487 6.53501 59.213 7.10218 58.5965C7.66935 57.98 7.66113 57.5444 7.66113 57.5444V57.5403Z" fill="#CAD6E0"/>
<path d="M7.45983 55.6744C7.45983 55.6744 5.96793 55.1442 4.76372 55.3908C3.5554 55.6333 2.53613 56.069 2.53613 56.069C2.53613 56.069 4.72673 56.221 5.59803 56.069C6.46934 55.9169 7.46394 55.6744 7.46394 55.6744H7.45983Z" fill="#CAD6E0"/>
<path d="M14.1467 64.4367C14.1467 64.4367 13.4316 64.4367 11.5574 65.8711C10.4683 66.7054 10.3368 67.9055 10.3368 67.9055C10.3368 67.9055 11.1547 69.2412 12.0753 70.0673C13 70.8934 14.7015 70.5893 15.6263 71.699C16.551 72.8087 17.6854 75.0815 19.2471 74.0869C20.8089 73.0922 20.1267 69.5248 18.5484 67.9014C16.9743 66.278 14.1467 64.4326 14.1467 64.4326V64.4367Z" fill="#CAD6E0"/>
<path d="M8.27776 44.0803C8.27776 44.0803 10.5423 45.8229 11.5575 46.9326C12.5726 48.0382 12.0055 48.6136 10.3368 50.5288C8.6682 52.444 8.40928 53.5907 6.87216 52.2714C5.33505 50.9521 3.80615 48.9465 3.80615 48.9465C3.80615 48.9465 6.33787 45.2352 8.27776 44.0844V44.0803Z" fill="#CAD6E0"/>
<path d="M32.6331 44.7831C32.7359 45.0913 31.0673 45.5023 31.0673 45.5023C31.0673 45.5023 31.3837 47.36 31.7248 49.3122C32.066 51.2686 31.992 52.296 31.992 52.296L33.9113 52.0125C33.9113 52.0125 35.3128 50.7713 34.3018 48.5396C33.7716 47.3764 33.1222 45.8845 32.6373 44.7831H32.6331Z" fill="#E9EEF4"/>
<path d="M42.2791 58.1198C42.2791 58.1198 44.9588 58.4609 46.8617 59.5007C48.4728 60.3761 50.8648 60.4665 51.2881 61.5474C52.2416 63.9723 50.3798 64.971 47.6261 64.971C44.8725 64.971 41.7818 63.3353 40.9023 62.9037C40.0227 62.4681 41.3092 58.5924 42.2832 58.1239L42.2791 58.1198Z" fill="#CAD6E0"/>
<path d="M40.1132 56.5416C40.1132 56.5416 38.3788 56.8786 37.4747 58.9542C36.5705 61.0297 36.702 62.4229 36.702 62.4229L38.3254 62.6819C38.3254 62.6819 38.3788 61.2968 39.1762 59.6446C39.9735 57.9924 41.3257 57.3965 41.3257 57.3965L40.1091 56.5416H40.1132Z" fill="#232A31"/>
<path d="M33.1674 54.9839C33.1674 54.9839 32.4399 55.436 31.9303 56.1963C31.4206 56.9525 31.6426 57.1745 31.6426 57.1745C31.6426 57.1745 32.5385 56.6813 32.8098 56.2004C33.0769 55.7196 33.1674 54.988 33.1674 54.988V54.9839Z" fill="#CAD6E0"/>
<path d="M50.1086 59.3734C49.9812 59.1925 49.8497 59.0199 49.7141 58.8514C49.6647 58.9295 49.6154 59.0076 49.5538 59.0898C48.3331 60.6228 45.9658 61.2146 44.1451 60.5242C43.319 60.2118 42.6902 59.4843 42.5463 58.7117C42.2669 59.1268 42.0778 59.5665 42.1312 59.9981C42.3655 61.9133 44.9054 62.3202 46.4384 62.3654C48.1317 62.4147 51.3128 61.0954 50.1045 59.3734H50.1086Z" fill="#86A7A8"/>
<path d="M44.145 60.5242C45.9657 61.2147 48.3289 60.6228 49.5537 59.0898C49.6154 59.0117 49.6647 58.9336 49.714 58.8514C48.444 57.2362 46.9028 56.2252 45.0204 56.4759C44.3546 56.5622 43.993 57.076 43.434 57.6596C43.1299 57.976 42.8011 58.3336 42.5463 58.7117C42.686 59.4844 43.3189 60.2118 44.145 60.5242V60.5242Z" fill="#B6CFD1"/>
<path d="M44.3751 96.8395C43.0312 93.9543 38.5678 90.654 37.3101 90.8061C35.8593 90.9787 34.3592 91.6445 32.9865 92.4624C32.9454 92.6268 32.9043 92.7912 32.8632 92.9844C31.4782 99.515 40.7255 100.662 44.371 96.8436L44.3751 96.8395Z" fill="#B6CFD1"/>
<path d="M28.6383 97.8012C29.263 99.5767 31.6837 100.658 33.3318 101.184C36.3649 102.154 41.827 102.491 44.293 99.6424C44.9424 98.8903 44.8643 97.8916 44.3752 96.8394C40.7297 100.658 31.4823 99.515 32.8674 92.9802C32.9085 92.7871 32.9496 92.6226 32.9907 92.4583C32.0906 92.9925 31.244 93.5885 30.5042 94.1598C29.3493 95.0516 28.0834 96.2106 28.6424 97.8012H28.6383Z" fill="#86A7A8"/>
<path d="M52.1471 94.1475C53.0554 93.6256 53.8692 92.8118 54.6007 91.9651C54.5473 91.8336 54.5103 91.7021 54.4446 91.5665C53.4664 89.5691 51.4607 90.0499 49.6853 90.6787C48.6085 91.061 47.5152 92.1994 46.8905 93.0872C48.1358 94.6941 50.2237 95.2531 52.143 94.1434L52.1471 94.1475Z" fill="#B6CFD1"/>
<path d="M52.258 96.6915C54.65 95.5654 55.361 93.905 54.6007 91.9692C53.8691 92.8118 53.0554 93.6255 52.1471 94.1516C50.2277 95.2572 48.1358 94.7023 46.8946 93.0954C46.5781 93.5516 46.3767 93.942 46.3767 94.1311C46.4219 96.7491 50.873 97.3491 52.2621 96.6957L52.258 96.6915Z" fill="#86A7A8"/>
</svg>
