<svg width="69" height="61" viewBox="0 0 69 61" fill="none" xmlns="http://www.w3.org/2000/svg">
<path d="M3.70374 48.9203H13.8372V49.8468H6.08773V53.7303H12.9348V54.6567H6.08773V59.3685H13.8366V60.2949H3.70374V48.9209V48.9203Z" fill="black"/>
<path d="M14.4492 52.3324H16.5917L18.7504 57.662L20.8768 52.1702H22.1175L24.3407 57.8247L26.6445 52.3329H27.9013L24.5665 60.4569H23.3259L21.1027 54.9652L19.0085 60.4569H17.8324L14.4492 52.3329V52.3324Z" fill="black"/>
<path d="M29.818 59.8229C29.2592 59.4003 28.9801 58.7939 28.9801 58.0031C28.9801 57.2123 29.3157 56.5463 29.9868 56.102C30.658 55.6578 31.6271 55.436 32.8946 55.436H35.0855V54.8833C35.0855 54.2552 34.9081 53.7757 34.5537 53.4454C34.1993 53.1151 33.6889 52.9496 33.0232 52.9496C32.3574 52.9496 31.8658 53.1096 31.4846 53.4291C31.1033 53.7486 30.8693 54.2118 30.7838 54.8182H29.2049C29.3232 53.9628 29.7255 53.3071 30.4133 52.852C31.1006 52.3969 32.0299 52.1697 33.2006 52.1697C34.4784 52.1697 35.4588 52.4192 36.1407 52.9171C36.8226 53.4156 37.1635 54.1304 37.1635 55.0617V57.6614C37.1635 58.615 37.2442 59.492 37.405 60.2937H35.4555C35.348 59.882 35.2727 59.4866 35.2302 59.1074C34.9188 59.5734 34.5107 59.9145 34.0057 60.1309C33.5007 60.3474 32.9425 60.4558 32.33 60.4558C31.213 60.4558 30.3751 60.2449 29.8169 59.8223L29.818 59.8229ZM34.466 59.0999C34.8796 58.6936 35.0861 58.1659 35.0861 57.5155V56.2317H33.4749C32.68 56.2317 32.0788 56.3808 31.6706 56.6786C31.2625 56.9769 31.0586 57.4125 31.0586 57.9869C31.0586 58.5613 31.206 58.9778 31.5018 59.2707C31.797 59.5631 32.2294 59.7095 32.7989 59.7095C33.4969 59.7095 34.0525 59.5061 34.4666 59.1004L34.466 59.0999Z" fill="black"/>
<path d="M39.5164 52.3324H41.5944V53.6808C41.8412 53.2154 42.2252 52.8466 42.7463 52.5759C43.2669 52.3053 43.8552 52.1697 44.5102 52.1697C45.5626 52.1697 46.3898 52.4403 46.991 52.9822C47.5922 53.524 47.8934 54.2715 47.8934 55.2244V60.2937H45.8154V55.0617C45.8154 54.3794 45.6541 53.8571 45.3319 53.4937C45.0098 53.1308 44.5425 52.9491 43.9305 52.9491C43.2109 52.9491 42.6414 53.204 42.223 53.7128C41.8041 54.2221 41.5949 54.9099 41.5949 55.7761V60.2931H39.5169V52.3313L39.5164 52.3324Z" fill="black"/>
<path d="M49.8026 60.1721C49.6036 59.9828 49.5046 59.7415 49.5046 59.4491C49.5046 59.1568 49.6036 58.9159 49.8026 58.7261C50.001 58.5368 50.2565 58.4419 50.5678 58.4419C50.8792 58.4419 51.118 58.5368 51.317 58.7261C51.5154 58.9159 51.6149 59.1568 51.6149 59.4491C51.6149 59.7415 51.5181 59.9828 51.325 60.1721C51.132 60.3614 50.8792 60.4563 50.5678 60.4563C50.2565 60.4563 50.001 60.3614 49.8026 60.1721V60.1721Z" fill="black"/>
<path d="M61.6832 50.9308H56.9792V48.9196H68.7556V50.9308H64.0516V60.2936H61.6832V50.9308V50.9308Z" fill="black"/>
<path d="M27.087 22.8549L35.797 21.9892L37.5942 13.35L38.452 22.1351L47.0178 23.9473L38.3079 24.8129L36.5106 33.4522L35.6528 24.667L27.087 22.8549Z" fill="black"/>
<path d="M54.8506 16.6667C55.0539 16.5848 56.2392 16.8359 56.2688 17.0046C56.3483 17.4581 56.4129 17.9234 56.401 18.3818C56.3828 19.0679 56.5108 19.7128 56.8829 20.2736C57.0792 20.5692 57.3916 20.7987 57.6847 21.0113C57.7928 21.0894 58.0719 21.1008 58.1386 21.0243C58.2397 20.9077 58.2844 20.6712 58.2435 20.515C58.1779 20.2628 58.0235 20.0344 57.9278 19.8381C57.809 19.8251 57.7762 19.818 57.7439 19.8186C57.5379 19.8234 57.332 19.8299 57.126 19.8359C57.2728 19.7009 57.3981 19.5029 57.5707 19.4438C57.9047 19.3293 57.8574 19.1238 57.788 18.8835C57.6611 18.4441 57.2895 18.5862 57.0276 18.6199C56.8695 18.6399 56.7275 18.8705 56.6215 18.5819C56.6108 18.5532 56.8302 18.4197 56.955 18.3628C57.1765 18.2619 57.4078 18.1827 57.7208 18.0612C57.6734 17.7824 57.6164 17.4478 57.5535 17.0784C57.9396 16.914 58.3898 16.7231 58.87 16.5186C58.4591 16.3565 58.1042 16.2317 57.7643 16.0739C57.6379 16.0153 57.5476 15.8791 57.4406 15.7783C57.6003 15.7484 57.7676 15.6725 57.9181 15.698C58.1978 15.7457 58.4726 15.9334 58.7399 15.9149C59.1029 15.89 59.5272 15.8189 59.8025 15.6063C61.1002 14.6051 61.8681 13.2317 62.314 11.6685C62.4688 11.1245 62.834 10.8094 63.318 10.6054C63.5966 10.4883 63.8859 10.3874 64.1795 10.3196C65.5719 9.99742 66.9674 9.6888 68.3619 9.37746C68.4764 9.35197 68.6039 9.31075 68.7093 9.33841C68.8158 9.36661 68.9023 9.47184 68.9975 9.54343C68.9142 9.61123 68.8394 9.71917 68.7458 9.74087C67.4837 10.0321 66.2188 10.3109 64.955 10.5935C64.6759 10.6559 64.3979 10.7226 64.1188 10.7839C63.2664 10.971 62.6775 11.4163 62.5764 12.3552C62.564 12.4713 62.5259 12.5901 62.4742 12.6947C61.5595 14.5519 60.3446 16.1395 58.4995 17.1538C58.1069 17.3696 57.9439 17.8063 58.1456 18.4919C58.3188 19.0798 58.236 19.7166 58.6097 20.2845C58.7571 20.5085 58.6194 21.0715 58.4231 21.3405C58.165 21.6952 57.6982 21.5792 57.361 21.3552C56.3887 20.7103 56.0472 19.7296 56.0052 18.6079C55.9923 18.2657 55.9816 17.9229 55.888 17.5937C55.6987 18.1925 55.3852 18.7842 55.3513 19.3917C55.3104 20.1277 55.4723 20.8833 55.611 21.6177C55.7035 22.108 55.9455 22.6613 55.4599 22.978C54.9168 23.3327 54.365 23.6696 53.8358 24.0509C53.5449 24.2602 53.2572 24.0471 53.0636 23.7753C52.2612 22.6499 51.3346 21.5987 51.0264 20.1825C50.9958 20.0409 50.7834 19.8598 50.6344 19.8375C50.0724 19.7535 49.6927 19.4828 49.5529 18.9231C49.419 18.385 49.689 17.995 50.0869 17.6978C50.7538 17.1993 51.0302 16.5306 51.0318 15.6936C50.5537 15.5044 50.0923 15.3839 49.5906 15.6562C49.3582 15.7826 49.084 15.8477 48.8205 15.896C47.4997 16.1368 46.3321 16.6889 45.2813 17.5351C44.7183 17.9885 44.0385 18.2494 43.3103 18.2087C43.0296 18.193 42.6451 18.0281 42.5225 17.8084C42.4203 17.6262 42.5472 17.1836 42.7215 16.9992C43.1463 16.549 43.661 16.1856 44.1331 15.7799C44.4402 15.5163 44.8016 15.2863 45.0248 14.9614C45.7244 13.9433 46.7457 13.4926 47.86 13.1422C48.5327 12.9307 49.1878 12.6524 49.8347 12.3677C50.6796 11.9956 51.4239 11.4673 51.9864 10.7221C52.799 9.6454 53.9122 8.95711 54.9813 8.18257C56.2983 7.22904 57.7745 6.48324 58.8759 5.2238C59.1959 4.85769 59.7079 4.66405 60.1268 4.38309C60.5312 4.11189 60.998 3.89331 61.3169 3.5413C62.2849 2.47224 63.4568 1.76712 64.7749 1.22744C65.4987 0.931292 66.1441 0.442594 66.8335 0.056409C66.9411 -0.00379677 67.0932 0.0168142 67.225 0C67.1777 0.125836 67.1675 0.316216 67.0782 0.367744C66.2204 0.864577 65.3739 1.39178 64.4759 1.80292C63.4949 2.25202 62.635 2.8275 61.8612 3.58631C61.3642 4.07393 60.7415 4.43191 60.1666 4.83653C59.8778 5.03993 59.5175 5.16522 59.2809 5.41418C57.7364 7.0392 55.7525 8.05782 53.9864 9.37529C53.4513 9.7745 52.9366 10.2344 52.5199 10.7535C51.7933 11.6593 50.9474 12.3704 49.8869 12.832C49.7756 12.8802 49.7073 13.037 49.6277 13.1493C49.5556 13.2512 49.4948 13.3614 49.4292 13.4677C49.3147 13.3874 49.1996 13.3071 49.0517 13.203C48.4413 13.4026 47.7567 13.555 47.1394 13.8511C46.608 14.1061 46.1315 14.4971 45.6717 14.8779C45.0915 15.3584 44.5558 15.8927 43.9955 16.3982C43.6954 16.6689 43.369 16.9113 43.0866 17.1988C42.9871 17.2997 42.9247 17.5112 42.9576 17.6441C42.9791 17.7303 43.2195 17.8366 43.334 17.8106C43.7874 17.7076 44.2332 17.5665 44.672 17.4114C44.7537 17.3827 44.8048 17.2308 44.8457 17.1261C44.9006 16.9851 44.9323 16.8354 44.9742 16.6889C45.1049 16.7714 45.2361 16.8538 45.3695 16.9379C45.7368 16.6906 46.1477 16.4742 46.4741 16.1672C46.6274 16.0229 46.6215 15.704 46.6812 15.462C46.7161 15.321 46.7376 15.1773 46.7651 15.0346C46.8753 15.1605 47.0146 15.2711 47.0872 15.4159C47.1506 15.5418 47.1388 15.7056 47.1652 15.8867C47.9245 15.685 48.6537 15.4951 49.3803 15.2961C49.5777 15.2418 49.7793 15.1735 49.6922 14.8795C49.6874 14.8643 49.9003 14.783 50.0122 14.7325C50.1854 15.174 50.6124 15.1274 50.9549 15.1914C51.3099 15.2576 51.5131 15.3948 51.4664 15.8694C52.3209 15.0536 53.148 14.3377 53.3099 13.1547C53.326 13.037 53.326 12.9074 53.3782 12.807C53.4389 12.6904 53.5492 12.5993 53.6379 12.4973C53.6879 12.6194 53.7933 12.7484 53.7799 12.8629C53.6723 13.779 53.3593 14.6029 52.6925 15.2717C52.493 15.4713 52.3591 15.7376 52.145 16.044C51.5642 16.165 51.4341 16.8245 51.0555 17.2628C51.233 17.4228 51.3932 17.5248 51.4922 17.6701C51.5675 17.7808 51.5653 17.9457 51.5976 18.0862C51.4685 18.0498 51.3238 18.0395 51.2152 17.9701C51.091 17.8914 50.9996 17.7607 50.8468 17.6045C50.5989 17.8122 50.28 17.9826 50.1171 18.2494C49.995 18.4496 50.0283 18.7869 50.0945 19.0359C50.1122 19.1031 50.5489 19.1558 50.7102 19.0646C51.049 18.8737 51.3324 18.583 51.71 18.2754C52.0332 18.7804 51.4497 18.9708 51.4018 19.4107C51.9052 19.0728 52.4564 18.7875 52.899 18.3818C53.3798 17.9419 53.838 17.4369 54.1682 16.8777C54.8743 15.6833 55.9219 14.9365 57.105 14.3187C57.9665 13.8685 58.8152 13.3928 59.6692 12.9285C59.6294 12.8922 59.589 12.8558 59.5492 12.819C59.5218 12.6703 59.4944 12.5217 59.4669 12.3731C59.6105 12.397 59.7541 12.4208 60.0219 12.4659C60.2473 12.0157 60.5398 11.4852 60.7829 10.9325C61.1099 10.1873 61.5003 9.50276 62.2435 9.11006C62.357 9.04986 62.5253 9.09542 62.6684 9.09216C62.6011 9.21095 62.5635 9.378 62.4619 9.43984C61.7848 9.8526 61.4309 10.5116 61.1583 11.2086C60.5 12.8911 59.2271 13.8848 57.6406 14.5893C56.9528 14.8947 56.2956 15.2928 55.6777 15.7262C55.3491 15.9562 55.134 16.351 54.8684 16.671C52.8646 18.6578 53.3083 20.7574 54.6511 22.9916C54.8635 22.8305 55.1959 22.7106 55.2588 22.5061C55.4508 21.8802 55.1254 21.4452 54.4349 21.1897C54.7022 21.0563 54.8533 20.9815 54.9818 20.9169C55.1609 19.6743 55.1114 19.6054 53.9176 19.2848C53.8342 19.2626 53.7767 19.1406 53.7073 19.0652C53.7933 18.9995 53.8848 18.8715 53.9638 18.8791C54.3064 18.9117 54.6452 18.9838 55.0125 19.0462C55.29 18.2217 55.7514 17.4022 54.8485 16.664L54.8506 16.6667ZM51.3706 19.7979C51.6675 20.8692 52.017 21.8672 52.8087 22.6455C52.9856 22.8191 53.0679 23.0908 53.2459 23.2628C53.4013 23.413 53.6293 23.4857 53.8256 23.5925C53.9165 23.3609 54.1386 23.0778 54.073 22.907C53.8955 22.44 53.6078 22.0125 53.3357 21.5879C53.2803 21.5016 53.0974 21.5027 52.9786 21.4517C52.8603 21.4013 52.7479 21.3373 52.6328 21.2787C52.7414 21.1941 52.842 21.0954 52.9614 21.0308C53.0394 20.9885 53.1437 20.9956 53.312 20.9684C53.2061 20.285 53.1039 19.626 53.0044 18.9844C52.4704 19.2501 51.9321 19.5186 51.3712 19.7979H51.3706Z" fill="black"/>
<path d="M11.1827 32.9711C10.8283 32.6364 10.4739 32.3272 10.156 31.9834C10.07 31.8906 10.0963 31.6921 10.0711 31.5424C10.2044 31.6031 10.3706 31.6319 10.4658 31.7301C11.4827 32.7769 12.7299 33.3497 14.148 33.5748C14.3201 33.6019 14.5008 33.5748 14.6863 33.4863C14.5696 33.4397 14.4368 33.4142 14.3416 33.3399C14.255 33.2721 14.2088 33.1517 14.1453 33.0541C14.2598 33.0204 14.3964 32.9282 14.4863 32.9624C15.3661 33.2949 16.2717 33.2021 17.1816 33.1989C17.8651 33.1967 18.5492 33.3421 19.2322 33.4272C19.5005 33.4609 19.7737 33.5476 19.8834 33.1604C19.9017 33.0964 20.0636 33.0741 20.1593 33.0324C20.1986 33.1929 20.2378 33.3535 20.2825 33.5368C20.8896 33.6165 21.5248 33.6838 22.154 33.7874C22.5772 33.8573 22.9881 34.0016 23.4113 34.0721C23.9787 34.1665 24.1271 33.9848 23.9873 33.4234C23.7549 32.49 22.6347 31.6379 21.4952 31.7095C19.913 31.8087 18.5992 31.2278 17.3725 30.3296C17.2392 30.232 17.1617 30.0562 17.0585 29.9168C17.1875 29.8903 17.3268 29.8848 17.4419 29.8295C17.5344 29.785 17.586 29.6581 17.6775 29.6066C17.7958 29.5393 17.9356 29.5111 18.0663 29.4656C18.0523 29.5941 18.0496 29.7248 18.0216 29.8501C17.9985 29.9526 17.9447 30.0486 17.9049 30.1474C17.9426 30.1734 17.9808 30.1994 18.0184 30.2255C18.2335 29.957 18.4572 29.6945 18.6621 29.4178C18.8928 29.1054 19.0881 28.7643 19.3365 28.4681C19.4365 28.3488 19.6393 28.3173 19.7947 28.2457C19.7786 28.415 19.763 28.5836 19.7431 28.7952C20.439 28.9926 21.0865 28.7295 21.7141 28.3255C21.8861 28.2148 22.0927 28.1438 22.2927 28.0955C22.8961 27.9501 23.5033 27.8189 24.112 27.6974C24.219 27.6757 24.3551 27.6974 24.453 27.7473C25.2844 28.172 26.1637 28.3943 27.1123 28.4502C27.6646 29.2464 28.7171 29.7644 29.3258 29.3186C29.2882 29.107 29.2532 28.9107 29.2043 28.6341C29.037 28.543 28.7875 28.4074 28.4955 28.2479C28.5159 28.4171 28.5315 28.5473 28.5509 28.7057C28.1196 28.723 27.997 28.5158 27.9986 28.1508C27.9991 27.9848 27.9749 27.7267 27.8717 27.6659C26.5697 26.8979 25.3021 26.0441 23.7012 26.0273C21.9889 26.0094 20.2766 25.9227 18.5648 25.9286C18.0071 25.9308 17.4505 26.1298 16.8934 26.2383C16.0082 26.4103 15.1268 26.6077 14.2362 26.7487C12.4276 27.0346 10.6062 27.2477 8.80565 27.5764C7.91993 27.738 7.10142 28.1692 6.57278 28.9557C5.40149 30.6984 4.01078 32.2128 2.32376 33.4695C1.65422 33.968 1.12289 34.6525 0.513045 35.2361C0.374835 35.3679 0.172628 35.4314 0 35.5263C0.0613072 35.3451 0.0704495 35.1092 0.191988 34.9915C1.07718 34.1372 1.93064 33.2358 2.89972 32.4883C3.96292 31.6677 4.86209 30.7001 5.5596 29.5892C6.63893 27.8704 8.21302 27.1045 10.1033 26.8187C11.2009 26.6527 12.3023 26.4515 13.4075 26.413C14.5158 26.3739 15.5021 26.0225 16.3905 25.4437C17.4806 24.7332 18.5718 24.5683 19.735 25.1215C20.8391 25.6466 21.9754 25.7513 23.1714 25.5978C24.218 25.4638 25.1715 25.7735 26.1443 26.196C27.4205 26.7503 28.4336 27.667 29.5727 28.4074C30.0997 28.7502 30.0352 29.407 29.478 29.7275C28.9134 30.0524 28.0975 29.8957 27.4576 29.3972C27.1043 29.1222 26.6955 28.9194 26.2653 28.7892C26.9644 29.6939 27.6668 30.5959 28.3605 31.505C28.524 31.7192 28.6837 31.9443 28.7993 32.1862C29.0161 32.6407 28.8429 32.9526 28.3465 33.0177C28.1158 33.0481 27.8781 33.0253 27.7071 33.1468C27.4065 33.3074 27.1166 33.5715 26.8031 33.604C26.318 33.6545 25.9039 33.3442 25.7281 32.8995C25.4968 32.3148 25.2236 31.838 24.5573 31.7111C24.4675 31.6937 24.3669 31.6156 24.3142 31.537C23.8759 30.8823 23.1758 30.7689 22.3863 30.7006C22.703 31.09 22.9757 31.531 23.3478 31.8559C23.8179 32.266 24.2513 32.6776 24.4057 33.3008C24.6192 34.16 24.2002 34.6167 23.3382 34.4871C23.2553 34.4746 23.1731 34.461 23.0617 34.4431C22.9778 34.7165 22.902 34.9866 22.8122 35.2524C22.6245 35.8073 22.1518 35.9201 21.7947 35.4455C21.5586 35.1314 21.4613 34.7143 21.2758 34.3569C21.2118 34.2327 21.0762 34.0672 20.9638 34.0597C19.3742 33.9474 17.8151 33.4359 16.198 33.6778C16.0663 33.6973 15.9125 33.6491 15.799 33.7C14.4083 34.3249 13.1321 33.917 11.878 33.2786C11.8033 33.2406 11.7258 33.2086 11.6699 33.1831C11.2165 33.5585 10.7148 33.8671 10.3577 34.2978C9.95759 34.781 9.61018 35.343 9.37786 35.926C8.86965 37.1996 8.48567 38.5236 7.97478 39.796C7.75859 40.3352 7.36117 40.8038 7.02183 41.2871C6.9616 41.3728 6.78198 41.3733 6.65721 41.4129C6.66904 41.2925 6.63624 41.1336 6.6997 41.0565C7.84571 39.6691 8.31681 37.9779 8.80028 36.2981C9.1294 35.1553 9.60964 34.1388 10.6739 33.5037C10.8159 33.4191 10.9304 33.2857 11.0493 33.1658C11.1063 33.1083 11.1429 33.0307 11.1827 32.9711V32.9711ZM21.9641 28.5874C22.5788 29.2188 23.2392 29.1911 23.9055 29.1803C24.033 29.1781 24.2551 29.2877 24.2761 29.3815C24.4304 30.0703 25.0999 30.7342 25.8179 30.8894C25.912 30.9094 26.0174 31.0401 26.0545 31.1427C26.3675 32.0072 27.2602 32.6191 28.0873 32.5887C27.9685 32.4151 27.8206 32.1998 27.6732 31.9845C27.8356 31.9785 27.9986 31.9731 28.1793 31.9666C27.9997 31.7528 27.8195 31.5386 27.6797 31.3715C27.4828 31.4524 27.3339 31.5137 27.1849 31.5749C27.1994 31.4057 27.2129 31.2365 27.2279 31.0678C27.2376 30.9599 27.2968 30.8226 27.2516 30.7483C26.6606 29.7709 25.9351 28.9335 24.8956 28.4025C23.8996 27.8937 23.016 28.4844 21.9631 28.5885L21.9641 28.5874ZM18.4497 30.4099C18.4685 30.4343 18.4868 30.4587 18.5056 30.4831C18.6288 30.437 18.7552 30.3974 18.8751 30.3432C19.3102 30.1468 19.8974 30.2553 20.1545 29.6923C20.1674 29.6635 20.3475 29.6625 20.3701 29.6988C20.4142 29.7688 20.4331 29.8865 20.4062 29.964C20.2416 30.4337 20.6982 31.2549 21.1661 31.2848C21.5425 31.3086 21.9211 31.3 22.3379 31.3059C21.8351 30.7239 21.8189 29.7509 20.8337 29.6467C20.7654 29.6397 20.7143 29.5285 20.6423 29.4905C20.4901 29.4113 20.333 29.337 20.1706 29.2812C19.5043 29.0501 19.0757 29.3142 18.8003 29.938C18.7234 30.1127 18.5686 30.2531 18.4492 30.4088L18.4497 30.4099ZM24.1895 30.4473C24.1922 30.9826 24.5138 31.2468 24.8891 31.397C25.443 31.6189 25.8173 31.9541 26.0023 32.5426C26.118 32.9103 26.3928 33.1821 26.8208 33.1831C26.9203 33.1831 27.0198 33.1029 27.1193 33.0595C27.0741 32.9629 27.0526 32.8393 26.98 32.7747C26.2277 32.1076 25.464 31.454 24.7117 30.7868C24.5234 30.6198 24.3142 30.4446 24.2045 30.2266C23.9717 29.7655 23.5694 29.6782 23.1306 29.5854C22.76 29.5073 22.3158 29.4547 22.0615 29.2182C21.6544 28.8402 21.3623 28.9145 20.9612 29.2356C21.3828 29.4281 21.8216 29.5404 22.1497 29.7964C22.7498 30.2656 23.386 30.5249 24.19 30.4468L24.1895 30.4473ZM19.472 25.4839C18.5955 25.0863 17.6339 25.0217 16.8466 25.684C17.6812 25.6205 18.6299 25.5479 19.472 25.4839ZM21.6458 34.1345C21.8652 34.582 22.0394 34.9383 22.2459 35.3598C22.4062 34.9372 22.5207 34.6346 22.6455 34.3064C22.3105 34.249 22.0217 34.1996 21.6463 34.135L21.6458 34.1345ZM20.2497 31.2739C19.9578 30.7134 19.529 30.5616 18.9633 30.8183C19.4285 30.9832 19.8393 31.1286 20.2497 31.2739Z" fill="black"/>
</svg>
